<svg xmlns="http://www.w3.org/2000/svg" width="1420" height="1220" id="bundles" style="margin-left: 20px;"><g transform="translate(20,100)"><g class="x axis" transform="translate(0,90)"><g class="tick" transform="translate(0,0)" style="opacity: 1;"><line y2="-6" x2="0"/><text dy="1em" y="-9" x="0" dx="1em" transform="rotate(290)" style="text-anchor: start;">ARTIFICIAL INTELLIGENCE</text></g><g class="tick" transform="translate(24.324324324324326,0)" style="opacity: 1;"><line y2="-6" x2="0"/><text dy="1em" y="-9" x="0" dx="1em" transform="rotate(290)" style="text-anchor: start;">FORMAL METHODS</text></g><g class="tick" transform="translate(48.64864864864865,0)" style="opacity: 1;"><line y2="-6" x2="0"/><text dy="1em" y="-9" x="0" dx="1em" transform="rotate(290)" style="text-anchor: start;">PROGRAM ANALYSIS</text></g><g class="tick" transform="translate(72.97297297297298,0)" style="opacity: 1;"><line y2="-6" x2="0"/><text dy="1em" y="-9" x="0" dx="1em" transform="rotate(290)" style="text-anchor: start;">SOFTWARE QUALITY</text></g><g class="tick" transform="translate(97.2972972972973,0)" style="opacity: 1;"><line y2="-6" x2="0"/><text dy="1em" y="-9" x="0" dx="1em" transform="rotate(290)" style="text-anchor: start;">HUMAN COMPUTER INTERACTION</text></g><g class="tick" transform="translate(121.62162162162163,0)" style="opacity: 1;"><line y2="-6" x2="0"/><text dy="1em" y="-9" x="0" dx="1em" transform="rotate(290)" style="text-anchor: start;">MAINTENANCE</text></g><g class="tick" transform="translate(145.94594594594597,0)" style="opacity: 1;"><line y2="-6" x2="0"/><text dy="1em" y="-9" x="0" dx="1em" transform="rotate(290)" style="text-anchor: start;">SYNTHESIS</text></g><g class="tick" transform="translate(170.2702702702703,0)" style="opacity: 1;"><line y2="-6" x2="0"/><text dy="1em" y="-9" x="0" dx="1em" transform="rotate(290)" style="text-anchor: start;">METHODOLOGIES</text></g><g class="tick" transform="translate(194.5945945945946,0)" style="opacity: 1;"><line y2="-6" x2="0"/><text dy="1em" y="-9" x="0" dx="1em" transform="rotate(290)" style="text-anchor: start;">RELIABILITY</text></g><g class="tick" transform="translate(218.91891891891893,0)" style="opacity: 1;"><line y2="-6" x2="0"/><text dy="1em" y="-9" x="0" dx="1em" transform="rotate(290)" style="text-anchor: start;">PROGRAM COMPREHENSION</text></g><g class="tick" transform="translate(243.24324324324326,0)" style="opacity: 1;"><line y2="-6" x2="0"/><text dy="1em" y="-9" x="0" dx="1em" transform="rotate(290)" style="text-anchor: start;">ARCHITECTURES</text></g><g class="tick" transform="translate(267.5675675675676,0)" style="opacity: 1;"><line y2="-6" x2="0"/><text dy="1em" y="-9" x="0" dx="1em" transform="rotate(290)" style="text-anchor: start;">EMPIRICAL SOFTWARE ENGINEERING</text></g><g class="tick" transform="translate(291.89189189189193,0)" style="opacity: 1;"><line y2="-6" x2="0"/><text dy="1em" y="-9" x="0" dx="1em" transform="rotate(290)" style="text-anchor: start;">PRODUCT LINES</text></g><g class="tick" transform="translate(316.21621621621625,0)" style="opacity: 1;"><line y2="-6" x2="0"/><text dy="1em" y="-9" x="0" dx="1em" transform="rotate(290)" style="text-anchor: start;">LANGUAGES</text></g><g class="tick" transform="translate(340.5405405405406,0)" style="opacity: 1;"><line y2="-6" x2="0"/><text dy="1em" y="-9" x="0" dx="1em" transform="rotate(290)" style="text-anchor: start;">REVERSE ENGINEERING</text></g><g class="tick" transform="translate(364.8648648648649,0)" style="opacity: 1;"><line y2="-6" x2="0"/><text dy="1em" y="-9" x="0" dx="1em" transform="rotate(290)" style="text-anchor: start;">MODELS</text></g><g class="tick" transform="translate(389.1891891891892,0)" style="opacity: 1;"><line y2="-6" x2="0"/><text dy="1em" y="-9" x="0" dx="1em" transform="rotate(290)" style="text-anchor: start;">METRICS</text></g><g class="tick" transform="translate(413.51351351351354,0)" style="opacity: 1;"><line y2="-6" x2="0"/><text dy="1em" y="-9" x="0" dx="1em" transform="rotate(290)" style="text-anchor: start;">EVOLUTION</text></g><g class="tick" transform="translate(437.83783783783787,0)" style="opacity: 1;"><line y2="-6" x2="0"/><text dy="1em" y="-9" x="0" dx="1em" transform="rotate(290)" style="text-anchor: start;">DISTRIBUTED SYSTEMS</text></g><g class="tick" transform="translate(462.16216216216213,0)" style="opacity: 1;"><line y2="-6" x2="0"/><text dy="1em" y="-9" x="0" dx="1em" transform="rotate(290)" style="text-anchor: start;">EDUCATION</text></g><g class="tick" transform="translate(486.4864864864865,0)" style="opacity: 1;"><line y2="-6" x2="0"/><text dy="1em" y="-9" x="0" dx="1em" transform="rotate(290)" style="text-anchor: start;">INFORMATION SYSTMS</text></g><g class="tick" transform="translate(510.8108108108108,0)" style="opacity: 1;"><line y2="-6" x2="0"/><text dy="1em" y="-9" x="0" dx="1em" transform="rotate(290)" style="text-anchor: start;">REAL TIME SYSTEMS</text></g><g class="tick" transform="translate(535.1351351351352,0)" style="opacity: 1;"><line y2="-6" x2="0"/><text dy="1em" y="-9" x="0" dx="1em" transform="rotate(290)" style="text-anchor: start;">REQUIREMENTS</text></g><g class="tick" transform="translate(559.4594594594595,0)" style="opacity: 1;"><line y2="-6" x2="0"/><text dy="1em" y="-9" x="0" dx="1em" transform="rotate(290)" style="text-anchor: start;">CONCURRENCY</text></g><g class="tick" transform="translate(583.7837837837839,0)" style="opacity: 1;"><line y2="-6" x2="0"/><text dy="1em" y="-9" x="0" dx="1em" transform="rotate(290)" style="text-anchor: start;">TESTING</text></g><g class="tick" transform="translate(608.1081081081081,0)" style="opacity: 1;"><line y2="-6" x2="0"/><text dy="1em" y="-9" x="0" dx="1em" transform="rotate(290)" style="text-anchor: start;">PERFORMANCE</text></g><g class="tick" transform="translate(632.4324324324325,0)" style="opacity: 1;"><line y2="-6" x2="0"/><text dy="1em" y="-9" x="0" dx="1em" transform="rotate(290)" style="text-anchor: start;">DATABASE</text></g><g class="tick" transform="translate(656.7567567567568,0)" style="opacity: 1;"><line y2="-6" x2="0"/><text dy="1em" y="-9" x="0" dx="1em" transform="rotate(290)" style="text-anchor: start;">SERVICES</text></g><g class="tick" transform="translate(681.0810810810812,0)" style="opacity: 1;"><line y2="-6" x2="0"/><text dy="1em" y="-9" x="0" dx="1em" transform="rotate(290)" style="text-anchor: start;">KNOWLEDGE ENGINEERING</text></g><g class="tick" transform="translate(705.4054054054054,0)" style="opacity: 1;"><line y2="-6" x2="0"/><text dy="1em" y="-9" x="0" dx="1em" transform="rotate(290)" style="text-anchor: start;">VISUALIZATION</text></g><g class="tick" transform="translate(729.7297297297298,0)" style="opacity: 1;"><line y2="-6" x2="0"/><text dy="1em" y="-9" x="0" dx="1em" transform="rotate(290)" style="text-anchor: start;">PROCESS</text></g><g class="tick" transform="translate(754.0540540540541,0)" style="opacity: 1;"><line y2="-6" x2="0"/><text dy="1em" y="-9" x="0" dx="1em" transform="rotate(290)" style="text-anchor: start;">ADAPTIVE SYSTEMS</text></g><g class="tick" transform="translate(778.3783783783784,0)" style="opacity: 1;"><line y2="-6" x2="0"/><text dy="1em" y="-9" x="0" dx="1em" transform="rotate(290)" style="text-anchor: start;">ALGORITHM</text></g><g class="tick" transform="translate(802.7027027027027,0)" style="opacity: 1;"><line y2="-6" x2="0"/><text dy="1em" y="-9" x="0" dx="1em" transform="rotate(290)" style="text-anchor: start;">AUTONOMIC SYSTEMS</text></g><g class="tick" transform="translate(827.0270270270271,0)" style="opacity: 1;"><line y2="-6" x2="0"/><text dy="1em" y="-9" x="0" dx="1em" transform="rotate(290)" style="text-anchor: start;">EMBEDDED</text></g><g class="tick" transform="translate(851.3513513513514,0)" style="opacity: 1;"><line y2="-6" x2="0"/><text dy="1em" y="-9" x="0" dx="1em" transform="rotate(290)" style="text-anchor: start;">OPERATING SYSTEMS</text></g><g class="tick" transform="translate(875.6756756756757,0)" style="opacity: 1;"><line y2="-6" x2="0"/><text dy="1em" y="-9" x="0" dx="1em" transform="rotate(290)" style="text-anchor: start;">SECURITY</text></g><g class="tick" transform="translate(900,0)" style="opacity: 1;"><line y2="-6" x2="0"/><text dy="1em" y="-9" x="0" dx="1em" transform="rotate(290)" style="text-anchor: start;"/></g><path class="domain" d="M0,-6V0H900V-6"/></g><g><g class="journal"><circle cx="0" cy="120" r="5.5" style="fill: #17becf;"/><circle cx="24.324324324324326" cy="120" r="5.5" style="fill: #17becf;"/><text/><text/><text y="120" x="930" class="label" style="fill: #17becf;">Completeness of Proof Systems...</text></g><g class="journal"><circle cx="48.64864864864865" cy="140" r="3.4000000000000004" style="fill: #17becf;"/><circle cx="72.97297297297298" cy="140" r="3.4000000000000004" style="fill: #17becf;"/><circle cx="0" cy="140" r="4.8" style="fill: #17becf;"/><circle cx="24.324324324324326" cy="140" r="3.4000000000000004" style="fill: #17becf;"/><text/><text/><text/><text/><text y="140" x="930" class="label" style="fill: #17becf;">Runtime Verification for LTL...</text></g><g class="journal"><circle cx="97.2972972972973" cy="160" r="2.05833333333331" style="fill: #17becf;"/><circle cx="121.62162162162163" cy="160" r="2.688997821351" style="fill: #17becf;"/><circle cx="145.94594594594597" cy="160" r="2.0343137254901698" style="fill: #17becf;"/><circle cx="0" cy="160" r="3.7843137254880004" style="fill: #17becf;"/><circle cx="170.2702702702703" cy="160" r="2.004629629629632" style="fill: #17becf;"/><circle cx="194.5945945945946" cy="160" r="2.0898692810456" style="fill: #17becf;"/><circle cx="218.91891891891893" cy="160" r="2.2575708061002997" style="fill: #17becf;"/><circle cx="243.24324324324326" cy="160" r="3.240196078429" style="fill: #17becf;"/><circle cx="267.5675675675676" cy="160" r="2.06018518518516" style="fill: #17becf;"/><circle cx="291.89189189189193" cy="160" r="2.1029411764703" style="fill: #17becf;"/><circle cx="316.21621621621625" cy="160" r="3.228758169933" style="fill: #17becf;"/><circle cx="340.5405405405406" cy="160" r="2.1111111111109997" style="fill: #17becf;"/><circle cx="364.8648648648649" cy="160" r="2.0797385620913" style="fill: #17becf;"/><circle cx="389.1891891891892" cy="160" r="2.002777777777775" style="fill: #17becf;"/><circle cx="72.97297297297298" cy="160" r="2.6108387799562998" style="fill: #17becf;"/><circle cx="413.51351351351354" cy="160" r="2.02777777777775" style="fill: #17becf;"/><circle cx="24.324324324324326" cy="160" r="2.6176470588232" style="fill: #17becf;"/><text/><text/><text/><text/><text/><text/><text/><text/><text/><text/><text/><text/><text/><text/><text/><text/><text/><text y="160" x="930" class="label" style="fill: #17becf;">Exceptions and aspects: the...</text></g><g class="journal"><circle cx="0" cy="180" r="7.25" style="fill: #17becf;"/><circle cx="24.324324324324326" cy="180" r="3.75" style="fill: #17becf;"/><text/><text/><text y="180" x="930" class="label" style="fill: #17becf;">Management of Change in...</text></g><g class="journal"><circle cx="0" cy="200" r="5.6590909090890005" style="fill: #17becf;"/><circle cx="437.83783783783787" cy="200" r="3.034090909089" style="fill: #17becf;"/><circle cx="462.16216216216213" cy="200" r="2.1590909090911" style="fill: #17becf;"/><circle cx="24.324324324324326" cy="200" r="3.034090909089" style="fill: #17becf;"/><circle cx="486.4864864864865" cy="200" r="2.1590909090911" style="fill: #17becf;"/><circle cx="316.21621621621625" cy="200" r="2.1590909090911" style="fill: #17becf;"/><circle cx="170.2702702702703" cy="200" r="2.1590909090911" style="fill: #17becf;"/><circle cx="364.8648648648649" cy="200" r="2.1590909090911" style="fill: #17becf;"/><circle cx="510.8108108108108" cy="200" r="2.3181818181815" style="fill: #17becf;"/><circle cx="535.1351351351352" cy="200" r="2.1590909090911" style="fill: #17becf;"/><text/><text/><text/><text/><text/><text/><text/><text/><text/><text/><text y="200" x="930" class="label" style="fill: #17becf;">Specification of Time...</text></g><rect width="10" height="450" x="915" y="30" style="fill: #ffffff;"/></g><g><g class="journal"><circle cx="559.4594594594595" cy="220" r="2.5833333333331" style="fill: #1f77b4;"/><circle cx="316.21621621621625" cy="220" r="8.416666666669" style="fill: #1f77b4;"/><text/><text/><text y="220" x="930" class="label" style="fill: #1f77b4;">Separate Compilation and...</text></g><g class="journal"><circle cx="24.324324324324326" cy="240" r="3.4000000000000004" style="fill: #1f77b4;"/><circle cx="316.21621621621625" cy="240" r="7.6" style="fill: #1f77b4;"/><text/><text/><text y="240" x="930" class="label" style="fill: #1f77b4;">The Larch/Smalltalk Interface...</text></g><g class="journal"><circle cx="24.324324324324326" cy="260" r="3.75" style="fill: #1f77b4;"/><circle cx="316.21621621621625" cy="260" r="6.375" style="fill: #1f77b4;"/><circle cx="583.7837837837839" cy="260" r="2.875" style="fill: #1f77b4;"/><text/><text/><text/><text y="260" x="930" class="label" style="fill: #1f77b4;">Accurate Centralization for...</text></g><g class="journal"><circle cx="316.21621621621625" cy="280" r="5.5" style="fill: #1f77b4;"/><circle cx="48.64864864864865" cy="280" r="5.5" style="fill: #1f77b4;"/><text/><text/><text y="280" x="930" class="label" style="fill: #1f77b4;">Towards Increased Productivity...</text></g><g class="journal"><circle cx="24.324324324324326" cy="300" r="3.166666666669" style="fill: #1f77b4;"/><circle cx="316.21621621621625" cy="300" r="6.958333333331" style="fill: #1f77b4;"/><circle cx="121.62162162162163" cy="300" r="2.0729166666669" style="fill: #1f77b4;"/><circle cx="510.8108108108108" cy="300" r="2.5833333333331" style="fill: #1f77b4;"/><circle cx="340.5405405405406" cy="300" r="2.21875" style="fill: #1f77b4;"/><text/><text/><text/><text/><text/><text y="300" x="930" class="label" style="fill: #1f77b4;">Some Classes of Naturally...</text></g><rect width="10" height="450" x="915" y="480" style="fill: #ffffff;"/></g><g><g class="journal"><circle cx="437.83783783783787" cy="320" r="4.333333333331" style="fill: #ff7f0e;"/><circle cx="389.1891891891892" cy="320" r="6.666666666669" style="fill: #ff7f0e;"/><text/><text/><text y="320" x="930" class="label" style="fill: #ff7f0e;">Functional size measurement...</text></g><g class="journal"><circle cx="170.2702702702703" cy="340" r="3.75" style="fill: #ff7f0e;"/><circle cx="389.1891891891892" cy="340" r="7.25" style="fill: #ff7f0e;"/><text/><text/><text y="340" x="930" class="label" style="fill: #ff7f0e;">Connecting Programming...</text></g><g class="journal"><circle cx="170.2702702702703" cy="360" r="5.5" style="fill: #ff7f0e;"/><circle cx="389.1891891891892" cy="360" r="5.5" style="fill: #ff7f0e;"/><text/><text/><text y="360" x="930" class="label" style="fill: #ff7f0e;">Tesseract: Interactive visual...</text></g><g class="journal"><circle cx="24.324324324324326" cy="380" r="3.75" style="fill: #ff7f0e;"/><circle cx="389.1891891891892" cy="380" r="5.5" style="fill: #ff7f0e;"/><circle cx="364.8648648648649" cy="380" r="3.75" style="fill: #ff7f0e;"/><text/><text/><text/><text y="380" x="930" class="label" style="fill: #ff7f0e;">Composing features and...</text></g><g class="journal"><circle cx="24.324324324324326" cy="400" r="2.5833333333331" style="fill: #ff7f0e;"/><circle cx="389.1891891891892" cy="400" r="6.666666666669" style="fill: #ff7f0e;"/><circle cx="364.8648648648649" cy="400" r="2.5833333333331" style="fill: #ff7f0e;"/><circle cx="608.1081081081081" cy="400" r="2.5833333333331" style="fill: #ff7f0e;"/><circle cx="194.5945945945946" cy="400" r="2.5833333333331" style="fill: #ff7f0e;"/><text/><text/><text/><text/><text/><text y="400" x="930" class="label" style="fill: #ff7f0e;">Structured Solution of...</text></g><rect width="10" height="450" x="915" y="930" style="fill: #ffffff;"/></g><g><g class="journal"><circle cx="632.4324324324325" cy="420" r="2.2258064516127" style="fill: #2ca02c;"/><circle cx="121.62162162162163" cy="420" r="2.2258064516127" style="fill: #2ca02c;"/><circle cx="656.7567567567568" cy="420" r="2.2258064516127" style="fill: #2ca02c;"/><circle cx="364.8648648648649" cy="420" r="6.290322580642" style="fill: #2ca02c;"/><circle cx="340.5405405405406" cy="420" r="2.6774193548388" style="fill: #2ca02c;"/><circle cx="486.4864864864865" cy="420" r="2.2258064516127" style="fill: #2ca02c;"/><circle cx="0" cy="420" r="2.2258064516127" style="fill: #2ca02c;"/><circle cx="681.0810810810812" cy="420" r="2.2258064516127" style="fill: #2ca02c;"/><circle cx="24.324324324324326" cy="420" r="2.4516129032261" style="fill: #2ca02c;"/><circle cx="218.91891891891893" cy="420" r="2.2258064516127" style="fill: #2ca02c;"/><text/><text/><text/><text/><text/><text/><text/><text/><text/><text/><text y="420" x="930" class="label" style="fill: #2ca02c;">Identifying Extended...</text></g><g class="journal"><circle cx="364.8648648648649" cy="440" r="7.000000000001999" style="fill: #2ca02c;"/><circle cx="437.83783783783787" cy="440" r="2.999999999999" style="fill: #2ca02c;"/><circle cx="24.324324324324326" cy="440" r="2.999999999999" style="fill: #2ca02c;"/><text/><text/><text/><text y="440" x="930" class="label" style="fill: #2ca02c;">Modeling Mobile IP in Mobile...</text></g><g class="journal"><circle cx="24.324324324324326" cy="460" r="3.75" style="fill: #2ca02c;"/><circle cx="316.21621621621625" cy="460" r="2.875" style="fill: #2ca02c;"/><circle cx="364.8648648648649" cy="460" r="6.375" style="fill: #2ca02c;"/><text/><text/><text/><text y="460" x="930" class="label" style="fill: #2ca02c;">Modeling Class Operations in...</text></g><g class="journal"><circle cx="24.324324324324326" cy="480" r="5.5" style="fill: #2ca02c;"/><circle cx="364.8648648648649" cy="480" r="5.5" style="fill: #2ca02c;"/><text/><text/><text y="480" x="930" class="label" style="fill: #2ca02c;">Customizaton and Compositon of...</text></g><g class="journal"><circle cx="583.7837837837839" cy="500" r="2.35" style="fill: #2ca02c;"/><circle cx="243.24324324324326" cy="500" r="2.2166666666668" style="fill: #2ca02c;"/><circle cx="559.4594594594595" cy="500" r="2.0166666666666497" style="fill: #2ca02c;"/><circle cx="340.5405405405406" cy="500" r="2.00333333333333" style="fill: #2ca02c;"/><circle cx="48.64864864864865" cy="500" r="2.999999999999" style="fill: #2ca02c;"/><circle cx="364.8648648648649" cy="500" r="6.475000000002" style="fill: #2ca02c;"/><circle cx="0" cy="500" r="2.1999999999998" style="fill: #2ca02c;"/><circle cx="218.91891891891893" cy="500" r="2.00999999999999" style="fill: #2ca02c;"/><circle cx="535.1351351351352" cy="500" r="2.0333333333333" style="fill: #2ca02c;"/><circle cx="24.324324324324326" cy="500" r="2.6949999999999" style="fill: #2ca02c;"/><text/><text/><text/><text/><text/><text/><text/><text/><text/><text/><text y="500" x="930" class="label" style="fill: #2ca02c;">From Scenarios to Code: An Air...</text></g><rect width="10" height="450" x="915" y="1380" style="fill: #ffffff;"/></g><g><g class="journal"><circle cx="97.2972972972973" cy="520" r="5.5" style="fill: #d62728;"/><circle cx="170.2702702702703" cy="520" r="5.5" style="fill: #d62728;"/><text/><text/><text y="520" x="930" class="label" style="fill: #d62728;">A Comparison of Software...</text></g><g class="journal"><circle cx="243.24324324324326" cy="540" r="2.4375" style="fill: #d62728;"/><circle cx="267.5675675675676" cy="540" r="3.3125" style="fill: #d62728;"/><circle cx="316.21621621621625" cy="540" r="3.3125" style="fill: #d62728;"/><circle cx="340.5405405405406" cy="540" r="2.4375" style="fill: #d62728;"/><circle cx="72.97297297297298" cy="540" r="2.4375" style="fill: #d62728;"/><circle cx="170.2702702702703" cy="540" r="5.0625" style="fill: #d62728;"/><text/><text/><text/><text/><text/><text/><text y="540" x="930" class="label" style="fill: #d62728;">The impact of software...</text></g><g class="journal"><circle cx="243.24324324324326" cy="560" r="2.999999999999" style="fill: #d62728;"/><circle cx="267.5675675675676" cy="560" r="2.999999999999" style="fill: #d62728;"/><circle cx="170.2702702702703" cy="560" r="4.999999999997" style="fill: #d62728;"/><circle cx="364.8648648648649" cy="560" r="2.999999999999" style="fill: #d62728;"/><circle cx="48.64864864864865" cy="560" r="2.999999999999" style="fill: #d62728;"/><text/><text/><text/><text/><text/><text y="560" x="930" class="label" style="fill: #d62728;">SeDiTeC - Testing Based on...</text></g><g class="journal"><circle cx="97.2972972972973" cy="580" r="5.5" style="fill: #d62728;"/><circle cx="170.2702702702703" cy="580" r="5.5" style="fill: #d62728;"/><text/><text/><text y="580" x="930" class="label" style="fill: #d62728;">Integrating Status and Event...</text></g><g class="journal"><circle cx="97.2972972972973" cy="600" r="4.1" style="fill: #d62728;"/><circle cx="462.16216216216213" cy="600" r="2.7" style="fill: #d62728;"/><circle cx="170.2702702702703" cy="600" r="6.199999999999999" style="fill: #d62728;"/><text/><text/><text/><text y="600" x="930" class="label" style="fill: #d62728;">The Software Engineering...</text></g><rect width="10" height="450" x="915" y="1830" style="fill: #ffffff;"/></g><g><g class="journal"><circle cx="97.2972972972973" cy="620" r="2.5384615384617" style="fill: #9467bd;"/><circle cx="705.4054054054054" cy="620" r="2.02692307692305" style="fill: #9467bd;"/><circle cx="121.62162162162163" cy="620" r="5.4730769230780005" style="fill: #9467bd;"/><circle cx="267.5675675675676" cy="620" r="2.1076923076922" style="fill: #9467bd;"/><circle cx="316.21621621621625" cy="620" r="2.5384615384617" style="fill: #9467bd;"/><circle cx="145.94594594594597" cy="620" r="2.1076923076922" style="fill: #9467bd;"/><circle cx="48.64864864864865" cy="620" r="2.5653846153844" style="fill: #9467bd;"/><circle cx="340.5405405405406" cy="620" r="2.5384615384617" style="fill: #9467bd;"/><circle cx="389.1891891891892" cy="620" r="2.02692307692305" style="fill: #9467bd;"/><circle cx="681.0810810810812" cy="620" r="2.5384615384617" style="fill: #9467bd;"/><circle cx="218.91891891891893" cy="620" r="2.5384615384617" style="fill: #9467bd;"/><text/><text/><text/><text/><text/><text/><text/><text/><text/><text/><text/><text y="620" x="930" class="label" style="fill: #9467bd;">The Desert environment.</text></g><g class="journal"><circle cx="121.62162162162163" cy="640" r="5.5" style="fill: #9467bd;"/><circle cx="364.8648648648649" cy="640" r="3.4000000000000004" style="fill: #9467bd;"/><circle cx="486.4864864864865" cy="640" r="2.7" style="fill: #9467bd;"/><circle cx="535.1351351351352" cy="640" r="3.4000000000000004" style="fill: #9467bd;"/><text/><text/><text/><text/><text y="640" x="930" class="label" style="fill: #9467bd;">An automated approach to...</text></g><g class="journal"><circle cx="705.4054054054054" cy="660" r="2.0390778688030498" style="fill: #9467bd;"/><circle cx="48.64864864864865" cy="660" r="2.000309553637332" style="fill: #9467bd;"/><circle cx="0" cy="660" r="2.1405098283575" style="fill: #9467bd;"/><circle cx="194.5945945945946" cy="660" r="2.03091054499148" style="fill: #9467bd;"/><circle cx="218.91891891891893" cy="660" r="2.04994340728475" style="fill: #9467bd;"/><circle cx="583.7837837837839" cy="660" r="2.004876724054783" style="fill: #9467bd;"/><circle cx="559.4594594594595" cy="660" r="2.04768907048661" style="fill: #9467bd;"/><circle cx="267.5675675675676" cy="660" r="2.02932098162616" style="fill: #9467bd;"/><circle cx="291.89189189189193" cy="660" r="2.4659094069441" style="fill: #9467bd;"/><circle cx="364.8648648648649" cy="660" r="2.3925610435509" style="fill: #9467bd;"/><circle cx="340.5405405405406" cy="660" r="2.0000336958341887" style="fill: #9467bd;"/><circle cx="389.1891891891892" cy="660" r="2.002453700689622" style="fill: #9467bd;"/><circle cx="72.97297297297298" cy="660" r="2.2955349463213" style="fill: #9467bd;"/><circle cx="413.51351351351354" cy="660" r="2.0000664980817766" style="fill: #9467bd;"/><circle cx="24.324324324324326" cy="660" r="2.1010672763765" style="fill: #9467bd;"/><circle cx="97.2972972972973" cy="660" r="2.00972222222223" style="fill: #9467bd;"/><circle cx="121.62162162162163" cy="660" r="5.708236983696" style="fill: #9467bd;"/><circle cx="632.4324324324325" cy="660" r="2.0009644587233892" style="fill: #9467bd;"/><circle cx="145.94594594594597" cy="660" r="2.0770742539448" style="fill: #9467bd;"/><circle cx="486.4864864864865" cy="660" r="2.0097141079823198" style="fill: #9467bd;"/><circle cx="437.83783783783787" cy="660" r="2.002141601547974" style="fill: #9467bd;"/><circle cx="681.0810810810812" cy="660" r="2.01182877620267" style="fill: #9467bd;"/><circle cx="243.24324324324326" cy="660" r="3.395149312606" style="fill: #9467bd;"/><circle cx="656.7567567567568" cy="660" r="2.02495868193959" style="fill: #9467bd;"/><circle cx="729.7297297297298" cy="660" r="2.04770422954507" style="fill: #9467bd;"/><circle cx="462.16216216216213" cy="660" r="2.0073240740741" style="fill: #9467bd;"/><circle cx="316.21621621621625" cy="660" r="2.0572277118989097" style="fill: #9467bd;"/><circle cx="535.1351351351352" cy="660" r="2.04768903857284" style="fill: #9467bd;"/><text/><text/><text/><text/><text/><text/><text/><text/><text/><text/><text/><text/><text/><text/><text/><text/><text/><text/><text/><text/><text/><text/><text/><text/><text/><text/><text/><text/><text y="660" x="930" class="label" style="fill: #9467bd;">Reengineering a Complex...</text></g><g class="journal"><circle cx="97.2972972972973" cy="680" r="2.03600823045267" style="fill: #9467bd;"/><circle cx="121.62162162162163" cy="680" r="4.895061728398" style="fill: #9467bd;"/><circle cx="632.4324324324325" cy="680" r="2.3132716049386" style="fill: #9467bd;"/><circle cx="486.4864864864865" cy="680" r="2.4212962962964" style="fill: #9467bd;"/><circle cx="0" cy="680" r="2.1620370370367" style="fill: #9467bd;"/><circle cx="170.2702702702703" cy="680" r="2.01800411522637" style="fill: #9467bd;"/><circle cx="681.0810810810812" cy="680" r="3.166666666669" style="fill: #9467bd;"/><circle cx="243.24324324324326" cy="680" r="2.259259259259" style="fill: #9467bd;"/><circle cx="267.5675675675676" cy="680" r="2.1620370370367" style="fill: #9467bd;"/><circle cx="462.16216216216213" cy="680" r="2.2160493827163" style="fill: #9467bd;"/><circle cx="316.21621621621625" cy="680" r="3.166666666669" style="fill: #9467bd;"/><circle cx="340.5405405405406" cy="680" r="2.1296296296295" style="fill: #9467bd;"/><circle cx="389.1891891891892" cy="680" r="2.0540123456790402" style="fill: #9467bd;"/><text/><text/><text/><text/><text/><text/><text/><text/><text/><text/><text/><text/><text/><text y="680" x="930" class="label" style="fill: #9467bd;">A Survey of Software Design...</text></g><g class="journal"><circle cx="754.0540540540541" cy="700" r="2.0000378611743477" style="fill: #9467bd;"/><circle cx="778.3783783783784" cy="700" r="2.0013648670816617" style="fill: #9467bd;"/><circle cx="243.24324324324326" cy="700" r="2.0495533115167297" style="fill: #9467bd;"/><circle cx="0" cy="700" r="2.0712086236316" style="fill: #9467bd;"/><circle cx="802.7027027027027" cy="700" r="2.0000007535231807" style="fill: #9467bd;"/><circle cx="559.4594594594595" cy="700" r="2.000676742325324" style="fill: #9467bd;"/><circle cx="632.4324324324325" cy="700" r="2.0199346757992203" style="fill: #9467bd;"/><circle cx="437.83783783783787" cy="700" r="2.1849141484029" style="fill: #9467bd;"/><circle cx="462.16216216216213" cy="700" r="2.0139223498484" style="fill: #9467bd;"/><circle cx="827.0270270270271" cy="700" r="2.001067294035661" style="fill: #9467bd;"/><circle cx="267.5675675675676" cy="700" r="2.05407157711627" style="fill: #9467bd;"/><circle cx="413.51351351351354" cy="700" r="2.0460368345696702" style="fill: #9467bd;"/><circle cx="24.324324324324326" cy="700" r="2.03775673415612" style="fill: #9467bd;"/><circle cx="97.2972972972973" cy="700" r="2.0177089953712" style="fill: #9467bd;"/><circle cx="486.4864864864865" cy="700" r="2.1985285407679" style="fill: #9467bd;"/><circle cx="681.0810810810812" cy="700" r="2.2004794481081" style="fill: #9467bd;"/><circle cx="316.21621621621625" cy="700" r="3.454032479704" style="fill: #9467bd;"/><circle cx="121.62162162162163" cy="700" r="5.433427767392001" style="fill: #9467bd;"/><circle cx="170.2702702702703" cy="700" r="2.00742858138533" style="fill: #9467bd;"/><circle cx="389.1891891891892" cy="700" r="2.03744975977967" style="fill: #9467bd;"/><circle cx="364.8648648648649" cy="700" r="2.05873193510723" style="fill: #9467bd;"/><circle cx="851.3513513513514" cy="700" r="2.004682586858992" style="fill: #9467bd;"/><circle cx="608.1081081081081" cy="700" r="2.0085719300429" style="fill: #9467bd;"/><circle cx="729.7297297297298" cy="700" r="2.0095483310377" style="fill: #9467bd;"/><circle cx="291.89189189189193" cy="700" r="2.0023432928085" style="fill: #9467bd;"/><circle cx="48.64864864864865" cy="700" r="2.05922950510974" style="fill: #9467bd;"/><circle cx="218.91891891891893" cy="700" r="2.3800539563366003" style="fill: #9467bd;"/><circle cx="510.8108108108108" cy="700" r="2.00899016860889" style="fill: #9467bd;"/><circle cx="194.5945945945946" cy="700" r="2.0876761768666" style="fill: #9467bd;"/><circle cx="535.1351351351352" cy="700" r="2.0143683537746" style="fill: #9467bd;"/><circle cx="340.5405405405406" cy="700" r="2.396225793628" style="fill: #9467bd;"/><circle cx="875.6756756756757" cy="700" r="2.001426459510336" style="fill: #9467bd;"/><circle cx="656.7567567567568" cy="700" r="2.00906207529948" style="fill: #9467bd;"/><circle cx="72.97297297297298" cy="700" r="2.03760103159512" style="fill: #9467bd;"/><circle cx="145.94594594594597" cy="700" r="2.0268936131149" style="fill: #9467bd;"/><circle cx="583.7837837837839" cy="700" r="2.05480052047603" style="fill: #9467bd;"/><circle cx="705.4054054054054" cy="700" r="2.01019292413398" style="fill: #9467bd;"/><text/><text/><text/><text/><text/><text/><text/><text/><text/><text/><text/><text/><text/><text/><text/><text/><text/><text/><text/><text/><text/><text/><text/><text/><text/><text/><text/><text/><text/><text/><text/><text/><text/><text/><text/><text/><text/><text y="700" x="930" class="label" style="fill: #9467bd;">FAST: A Second Generation...</text></g><rect width="10" height="450" x="915" y="2280" style="fill: #ffffff;"/></g><g><g class="journal"><circle cx="97.2972972972973" cy="720" r="2.002173913043477" style="fill: #8c564b;"/><circle cx="121.62162162162163" cy="720" r="3.131918564525" style="fill: #8c564b;"/><circle cx="48.64864864864865" cy="720" r="2.0028985507246357" style="fill: #8c564b;"/><circle cx="0" cy="720" r="2.0869565217388" style="fill: #8c564b;"/><circle cx="170.2702702702703" cy="720" r="2.1564225327812" style="fill: #8c564b;"/><circle cx="681.0810810810812" cy="720" r="2.000724637681159" style="fill: #8c564b;"/><circle cx="194.5945945945946" cy="720" r="2.005693581780537" style="fill: #8c564b;"/><circle cx="218.91891891891893" cy="720" r="2.05006901311251" style="fill: #8c564b;"/><circle cx="583.7837837837839" cy="720" r="2.6612318840582" style="fill: #8c564b;"/><circle cx="243.24324324324326" cy="720" r="2.0010351966873707" style="fill: #8c564b;"/><circle cx="267.5675675675676" cy="720" r="2.5475845410630003" style="fill: #8c564b;"/><circle cx="316.21621621621625" cy="720" r="2.0046583850931663" style="fill: #8c564b;"/><circle cx="364.8648648648649" cy="720" r="2.001863354037265" style="fill: #8c564b;"/><circle cx="340.5405405405406" cy="720" r="2.02877846790889" style="fill: #8c564b;"/><circle cx="389.1891891891892" cy="720" r="6.266058488614999" style="fill: #8c564b;"/><circle cx="72.97297297297298" cy="720" r="2.04437543133198" style="fill: #8c564b;"/><circle cx="413.51351351351354" cy="720" r="2.00175983436853" style="fill: #8c564b;"/><circle cx="24.324324324324326" cy="720" r="2.005797101449272" style="fill: #8c564b;"/><text/><text/><text/><text/><text/><text/><text/><text/><text/><text/><text/><text/><text/><text/><text/><text/><text/><text/><text y="720" x="930" class="label" style="fill: #8c564b;">Parallel changes in...</text></g><g class="journal"><circle cx="705.4054054054054" cy="740" r="2.3181818181815" style="fill: #8c564b;"/><circle cx="121.62162162162163" cy="740" r="2.3363636363633" style="fill: #8c564b;"/><circle cx="48.64864864864865" cy="740" r="2.6363636363636997" style="fill: #8c564b;"/><circle cx="0" cy="740" r="2.02045454545456" style="fill: #8c564b;"/><circle cx="681.0810810810812" cy="740" r="2.6681818181815" style="fill: #8c564b;"/><circle cx="194.5945945945946" cy="740" r="2.0181818181818" style="fill: #8c564b;"/><circle cx="218.91891891891893" cy="740" r="2.002272727272725" style="fill: #8c564b;"/><circle cx="583.7837837837839" cy="740" r="2.35" style="fill: #8c564b;"/><circle cx="267.5675675675676" cy="740" r="2.3363636363633" style="fill: #8c564b;"/><circle cx="316.21621621621625" cy="740" r="2.3340909090911" style="fill: #8c564b;"/><circle cx="340.5405405405406" cy="740" r="2.04772727272726" style="fill: #8c564b;"/><circle cx="389.1891891891892" cy="740" r="5.9000000000010004" style="fill: #8c564b;"/><circle cx="72.97297297297298" cy="740" r="2.01590909090911" style="fill: #8c564b;"/><circle cx="413.51351351351354" cy="740" r="2.01590909090911" style="fill: #8c564b;"/><text/><text/><text/><text/><text/><text/><text/><text/><text/><text/><text/><text/><text/><text/><text y="740" x="930" class="label" style="fill: #8c564b;">Automatic Identification of...</text></g><g class="journal"><circle cx="267.5675675675676" cy="760" r="5.5" style="fill: #8c564b;"/><circle cx="389.1891891891892" cy="760" r="5.5" style="fill: #8c564b;"/><text/><text/><text y="760" x="930" class="label" style="fill: #8c564b;">Portfolio management of...</text></g><g class="journal"><circle cx="267.5675675675676" cy="780" r="5.5" style="fill: #8c564b;"/><circle cx="389.1891891891892" cy="780" r="5.5" style="fill: #8c564b;"/><text/><text/><text y="780" x="930" class="label" style="fill: #8c564b;">Relevancy based semantic...</text></g><g class="journal"><circle cx="705.4054054054054" cy="800" r="2.0075431034483" style="fill: #8c564b;"/><circle cx="121.62162162162163" cy="800" r="2.0875" style="fill: #8c564b;"/><circle cx="48.64864864864865" cy="800" r="2.0075431034483" style="fill: #8c564b;"/><circle cx="486.4864864864865" cy="800" r="2.5099137931034" style="fill: #8c564b;"/><circle cx="437.83783783783787" cy="800" r="2.1206896551721" style="fill: #8c564b;"/><circle cx="0" cy="800" r="2.2353448275864" style="fill: #8c564b;"/><circle cx="194.5945945945946" cy="800" r="2.7874999999999996" style="fill: #8c564b;"/><circle cx="681.0810810810812" cy="800" r="2.06034482758619" style="fill: #8c564b;"/><circle cx="583.7837837837839" cy="800" r="2.1206896551721" style="fill: #8c564b;"/><circle cx="267.5675675675676" cy="800" r="4.41681034483" style="fill: #8c564b;"/><circle cx="316.21621621621625" cy="800" r="2.1206896551721" style="fill: #8c564b;"/><circle cx="364.8648648648649" cy="800" r="2.03017241379313" style="fill: #8c564b;"/><circle cx="389.1891891891892" cy="800" r="4.106034482762" style="fill: #8c564b;"/><circle cx="72.97297297297298" cy="800" r="2.2413793103449" style="fill: #8c564b;"/><circle cx="535.1351351351352" cy="800" r="2.06034482758619" style="fill: #8c564b;"/><circle cx="24.324324324324326" cy="800" r="2.0875" style="fill: #8c564b;"/><text/><text/><text/><text/><text/><text/><text/><text/><text/><text/><text/><text/><text/><text/><text/><text/><text y="800" x="930" class="label" style="fill: #8c564b;">Estimeetings: Development...</text></g><rect width="10" height="450" x="915" y="2730" style="fill: #ffffff;"/></g><g><g class="journal"><circle cx="364.8648648648649" cy="820" r="5.5" style="fill: #e377c2;"/><circle cx="535.1351351351352" cy="820" r="5.5" style="fill: #e377c2;"/><text/><text/><text y="820" x="930" class="label" style="fill: #e377c2;">Metamodel-based model...</text></g><g class="journal"><circle cx="364.8648648648649" cy="840" r="3.75" style="fill: #e377c2;"/><circle cx="535.1351351351352" cy="840" r="7.25" style="fill: #e377c2;"/><text/><text/><text y="840" x="930" class="label" style="fill: #e377c2;">An Analysis-Revision Cycle to...</text></g><g class="journal"><circle cx="437.83783783783787" cy="860" r="2.777777777777" style="fill: #e377c2;"/><circle cx="364.8648648648649" cy="860" r="2.777777777777" style="fill: #e377c2;"/><circle cx="535.1351351351352" cy="860" r="7.444444444445999" style="fill: #e377c2;"/><text/><text/><text/><text y="860" x="930" class="label" style="fill: #e377c2;">Requirements engineering: from...</text></g><g class="journal"><circle cx="510.8108108108108" cy="880" r="2.1780095452268" style="fill: #e377c2;"/><circle cx="754.0540540540541" cy="880" r="2.0000216449807464" style="fill: #e377c2;"/><circle cx="802.7027027027027" cy="880" r="2.0000374286734686" style="fill: #e377c2;"/><circle cx="48.64864864864865" cy="880" r="2.0000761113909125" style="fill: #e377c2;"/><circle cx="608.1081081081081" cy="880" r="2.000591962906969" style="fill: #e377c2;"/><circle cx="851.3513513513514" cy="880" r="2.000074857346937" style="fill: #e377c2;"/><circle cx="0" cy="880" r="2.00215654125652" style="fill: #e377c2;"/><circle cx="194.5945945945946" cy="880" r="2.5616698847452" style="fill: #e377c2;"/><circle cx="218.91891891891893" cy="880" r="2.003212800175186" style="fill: #e377c2;"/><circle cx="583.7837837837839" cy="880" r="2.01333986070263" style="fill: #e377c2;"/><circle cx="559.4594594594595" cy="880" r="2.00010961992001" style="fill: #e377c2;"/><circle cx="291.89189189189193" cy="880" r="2.000033899165632" style="fill: #e377c2;"/><circle cx="364.8648648648649" cy="880" r="2.9726915415070003" style="fill: #e377c2;"/><circle cx="340.5405405405406" cy="880" r="2.0000358860704797" style="fill: #e377c2;"/><circle cx="389.1891891891892" cy="880" r="2.0002403846153847" style="fill: #e377c2;"/><circle cx="72.97297297297298" cy="880" r="2.00511793036888" style="fill: #e377c2;"/><circle cx="413.51351351351354" cy="880" r="2.00007288440693" style="fill: #e377c2;"/><circle cx="24.324324324324326" cy="880" r="3.205827166572" style="fill: #e377c2;"/><circle cx="97.2972972972973" cy="880" r="2.0045623880515357" style="fill: #e377c2;"/><circle cx="632.4324324324325" cy="880" r="2.05854016089971" style="fill: #e377c2;"/><circle cx="121.62162162162163" cy="880" r="2.005216878664109" style="fill: #e377c2;"/><circle cx="145.94594594594597" cy="880" r="2.000455267077894" style="fill: #e377c2;"/><circle cx="486.4864864864865" cy="880" r="2.001216392517886" style="fill: #e377c2;"/><circle cx="437.83783783783787" cy="880" r="2.002736426253106" style="fill: #e377c2;"/><circle cx="170.2702702702703" cy="880" r="2.000108098302564" style="fill: #e377c2;"/><circle cx="681.0810810810812" cy="880" r="2.03465709833054" style="fill: #e377c2;"/><circle cx="243.24324324324326" cy="880" r="2.0342817218331" style="fill: #e377c2;"/><circle cx="827.0270270270271" cy="880" r="2.0000023933797935" style="fill: #e377c2;"/><circle cx="656.7567567567568" cy="880" r="2.002441063517522" style="fill: #e377c2;"/><circle cx="316.21621621621625" cy="880" r="2.06783024276147" style="fill: #e377c2;"/><circle cx="462.16216216216213" cy="880" r="2.000002838248163" style="fill: #e377c2;"/><circle cx="875.6756756756757" cy="880" r="2.03004686377483" style="fill: #e377c2;"/><circle cx="535.1351351351352" cy="880" r="5.814582216361" style="fill: #e377c2;"/><text/><text/><text/><text/><text/><text/><text/><text/><text/><text/><text/><text/><text/><text/><text/><text/><text/><text/><text/><text/><text/><text/><text/><text/><text/><text/><text/><text/><text/><text/><text/><text/><text/><text y="880" x="930" class="label" style="fill: #e377c2;">Where Do Operations Come From:...</text></g><g class="journal"><circle cx="97.2972972972973" cy="900" r="2.0000222222222224" style="fill: #e377c2;"/><circle cx="121.62162162162163" cy="900" r="2.3923381226051" style="fill: #e377c2;"/><circle cx="632.4324324324325" cy="900" r="2.0002011494252874" style="fill: #e377c2;"/><circle cx="486.4864864864865" cy="900" r="2.6087245484404002" style="fill: #e377c2;"/><circle cx="437.83783783783787" cy="900" r="2.04063122605367" style="fill: #e377c2;"/><circle cx="0" cy="900" r="2.28710030104" style="fill: #e377c2;"/><circle cx="194.5945945945946" cy="900" r="2.01144999999997" style="fill: #e377c2;"/><circle cx="681.0810810810812" cy="900" r="2.1408323754789" style="fill: #e377c2;"/><circle cx="218.91891891891893" cy="900" r="2.00005" style="fill: #e377c2;"/><circle cx="583.7837837837839" cy="900" r="2.0001867816091954" style="fill: #e377c2;"/><circle cx="243.24324324324326" cy="900" r="2.02512931034481" style="fill: #e377c2;"/><circle cx="656.7567567567568" cy="900" r="2.001307183908044" style="fill: #e377c2;"/><circle cx="559.4594594594595" cy="900" r="2.0000833333333334" style="fill: #e377c2;"/><circle cx="729.7297297297298" cy="900" r="2.01508620689653" style="fill: #e377c2;"/><circle cx="316.21621621621625" cy="900" r="2.01971264367814" style="fill: #e377c2;"/><circle cx="291.89189189189193" cy="900" r="2.004827586206898" style="fill: #e377c2;"/><circle cx="364.8648648648649" cy="900" r="2.4845024083193" style="fill: #e377c2;"/><circle cx="340.5405405405406" cy="900" r="2.01586149425287" style="fill: #e377c2;"/><circle cx="875.6756756756757" cy="900" r="2.0002341269841266" style="fill: #e377c2;"/><circle cx="72.97297297297298" cy="900" r="2.000981321839078" style="fill: #e377c2;"/><circle cx="413.51351351351354" cy="900" r="2.04525862068966" style="fill: #e377c2;"/><circle cx="24.324324324324326" cy="900" r="2.0071287356322" style="fill: #e377c2;"/><circle cx="535.1351351351352" cy="900" r="6.89835030104" style="fill: #e377c2;"/><text/><text/><text/><text/><text/><text/><text/><text/><text/><text/><text/><text/><text/><text/><text/><text/><text/><text/><text/><text/><text/><text/><text/><text y="900" x="930" class="label" style="fill: #e377c2;">The Use of Goals to Surface...</text></g><rect width="10" height="450" x="915" y="3180" style="fill: #ffffff;"/></g><g><g class="journal"><circle cx="243.24324324324326" cy="920" r="2.4385717147434" style="fill: #7f7f7f;"/><circle cx="0" cy="920" r="2.0432624606778003" style="fill: #7f7f7f;"/><circle cx="462.16216216216213" cy="920" r="2.328125" style="fill: #7f7f7f;"/><circle cx="267.5675675675676" cy="920" r="5.158888573568" style="fill: #7f7f7f;"/><circle cx="413.51351351351354" cy="920" r="2.000020032051282" style="fill: #7f7f7f;"/><circle cx="97.2972972972973" cy="920" r="2.0000420673076924" style="fill: #7f7f7f;"/><circle cx="486.4864864864865" cy="920" r="2.002524038461539" style="fill: #7f7f7f;"/><circle cx="316.21621621621625" cy="920" r="2.2187700320512" style="fill: #7f7f7f;"/><circle cx="121.62162162162163" cy="920" r="2.2634530990322" style="fill: #7f7f7f;"/><circle cx="170.2702702702703" cy="920" r="2.01080580781105" style="fill: #7f7f7f;"/><circle cx="389.1891891891892" cy="920" r="2.1296842169693" style="fill: #7f7f7f;"/><circle cx="364.8648648648649" cy="920" r="3.771612951094" style="fill: #7f7f7f;"/><circle cx="291.89189189189193" cy="920" r="2.0004206730769236" style="fill: #7f7f7f;"/><circle cx="218.91891891891893" cy="920" r="2.271655982906" style="fill: #7f7f7f;"/><circle cx="194.5945945945946" cy="920" r="2.2917067307693" style="fill: #7f7f7f;"/><circle cx="340.5405405405406" cy="920" r="2.03715194310898" style="fill: #7f7f7f;"/><circle cx="72.97297297297298" cy="920" r="2.03288400329417" style="fill: #7f7f7f;"/><circle cx="145.94594594594597" cy="920" r="2.0004206730769236" style="fill: #7f7f7f;"/><text/><text/><text/><text/><text/><text/><text/><text/><text/><text/><text/><text/><text/><text/><text/><text/><text/><text/><text y="920" x="930" class="label" style="fill: #7f7f7f;">The Optimal Class Size for...</text></g><g class="journal"><circle cx="267.5675675675676" cy="940" r="7.6" style="fill: #7f7f7f;"/><circle cx="218.91891891891893" cy="940" r="3.4000000000000004" style="fill: #7f7f7f;"/><text/><text/><text y="940" x="930" class="label" style="fill: #7f7f7f;">Power laws in software.</text></g><g class="journal"><circle cx="267.5675675675676" cy="960" r="5.645833333331" style="fill: #7f7f7f;"/><circle cx="121.62162162162163" cy="960" r="2.2916666666668997" style="fill: #7f7f7f;"/><circle cx="170.2702702702703" cy="960" r="3.020833333331" style="fill: #7f7f7f;"/><circle cx="389.1891891891892" cy="960" r="2.875" style="fill: #7f7f7f;"/><circle cx="218.91891891891893" cy="960" r="2.1458333333331003" style="fill: #7f7f7f;"/><circle cx="194.5945945945946" cy="960" r="2.875" style="fill: #7f7f7f;"/><circle cx="72.97297297297298" cy="960" r="2.1458333333331003" style="fill: #7f7f7f;"/><text/><text/><text/><text/><text/><text/><text/><text y="960" x="930" class="label" style="fill: #7f7f7f;">Can developer-module networks...</text></g><g class="journal"><circle cx="121.62162162162163" cy="980" r="2.3929824561404" style="fill: #7f7f7f;"/><circle cx="486.4864864864865" cy="980" r="2.02456140350874" style="fill: #7f7f7f;"/><circle cx="437.83783783783787" cy="980" r="2.3684210526318" style="fill: #7f7f7f;"/><circle cx="681.0810810810812" cy="980" r="2.0706140350874" style="fill: #7f7f7f;"/><circle cx="218.91891891891893" cy="980" r="2.04912280701755" style="fill: #7f7f7f;"/><circle cx="243.24324324324326" cy="980" r="2.0921052631576003" style="fill: #7f7f7f;"/><circle cx="267.5675675675676" cy="980" r="4.3026315789469995" style="fill: #7f7f7f;"/><circle cx="316.21621621621625" cy="980" r="3.105263157894" style="fill: #7f7f7f;"/><circle cx="340.5405405405406" cy="980" r="2.3929824561404" style="fill: #7f7f7f;"/><circle cx="364.8648648648649" cy="980" r="3.2526315789469997" style="fill: #7f7f7f;"/><circle cx="389.1891891891892" cy="980" r="2.02456140350874" style="fill: #7f7f7f;"/><circle cx="72.97297297297298" cy="980" r="2.1166666666669" style="fill: #7f7f7f;"/><circle cx="24.324324324324326" cy="980" r="2.8074561403510003" style="fill: #7f7f7f;"/><text/><text/><text/><text/><text/><text/><text/><text/><text/><text/><text/><text/><text/><text y="980" x="930" class="label" style="fill: #7f7f7f;">Precise Specification and...</text></g><g class="journal"><circle cx="243.24324324324326" cy="1000" r="2.5894097222223" style="fill: #7f7f7f;"/><circle cx="0" cy="1000" r="2.002769863880973" style="fill: #7f7f7f;"/><circle cx="437.83783783783787" cy="1000" r="2.004050925925928" style="fill: #7f7f7f;"/><circle cx="267.5675675675676" cy="1000" r="5.504819563154" style="fill: #7f7f7f;"/><circle cx="413.51351351351354" cy="1000" r="2.0052973646723617" style="fill: #7f7f7f;"/><circle cx="486.4864864864865" cy="1000" r="2.5995370370367" style="fill: #7f7f7f;"/><circle cx="681.0810810810812" cy="1000" r="2.0749421296295" style="fill: #7f7f7f;"/><circle cx="316.21621621621625" cy="1000" r="2.04861111111108" style="fill: #7f7f7f;"/><circle cx="121.62162162162163" cy="1000" r="2.06595738366574" style="fill: #7f7f7f;"/><circle cx="170.2702702702703" cy="1000" r="2.5870726495725" style="fill: #7f7f7f;"/><circle cx="364.8648648648649" cy="1000" r="2.745124544948" style="fill: #7f7f7f;"/><circle cx="218.91891891891893" cy="1000" r="2.01737050886354" style="fill: #7f7f7f;"/><circle cx="535.1351351351352" cy="1000" r="2.72302103118" style="fill: #7f7f7f;"/><circle cx="340.5405405405406" cy="1000" r="2.019873773346" style="fill: #7f7f7f;"/><circle cx="72.97297297297298" cy="1000" r="2.01011692782527" style="fill: #7f7f7f;"/><circle cx="583.7837837837839" cy="1000" r="2.002025462962964" style="fill: #7f7f7f;"/><text/><text/><text/><text/><text/><text/><text/><text/><text/><text/><text/><text/><text/><text/><text/><text/><text y="1000" x="930" class="label" style="fill: #7f7f7f;">From Software Requirements to...</text></g><rect width="10" height="450" x="915" y="3630" style="fill: #ffffff;"/></g><g><g class="journal"><circle cx="851.3513513513514" cy="1020" r="5.5" style="fill: #bcbd22;"/><circle cx="608.1081081081081" cy="1020" r="5.5" style="fill: #bcbd22;"/><text/><text/><text y="1020" x="930" class="label" style="fill: #bcbd22;">A Parallel Processor Operating...</text></g><g class="journal"><circle cx="97.2972972972973" cy="1040" r="2.6666666666667" style="fill: #bcbd22;"/><circle cx="583.7837837837839" cy="1040" r="2.333333333333" style="fill: #bcbd22;"/><circle cx="267.5675675675676" cy="1040" r="2.333333333333" style="fill: #bcbd22;"/><circle cx="608.1081081081081" cy="1040" r="4.333333333331" style="fill: #bcbd22;"/><circle cx="72.97297297297298" cy="1040" r="2.6666666666667" style="fill: #bcbd22;"/><circle cx="194.5945945945946" cy="1040" r="2.333333333333" style="fill: #bcbd22;"/><circle cx="24.324324324324326" cy="1040" r="4.333333333331" style="fill: #bcbd22;"/><text/><text/><text/><text/><text/><text/><text/><text y="1040" x="930" class="label" style="fill: #bcbd22;">Using Failure Cost Information...</text></g><g class="journal"><circle cx="121.62162162162163" cy="1060" r="5.5" style="fill: #bcbd22;"/><circle cx="608.1081081081081" cy="1060" r="5.5" style="fill: #bcbd22;"/><text/><text/><text y="1060" x="930" class="label" style="fill: #bcbd22;">Automating the performance...</text></g><g class="journal"><circle cx="243.24324324324326" cy="1080" r="3.999999999998" style="fill: #bcbd22;"/><circle cx="608.1081081081081" cy="1080" r="4.999999999997" style="fill: #bcbd22;"/><circle cx="656.7567567567568" cy="1080" r="3.999999999998" style="fill: #bcbd22;"/><text/><text/><text/><text y="1080" x="930" class="label" style="fill: #bcbd22;">Efficient online monitoring of...</text></g><g class="journal"><circle cx="851.3513513513514" cy="1100" r="7.444444444445999" style="fill: #bcbd22;"/><circle cx="608.1081081081081" cy="1100" r="3.555555555554" style="fill: #bcbd22;"/><text/><text/><text y="1100" x="930" class="label" style="fill: #bcbd22;">An Experiment in Program...</text></g><rect width="10" height="450" x="915" y="4080" style="fill: #ffffff;"/></g></g></svg>
