<svg xmlns="http://www.w3.org/2000/svg" width="1420" height="1220" id="bundles" style="margin-left: 20px;"><g transform="translate(20,100)"><g class="x axis" transform="translate(0,90)"><g class="tick" transform="translate(0,0)" style="opacity: 1;"><line y2="-6" x2="0"/><text dy="1em" y="-9" x="0" dx="1em" transform="rotate(290)" style="text-anchor: start;">ARCHITECTURES</text></g><g class="tick" transform="translate(24.324324324324326,0)" style="opacity: 1;"><line y2="-6" x2="0"/><text dy="1em" y="-9" x="0" dx="1em" transform="rotate(290)" style="text-anchor: start;">EMPIRICAL SOFTWARE ENGINEERING</text></g><g class="tick" transform="translate(48.64864864864865,0)" style="opacity: 1;"><line y2="-6" x2="0"/><text dy="1em" y="-9" x="0" dx="1em" transform="rotate(290)" style="text-anchor: start;">SOFTWARE QUALITY</text></g><g class="tick" transform="translate(72.97297297297298,0)" style="opacity: 1;"><line y2="-6" x2="0"/><text dy="1em" y="-9" x="0" dx="1em" transform="rotate(290)" style="text-anchor: start;">RELIABILITY</text></g><g class="tick" transform="translate(97.2972972972973,0)" style="opacity: 1;"><line y2="-6" x2="0"/><text dy="1em" y="-9" x="0" dx="1em" transform="rotate(290)" style="text-anchor: start;">PROGRAM ANALYSIS</text></g><g class="tick" transform="translate(121.62162162162163,0)" style="opacity: 1;"><line y2="-6" x2="0"/><text dy="1em" y="-9" x="0" dx="1em" transform="rotate(290)" style="text-anchor: start;">ARTIFICIAL INTELLIGENCE</text></g><g class="tick" transform="translate(145.94594594594597,0)" style="opacity: 1;"><line y2="-6" x2="0"/><text dy="1em" y="-9" x="0" dx="1em" transform="rotate(290)" style="text-anchor: start;">FORMAL METHODS</text></g><g class="tick" transform="translate(170.2702702702703,0)" style="opacity: 1;"><line y2="-6" x2="0"/><text dy="1em" y="-9" x="0" dx="1em" transform="rotate(290)" style="text-anchor: start;">HUMAN COMPUTER INTERACTION</text></g><g class="tick" transform="translate(194.5945945945946,0)" style="opacity: 1;"><line y2="-6" x2="0"/><text dy="1em" y="-9" x="0" dx="1em" transform="rotate(290)" style="text-anchor: start;">LANGUAGES</text></g><g class="tick" transform="translate(218.91891891891893,0)" style="opacity: 1;"><line y2="-6" x2="0"/><text dy="1em" y="-9" x="0" dx="1em" transform="rotate(290)" style="text-anchor: start;">PROGRAM COMPREHENSION</text></g><g class="tick" transform="translate(243.24324324324326,0)" style="opacity: 1;"><line y2="-6" x2="0"/><text dy="1em" y="-9" x="0" dx="1em" transform="rotate(290)" style="text-anchor: start;">REVERSE ENGINEERING</text></g><g class="tick" transform="translate(267.5675675675676,0)" style="opacity: 1;"><line y2="-6" x2="0"/><text dy="1em" y="-9" x="0" dx="1em" transform="rotate(290)" style="text-anchor: start;">SERVICES</text></g><g class="tick" transform="translate(291.89189189189193,0)" style="opacity: 1;"><line y2="-6" x2="0"/><text dy="1em" y="-9" x="0" dx="1em" transform="rotate(290)" style="text-anchor: start;">TESTING</text></g><g class="tick" transform="translate(316.21621621621625,0)" style="opacity: 1;"><line y2="-6" x2="0"/><text dy="1em" y="-9" x="0" dx="1em" transform="rotate(290)" style="text-anchor: start;">METRICS</text></g><g class="tick" transform="translate(340.5405405405406,0)" style="opacity: 1;"><line y2="-6" x2="0"/><text dy="1em" y="-9" x="0" dx="1em" transform="rotate(290)" style="text-anchor: start;">MAINTENANCE</text></g><g class="tick" transform="translate(364.8648648648649,0)" style="opacity: 1;"><line y2="-6" x2="0"/><text dy="1em" y="-9" x="0" dx="1em" transform="rotate(290)" style="text-anchor: start;">METHODOLOGIES</text></g><g class="tick" transform="translate(389.1891891891892,0)" style="opacity: 1;"><line y2="-6" x2="0"/><text dy="1em" y="-9" x="0" dx="1em" transform="rotate(290)" style="text-anchor: start;">EVOLUTION</text></g><g class="tick" transform="translate(413.51351351351354,0)" style="opacity: 1;"><line y2="-6" x2="0"/><text dy="1em" y="-9" x="0" dx="1em" transform="rotate(290)" style="text-anchor: start;">DISTRIBUTED SYSTEMS</text></g><g class="tick" transform="translate(437.83783783783787,0)" style="opacity: 1;"><line y2="-6" x2="0"/><text dy="1em" y="-9" x="0" dx="1em" transform="rotate(290)" style="text-anchor: start;">ALGORITHM</text></g><g class="tick" transform="translate(462.16216216216213,0)" style="opacity: 1;"><line y2="-6" x2="0"/><text dy="1em" y="-9" x="0" dx="1em" transform="rotate(290)" style="text-anchor: start;">DATABASE</text></g><g class="tick" transform="translate(486.4864864864865,0)" style="opacity: 1;"><line y2="-6" x2="0"/><text dy="1em" y="-9" x="0" dx="1em" transform="rotate(290)" style="text-anchor: start;">REAL TIME SYSTEMS</text></g><g class="tick" transform="translate(510.8108108108108,0)" style="opacity: 1;"><line y2="-6" x2="0"/><text dy="1em" y="-9" x="0" dx="1em" transform="rotate(290)" style="text-anchor: start;">PERFORMANCE</text></g><g class="tick" transform="translate(535.1351351351352,0)" style="opacity: 1;"><line y2="-6" x2="0"/><text dy="1em" y="-9" x="0" dx="1em" transform="rotate(290)" style="text-anchor: start;">CONCURRENCY</text></g><g class="tick" transform="translate(559.4594594594595,0)" style="opacity: 1;"><line y2="-6" x2="0"/><text dy="1em" y="-9" x="0" dx="1em" transform="rotate(290)" style="text-anchor: start;">MODELS</text></g><g class="tick" transform="translate(583.7837837837839,0)" style="opacity: 1;"><line y2="-6" x2="0"/><text dy="1em" y="-9" x="0" dx="1em" transform="rotate(290)" style="text-anchor: start;">SYNTHESIS</text></g><g class="tick" transform="translate(608.1081081081081,0)" style="opacity: 1;"><line y2="-6" x2="0"/><text dy="1em" y="-9" x="0" dx="1em" transform="rotate(290)" style="text-anchor: start;">INFORMATION SYSTMS</text></g><g class="tick" transform="translate(632.4324324324325,0)" style="opacity: 1;"><line y2="-6" x2="0"/><text dy="1em" y="-9" x="0" dx="1em" transform="rotate(290)" style="text-anchor: start;">KNOWLEDGE ENGINEERING</text></g><g class="tick" transform="translate(656.7567567567568,0)" style="opacity: 1;"><line y2="-6" x2="0"/><text dy="1em" y="-9" x="0" dx="1em" transform="rotate(290)" style="text-anchor: start;">EMBEDDED</text></g><g class="tick" transform="translate(681.0810810810812,0)" style="opacity: 1;"><line y2="-6" x2="0"/><text dy="1em" y="-9" x="0" dx="1em" transform="rotate(290)" style="text-anchor: start;">EDUCATION</text></g><g class="tick" transform="translate(705.4054054054054,0)" style="opacity: 1;"><line y2="-6" x2="0"/><text dy="1em" y="-9" x="0" dx="1em" transform="rotate(290)" style="text-anchor: start;">REQUIREMENTS</text></g><g class="tick" transform="translate(729.7297297297298,0)" style="opacity: 1;"><line y2="-6" x2="0"/><text dy="1em" y="-9" x="0" dx="1em" transform="rotate(290)" style="text-anchor: start;">VISUALIZATION</text></g><g class="tick" transform="translate(754.0540540540541,0)" style="opacity: 1;"><line y2="-6" x2="0"/><text dy="1em" y="-9" x="0" dx="1em" transform="rotate(290)" style="text-anchor: start;">ADAPTIVE SYSTEMS</text></g><g class="tick" transform="translate(778.3783783783784,0)" style="opacity: 1;"><line y2="-6" x2="0"/><text dy="1em" y="-9" x="0" dx="1em" transform="rotate(290)" style="text-anchor: start;">PRODUCT LINES</text></g><g class="tick" transform="translate(802.7027027027027,0)" style="opacity: 1;"><line y2="-6" x2="0"/><text dy="1em" y="-9" x="0" dx="1em" transform="rotate(290)" style="text-anchor: start;">OPERATING SYSTEMS</text></g><g class="tick" transform="translate(827.0270270270271,0)" style="opacity: 1;"><line y2="-6" x2="0"/><text dy="1em" y="-9" x="0" dx="1em" transform="rotate(290)" style="text-anchor: start;">SECURITY</text></g><g class="tick" transform="translate(851.3513513513514,0)" style="opacity: 1;"><line y2="-6" x2="0"/><text dy="1em" y="-9" x="0" dx="1em" transform="rotate(290)" style="text-anchor: start;">PROCESS</text></g><g class="tick" transform="translate(875.6756756756757,0)" style="opacity: 1;"><line y2="-6" x2="0"/><text dy="1em" y="-9" x="0" dx="1em" transform="rotate(290)" style="text-anchor: start;">AUTONOMIC SYSTEMS</text></g><g class="tick" transform="translate(900,0)" style="opacity: 1;"><line y2="-6" x2="0"/><text dy="1em" y="-9" x="0" dx="1em" transform="rotate(290)" style="text-anchor: start;"/></g><path class="domain" d="M0,-6V0H900V-6"/></g><g><g class="journal"><circle cx="0" cy="120" r="2.999999999999" style="fill: #17becf;"/><circle cx="24.324324324324326" cy="120" r="2.999999999999" style="fill: #17becf;"/><circle cx="48.64864864864865" cy="120" r="6.000000000003" style="fill: #17becf;"/><circle cx="72.97297297297298" cy="120" r="2.999999999999" style="fill: #17becf;"/><text/><text/><text/><text/><text y="120" x="930" class="label" style="fill: #17becf;">A Ranking of Software...</text></g><g class="journal"><circle cx="97.2972972972973" cy="140" r="3.4000000000000004" style="fill: #17becf;"/><circle cx="48.64864864864865" cy="140" r="3.4000000000000004" style="fill: #17becf;"/><circle cx="121.62162162162163" cy="140" r="4.8" style="fill: #17becf;"/><circle cx="145.94594594594597" cy="140" r="3.4000000000000004" style="fill: #17becf;"/><text/><text/><text/><text/><text y="140" x="930" class="label" style="fill: #17becf;">Runtime Verification for LTL...</text></g><g class="journal"><circle cx="170.2702702702703" cy="160" r="3.999999999998" style="fill: #17becf;"/><circle cx="194.5945945945946" cy="160" r="2.5000000000002" style="fill: #17becf;"/><circle cx="218.91891891891893" cy="160" r="2.5000000000002" style="fill: #17becf;"/><circle cx="243.24324324324326" cy="160" r="3.500000000002" style="fill: #17becf;"/><circle cx="267.5675675675676" cy="160" r="2.5000000000002" style="fill: #17becf;"/><circle cx="291.89189189189193" cy="160" r="3.999999999998" style="fill: #17becf;"/><text/><text/><text/><text/><text/><text/><text y="160" x="930" class="label" style="fill: #17becf;">Debugging reinvented: asking...</text></g><g class="journal"><circle cx="24.324324324324326" cy="180" r="5.5" style="fill: #17becf;"/><circle cx="316.21621621621625" cy="180" r="5.5" style="fill: #17becf;"/><text/><text/><text y="180" x="930" class="label" style="fill: #17becf;">Relevancy based semantic...</text></g><g class="journal"><circle cx="24.324324324324326" cy="200" r="2.2500000000001" style="fill: #17becf;"/><circle cx="145.94594594594597" cy="200" r="7.750000000003" style="fill: #17becf;"/><circle cx="97.2972972972973" cy="200" r="2.999999999999" style="fill: #17becf;"/><text/><text/><text/><text y="200" x="930" class="label" style="fill: #17becf;">A Tool for Automated System...</text></g><rect width="10" height="450" x="915" y="30" style="fill: #ffffff;"/></g><g><g class="journal"><circle cx="340.5405405405406" cy="220" r="4.916666666669" style="fill: #1f77b4;"/><circle cx="24.324324324324326" cy="220" r="2.7" style="fill: #1f77b4;"/><circle cx="316.21621621621625" cy="220" r="3.8666666666690004" style="fill: #1f77b4;"/><circle cx="364.8648648648649" cy="220" r="2.1166666666669" style="fill: #1f77b4;"/><circle cx="389.1891891891892" cy="220" r="2.7" style="fill: #1f77b4;"/><circle cx="218.91891891891893" cy="220" r="2.7" style="fill: #1f77b4;"/><text/><text/><text/><text/><text/><text/><text y="220" x="930" class="label" style="fill: #1f77b4;">The FreeBSD Project: A...</text></g><g class="journal"><circle cx="145.94594594594597" cy="240" r="3.4000000000000004" style="fill: #1f77b4;"/><circle cx="194.5945945945946" cy="240" r="7.6" style="fill: #1f77b4;"/><text/><text/><text y="240" x="930" class="label" style="fill: #1f77b4;">The Larch/Smalltalk Interface...</text></g><g class="journal"><circle cx="413.51351351351354" cy="260" r="4.333333333331" style="fill: #1f77b4;"/><circle cx="145.94594594594597" cy="260" r="6.666666666669" style="fill: #1f77b4;"/><text/><text/><text y="260" x="930" class="label" style="fill: #1f77b4;">Automated Verification of...</text></g><g class="journal"><circle cx="145.94594594594597" cy="280" r="3.4000000000000004" style="fill: #1f77b4;"/><circle cx="194.5945945945946" cy="280" r="3.4000000000000004" style="fill: #1f77b4;"/><circle cx="97.2972972972973" cy="280" r="3.4000000000000004" style="fill: #1f77b4;"/><circle cx="291.89189189189193" cy="280" r="4.8" style="fill: #1f77b4;"/><text/><text/><text/><text/><text y="280" x="930" class="label" style="fill: #1f77b4;">Calysto: scalable and precise...</text></g><g class="journal"><circle cx="194.5945945945946" cy="300" r="5.5" style="fill: #1f77b4;"/><circle cx="97.2972972972973" cy="300" r="5.5" style="fill: #1f77b4;"/><text/><text/><text y="300" x="930" class="label" style="fill: #1f77b4;">Towards Increased Productivity...</text></g><rect width="10" height="450" x="915" y="480" style="fill: #ffffff;"/></g><g><g class="journal"><circle cx="437.83783783783787" cy="320" r="5.5" style="fill: #ff7f0e;"/><circle cx="462.16216216216213" cy="320" r="5.5" style="fill: #ff7f0e;"/><text/><text/><text y="320" x="930" class="label" style="fill: #ff7f0e;">Improving Quicksort...</text></g><g class="journal"><circle cx="486.4864864864865" cy="340" r="2.5689062500002002" style="fill: #ff7f0e;"/><circle cx="97.2972972972973" cy="340" r="2.271510416667" style="fill: #ff7f0e;"/><circle cx="510.8108108108108" cy="340" r="2.003366274928772" style="fill: #ff7f0e;"/><circle cx="121.62162162162163" cy="340" r="2.03752769510581" style="fill: #ff7f0e;"/><circle cx="72.97297297297298" cy="340" r="2.1422155448721" style="fill: #ff7f0e;"/><circle cx="218.91891891891893" cy="340" r="2.04092105516975" style="fill: #ff7f0e;"/><circle cx="291.89189189189193" cy="340" r="2.001035686728398" style="fill: #ff7f0e;"/><circle cx="24.324324324324326" cy="340" r="2.06853986510693" style="fill: #ff7f0e;"/><circle cx="535.1351351351352" cy="340" r="2.4382809744271" style="fill: #ff7f0e;"/><circle cx="243.24324324324326" cy="340" r="2.000261921985229" style="fill: #ff7f0e;"/><circle cx="559.4594594594595" cy="340" r="2.1051063659527003" style="fill: #ff7f0e;"/><circle cx="316.21621621621625" cy="340" r="2.000301600285324" style="fill: #ff7f0e;"/><circle cx="48.64864864864865" cy="340" r="2.0002030055849502" style="fill: #ff7f0e;"/><circle cx="145.94594594594597" cy="340" r="3.2430887229109997" style="fill: #ff7f0e;"/><circle cx="170.2702702702703" cy="340" r="2.003645833333331" style="fill: #ff7f0e;"/><circle cx="340.5405405405406" cy="340" r="2.003788459683645" style="fill: #ff7f0e;"/><circle cx="462.16216216216213" cy="340" r="2.0000626929012344" style="fill: #ff7f0e;"/><circle cx="583.7837837837839" cy="340" r="2.000068290481702" style="fill: #ff7f0e;"/><circle cx="608.1081081081081" cy="340" r="2.04750599371693" style="fill: #ff7f0e;"/><circle cx="413.51351351351354" cy="340" r="3.274982638888" style="fill: #ff7f0e;"/><circle cx="632.4324324324325" cy="340" r="2.005749198717948" style="fill: #ff7f0e;"/><circle cx="0" cy="340" r="2.3408515295549" style="fill: #ff7f0e;"/><circle cx="656.7567567567568" cy="340" r="2.006770833333334" style="fill: #ff7f0e;"/><circle cx="267.5675675675676" cy="340" r="2.01877031716357" style="fill: #ff7f0e;"/><circle cx="194.5945945945946" cy="340" r="2.875062692903" style="fill: #ff7f0e;"/><circle cx="681.0810810810812" cy="340" r="2.1458333333331003" style="fill: #ff7f0e;"/><circle cx="705.4054054054054" cy="340" r="3.355642806266" style="fill: #ff7f0e;"/><text/><text/><text/><text/><text/><text/><text/><text/><text/><text/><text/><text/><text/><text/><text/><text/><text/><text/><text/><text/><text/><text/><text/><text/><text/><text/><text/><text y="340" x="930" class="label" style="fill: #ff7f0e;">Object-Oriented Logical...</text></g><g class="journal"><circle cx="364.8648648648649" cy="360" r="3.75" style="fill: #ff7f0e;"/><circle cx="316.21621621621625" cy="360" r="7.25" style="fill: #ff7f0e;"/><text/><text/><text y="360" x="930" class="label" style="fill: #ff7f0e;">Connecting Programming...</text></g><g class="journal"><circle cx="364.8648648648649" cy="380" r="5.5" style="fill: #ff7f0e;"/><circle cx="316.21621621621625" cy="380" r="5.5" style="fill: #ff7f0e;"/><text/><text/><text y="380" x="930" class="label" style="fill: #ff7f0e;">Tesseract: Interactive visual...</text></g><g class="journal"><circle cx="316.21621621621625" cy="400" r="5.5" style="fill: #ff7f0e;"/><circle cx="48.64864864864865" cy="400" r="5.5" style="fill: #ff7f0e;"/><text/><text/><text y="400" x="930" class="label" style="fill: #ff7f0e;">Experiences in Improving Risk...</text></g><rect width="10" height="450" x="915" y="930" style="fill: #ffffff;"/></g><g><g class="journal"><circle cx="608.1081081081081" cy="420" r="5.5" style="fill: #2ca02c;"/><circle cx="632.4324324324325" cy="420" r="5.5" style="fill: #2ca02c;"/><text/><text/><text y="420" x="930" class="label" style="fill: #2ca02c;">Programming with Streams in a...</text></g><g class="journal"><circle cx="145.94594594594597" cy="440" r="5.5" style="fill: #2ca02c;"/><circle cx="194.5945945945946" cy="440" r="5.5" style="fill: #2ca02c;"/><text/><text/><text y="440" x="930" class="label" style="fill: #2ca02c;">Foundations of incremental...</text></g><g class="journal"><circle cx="145.94594594594597" cy="460" r="3.75" style="fill: #2ca02c;"/><circle cx="194.5945945945946" cy="460" r="2.875" style="fill: #2ca02c;"/><circle cx="559.4594594594595" cy="460" r="6.375" style="fill: #2ca02c;"/><text/><text/><text/><text y="460" x="930" class="label" style="fill: #2ca02c;">Modeling Class Operations in...</text></g><g class="journal"><circle cx="121.62162162162163" cy="480" r="3.4000000000000004" style="fill: #2ca02c;"/><circle cx="145.94594594594597" cy="480" r="3.4000000000000004" style="fill: #2ca02c;"/><circle cx="170.2702702702703" cy="480" r="3.4000000000000004" style="fill: #2ca02c;"/><circle cx="559.4594594594595" cy="480" r="3.4000000000000004" style="fill: #2ca02c;"/><circle cx="729.7297297297298" cy="480" r="3.4000000000000004" style="fill: #2ca02c;"/><text/><text/><text/><text/><text/><text y="480" x="930" class="label" style="fill: #2ca02c;">Towards the principled design...</text></g><g class="journal"><circle cx="413.51351351351354" cy="500" r="2.1249999999997" style="fill: #2ca02c;"/><circle cx="656.7567567567568" cy="500" r="2.0078124999999902" style="fill: #2ca02c;"/><circle cx="145.94594594594597" cy="500" r="3.7578125000030003" style="fill: #2ca02c;"/><circle cx="170.2702702702703" cy="500" r="2.0624999999999902" style="fill: #2ca02c;"/><circle cx="194.5945945945946" cy="500" r="2.0624999999999902" style="fill: #2ca02c;"/><circle cx="340.5405405405406" cy="500" r="2.0703124999997" style="fill: #2ca02c;"/><circle cx="364.8648648648649" cy="500" r="2.0267857142856798" style="fill: #2ca02c;"/><circle cx="72.97297297297298" cy="500" r="6.437500000003" style="fill: #2ca02c;"/><circle cx="243.24324324324326" cy="500" r="2.0624999999999902" style="fill: #2ca02c;"/><circle cx="48.64864864864865" cy="500" r="2.2287946428572" style="fill: #2ca02c;"/><circle cx="291.89189189189193" cy="500" r="2.1584821428568" style="fill: #2ca02c;"/><text/><text/><text/><text/><text/><text/><text/><text/><text/><text/><text/><text y="500" x="930" class="label" style="fill: #2ca02c;">Specification-based Testing of...</text></g><rect width="10" height="450" x="915" y="1380" style="fill: #ffffff;"/></g><g><g class="journal"><circle cx="170.2702702702703" cy="520" r="5.5" style="fill: #d62728;"/><circle cx="364.8648648648649" cy="520" r="5.5" style="fill: #d62728;"/><text/><text/><text y="520" x="930" class="label" style="fill: #d62728;">A Comparison of Software...</text></g><g class="journal"><circle cx="608.1081081081081" cy="540" r="5.5" style="fill: #d62728;"/><circle cx="340.5405405405406" cy="540" r="5.5" style="fill: #d62728;"/><text/><text/><text y="540" x="930" class="label" style="fill: #d62728;">The role of outcome feedback...</text></g><g class="journal"><circle cx="364.8648648648649" cy="560" r="3.75" style="fill: #d62728;"/><circle cx="316.21621621621625" cy="560" r="7.25" style="fill: #d62728;"/><text/><text/><text y="560" x="930" class="label" style="fill: #d62728;">Connecting Programming...</text></g><g class="journal"><circle cx="486.4864864864865" cy="580" r="2.00974186307521" style="fill: #d62728;"/><circle cx="754.0540540540541" cy="580" r="2.00117845117845" style="fill: #d62728;"/><circle cx="97.2972972972973" cy="580" r="2.0916545080437" style="fill: #d62728;"/><circle cx="121.62162162162163" cy="580" r="2.001262626262625" style="fill: #d62728;"/><circle cx="72.97297297297298" cy="580" r="2.0159864639662697" style="fill: #d62728;"/><circle cx="218.91891891891893" cy="580" r="2.838127104374" style="fill: #d62728;"/><circle cx="291.89189189189193" cy="580" r="2.1286640468631" style="fill: #d62728;"/><circle cx="24.324324324324326" cy="580" r="2.0037820332959217" style="fill: #d62728;"/><circle cx="535.1351351351352" cy="580" r="2.03268799102135" style="fill: #d62728;"/><circle cx="778.3783783783784" cy="580" r="2.00117845117845" style="fill: #d62728;"/><circle cx="243.24324324324326" cy="580" r="2.0191393097643298" style="fill: #d62728;"/><circle cx="559.4594594594595" cy="580" r="3.474382716051" style="fill: #d62728;"/><circle cx="316.21621621621625" cy="580" r="2.0000876823793488" style="fill: #d62728;"/><circle cx="48.64864864864865" cy="580" r="2.03253037136545" style="fill: #d62728;"/><circle cx="145.94594594594597" cy="580" r="2.5444594671621" style="fill: #d62728;"/><circle cx="462.16216216216213" cy="580" r="2.005089786756453" style="fill: #d62728;"/><circle cx="340.5405405405406" cy="580" r="2.0123491863075" style="fill: #d62728;"/><circle cx="583.7837837837839" cy="580" r="2.005348625140292" style="fill: #d62728;"/><circle cx="608.1081081081081" cy="580" r="2.01334175084172" style="fill: #d62728;"/><circle cx="413.51351351351354" cy="580" r="2.1195940890382" style="fill: #d62728;"/><circle cx="632.4324324324325" cy="580" r="2.06186868686866" style="fill: #d62728;"/><circle cx="0" cy="580" r="2.4296726170233" style="fill: #d62728;"/><circle cx="656.7567567567568" cy="580" r="2.0006285072951737" style="fill: #d62728;"/><circle cx="267.5675675675676" cy="580" r="2.04795082047875" style="fill: #d62728;"/><circle cx="681.0810810810812" cy="580" r="2.00458286569398" style="fill: #d62728;"/><circle cx="194.5945945945946" cy="580" r="2.0309819576234" style="fill: #d62728;"/><circle cx="705.4054054054054" cy="580" r="5.073728020951" style="fill: #d62728;"/><text/><text/><text/><text/><text/><text/><text/><text/><text/><text/><text/><text/><text/><text/><text/><text/><text/><text/><text/><text/><text/><text/><text/><text/><text/><text/><text/><text y="580" x="930" class="label" style="fill: #d62728;">Constructing Multi-Formalism...</text></g><g class="journal"><circle cx="170.2702702702703" cy="600" r="5.5" style="fill: #d62728;"/><circle cx="364.8648648648649" cy="600" r="5.5" style="fill: #d62728;"/><text/><text/><text y="600" x="930" class="label" style="fill: #d62728;">Integrating Status and Event...</text></g><rect width="10" height="450" x="915" y="1830" style="fill: #ffffff;"/></g><g><g class="journal"><circle cx="194.5945945945946" cy="620" r="3.75" style="fill: #9467bd;"/><circle cx="413.51351351351354" cy="620" r="3.75" style="fill: #9467bd;"/><circle cx="72.97297297297298" cy="620" r="3.75" style="fill: #9467bd;"/><circle cx="145.94594594594597" cy="620" r="3.75" style="fill: #9467bd;"/><text/><text/><text/><text/><text y="620" x="930" class="label" style="fill: #9467bd;">A Highly Available Local...</text></g><g class="journal"><circle cx="0" cy="640" r="3.68" style="fill: #9467bd;"/><circle cx="462.16216216216213" cy="640" r="2.56" style="fill: #9467bd;"/><circle cx="632.4324324324325" cy="640" r="4.8" style="fill: #9467bd;"/><circle cx="705.4054054054054" cy="640" r="3.4000000000000004" style="fill: #9467bd;"/><circle cx="267.5675675675676" cy="640" r="2.56" style="fill: #9467bd;"/><text/><text/><text/><text/><text/><text y="640" x="930" class="label" style="fill: #9467bd;">A Hierarchy-aware Approach to...</text></g><g class="journal"><circle cx="340.5405405405406" cy="660" r="5.5" style="fill: #9467bd;"/><circle cx="559.4594594594595" cy="660" r="3.4000000000000004" style="fill: #9467bd;"/><circle cx="608.1081081081081" cy="660" r="2.7" style="fill: #9467bd;"/><circle cx="705.4054054054054" cy="660" r="3.4000000000000004" style="fill: #9467bd;"/><text/><text/><text/><text/><text y="660" x="930" class="label" style="fill: #9467bd;">An automated approach to...</text></g><g class="journal"><circle cx="632.4324324324325" cy="680" r="5.5" style="fill: #9467bd;"/><circle cx="340.5405405405406" cy="680" r="5.5" style="fill: #9467bd;"/><text/><text/><text y="680" x="930" class="label" style="fill: #9467bd;">Effort estimation from change...</text></g><g class="journal"><circle cx="170.2702702702703" cy="700" r="4.333333333331" style="fill: #9467bd;"/><circle cx="0" cy="700" r="3.166666666669" style="fill: #9467bd;"/><circle cx="316.21621621621625" cy="700" r="4.333333333331" style="fill: #9467bd;"/><circle cx="218.91891891891893" cy="700" r="3.166666666669" style="fill: #9467bd;"/><text/><text/><text/><text/><text y="700" x="930" class="label" style="fill: #9467bd;">Empirical evidence of the...</text></g><rect width="10" height="450" x="915" y="2280" style="fill: #ffffff;"/></g><g><g class="journal"><circle cx="802.7027027027027" cy="720" r="5.5" style="fill: #8c564b;"/><circle cx="510.8108108108108" cy="720" r="5.5" style="fill: #8c564b;"/><text/><text/><text y="720" x="930" class="label" style="fill: #8c564b;">An Analysis of Swapping...</text></g><g class="journal"><circle cx="24.324324324324326" cy="740" r="7.6" style="fill: #8c564b;"/><circle cx="218.91891891891893" cy="740" r="3.4000000000000004" style="fill: #8c564b;"/><text/><text/><text y="740" x="930" class="label" style="fill: #8c564b;">Power laws in software.</text></g><g class="journal"><circle cx="364.8648648648649" cy="760" r="3.75" style="fill: #8c564b;"/><circle cx="316.21621621621625" cy="760" r="7.25" style="fill: #8c564b;"/><text/><text/><text y="760" x="930" class="label" style="fill: #8c564b;">Connecting Programming...</text></g><g class="journal"><circle cx="170.2702702702703" cy="780" r="2.001288888888889" style="fill: #8c564b;"/><circle cx="462.16216216216213" cy="780" r="2.01166666666669" style="fill: #8c564b;"/><circle cx="340.5405405405406" cy="780" r="2.0056111111111092" style="fill: #8c564b;"/><circle cx="608.1081081081081" cy="780" r="2.3060238095236" style="fill: #8c564b;"/><circle cx="413.51351351351354" cy="780" r="2.0232777777778" style="fill: #8c564b;"/><circle cx="121.62162162162163" cy="780" r="2.3184841269841003" style="fill: #8c564b;"/><circle cx="72.97297297297298" cy="780" r="2.6640999999998" style="fill: #8c564b;"/><circle cx="632.4324324324325" cy="780" r="2.0016111111111132" style="fill: #8c564b;"/><circle cx="218.91891891891893" cy="780" r="2.002900000000002" style="fill: #8c564b;"/><circle cx="291.89189189189193" cy="780" r="2.01083333333334" style="fill: #8c564b;"/><circle cx="0" cy="780" r="2.2908333333332003" style="fill: #8c564b;"/><circle cx="267.5675675675676" cy="780" r="2.075816666667" style="fill: #8c564b;"/><circle cx="535.1351351351352" cy="780" r="2.004833333333332" style="fill: #8c564b;"/><circle cx="778.3783783783784" cy="780" r="2.28" style="fill: #8c564b;"/><circle cx="194.5945945945946" cy="780" r="3.1433333333310003" style="fill: #8c564b;"/><circle cx="559.4594594594595" cy="780" r="2.1011396825397" style="fill: #8c564b;"/><circle cx="243.24324324324326" cy="780" r="2.04496666666667" style="fill: #8c564b;"/><circle cx="827.0270270270271" cy="780" r="2.01357936507935" style="fill: #8c564b;"/><circle cx="48.64864864864865" cy="780" r="2.05691666666665" style="fill: #8c564b;"/><circle cx="705.4054054054054" cy="780" r="5.22931746032" style="fill: #8c564b;"/><circle cx="145.94594594594597" cy="780" r="2.4134666666669" style="fill: #8c564b;"/><text/><text/><text/><text/><text/><text/><text/><text/><text/><text/><text/><text/><text/><text/><text/><text/><text/><text/><text/><text/><text/><text y="780" x="930" class="label" style="fill: #8c564b;">Agent-based tactics for...</text></g><g class="journal"><circle cx="24.324324324324326" cy="800" r="5.5" style="fill: #8c564b;"/><circle cx="316.21621621621625" cy="800" r="5.5" style="fill: #8c564b;"/><text/><text/><text y="800" x="930" class="label" style="fill: #8c564b;">Relevancy based semantic...</text></g><rect width="10" height="450" x="915" y="2730" style="fill: #ffffff;"/></g><g><g class="journal"><circle cx="535.1351351351352" cy="820" r="6.666666666669" style="fill: #e377c2;"/><circle cx="559.4594594594595" cy="820" r="4.333333333331" style="fill: #e377c2;"/><text/><text/><text y="820" x="930" class="label" style="fill: #e377c2;">A Control-Flow Analysis for a...</text></g><g class="journal"><circle cx="413.51351351351354" cy="840" r="4.333333333331" style="fill: #e377c2;"/><circle cx="316.21621621621625" cy="840" r="6.666666666669" style="fill: #e377c2;"/><text/><text/><text y="840" x="930" class="label" style="fill: #e377c2;">Functional size measurement...</text></g><g class="journal"><circle cx="559.4594594594595" cy="860" r="3.75" style="fill: #e377c2;"/><circle cx="705.4054054054054" cy="860" r="7.25" style="fill: #e377c2;"/><text/><text/><text y="860" x="930" class="label" style="fill: #e377c2;">An Analysis-Revision Cycle to...</text></g><g class="journal"><circle cx="413.51351351351354" cy="880" r="2.777777777777" style="fill: #e377c2;"/><circle cx="559.4594594594595" cy="880" r="2.777777777777" style="fill: #e377c2;"/><circle cx="705.4054054054054" cy="880" r="7.444444444445999" style="fill: #e377c2;"/><text/><text/><text/><text y="880" x="930" class="label" style="fill: #e377c2;">Requirements engineering: from...</text></g><g class="journal"><circle cx="754.0540540540541" cy="900" r="2.001359437684178" style="fill: #e377c2;"/><circle cx="437.83783783783787" cy="900" r="2.00022798376464" style="fill: #e377c2;"/><circle cx="0" cy="900" r="2.05074286780458" style="fill: #e377c2;"/><circle cx="121.62162162162163" cy="900" r="2.2016764799294" style="fill: #e377c2;"/><circle cx="535.1351351351352" cy="900" r="2.0000000020505544" style="fill: #e377c2;"/><circle cx="462.16216216216213" cy="900" r="2.1419399866395" style="fill: #e377c2;"/><circle cx="413.51351351351354" cy="900" r="2.004095455318479" style="fill: #e377c2;"/><circle cx="681.0810810810812" cy="900" r="2.04765646796967" style="fill: #e377c2;"/><circle cx="656.7567567567568" cy="900" r="2.001466268067684" style="fill: #e377c2;"/><circle cx="24.324324324324326" cy="900" r="2.2610789180321" style="fill: #e377c2;"/><circle cx="389.1891891891892" cy="900" r="2.0003532080517825" style="fill: #e377c2;"/><circle cx="145.94594594594597" cy="900" r="2.2577788575467" style="fill: #e377c2;"/><circle cx="170.2702702702703" cy="900" r="2.01421831389762" style="fill: #e377c2;"/><circle cx="608.1081081081081" cy="900" r="2.1779629942986003" style="fill: #e377c2;"/><circle cx="632.4324324324325" cy="900" r="2.1557832064733002" style="fill: #e377c2;"/><circle cx="194.5945945945946" cy="900" r="2.4694689910344" style="fill: #e377c2;"/><circle cx="340.5405405405406" cy="900" r="2.5117761981338997" style="fill: #e377c2;"/><circle cx="364.8648648648649" cy="900" r="2.1080501364775" style="fill: #e377c2;"/><circle cx="316.21621621621625" cy="900" r="2.01898990018576" style="fill: #e377c2;"/><circle cx="559.4594594594595" cy="900" r="2.02647668136337" style="fill: #e377c2;"/><circle cx="802.7027027027027" cy="900" r="2.01395893131689" style="fill: #e377c2;"/><circle cx="510.8108108108108" cy="900" r="3.7500000188369995" style="fill: #e377c2;"/><circle cx="851.3513513513514" cy="900" r="2.000218973748753" style="fill: #e377c2;"/><circle cx="778.3783783783784" cy="900" r="2.000558583890937" style="fill: #e377c2;"/><circle cx="97.2972972972973" cy="900" r="2.1873047740893" style="fill: #e377c2;"/><circle cx="218.91891891891893" cy="900" r="2.2576341836992" style="fill: #e377c2;"/><circle cx="486.4864864864865" cy="900" r="2.0473008883009602" style="fill: #e377c2;"/><circle cx="72.97297297297298" cy="900" r="2.6698646822308" style="fill: #e377c2;"/><circle cx="705.4054054054054" cy="900" r="2.001262852029362" style="fill: #e377c2;"/><circle cx="243.24324324324326" cy="900" r="2.02302986933443" style="fill: #e377c2;"/><circle cx="827.0270270270271" cy="900" r="2.002686649966511" style="fill: #e377c2;"/><circle cx="267.5675675675676" cy="900" r="2.02682967251748" style="fill: #e377c2;"/><circle cx="48.64864864864865" cy="900" r="2.6708284489536" style="fill: #e377c2;"/><circle cx="583.7837837837839" cy="900" r="2.00841402498328" style="fill: #e377c2;"/><circle cx="291.89189189189193" cy="900" r="2.865766960114" style="fill: #e377c2;"/><circle cx="729.7297297297298" cy="900" r="2.02323813127027" style="fill: #e377c2;"/><text/><text/><text/><text/><text/><text/><text/><text/><text/><text/><text/><text/><text/><text/><text/><text/><text/><text/><text/><text/><text/><text/><text/><text/><text/><text/><text/><text/><text/><text/><text/><text/><text/><text/><text/><text/><text y="900" x="930" class="label" style="fill: #e377c2;">ATLAS - An Automated Software...</text></g><rect width="10" height="450" x="915" y="3180" style="fill: #ffffff;"/></g><g><g class="journal"><circle cx="486.4864864864865" cy="920" r="2.0000686274509802" style="fill: #7f7f7f;"/><circle cx="754.0540540540541" cy="920" r="2.001619858469705" style="fill: #7f7f7f;"/><circle cx="97.2972972972973" cy="920" r="2.0046540486409903" style="fill: #7f7f7f;"/><circle cx="802.7027027027027" cy="920" r="2.001619858469705" style="fill: #7f7f7f;"/><circle cx="121.62162162162163" cy="920" r="2.0000935828877004" style="fill: #7f7f7f;"/><circle cx="72.97297297297298" cy="920" r="2.06420655571099" style="fill: #7f7f7f;"/><circle cx="218.91891891891893" cy="920" r="2.01239566379912" style="fill: #7f7f7f;"/><circle cx="291.89189189189193" cy="920" r="2.7138672721040003" style="fill: #7f7f7f;"/><circle cx="24.324324324324326" cy="920" r="2.01005340072051" style="fill: #7f7f7f;"/><circle cx="559.4594594594595" cy="920" r="2.2072194310095" style="fill: #7f7f7f;"/><circle cx="243.24324324324326" cy="920" r="2.02352941176474" style="fill: #7f7f7f;"/><circle cx="48.64864864864865" cy="920" r="3.305549875322" style="fill: #7f7f7f;"/><circle cx="389.1891891891892" cy="920" r="2.0000081458788888" style="fill: #7f7f7f;"/><circle cx="145.94594594594597" cy="920" r="6.000457989892" style="fill: #7f7f7f;"/><circle cx="170.2702702702703" cy="920" r="2.01529411764706" style="fill: #7f7f7f;"/><circle cx="340.5405405405406" cy="920" r="2.03017424242427" style="fill: #7f7f7f;"/><circle cx="462.16216216216213" cy="920" r="2.0000012313537856" style="fill: #7f7f7f;"/><circle cx="608.1081081081081" cy="920" r="2.00823529411768" style="fill: #7f7f7f;"/><circle cx="413.51351351351354" cy="920" r="2.03058946664788" style="fill: #7f7f7f;"/><circle cx="364.8648648648649" cy="920" r="2.01478991596642" style="fill: #7f7f7f;"/><circle cx="632.4324324324325" cy="920" r="2.003925991449212" style="fill: #7f7f7f;"/><circle cx="0" cy="920" r="2.2233823529413" style="fill: #7f7f7f;"/><circle cx="656.7567567567568" cy="920" r="2.0019117647058793" style="fill: #7f7f7f;"/><circle cx="267.5675675675676" cy="920" r="2.001477071689919" style="fill: #7f7f7f;"/><circle cx="194.5945945945946" cy="920" r="2.3237767897147" style="fill: #7f7f7f;"/><circle cx="681.0810810810812" cy="920" r="2.0000686274509802" style="fill: #7f7f7f;"/><circle cx="705.4054054054054" cy="920" r="2.001029411764703" style="fill: #7f7f7f;"/><text/><text/><text/><text/><text/><text/><text/><text/><text/><text/><text/><text/><text/><text/><text/><text/><text/><text/><text/><text/><text/><text/><text/><text/><text/><text/><text/><text y="920" x="930" class="label" style="fill: #7f7f7f;">On Development of Iterative...</text></g><g class="journal"><circle cx="24.324324324324326" cy="940" r="7.6" style="fill: #7f7f7f;"/><circle cx="218.91891891891893" cy="940" r="3.4000000000000004" style="fill: #7f7f7f;"/><text/><text/><text y="940" x="930" class="label" style="fill: #7f7f7f;">Power laws in software.</text></g><g class="journal"><circle cx="754.0540540540541" cy="960" r="5.5" style="fill: #7f7f7f;"/><circle cx="121.62162162162163" cy="960" r="5.5" style="fill: #7f7f7f;"/><text/><text/><text y="960" x="930" class="label" style="fill: #7f7f7f;">Automated Mapping from Goal...</text></g><g class="journal"><circle cx="24.324324324324326" cy="980" r="5.5" style="fill: #7f7f7f;"/><circle cx="316.21621621621625" cy="980" r="5.5" style="fill: #7f7f7f;"/><text/><text/><text y="980" x="930" class="label" style="fill: #7f7f7f;">Relevancy based semantic...</text></g><g class="journal"><circle cx="121.62162162162163" cy="1000" r="5.5" style="fill: #7f7f7f;"/><circle cx="681.0810810810812" cy="1000" r="5.5" style="fill: #7f7f7f;"/><text/><text/><text y="1000" x="930" class="label" style="fill: #7f7f7f;">Essential Elements of Software...</text></g><rect width="10" height="450" x="915" y="3630" style="fill: #ffffff;"/></g><g><g class="journal"><circle cx="802.7027027027027" cy="1020" r="5.5" style="fill: #bcbd22;"/><circle cx="510.8108108108108" cy="1020" r="5.5" style="fill: #bcbd22;"/><text/><text/><text y="1020" x="930" class="label" style="fill: #bcbd22;">A Parallel Processor Operating...</text></g><g class="journal"><circle cx="486.4864864864865" cy="1040" r="2.000792207746211" style="fill: #bcbd22;"/><circle cx="729.7297297297298" cy="1040" r="2.0039245839125153" style="fill: #bcbd22;"/><circle cx="754.0540540540541" cy="1040" r="2.000058021334899" style="fill: #bcbd22;"/><circle cx="875.6756756756757" cy="1040" r="2.000000004267956" style="fill: #bcbd22;"/><circle cx="97.2972972972973" cy="1040" r="2.004566412908463" style="fill: #bcbd22;"/><circle cx="802.7027027027027" cy="1040" r="2.0000132510644377" style="fill: #bcbd22;"/><circle cx="510.8108108108108" cy="1040" r="2.000048006501804" style="fill: #bcbd22;"/><circle cx="121.62162162162163" cy="1040" r="2.04064812417995" style="fill: #bcbd22;"/><circle cx="72.97297297297298" cy="1040" r="2.1416511442311" style="fill: #bcbd22;"/><circle cx="218.91891891891893" cy="1040" r="2.5066349982435" style="fill: #bcbd22;"/><circle cx="291.89189189189193" cy="1040" r="2.00813141031458" style="fill: #bcbd22;"/><circle cx="535.1351351351352" cy="1040" r="2.000070675780005" style="fill: #bcbd22;"/><circle cx="24.324324324324326" cy="1040" r="2.1830727407761" style="fill: #bcbd22;"/><circle cx="778.3783783783784" cy="1040" r="2.0000478573686458" style="fill: #bcbd22;"/><circle cx="243.24324324324326" cy="1040" r="2.5055163410591" style="fill: #bcbd22;"/><circle cx="559.4594594594595" cy="1040" r="2.1472055741177" style="fill: #bcbd22;"/><circle cx="316.21621621621625" cy="1040" r="2.6445129873448" style="fill: #bcbd22;"/><circle cx="48.64864864864865" cy="1040" r="2.716515810976" style="fill: #bcbd22;"/><circle cx="389.1891891891892" cy="1040" r="2.0115946299203" style="fill: #bcbd22;"/><circle cx="145.94594594594597" cy="1040" r="2.00737392591453" style="fill: #bcbd22;"/><circle cx="170.2702702702703" cy="1040" r="2.5012671142563" style="fill: #bcbd22;"/><circle cx="462.16216216216213" cy="1040" r="2.001011006787455" style="fill: #bcbd22;"/><circle cx="340.5405405405406" cy="1040" r="2.6074388317207" style="fill: #bcbd22;"/><circle cx="583.7837837837839" cy="1040" r="2.006841995619998" style="fill: #bcbd22;"/><circle cx="608.1081081081081" cy="1040" r="2.0914242869274" style="fill: #bcbd22;"/><circle cx="437.83783783783787" cy="1040" r="2.000055568786219" style="fill: #bcbd22;"/><circle cx="413.51351351351354" cy="1040" r="2.05578982125892" style="fill: #bcbd22;"/><circle cx="364.8648648648649" cy="1040" r="2.001081699244367" style="fill: #bcbd22;"/><circle cx="632.4324324324325" cy="1040" r="2.02546901466018" style="fill: #bcbd22;"/><circle cx="0" cy="1040" r="3.092415269771" style="fill: #bcbd22;"/><circle cx="656.7567567567568" cy="1040" r="2.000003901786774" style="fill: #bcbd22;"/><circle cx="267.5675675675676" cy="1040" r="2.0079676151303" style="fill: #bcbd22;"/><circle cx="851.3513513513514" cy="1040" r="2.5024271653456998" style="fill: #bcbd22;"/><circle cx="681.0810810810812" cy="1040" r="2.02791811614571" style="fill: #bcbd22;"/><circle cx="194.5945945945946" cy="1040" r="2.1542480532803" style="fill: #bcbd22;"/><circle cx="827.0270270270271" cy="1040" r="2.0000032536912777" style="fill: #bcbd22;"/><circle cx="705.4054054054054" cy="1040" r="3.002258577628" style="fill: #bcbd22;"/><text/><text/><text/><text/><text/><text/><text/><text/><text/><text/><text/><text/><text/><text/><text/><text/><text/><text/><text/><text/><text/><text/><text/><text/><text/><text/><text/><text/><text/><text/><text/><text/><text/><text/><text/><text/><text/><text y="1040" x="930" class="label" style="fill: #bcbd22;">A Reference Architecture for...</text></g><g class="journal"><circle cx="145.94594594594597" cy="1060" r="4.333333333331" style="fill: #bcbd22;"/><circle cx="827.0270270270271" cy="1060" r="6.666666666669" style="fill: #bcbd22;"/><text/><text/><text y="1060" x="930" class="label" style="fill: #bcbd22;">Test Purposes: Adapting the...</text></g><g class="journal"><circle cx="535.1351351351352" cy="1080" r="4.333333333331" style="fill: #bcbd22;"/><circle cx="145.94594594594597" cy="1080" r="4.333333333331" style="fill: #bcbd22;"/><circle cx="486.4864864864865" cy="1080" r="4.333333333331" style="fill: #bcbd22;"/><text/><text/><text/><text y="1080" x="930" class="label" style="fill: #bcbd22;">Algebra and Models.</text></g><g class="journal"><circle cx="802.7027027027027" cy="1100" r="7.444444444445999" style="fill: #bcbd22;"/><circle cx="510.8108108108108" cy="1100" r="3.555555555554" style="fill: #bcbd22;"/><text/><text/><text y="1100" x="930" class="label" style="fill: #bcbd22;">An Experiment in Program...</text></g><rect width="10" height="450" x="915" y="4080" style="fill: #ffffff;"/></g></g></svg>
