<svg xmlns="http://www.w3.org/2000/svg" width="1420" height="1220" id="bundles" style="margin-left: 20px;"><g transform="translate(20,100)"><g class="x axis" transform="translate(0,90)"><g class="tick" transform="translate(0,0)" style="opacity: 1;"><line y2="-6" x2="0"/><text dy="1em" y="-9" x="0" dx="1em" transform="rotate(290)" style="text-anchor: start;">RELIABILITY</text></g><g class="tick" transform="translate(26.470588235294116,0)" style="opacity: 1;"><line y2="-6" x2="0"/><text dy="1em" y="-9" x="0" dx="1em" transform="rotate(290)" style="text-anchor: start;">REQUIREMENTS</text></g><g class="tick" transform="translate(52.94117647058823,0)" style="opacity: 1;"><line y2="-6" x2="0"/><text dy="1em" y="-9" x="0" dx="1em" transform="rotate(290)" style="text-anchor: start;">SOFTWARE QUALITY</text></g><g class="tick" transform="translate(79.41176470588236,0)" style="opacity: 1;"><line y2="-6" x2="0"/><text dy="1em" y="-9" x="0" dx="1em" transform="rotate(290)" style="text-anchor: start;">TESTING</text></g><g class="tick" transform="translate(105.88235294117646,0)" style="opacity: 1;"><line y2="-6" x2="0"/><text dy="1em" y="-9" x="0" dx="1em" transform="rotate(290)" style="text-anchor: start;">MODELS</text></g><g class="tick" transform="translate(132.35294117647058,0)" style="opacity: 1;"><line y2="-6" x2="0"/><text dy="1em" y="-9" x="0" dx="1em" transform="rotate(290)" style="text-anchor: start;">SERVICES</text></g><g class="tick" transform="translate(158.82352941176472,0)" style="opacity: 1;"><line y2="-6" x2="0"/><text dy="1em" y="-9" x="0" dx="1em" transform="rotate(290)" style="text-anchor: start;">DISTRIBUTED SYSTEMS</text></g><g class="tick" transform="translate(185.2941176470588,0)" style="opacity: 1;"><line y2="-6" x2="0"/><text dy="1em" y="-9" x="0" dx="1em" transform="rotate(290)" style="text-anchor: start;">LANGUAGES</text></g><g class="tick" transform="translate(211.76470588235293,0)" style="opacity: 1;"><line y2="-6" x2="0"/><text dy="1em" y="-9" x="0" dx="1em" transform="rotate(290)" style="text-anchor: start;">FORMAL METHODS</text></g><g class="tick" transform="translate(238.23529411764707,0)" style="opacity: 1;"><line y2="-6" x2="0"/><text dy="1em" y="-9" x="0" dx="1em" transform="rotate(290)" style="text-anchor: start;">ARTIFICIAL INTELLIGENCE</text></g><g class="tick" transform="translate(264.70588235294116,0)" style="opacity: 1;"><line y2="-6" x2="0"/><text dy="1em" y="-9" x="0" dx="1em" transform="rotate(290)" style="text-anchor: start;">SECURITY</text></g><g class="tick" transform="translate(291.1764705882353,0)" style="opacity: 1;"><line y2="-6" x2="0"/><text dy="1em" y="-9" x="0" dx="1em" transform="rotate(290)" style="text-anchor: start;">KNOWLEDGE ENGINEERING</text></g><g class="tick" transform="translate(317.64705882352945,0)" style="opacity: 1;"><line y2="-6" x2="0"/><text dy="1em" y="-9" x="0" dx="1em" transform="rotate(290)" style="text-anchor: start;">EMBEDDED</text></g><g class="tick" transform="translate(344.1176470588235,0)" style="opacity: 1;"><line y2="-6" x2="0"/><text dy="1em" y="-9" x="0" dx="1em" transform="rotate(290)" style="text-anchor: start;">MAINTENANCE</text></g><g class="tick" transform="translate(370.5882352941176,0)" style="opacity: 1;"><line y2="-6" x2="0"/><text dy="1em" y="-9" x="0" dx="1em" transform="rotate(290)" style="text-anchor: start;">VISUALIZATION</text></g><g class="tick" transform="translate(397.05882352941177,0)" style="opacity: 1;"><line y2="-6" x2="0"/><text dy="1em" y="-9" x="0" dx="1em" transform="rotate(290)" style="text-anchor: start;">PROGRAM ANALYSIS</text></g><g class="tick" transform="translate(423.52941176470586,0)" style="opacity: 1;"><line y2="-6" x2="0"/><text dy="1em" y="-9" x="0" dx="1em" transform="rotate(290)" style="text-anchor: start;">PROGRAM COMPREHENSION</text></g><g class="tick" transform="translate(450,0)" style="opacity: 1;"><line y2="-6" x2="0"/><text dy="1em" y="-9" x="0" dx="1em" transform="rotate(290)" style="text-anchor: start;">EMPIRICAL SOFTWARE ENGINEERING</text></g><g class="tick" transform="translate(476.47058823529414,0)" style="opacity: 1;"><line y2="-6" x2="0"/><text dy="1em" y="-9" x="0" dx="1em" transform="rotate(290)" style="text-anchor: start;">PRODUCT LINES</text></g><g class="tick" transform="translate(502.94117647058823,0)" style="opacity: 1;"><line y2="-6" x2="0"/><text dy="1em" y="-9" x="0" dx="1em" transform="rotate(290)" style="text-anchor: start;">REVERSE ENGINEERING</text></g><g class="tick" transform="translate(529.4117647058823,0)" style="opacity: 1;"><line y2="-6" x2="0"/><text dy="1em" y="-9" x="0" dx="1em" transform="rotate(290)" style="text-anchor: start;">METRICS</text></g><g class="tick" transform="translate(555.8823529411765,0)" style="opacity: 1;"><line y2="-6" x2="0"/><text dy="1em" y="-9" x="0" dx="1em" transform="rotate(290)" style="text-anchor: start;">EVOLUTION</text></g><g class="tick" transform="translate(582.3529411764706,0)" style="opacity: 1;"><line y2="-6" x2="0"/><text dy="1em" y="-9" x="0" dx="1em" transform="rotate(290)" style="text-anchor: start;">HUMAN COMPUTER INTERACTION</text></g><g class="tick" transform="translate(608.8235294117648,0)" style="opacity: 1;"><line y2="-6" x2="0"/><text dy="1em" y="-9" x="0" dx="1em" transform="rotate(290)" style="text-anchor: start;">SYNTHESIS</text></g><g class="tick" transform="translate(635.2941176470589,0)" style="opacity: 1;"><line y2="-6" x2="0"/><text dy="1em" y="-9" x="0" dx="1em" transform="rotate(290)" style="text-anchor: start;">INFORMATION SYSTMS</text></g><g class="tick" transform="translate(661.764705882353,0)" style="opacity: 1;"><line y2="-6" x2="0"/><text dy="1em" y="-9" x="0" dx="1em" transform="rotate(290)" style="text-anchor: start;">METHODOLOGIES</text></g><g class="tick" transform="translate(688.235294117647,0)" style="opacity: 1;"><line y2="-6" x2="0"/><text dy="1em" y="-9" x="0" dx="1em" transform="rotate(290)" style="text-anchor: start;">ARCHITECTURES</text></g><g class="tick" transform="translate(714.7058823529411,0)" style="opacity: 1;"><line y2="-6" x2="0"/><text dy="1em" y="-9" x="0" dx="1em" transform="rotate(290)" style="text-anchor: start;">EDUCATION</text></g><g class="tick" transform="translate(741.1764705882352,0)" style="opacity: 1;"><line y2="-6" x2="0"/><text dy="1em" y="-9" x="0" dx="1em" transform="rotate(290)" style="text-anchor: start;">REAL TIME SYSTEMS</text></g><g class="tick" transform="translate(767.6470588235294,0)" style="opacity: 1;"><line y2="-6" x2="0"/><text dy="1em" y="-9" x="0" dx="1em" transform="rotate(290)" style="text-anchor: start;">ADAPTIVE SYSTEMS</text></g><g class="tick" transform="translate(794.1176470588235,0)" style="opacity: 1;"><line y2="-6" x2="0"/><text dy="1em" y="-9" x="0" dx="1em" transform="rotate(290)" style="text-anchor: start;">OPERATING SYSTEMS</text></g><g class="tick" transform="translate(820.5882352941177,0)" style="opacity: 1;"><line y2="-6" x2="0"/><text dy="1em" y="-9" x="0" dx="1em" transform="rotate(290)" style="text-anchor: start;">CONCURRENCY</text></g><g class="tick" transform="translate(847.0588235294117,0)" style="opacity: 1;"><line y2="-6" x2="0"/><text dy="1em" y="-9" x="0" dx="1em" transform="rotate(290)" style="text-anchor: start;">DATABASE</text></g><g class="tick" transform="translate(873.5294117647059,0)" style="opacity: 1;"><line y2="-6" x2="0"/><text dy="1em" y="-9" x="0" dx="1em" transform="rotate(290)" style="text-anchor: start;">PROCESS</text></g><g class="tick" transform="translate(900,0)" style="opacity: 1;"><line y2="-6" x2="0"/><text dy="1em" y="-9" x="0" dx="1em" transform="rotate(290)" style="text-anchor: start;"/></g><path class="domain" d="M0,-6V0H900V-6"/></g><g><g class="journal"><circle cx="0" cy="120" r="3.2499999999969997" style="fill: #17becf;"/><circle cx="26.470588235294116" cy="120" r="7.000000000001999" style="fill: #17becf;"/><circle cx="52.94117647058823" cy="120" r="2.2500000000001" style="fill: #17becf;"/><circle cx="79.41176470588236" cy="120" r="2.5000000000002" style="fill: #17becf;"/><text/><text/><text/><text/><text y="120" x="930" class="label" style="fill: #17becf;">A Cognitive-Based Mechanism...</text></g><g class="journal"><circle cx="105.88235294117646" cy="140" r="3.999999999998" style="fill: #17becf;"/><circle cx="26.470588235294116" cy="140" r="6.000000000003" style="fill: #17becf;"/><circle cx="132.35294117647058" cy="140" r="2.999999999999" style="fill: #17becf;"/><text/><text/><text/><text y="140" x="930" class="label" style="fill: #17becf;">Semantic parameterization: A...</text></g><g class="journal"><circle cx="105.88235294117646" cy="160" r="3.75" style="fill: #17becf;"/><circle cx="26.470588235294116" cy="160" r="7.25" style="fill: #17becf;"/><text/><text/><text y="160" x="930" class="label" style="fill: #17becf;">An Analysis-Revision Cycle to...</text></g><g class="journal"><circle cx="105.88235294117646" cy="180" r="2.999999999999" style="fill: #17becf;"/><circle cx="26.470588235294116" cy="180" r="7.499999999998001" style="fill: #17becf;"/><circle cx="132.35294117647058" cy="180" r="2.5000000000002" style="fill: #17becf;"/><text/><text/><text/><text y="180" x="930" class="label" style="fill: #17becf;">How to Identify Binary...</text></g><g class="journal"><circle cx="158.82352941176472" cy="200" r="2.777777777777" style="fill: #17becf;"/><circle cx="105.88235294117646" cy="200" r="2.777777777777" style="fill: #17becf;"/><circle cx="26.470588235294116" cy="200" r="7.444444444445999" style="fill: #17becf;"/><text/><text/><text/><text y="200" x="930" class="label" style="fill: #17becf;">Requirements engineering: from...</text></g><rect width="10" height="450" x="915" y="30" style="fill: #ffffff;"/></g><g><g class="journal"><circle cx="185.2941176470588" cy="220" r="5.5" style="fill: #1f77b4;"/><circle cx="211.76470588235293" cy="220" r="5.5" style="fill: #1f77b4;"/><text/><text/><text y="220" x="930" class="label" style="fill: #1f77b4;">A Domain-Specific Language for...</text></g><g class="journal"><circle cx="211.76470588235293" cy="240" r="5.5" style="fill: #1f77b4;"/><circle cx="185.2941176470588" cy="240" r="5.5" style="fill: #1f77b4;"/><text/><text/><text y="240" x="930" class="label" style="fill: #1f77b4;">Composition and Refinement of...</text></g><g class="journal"><circle cx="211.76470588235293" cy="260" r="5.5" style="fill: #1f77b4;"/><circle cx="185.2941176470588" cy="260" r="5.5" style="fill: #1f77b4;"/><text/><text/><text y="260" x="930" class="label" style="fill: #1f77b4;">Tutorial on JML, the java...</text></g><g class="journal"><circle cx="211.76470588235293" cy="280" r="5.5" style="fill: #1f77b4;"/><circle cx="185.2941176470588" cy="280" r="5.5" style="fill: #1f77b4;"/><text/><text/><text y="280" x="930" class="label" style="fill: #1f77b4;">Integrating static analysis...</text></g><g class="journal"><circle cx="211.76470588235293" cy="300" r="5.5" style="fill: #1f77b4;"/><circle cx="185.2941176470588" cy="300" r="5.5" style="fill: #1f77b4;"/><text/><text/><text y="300" x="930" class="label" style="fill: #1f77b4;">Interpolation for data...</text></g><rect width="10" height="450" x="915" y="480" style="fill: #ffffff;"/></g><g><g class="journal"><circle cx="185.2941176470588" cy="320" r="5.5" style="fill: #ff7f0e;"/><circle cx="211.76470588235293" cy="320" r="5.5" style="fill: #ff7f0e;"/><text/><text/><text y="320" x="930" class="label" style="fill: #ff7f0e;">A New Method of Image...</text></g><g class="journal"><circle cx="211.76470588235293" cy="340" r="5.5" style="fill: #ff7f0e;"/><circle cx="185.2941176470588" cy="340" r="5.5" style="fill: #ff7f0e;"/><text/><text/><text y="340" x="930" class="label" style="fill: #ff7f0e;">Foundations of incremental...</text></g><g class="journal"><circle cx="211.76470588235293" cy="360" r="5.5" style="fill: #ff7f0e;"/><circle cx="185.2941176470588" cy="360" r="5.5" style="fill: #ff7f0e;"/><text/><text/><text y="360" x="930" class="label" style="fill: #ff7f0e;">Deviation Analysis Through...</text></g><g class="journal"><circle cx="211.76470588235293" cy="380" r="5.5" style="fill: #ff7f0e;"/><circle cx="185.2941176470588" cy="380" r="5.5" style="fill: #ff7f0e;"/><text/><text/><text y="380" x="930" class="label" style="fill: #ff7f0e;">Effective static deadlock...</text></g><g class="journal"><circle cx="211.76470588235293" cy="400" r="5.5" style="fill: #ff7f0e;"/><circle cx="185.2941176470588" cy="400" r="5.5" style="fill: #ff7f0e;"/><text/><text/><text y="400" x="930" class="label" style="fill: #ff7f0e;">Alchemy: transmuting base...</text></g><rect width="10" height="450" x="915" y="930" style="fill: #ffffff;"/></g><g><g class="journal"><circle cx="211.76470588235293" cy="420" r="4.333333333331" style="fill: #2ca02c;"/><circle cx="185.2941176470588" cy="420" r="6.666666666669" style="fill: #2ca02c;"/><text/><text/><text y="420" x="930" class="label" style="fill: #2ca02c;">Design and Specification of...</text></g><g class="journal"><circle cx="211.76470588235293" cy="440" r="3.75" style="fill: #2ca02c;"/><circle cx="185.2941176470588" cy="440" r="7.25" style="fill: #2ca02c;"/><text/><text/><text y="440" x="930" class="label" style="fill: #2ca02c;">Effective typestate...</text></g><g class="journal"><circle cx="211.76470588235293" cy="460" r="3.75" style="fill: #2ca02c;"/><circle cx="185.2941176470588" cy="460" r="6.375" style="fill: #2ca02c;"/><circle cx="79.41176470588236" cy="460" r="2.875" style="fill: #2ca02c;"/><text/><text/><text/><text y="460" x="930" class="label" style="fill: #2ca02c;">Accurate Centralization for...</text></g><g class="journal"><circle cx="211.76470588235293" cy="480" r="4.333333333331" style="fill: #2ca02c;"/><circle cx="185.2941176470588" cy="480" r="6.666666666669" style="fill: #2ca02c;"/><text/><text/><text y="480" x="930" class="label" style="fill: #2ca02c;">The Property Vector...</text></g><g class="journal"><circle cx="238.23529411764707" cy="500" r="5.5" style="fill: #2ca02c;"/><circle cx="185.2941176470588" cy="500" r="5.5" style="fill: #2ca02c;"/><text/><text/><text y="500" x="930" class="label" style="fill: #2ca02c;">A Practical Approach to...</text></g><rect width="10" height="450" x="915" y="1380" style="fill: #ffffff;"/></g><g><g class="journal"><circle cx="105.88235294117646" cy="520" r="5.5" style="fill: #d62728;"/><circle cx="211.76470588235293" cy="520" r="5.5" style="fill: #d62728;"/><text/><text/><text y="520" x="930" class="label" style="fill: #d62728;">Synthesis of Partial Behavior...</text></g><g class="journal"><circle cx="185.2941176470588" cy="540" r="3.166666666669" style="fill: #d62728;"/><circle cx="105.88235294117646" cy="540" r="5.5" style="fill: #d62728;"/><circle cx="211.76470588235293" cy="540" r="4.333333333331" style="fill: #d62728;"/><text/><text/><text/><text y="540" x="930" class="label" style="fill: #d62728;">Coordinating Rule-Based...</text></g><g class="journal"><circle cx="211.76470588235293" cy="560" r="5.5" style="fill: #d62728;"/><circle cx="105.88235294117646" cy="560" r="5.5" style="fill: #d62728;"/><text/><text/><text y="560" x="930" class="label" style="fill: #d62728;">A tool for automatic UML model...</text></g><g class="journal"><circle cx="211.76470588235293" cy="580" r="5.5" style="fill: #d62728;"/><circle cx="105.88235294117646" cy="580" r="5.5" style="fill: #d62728;"/><text/><text/><text y="580" x="930" class="label" style="fill: #d62728;">Customizaton and Compositon of...</text></g><g class="journal"><circle cx="105.88235294117646" cy="600" r="4.625" style="fill: #d62728;"/><circle cx="264.70588235294116" cy="600" r="2.175" style="fill: #d62728;"/><circle cx="158.82352941176472" cy="600" r="2.175" style="fill: #d62728;"/><circle cx="291.1764705882353" cy="600" r="2.175" style="fill: #d62728;"/><circle cx="0" cy="600" r="2.175" style="fill: #d62728;"/><circle cx="211.76470588235293" cy="600" r="5.675000000000001" style="fill: #d62728;"/><text/><text/><text/><text/><text/><text/><text y="600" x="930" class="label" style="fill: #d62728;">An Environment for Specifying...</text></g><rect width="10" height="450" x="915" y="1830" style="fill: #ffffff;"/></g><g><g class="journal"><circle cx="79.41176470588236" cy="620" r="4.625" style="fill: #9467bd;"/><circle cx="185.2941176470588" cy="620" r="2.875" style="fill: #9467bd;"/><circle cx="211.76470588235293" cy="620" r="5.5" style="fill: #9467bd;"/><text/><text/><text/><text y="620" x="930" class="label" style="fill: #9467bd;">Discovering Documentation for...</text></g><g class="journal"><circle cx="79.41176470588236" cy="640" r="4.625" style="fill: #9467bd;"/><circle cx="185.2941176470588" cy="640" r="2.875" style="fill: #9467bd;"/><circle cx="211.76470588235293" cy="640" r="5.5" style="fill: #9467bd;"/><text/><text/><text/><text y="640" x="930" class="label" style="fill: #9467bd;">Developing and debugging...</text></g><g class="journal"><circle cx="211.76470588235293" cy="660" r="6.666666666669" style="fill: #9467bd;"/><circle cx="79.41176470588236" cy="660" r="4.333333333331" style="fill: #9467bd;"/><text/><text/><text y="660" x="930" class="label" style="fill: #9467bd;">Reggae: Automated Test...</text></g><g class="journal"><circle cx="317.64705882352945" cy="680" r="2.0729166666669" style="fill: #9467bd;"/><circle cx="211.76470588235293" cy="680" r="6.15625" style="fill: #9467bd;"/><circle cx="185.2941176470588" cy="680" r="2.5833333333331" style="fill: #9467bd;"/><circle cx="344.1176470588235" cy="680" r="2.0729166666669" style="fill: #9467bd;"/><circle cx="52.94117647058823" cy="680" r="2.21875" style="fill: #9467bd;"/><circle cx="79.41176470588236" cy="680" r="3.8958333333310002" style="fill: #9467bd;"/><text/><text/><text/><text/><text/><text/><text y="680" x="930" class="label" style="fill: #9467bd;">Automated systematic testing...</text></g><g class="journal"><circle cx="79.41176470588236" cy="700" r="3.385416666669" style="fill: #9467bd;"/><circle cx="317.64705882352945" cy="700" r="2.2552083333331003" style="fill: #9467bd;"/><circle cx="344.1176470588235" cy="700" r="2.2552083333331003" style="fill: #9467bd;"/><circle cx="185.2941176470588" cy="700" r="2.2916666666668997" style="fill: #9467bd;"/><circle cx="52.94117647058823" cy="700" r="2.765625" style="fill: #9467bd;"/><circle cx="211.76470588235293" cy="700" r="6.046875" style="fill: #9467bd;"/><text/><text/><text/><text/><text/><text/><text y="700" x="930" class="label" style="fill: #9467bd;">A Scalable Formal Method for...</text></g><rect width="10" height="450" x="915" y="2280" style="fill: #ffffff;"/></g><g><g class="journal"><circle cx="370.5882352941176" cy="720" r="2.1366478575021" style="fill: #8c564b;"/><circle cx="397.05882352941177" cy="720" r="2.1370586217434" style="fill: #8c564b;"/><circle cx="238.23529411764707" cy="720" r="2.1483144433512003" style="fill: #8c564b;"/><circle cx="0" cy="720" r="2.01739719195291" style="fill: #8c564b;"/><circle cx="423.52941176470586" cy="720" r="2.9074494623950002" style="fill: #8c564b;"/><circle cx="79.41176470588236" cy="720" r="2.0011075952692767" style="fill: #8c564b;"/><circle cx="450" cy="720" r="2.0507019056814197" style="fill: #8c564b;"/><circle cx="476.47058823529414" cy="720" r="2.0956604720148" style="fill: #8c564b;"/><circle cx="105.88235294117646" cy="720" r="2.06394428578307" style="fill: #8c564b;"/><circle cx="502.94117647058823" cy="720" r="2.4696210010317" style="fill: #8c564b;"/><circle cx="529.4117647058823" cy="720" r="2.0962664226789998" style="fill: #8c564b;"/><circle cx="52.94117647058823" cy="720" r="2.01425760313516" style="fill: #8c564b;"/><circle cx="555.8823529411765" cy="720" r="2.01586893875588" style="fill: #8c564b;"/><circle cx="211.76470588235293" cy="720" r="2.06234200725403" style="fill: #8c564b;"/><circle cx="582.3529411764706" cy="720" r="2.0947058467558" style="fill: #8c564b;"/><circle cx="344.1176470588235" cy="720" r="6.256655671429" style="fill: #8c564b;"/><circle cx="608.8235294117648" cy="720" r="2.1727971523551" style="fill: #8c564b;"/><circle cx="635.2941176470589" cy="720" r="2.05015233665449" style="fill: #8c564b;"/><circle cx="158.82352941176472" cy="720" r="2.005421607786483" style="fill: #8c564b;"/><circle cx="661.764705882353" cy="720" r="2.005265950969734" style="fill: #8c564b;"/><circle cx="291.1764705882353" cy="720" r="2.02833138526288" style="fill: #8c564b;"/><circle cx="688.235294117647" cy="720" r="2.02758947475858" style="fill: #8c564b;"/><circle cx="132.35294117647058" cy="720" r="2.002862590380153" style="fill: #8c564b;"/><circle cx="185.2941176470588" cy="720" r="2.1364645869769" style="fill: #8c564b;"/><circle cx="714.7058823529411" cy="720" r="2.0002162095102385" style="fill: #8c564b;"/><circle cx="26.470588235294116" cy="720" r="2.002899378612893" style="fill: #8c564b;"/><text/><text/><text/><text/><text/><text/><text/><text/><text/><text/><text/><text/><text/><text/><text/><text/><text/><text/><text/><text/><text/><text/><text/><text/><text/><text/><text y="720" x="930" class="label" style="fill: #8c564b;">An Extensible System for...</text></g><g class="journal"><circle cx="582.3529411764706" cy="740" r="2.5384615384617" style="fill: #8c564b;"/><circle cx="370.5882352941176" cy="740" r="2.02692307692305" style="fill: #8c564b;"/><circle cx="344.1176470588235" cy="740" r="5.4730769230780005" style="fill: #8c564b;"/><circle cx="450" cy="740" r="2.1076923076922" style="fill: #8c564b;"/><circle cx="185.2941176470588" cy="740" r="2.5384615384617" style="fill: #8c564b;"/><circle cx="608.8235294117648" cy="740" r="2.1076923076922" style="fill: #8c564b;"/><circle cx="397.05882352941177" cy="740" r="2.5653846153844" style="fill: #8c564b;"/><circle cx="502.94117647058823" cy="740" r="2.5384615384617" style="fill: #8c564b;"/><circle cx="529.4117647058823" cy="740" r="2.02692307692305" style="fill: #8c564b;"/><circle cx="291.1764705882353" cy="740" r="2.5384615384617" style="fill: #8c564b;"/><circle cx="423.52941176470586" cy="740" r="2.5384615384617" style="fill: #8c564b;"/><text/><text/><text/><text/><text/><text/><text/><text/><text/><text/><text/><text y="740" x="930" class="label" style="fill: #8c564b;">The Desert environment.</text></g><g class="journal"><circle cx="688.235294117647" cy="760" r="2.02758947475858" style="fill: #8c564b;"/><circle cx="238.23529411764707" cy="760" r="2.1483144433512003" style="fill: #8c564b;"/><circle cx="158.82352941176472" cy="760" r="2.005421607786483" style="fill: #8c564b;"/><circle cx="714.7058823529411" cy="760" r="2.0002162095102385" style="fill: #8c564b;"/><circle cx="450" cy="760" r="2.0507019056814197" style="fill: #8c564b;"/><circle cx="555.8823529411765" cy="760" r="2.01586893875588" style="fill: #8c564b;"/><circle cx="211.76470588235293" cy="760" r="2.06234200725403" style="fill: #8c564b;"/><circle cx="582.3529411764706" cy="760" r="2.0947058467558" style="fill: #8c564b;"/><circle cx="635.2941176470589" cy="760" r="2.05015233665449" style="fill: #8c564b;"/><circle cx="291.1764705882353" cy="760" r="2.02833138526288" style="fill: #8c564b;"/><circle cx="185.2941176470588" cy="760" r="2.1364645869769" style="fill: #8c564b;"/><circle cx="344.1176470588235" cy="760" r="6.256655671429" style="fill: #8c564b;"/><circle cx="661.764705882353" cy="760" r="2.005265950969734" style="fill: #8c564b;"/><circle cx="529.4117647058823" cy="760" r="2.0962664226789998" style="fill: #8c564b;"/><circle cx="105.88235294117646" cy="760" r="2.06394428578307" style="fill: #8c564b;"/><circle cx="476.47058823529414" cy="760" r="2.0956604720148" style="fill: #8c564b;"/><circle cx="397.05882352941177" cy="760" r="2.1370586217434" style="fill: #8c564b;"/><circle cx="423.52941176470586" cy="760" r="2.9074494623950002" style="fill: #8c564b;"/><circle cx="0" cy="760" r="2.01739719195291" style="fill: #8c564b;"/><circle cx="26.470588235294116" cy="760" r="2.002899378612893" style="fill: #8c564b;"/><circle cx="502.94117647058823" cy="760" r="2.4696210010317" style="fill: #8c564b;"/><circle cx="132.35294117647058" cy="760" r="2.002862590380153" style="fill: #8c564b;"/><circle cx="52.94117647058823" cy="760" r="2.01425760313516" style="fill: #8c564b;"/><circle cx="608.8235294117648" cy="760" r="2.1727971523551" style="fill: #8c564b;"/><circle cx="79.41176470588236" cy="760" r="2.0011075952692767" style="fill: #8c564b;"/><circle cx="370.5882352941176" cy="760" r="2.1366478575021" style="fill: #8c564b;"/><text/><text/><text/><text/><text/><text/><text/><text/><text/><text/><text/><text/><text/><text/><text/><text/><text/><text/><text/><text/><text/><text/><text/><text/><text/><text/><text y="760" x="930" class="label" style="fill: #8c564b;">Automated Construction of...</text></g><g class="journal"><circle cx="741.1764705882352" cy="780" r="2.0000051324664643" style="fill: #8c564b;"/><circle cx="370.5882352941176" cy="780" r="2.02438493304443" style="fill: #8c564b;"/><circle cx="767.6470588235294" cy="780" r="2.0000000002213745" style="fill: #8c564b;"/><circle cx="397.05882352941177" cy="780" r="2.9338476518350003" style="fill: #8c564b;"/><circle cx="794.1176470588235" cy="780" r="2.000000628541809" style="fill: #8c564b;"/><circle cx="238.23529411764707" cy="780" r="2.0157966948489703" style="fill: #8c564b;"/><circle cx="0" cy="780" r="2.0004109319458685" style="fill: #8c564b;"/><circle cx="423.52941176470586" cy="780" r="2.2237745079899" style="fill: #8c564b;"/><circle cx="79.41176470588236" cy="780" r="2.0774962262662" style="fill: #8c564b;"/><circle cx="450" cy="780" r="2.2073948697506003" style="fill: #8c564b;"/><circle cx="820.5882352941177" cy="780" r="2.0000000001525176" style="fill: #8c564b;"/><circle cx="476.47058823529414" cy="780" r="2.000022411891855" style="fill: #8c564b;"/><circle cx="502.94117647058823" cy="780" r="2.2857570506784" style="fill: #8c564b;"/><circle cx="105.88235294117646" cy="780" r="2.0103579064117203" style="fill: #8c564b;"/><circle cx="529.4117647058823" cy="780" r="2.1395630100697" style="fill: #8c564b;"/><circle cx="52.94117647058823" cy="780" r="2.2333861668397" style="fill: #8c564b;"/><circle cx="555.8823529411765" cy="780" r="2.0007993194770752" style="fill: #8c564b;"/><circle cx="211.76470588235293" cy="780" r="2.1108255552082" style="fill: #8c564b;"/><circle cx="582.3529411764706" cy="780" r="2.000381410609162" style="fill: #8c564b;"/><circle cx="344.1176470588235" cy="780" r="5.732009529346" style="fill: #8c564b;"/><circle cx="847.0588235294117" cy="780" r="2.001989480004295" style="fill: #8c564b;"/><circle cx="608.8235294117648" cy="780" r="2.006853699208587" style="fill: #8c564b;"/><circle cx="635.2941176470589" cy="780" r="2.00788947358941" style="fill: #8c564b;"/><circle cx="158.82352941176472" cy="780" r="2.4111173737937" style="fill: #8c564b;"/><circle cx="661.764705882353" cy="780" r="2.1644776096278" style="fill: #8c564b;"/><circle cx="291.1764705882353" cy="780" r="2.01022497297864" style="fill: #8c564b;"/><circle cx="688.235294117647" cy="780" r="2.05989122713021" style="fill: #8c564b;"/><circle cx="317.64705882352945" cy="780" r="2.000000000603109" style="fill: #8c564b;"/><circle cx="132.35294117647058" cy="780" r="2.1439894457267" style="fill: #8c564b;"/><circle cx="873.5294117647059" cy="780" r="2.000959429824563" style="fill: #8c564b;"/><circle cx="185.2941176470588" cy="780" r="2.188168513491" style="fill: #8c564b;"/><circle cx="714.7058823529411" cy="780" r="2.000393280591483" style="fill: #8c564b;"/><circle cx="264.70588235294116" cy="780" r="2.0006435758976258" style="fill: #8c564b;"/><circle cx="26.470588235294116" cy="780" r="2.00718797994124" style="fill: #8c564b;"/><text/><text/><text/><text/><text/><text/><text/><text/><text/><text/><text/><text/><text/><text/><text/><text/><text/><text/><text/><text/><text/><text/><text/><text/><text/><text/><text/><text/><text/><text/><text/><text/><text/><text/><text y="780" x="930" class="label" style="fill: #8c564b;">Software Measure...</text></g><g class="journal"><circle cx="582.3529411764706" cy="800" r="2.3888888888892" style="fill: #8c564b;"/><circle cx="370.5882352941176" cy="800" r="2.3888888888892" style="fill: #8c564b;"/><circle cx="344.1176470588235" cy="800" r="6.888888888891" style="fill: #8c564b;"/><circle cx="450" cy="800" r="2.1111111111109997" style="fill: #8c564b;"/><circle cx="185.2941176470588" cy="800" r="2.1944444444446" style="fill: #8c564b;"/><circle cx="529.4117647058823" cy="800" r="2.4166666666666" style="fill: #8c564b;"/><circle cx="158.82352941176472" cy="800" r="2.1944444444446" style="fill: #8c564b;"/><circle cx="423.52941176470586" cy="800" r="2.4166666666666" style="fill: #8c564b;"/><text/><text/><text/><text/><text/><text/><text/><text/><text y="800" x="930" class="label" style="fill: #8c564b;">Automatic Method Completion.</text></g><rect width="10" height="450" x="915" y="2730" style="fill: #ffffff;"/></g><g><g class="journal"><circle cx="79.41176470588236" cy="820" r="4.333333333331" style="fill: #e377c2;"/><circle cx="52.94117647058823" cy="820" r="6.666666666669" style="fill: #e377c2;"/><text/><text/><text y="820" x="930" class="label" style="fill: #e377c2;">Avoiding coincidental...</text></g><g class="journal"><circle cx="52.94117647058823" cy="840" r="6.666666666669" style="fill: #e377c2;"/><circle cx="79.41176470588236" cy="840" r="4.333333333331" style="fill: #e377c2;"/><text/><text/><text y="840" x="930" class="label" style="fill: #e377c2;">Evaluating Models for...</text></g><g class="journal"><circle cx="52.94117647058823" cy="860" r="6.666666666669" style="fill: #e377c2;"/><circle cx="79.41176470588236" cy="860" r="4.333333333331" style="fill: #e377c2;"/><text/><text/><text y="860" x="930" class="label" style="fill: #e377c2;">Taming coincidental...</text></g><g class="journal"><circle cx="158.82352941176472" cy="880" r="3.75" style="fill: #e377c2;"/><circle cx="132.35294117647058" cy="880" r="2.4375" style="fill: #e377c2;"/><circle cx="52.94117647058823" cy="880" r="6.8125" style="fill: #e377c2;"/><text/><text/><text/><text y="880" x="930" class="label" style="fill: #e377c2;">Inter-context control-flow and...</text></g><g class="journal"><circle cx="635.2941176470589" cy="900" r="2.7" style="fill: #e377c2;"/><circle cx="0" cy="900" r="2.7" style="fill: #e377c2;"/><circle cx="52.94117647058823" cy="900" r="6.9" style="fill: #e377c2;"/><circle cx="79.41176470588236" cy="900" r="2.7" style="fill: #e377c2;"/><text/><text/><text/><text/><text y="900" x="930" class="label" style="fill: #e377c2;">Specification of...</text></g><rect width="10" height="450" x="915" y="3180" style="fill: #ffffff;"/></g><g><g class="journal"><circle cx="105.88235294117646" cy="920" r="5.5" style="fill: #7f7f7f;"/><circle cx="211.76470588235293" cy="920" r="5.5" style="fill: #7f7f7f;"/><text/><text/><text y="920" x="930" class="label" style="fill: #7f7f7f;">Central Server Models with...</text></g><g class="journal"><circle cx="211.76470588235293" cy="940" r="4.333333333331" style="fill: #7f7f7f;"/><circle cx="635.2941176470589" cy="940" r="4.333333333331" style="fill: #7f7f7f;"/><circle cx="105.88235294117646" cy="940" r="4.333333333331" style="fill: #7f7f7f;"/><text/><text/><text/><text y="940" x="930" class="label" style="fill: #7f7f7f;">From business process models...</text></g><g class="journal"><circle cx="211.76470588235293" cy="960" r="4.625" style="fill: #7f7f7f;"/><circle cx="105.88235294117646" cy="960" r="6.375" style="fill: #7f7f7f;"/><text/><text/><text y="960" x="930" class="label" style="fill: #7f7f7f;">MTSA: The Modal Transition...</text></g><g class="journal"><circle cx="211.76470588235293" cy="980" r="4.625" style="fill: #7f7f7f;"/><circle cx="105.88235294117646" cy="980" r="6.375" style="fill: #7f7f7f;"/><text/><text/><text y="980" x="930" class="label" style="fill: #7f7f7f;">Existential live sequence...</text></g><g class="journal"><circle cx="211.76470588235293" cy="1000" r="5.5" style="fill: #7f7f7f;"/><circle cx="105.88235294117646" cy="1000" r="5.5" style="fill: #7f7f7f;"/><text/><text/><text y="1000" x="930" class="label" style="fill: #7f7f7f;">On correct and complete strong...</text></g><rect width="10" height="450" x="915" y="3630" style="fill: #ffffff;"/></g><g><g class="journal"><circle cx="688.235294117647" cy="1020" r="4.333333333331" style="fill: #bcbd22;"/><circle cx="105.88235294117646" cy="1020" r="4.333333333331" style="fill: #bcbd22;"/><circle cx="26.470588235294116" cy="1020" r="4.333333333331" style="fill: #bcbd22;"/><text/><text/><text/><text y="1020" x="930" class="label" style="fill: #bcbd22;">Identifying Extensions...</text></g><g class="journal"><circle cx="105.88235294117646" cy="1040" r="5.5" style="fill: #bcbd22;"/><circle cx="26.470588235294116" cy="1040" r="5.5" style="fill: #bcbd22;"/><text/><text/><text y="1040" x="930" class="label" style="fill: #bcbd22;">Metamodel-based model...</text></g><g class="journal"><circle cx="105.88235294117646" cy="1060" r="5.5" style="fill: #bcbd22;"/><circle cx="26.470588235294116" cy="1060" r="5.5" style="fill: #bcbd22;"/><text/><text/><text y="1060" x="930" class="label" style="fill: #bcbd22;">Automating Software...</text></g><g class="journal"><circle cx="105.88235294117646" cy="1080" r="6.199999999999999" style="fill: #bcbd22;"/><circle cx="26.470588235294116" cy="1080" r="4.8" style="fill: #bcbd22;"/><text/><text/><text y="1080" x="930" class="label" style="fill: #bcbd22;">Metrics for model driven...</text></g><g class="journal"><circle cx="344.1176470588235" cy="1100" r="2.04915123456789" style="fill: #bcbd22;"/><circle cx="847.0588235294117" cy="1100" r="2.02160493827163" style="fill: #bcbd22;"/><circle cx="608.8235294117648" cy="1100" r="2.02353395061731" style="fill: #bcbd22;"/><circle cx="635.2941176470589" cy="1100" r="2.03796296296296" style="fill: #bcbd22;"/><circle cx="238.23529411764707" cy="1100" r="2.005555555555557" style="fill: #bcbd22;"/><circle cx="423.52941176470586" cy="1100" r="2.2633641975307" style="fill: #bcbd22;"/><circle cx="688.235294117647" cy="1100" r="2.169624485597" style="fill: #bcbd22;"/><circle cx="132.35294117647058" cy="1100" r="2.1151234567903" style="fill: #bcbd22;"/><circle cx="820.5882352941177" cy="1100" r="2.005555555555557" style="fill: #bcbd22;"/><circle cx="450" cy="1100" r="2.006558641975312" style="fill: #bcbd22;"/><circle cx="185.2941176470588" cy="1100" r="2.02160493827163" style="fill: #bcbd22;"/><circle cx="105.88235294117646" cy="1100" r="4.826543209875" style="fill: #bcbd22;"/><circle cx="502.94117647058823" cy="1100" r="2.0842129629628" style="fill: #bcbd22;"/><circle cx="529.4117647058823" cy="1100" r="2.000385802469136" style="fill: #bcbd22;"/><circle cx="52.94117647058823" cy="1100" r="2.06995884773661" style="fill: #bcbd22;"/><circle cx="211.76470588235293" cy="1100" r="2.1449382716047" style="fill: #bcbd22;"/><circle cx="26.470588235294116" cy="1100" r="5.154320987657" style="fill: #bcbd22;"/><text/><text/><text/><text/><text/><text/><text/><text/><text/><text/><text/><text/><text/><text/><text/><text/><text/><text y="1100" x="930" class="label" style="fill: #bcbd22;">Composable semantics for...</text></g><rect width="10" height="450" x="915" y="4080" style="fill: #ffffff;"/></g></g></svg>
