<svg xmlns="http://www.w3.org/2000/svg" width="1420" height="1220" id="bundles" style="margin-left: 20px;"><g transform="translate(20,100)"><g class="x axis" transform="translate(0,90)"><g class="tick" transform="translate(0,0)" style="opacity: 1;"><line y2="-6" x2="0"/><text dy="1em" y="-9" x="0" dx="1em" transform="rotate(290)" style="text-anchor: start;">MODELS</text></g><g class="tick" transform="translate(25.71428571428571,0)" style="opacity: 1;"><line y2="-6" x2="0"/><text dy="1em" y="-9" x="0" dx="1em" transform="rotate(290)" style="text-anchor: start;">FORMAL METHODS</text></g><g class="tick" transform="translate(51.42857142857142,0)" style="opacity: 1;"><line y2="-6" x2="0"/><text dy="1em" y="-9" x="0" dx="1em" transform="rotate(290)" style="text-anchor: start;">DISTRIBUTED SYSTEMS</text></g><g class="tick" transform="translate(77.14285714285714,0)" style="opacity: 1;"><line y2="-6" x2="0"/><text dy="1em" y="-9" x="0" dx="1em" transform="rotate(290)" style="text-anchor: start;">LANGUAGES</text></g><g class="tick" transform="translate(102.85714285714285,0)" style="opacity: 1;"><line y2="-6" x2="0"/><text dy="1em" y="-9" x="0" dx="1em" transform="rotate(290)" style="text-anchor: start;">VISUALIZATION</text></g><g class="tick" transform="translate(128.57142857142856,0)" style="opacity: 1;"><line y2="-6" x2="0"/><text dy="1em" y="-9" x="0" dx="1em" transform="rotate(290)" style="text-anchor: start;">PROGRAM ANALYSIS</text></g><g class="tick" transform="translate(154.28571428571428,0)" style="opacity: 1;"><line y2="-6" x2="0"/><text dy="1em" y="-9" x="0" dx="1em" transform="rotate(290)" style="text-anchor: start;">ARTIFICIAL INTELLIGENCE</text></g><g class="tick" transform="translate(180,0)" style="opacity: 1;"><line y2="-6" x2="0"/><text dy="1em" y="-9" x="0" dx="1em" transform="rotate(290)" style="text-anchor: start;">RELIABILITY</text></g><g class="tick" transform="translate(205.7142857142857,0)" style="opacity: 1;"><line y2="-6" x2="0"/><text dy="1em" y="-9" x="0" dx="1em" transform="rotate(290)" style="text-anchor: start;">PROGRAM COMPREHENSION</text></g><g class="tick" transform="translate(231.42857142857142,0)" style="opacity: 1;"><line y2="-6" x2="0"/><text dy="1em" y="-9" x="0" dx="1em" transform="rotate(290)" style="text-anchor: start;">TESTING</text></g><g class="tick" transform="translate(257.1428571428571,0)" style="opacity: 1;"><line y2="-6" x2="0"/><text dy="1em" y="-9" x="0" dx="1em" transform="rotate(290)" style="text-anchor: start;">EMPIRICAL SOFTWARE ENGINEERING</text></g><g class="tick" transform="translate(282.85714285714283,0)" style="opacity: 1;"><line y2="-6" x2="0"/><text dy="1em" y="-9" x="0" dx="1em" transform="rotate(290)" style="text-anchor: start;">PRODUCT LINES</text></g><g class="tick" transform="translate(308.57142857142856,0)" style="opacity: 1;"><line y2="-6" x2="0"/><text dy="1em" y="-9" x="0" dx="1em" transform="rotate(290)" style="text-anchor: start;">REVERSE ENGINEERING</text></g><g class="tick" transform="translate(334.2857142857143,0)" style="opacity: 1;"><line y2="-6" x2="0"/><text dy="1em" y="-9" x="0" dx="1em" transform="rotate(290)" style="text-anchor: start;">METRICS</text></g><g class="tick" transform="translate(360,0)" style="opacity: 1;"><line y2="-6" x2="0"/><text dy="1em" y="-9" x="0" dx="1em" transform="rotate(290)" style="text-anchor: start;">SOFTWARE QUALITY</text></g><g class="tick" transform="translate(385.71428571428567,0)" style="opacity: 1;"><line y2="-6" x2="0"/><text dy="1em" y="-9" x="0" dx="1em" transform="rotate(290)" style="text-anchor: start;">EVOLUTION</text></g><g class="tick" transform="translate(411.4285714285714,0)" style="opacity: 1;"><line y2="-6" x2="0"/><text dy="1em" y="-9" x="0" dx="1em" transform="rotate(290)" style="text-anchor: start;">HUMAN COMPUTER INTERACTION</text></g><g class="tick" transform="translate(437.1428571428571,0)" style="opacity: 1;"><line y2="-6" x2="0"/><text dy="1em" y="-9" x="0" dx="1em" transform="rotate(290)" style="text-anchor: start;">MAINTENANCE</text></g><g class="tick" transform="translate(462.85714285714283,0)" style="opacity: 1;"><line y2="-6" x2="0"/><text dy="1em" y="-9" x="0" dx="1em" transform="rotate(290)" style="text-anchor: start;">SYNTHESIS</text></g><g class="tick" transform="translate(488.57142857142856,0)" style="opacity: 1;"><line y2="-6" x2="0"/><text dy="1em" y="-9" x="0" dx="1em" transform="rotate(290)" style="text-anchor: start;">INFORMATION SYSTMS</text></g><g class="tick" transform="translate(514.2857142857142,0)" style="opacity: 1;"><line y2="-6" x2="0"/><text dy="1em" y="-9" x="0" dx="1em" transform="rotate(290)" style="text-anchor: start;">METHODOLOGIES</text></g><g class="tick" transform="translate(540,0)" style="opacity: 1;"><line y2="-6" x2="0"/><text dy="1em" y="-9" x="0" dx="1em" transform="rotate(290)" style="text-anchor: start;">KNOWLEDGE ENGINEERING</text></g><g class="tick" transform="translate(565.7142857142857,0)" style="opacity: 1;"><line y2="-6" x2="0"/><text dy="1em" y="-9" x="0" dx="1em" transform="rotate(290)" style="text-anchor: start;">ARCHITECTURES</text></g><g class="tick" transform="translate(591.4285714285714,0)" style="opacity: 1;"><line y2="-6" x2="0"/><text dy="1em" y="-9" x="0" dx="1em" transform="rotate(290)" style="text-anchor: start;">SERVICES</text></g><g class="tick" transform="translate(617.1428571428571,0)" style="opacity: 1;"><line y2="-6" x2="0"/><text dy="1em" y="-9" x="0" dx="1em" transform="rotate(290)" style="text-anchor: start;">EDUCATION</text></g><g class="tick" transform="translate(642.8571428571429,0)" style="opacity: 1;"><line y2="-6" x2="0"/><text dy="1em" y="-9" x="0" dx="1em" transform="rotate(290)" style="text-anchor: start;">REQUIREMENTS</text></g><g class="tick" transform="translate(668.5714285714286,0)" style="opacity: 1;"><line y2="-6" x2="0"/><text dy="1em" y="-9" x="0" dx="1em" transform="rotate(290)" style="text-anchor: start;">REAL TIME SYSTEMS</text></g><g class="tick" transform="translate(694.2857142857143,0)" style="opacity: 1;"><line y2="-6" x2="0"/><text dy="1em" y="-9" x="0" dx="1em" transform="rotate(290)" style="text-anchor: start;">ADAPTIVE SYSTEMS</text></g><g class="tick" transform="translate(720,0)" style="opacity: 1;"><line y2="-6" x2="0"/><text dy="1em" y="-9" x="0" dx="1em" transform="rotate(290)" style="text-anchor: start;">OPERATING SYSTEMS</text></g><g class="tick" transform="translate(745.7142857142858,0)" style="opacity: 1;"><line y2="-6" x2="0"/><text dy="1em" y="-9" x="0" dx="1em" transform="rotate(290)" style="text-anchor: start;">CONCURRENCY</text></g><g class="tick" transform="translate(771.4285714285713,0)" style="opacity: 1;"><line y2="-6" x2="0"/><text dy="1em" y="-9" x="0" dx="1em" transform="rotate(290)" style="text-anchor: start;">DATABASE</text></g><g class="tick" transform="translate(797.1428571428571,0)" style="opacity: 1;"><line y2="-6" x2="0"/><text dy="1em" y="-9" x="0" dx="1em" transform="rotate(290)" style="text-anchor: start;">EMBEDDED</text></g><g class="tick" transform="translate(822.8571428571428,0)" style="opacity: 1;"><line y2="-6" x2="0"/><text dy="1em" y="-9" x="0" dx="1em" transform="rotate(290)" style="text-anchor: start;">PROCESS</text></g><g class="tick" transform="translate(848.5714285714286,0)" style="opacity: 1;"><line y2="-6" x2="0"/><text dy="1em" y="-9" x="0" dx="1em" transform="rotate(290)" style="text-anchor: start;">SECURITY</text></g><g class="tick" transform="translate(874.2857142857142,0)" style="opacity: 1;"><line y2="-6" x2="0"/><text dy="1em" y="-9" x="0" dx="1em" transform="rotate(290)" style="text-anchor: start;">PERFORMANCE</text></g><g class="tick" transform="translate(900,0)" style="opacity: 1;"><line y2="-6" x2="0"/><text dy="1em" y="-9" x="0" dx="1em" transform="rotate(290)" style="text-anchor: start;"/></g><path class="domain" d="M0,-6V0H900V-6"/></g><g><g class="journal"><circle cx="0" cy="120" r="5.5" style="fill: #17becf;"/><circle cx="25.71428571428571" cy="120" r="5.5" style="fill: #17becf;"/><text/><text/><text y="120" x="930" class="label" style="fill: #17becf;">Central Server Models with...</text></g><g class="journal"><circle cx="0" cy="140" r="7.000000000001999" style="fill: #17becf;"/><circle cx="51.42857142857142" cy="140" r="2.999999999999" style="fill: #17becf;"/><circle cx="25.71428571428571" cy="140" r="2.999999999999" style="fill: #17becf;"/><text/><text/><text/><text y="140" x="930" class="label" style="fill: #17becf;">Modeling Mobile IP in Mobile...</text></g><g class="journal"><circle cx="25.71428571428571" cy="160" r="4.625" style="fill: #17becf;"/><circle cx="0" cy="160" r="6.375" style="fill: #17becf;"/><text/><text/><text y="160" x="930" class="label" style="fill: #17becf;">MTSA: The Modal Transition...</text></g><g class="journal"><circle cx="25.71428571428571" cy="180" r="4.625" style="fill: #17becf;"/><circle cx="0" cy="180" r="6.375" style="fill: #17becf;"/><text/><text/><text y="180" x="930" class="label" style="fill: #17becf;">Existential live sequence...</text></g><g class="journal"><circle cx="25.71428571428571" cy="200" r="5.5" style="fill: #17becf;"/><circle cx="0" cy="200" r="5.5" style="fill: #17becf;"/><text/><text/><text y="200" x="930" class="label" style="fill: #17becf;">On correct and complete strong...</text></g><rect width="10" height="450" x="915" y="30" style="fill: #ffffff;"/></g><g><g class="journal"><circle cx="77.14285714285714" cy="220" r="5.5" style="fill: #1f77b4;"/><circle cx="25.71428571428571" cy="220" r="5.5" style="fill: #1f77b4;"/><text/><text/><text y="220" x="930" class="label" style="fill: #1f77b4;">A New Method of Image...</text></g><g class="journal"><circle cx="25.71428571428571" cy="240" r="5.5" style="fill: #1f77b4;"/><circle cx="77.14285714285714" cy="240" r="5.5" style="fill: #1f77b4;"/><text/><text/><text y="240" x="930" class="label" style="fill: #1f77b4;">Foundations of incremental...</text></g><g class="journal"><circle cx="25.71428571428571" cy="260" r="5.5" style="fill: #1f77b4;"/><circle cx="77.14285714285714" cy="260" r="5.5" style="fill: #1f77b4;"/><text/><text/><text y="260" x="930" class="label" style="fill: #1f77b4;">Deviation Analysis Through...</text></g><g class="journal"><circle cx="25.71428571428571" cy="280" r="5.5" style="fill: #1f77b4;"/><circle cx="77.14285714285714" cy="280" r="5.5" style="fill: #1f77b4;"/><text/><text/><text y="280" x="930" class="label" style="fill: #1f77b4;">Effective static deadlock...</text></g><g class="journal"><circle cx="25.71428571428571" cy="300" r="5.5" style="fill: #1f77b4;"/><circle cx="77.14285714285714" cy="300" r="5.5" style="fill: #1f77b4;"/><text/><text/><text y="300" x="930" class="label" style="fill: #1f77b4;">Alchemy: transmuting base...</text></g><rect width="10" height="450" x="915" y="480" style="fill: #ffffff;"/></g><g><g class="journal"><circle cx="102.85714285714285" cy="320" r="2.1366478575021" style="fill: #ff7f0e;"/><circle cx="128.57142857142856" cy="320" r="2.1370586217434" style="fill: #ff7f0e;"/><circle cx="154.28571428571428" cy="320" r="2.1483144433512003" style="fill: #ff7f0e;"/><circle cx="180" cy="320" r="2.01739719195291" style="fill: #ff7f0e;"/><circle cx="205.7142857142857" cy="320" r="2.9074494623950002" style="fill: #ff7f0e;"/><circle cx="231.42857142857142" cy="320" r="2.0011075952692767" style="fill: #ff7f0e;"/><circle cx="257.1428571428571" cy="320" r="2.0507019056814197" style="fill: #ff7f0e;"/><circle cx="282.85714285714283" cy="320" r="2.0956604720148" style="fill: #ff7f0e;"/><circle cx="0" cy="320" r="2.06394428578307" style="fill: #ff7f0e;"/><circle cx="308.57142857142856" cy="320" r="2.4696210010317" style="fill: #ff7f0e;"/><circle cx="334.2857142857143" cy="320" r="2.0962664226789998" style="fill: #ff7f0e;"/><circle cx="360" cy="320" r="2.01425760313516" style="fill: #ff7f0e;"/><circle cx="385.71428571428567" cy="320" r="2.01586893875588" style="fill: #ff7f0e;"/><circle cx="25.71428571428571" cy="320" r="2.06234200725403" style="fill: #ff7f0e;"/><circle cx="411.4285714285714" cy="320" r="2.0947058467558" style="fill: #ff7f0e;"/><circle cx="437.1428571428571" cy="320" r="6.256655671429" style="fill: #ff7f0e;"/><circle cx="462.85714285714283" cy="320" r="2.1727971523551" style="fill: #ff7f0e;"/><circle cx="488.57142857142856" cy="320" r="2.05015233665449" style="fill: #ff7f0e;"/><circle cx="51.42857142857142" cy="320" r="2.005421607786483" style="fill: #ff7f0e;"/><circle cx="514.2857142857142" cy="320" r="2.005265950969734" style="fill: #ff7f0e;"/><circle cx="540" cy="320" r="2.02833138526288" style="fill: #ff7f0e;"/><circle cx="565.7142857142857" cy="320" r="2.02758947475858" style="fill: #ff7f0e;"/><circle cx="591.4285714285714" cy="320" r="2.002862590380153" style="fill: #ff7f0e;"/><circle cx="77.14285714285714" cy="320" r="2.1364645869769" style="fill: #ff7f0e;"/><circle cx="617.1428571428571" cy="320" r="2.0002162095102385" style="fill: #ff7f0e;"/><circle cx="642.8571428571429" cy="320" r="2.002899378612893" style="fill: #ff7f0e;"/><text/><text/><text/><text/><text/><text/><text/><text/><text/><text/><text/><text/><text/><text/><text/><text/><text/><text/><text/><text/><text/><text/><text/><text/><text/><text/><text y="320" x="930" class="label" style="fill: #ff7f0e;">An Extensible System for...</text></g><g class="journal"><circle cx="411.4285714285714" cy="340" r="2.5384615384617" style="fill: #ff7f0e;"/><circle cx="102.85714285714285" cy="340" r="2.02692307692305" style="fill: #ff7f0e;"/><circle cx="437.1428571428571" cy="340" r="5.4730769230780005" style="fill: #ff7f0e;"/><circle cx="257.1428571428571" cy="340" r="2.1076923076922" style="fill: #ff7f0e;"/><circle cx="77.14285714285714" cy="340" r="2.5384615384617" style="fill: #ff7f0e;"/><circle cx="462.85714285714283" cy="340" r="2.1076923076922" style="fill: #ff7f0e;"/><circle cx="128.57142857142856" cy="340" r="2.5653846153844" style="fill: #ff7f0e;"/><circle cx="308.57142857142856" cy="340" r="2.5384615384617" style="fill: #ff7f0e;"/><circle cx="334.2857142857143" cy="340" r="2.02692307692305" style="fill: #ff7f0e;"/><circle cx="540" cy="340" r="2.5384615384617" style="fill: #ff7f0e;"/><circle cx="205.7142857142857" cy="340" r="2.5384615384617" style="fill: #ff7f0e;"/><text/><text/><text/><text/><text/><text/><text/><text/><text/><text/><text/><text y="340" x="930" class="label" style="fill: #ff7f0e;">The Desert environment.</text></g><g class="journal"><circle cx="565.7142857142857" cy="360" r="2.02758947475858" style="fill: #ff7f0e;"/><circle cx="154.28571428571428" cy="360" r="2.1483144433512003" style="fill: #ff7f0e;"/><circle cx="51.42857142857142" cy="360" r="2.005421607786483" style="fill: #ff7f0e;"/><circle cx="617.1428571428571" cy="360" r="2.0002162095102385" style="fill: #ff7f0e;"/><circle cx="257.1428571428571" cy="360" r="2.0507019056814197" style="fill: #ff7f0e;"/><circle cx="385.71428571428567" cy="360" r="2.01586893875588" style="fill: #ff7f0e;"/><circle cx="25.71428571428571" cy="360" r="2.06234200725403" style="fill: #ff7f0e;"/><circle cx="411.4285714285714" cy="360" r="2.0947058467558" style="fill: #ff7f0e;"/><circle cx="488.57142857142856" cy="360" r="2.05015233665449" style="fill: #ff7f0e;"/><circle cx="540" cy="360" r="2.02833138526288" style="fill: #ff7f0e;"/><circle cx="77.14285714285714" cy="360" r="2.1364645869769" style="fill: #ff7f0e;"/><circle cx="437.1428571428571" cy="360" r="6.256655671429" style="fill: #ff7f0e;"/><circle cx="514.2857142857142" cy="360" r="2.005265950969734" style="fill: #ff7f0e;"/><circle cx="334.2857142857143" cy="360" r="2.0962664226789998" style="fill: #ff7f0e;"/><circle cx="0" cy="360" r="2.06394428578307" style="fill: #ff7f0e;"/><circle cx="282.85714285714283" cy="360" r="2.0956604720148" style="fill: #ff7f0e;"/><circle cx="128.57142857142856" cy="360" r="2.1370586217434" style="fill: #ff7f0e;"/><circle cx="205.7142857142857" cy="360" r="2.9074494623950002" style="fill: #ff7f0e;"/><circle cx="180" cy="360" r="2.01739719195291" style="fill: #ff7f0e;"/><circle cx="642.8571428571429" cy="360" r="2.002899378612893" style="fill: #ff7f0e;"/><circle cx="308.57142857142856" cy="360" r="2.4696210010317" style="fill: #ff7f0e;"/><circle cx="591.4285714285714" cy="360" r="2.002862590380153" style="fill: #ff7f0e;"/><circle cx="360" cy="360" r="2.01425760313516" style="fill: #ff7f0e;"/><circle cx="462.85714285714283" cy="360" r="2.1727971523551" style="fill: #ff7f0e;"/><circle cx="231.42857142857142" cy="360" r="2.0011075952692767" style="fill: #ff7f0e;"/><circle cx="102.85714285714285" cy="360" r="2.1366478575021" style="fill: #ff7f0e;"/><text/><text/><text/><text/><text/><text/><text/><text/><text/><text/><text/><text/><text/><text/><text/><text/><text/><text/><text/><text/><text/><text/><text/><text/><text/><text/><text y="360" x="930" class="label" style="fill: #ff7f0e;">Automated Construction of...</text></g><g class="journal"><circle cx="668.5714285714286" cy="380" r="2.0000051324664643" style="fill: #ff7f0e;"/><circle cx="102.85714285714285" cy="380" r="2.02438493304443" style="fill: #ff7f0e;"/><circle cx="694.2857142857143" cy="380" r="2.0000000002213745" style="fill: #ff7f0e;"/><circle cx="128.57142857142856" cy="380" r="2.9338476518350003" style="fill: #ff7f0e;"/><circle cx="720" cy="380" r="2.000000628541809" style="fill: #ff7f0e;"/><circle cx="154.28571428571428" cy="380" r="2.0157966948489703" style="fill: #ff7f0e;"/><circle cx="180" cy="380" r="2.0004109319458685" style="fill: #ff7f0e;"/><circle cx="205.7142857142857" cy="380" r="2.2237745079899" style="fill: #ff7f0e;"/><circle cx="231.42857142857142" cy="380" r="2.0774962262662" style="fill: #ff7f0e;"/><circle cx="257.1428571428571" cy="380" r="2.2073948697506003" style="fill: #ff7f0e;"/><circle cx="745.7142857142858" cy="380" r="2.0000000001525176" style="fill: #ff7f0e;"/><circle cx="282.85714285714283" cy="380" r="2.000022411891855" style="fill: #ff7f0e;"/><circle cx="308.57142857142856" cy="380" r="2.2857570506784" style="fill: #ff7f0e;"/><circle cx="0" cy="380" r="2.0103579064117203" style="fill: #ff7f0e;"/><circle cx="334.2857142857143" cy="380" r="2.1395630100697" style="fill: #ff7f0e;"/><circle cx="360" cy="380" r="2.2333861668397" style="fill: #ff7f0e;"/><circle cx="385.71428571428567" cy="380" r="2.0007993194770752" style="fill: #ff7f0e;"/><circle cx="25.71428571428571" cy="380" r="2.1108255552082" style="fill: #ff7f0e;"/><circle cx="411.4285714285714" cy="380" r="2.000381410609162" style="fill: #ff7f0e;"/><circle cx="437.1428571428571" cy="380" r="5.732009529346" style="fill: #ff7f0e;"/><circle cx="771.4285714285713" cy="380" r="2.001989480004295" style="fill: #ff7f0e;"/><circle cx="462.85714285714283" cy="380" r="2.006853699208587" style="fill: #ff7f0e;"/><circle cx="488.57142857142856" cy="380" r="2.00788947358941" style="fill: #ff7f0e;"/><circle cx="51.42857142857142" cy="380" r="2.4111173737937" style="fill: #ff7f0e;"/><circle cx="514.2857142857142" cy="380" r="2.1644776096278" style="fill: #ff7f0e;"/><circle cx="540" cy="380" r="2.01022497297864" style="fill: #ff7f0e;"/><circle cx="565.7142857142857" cy="380" r="2.05989122713021" style="fill: #ff7f0e;"/><circle cx="797.1428571428571" cy="380" r="2.000000000603109" style="fill: #ff7f0e;"/><circle cx="591.4285714285714" cy="380" r="2.1439894457267" style="fill: #ff7f0e;"/><circle cx="822.8571428571428" cy="380" r="2.000959429824563" style="fill: #ff7f0e;"/><circle cx="77.14285714285714" cy="380" r="2.188168513491" style="fill: #ff7f0e;"/><circle cx="617.1428571428571" cy="380" r="2.000393280591483" style="fill: #ff7f0e;"/><circle cx="848.5714285714286" cy="380" r="2.0006435758976258" style="fill: #ff7f0e;"/><circle cx="642.8571428571429" cy="380" r="2.00718797994124" style="fill: #ff7f0e;"/><text/><text/><text/><text/><text/><text/><text/><text/><text/><text/><text/><text/><text/><text/><text/><text/><text/><text/><text/><text/><text/><text/><text/><text/><text/><text/><text/><text/><text/><text/><text/><text/><text/><text/><text y="380" x="930" class="label" style="fill: #ff7f0e;">Software Measure...</text></g><g class="journal"><circle cx="411.4285714285714" cy="400" r="2.3888888888892" style="fill: #ff7f0e;"/><circle cx="102.85714285714285" cy="400" r="2.3888888888892" style="fill: #ff7f0e;"/><circle cx="437.1428571428571" cy="400" r="6.888888888891" style="fill: #ff7f0e;"/><circle cx="257.1428571428571" cy="400" r="2.1111111111109997" style="fill: #ff7f0e;"/><circle cx="77.14285714285714" cy="400" r="2.1944444444446" style="fill: #ff7f0e;"/><circle cx="334.2857142857143" cy="400" r="2.4166666666666" style="fill: #ff7f0e;"/><circle cx="51.42857142857142" cy="400" r="2.1944444444446" style="fill: #ff7f0e;"/><circle cx="205.7142857142857" cy="400" r="2.4166666666666" style="fill: #ff7f0e;"/><text/><text/><text/><text/><text/><text/><text/><text/><text y="400" x="930" class="label" style="fill: #ff7f0e;">Automatic Method Completion.</text></g><rect width="10" height="450" x="915" y="930" style="fill: #ffffff;"/></g><g><g class="journal"><circle cx="77.14285714285714" cy="420" r="5.5" style="fill: #2ca02c;"/><circle cx="25.71428571428571" cy="420" r="5.5" style="fill: #2ca02c;"/><text/><text/><text y="420" x="930" class="label" style="fill: #2ca02c;">A Domain-Specific Language for...</text></g><g class="journal"><circle cx="25.71428571428571" cy="440" r="5.5" style="fill: #2ca02c;"/><circle cx="77.14285714285714" cy="440" r="5.5" style="fill: #2ca02c;"/><text/><text/><text y="440" x="930" class="label" style="fill: #2ca02c;">Composition and Refinement of...</text></g><g class="journal"><circle cx="25.71428571428571" cy="460" r="5.5" style="fill: #2ca02c;"/><circle cx="77.14285714285714" cy="460" r="5.5" style="fill: #2ca02c;"/><text/><text/><text y="460" x="930" class="label" style="fill: #2ca02c;">Tutorial on JML, the java...</text></g><g class="journal"><circle cx="25.71428571428571" cy="480" r="5.5" style="fill: #2ca02c;"/><circle cx="77.14285714285714" cy="480" r="5.5" style="fill: #2ca02c;"/><text/><text/><text y="480" x="930" class="label" style="fill: #2ca02c;">Integrating static analysis...</text></g><g class="journal"><circle cx="25.71428571428571" cy="500" r="5.5" style="fill: #2ca02c;"/><circle cx="77.14285714285714" cy="500" r="5.5" style="fill: #2ca02c;"/><text/><text/><text y="500" x="930" class="label" style="fill: #2ca02c;">Interpolation for data...</text></g><rect width="10" height="450" x="915" y="1380" style="fill: #ffffff;"/></g><g><g class="journal"><circle cx="231.42857142857142" cy="520" r="4.333333333331" style="fill: #d62728;"/><circle cx="360" cy="520" r="6.666666666669" style="fill: #d62728;"/><text/><text/><text y="520" x="930" class="label" style="fill: #d62728;">Avoiding coincidental...</text></g><g class="journal"><circle cx="360" cy="540" r="6.666666666669" style="fill: #d62728;"/><circle cx="231.42857142857142" cy="540" r="4.333333333331" style="fill: #d62728;"/><text/><text/><text y="540" x="930" class="label" style="fill: #d62728;">Evaluating Models for...</text></g><g class="journal"><circle cx="360" cy="560" r="6.666666666669" style="fill: #d62728;"/><circle cx="231.42857142857142" cy="560" r="4.333333333331" style="fill: #d62728;"/><text/><text/><text y="560" x="930" class="label" style="fill: #d62728;">Taming coincidental...</text></g><g class="journal"><circle cx="25.71428571428571" cy="580" r="2.5925925925927" style="fill: #d62728;"/><circle cx="591.4285714285714" cy="580" r="2.6574074074071" style="fill: #d62728;"/><circle cx="360" cy="580" r="7.601851851855" style="fill: #d62728;"/><circle cx="231.42857142857142" cy="580" r="2.148148148148" style="fill: #d62728;"/><text/><text/><text/><text/><text y="580" x="930" class="label" style="fill: #d62728;">Testing context-aware...</text></g><g class="journal"><circle cx="488.57142857142856" cy="600" r="2.7" style="fill: #d62728;"/><circle cx="180" cy="600" r="2.7" style="fill: #d62728;"/><circle cx="360" cy="600" r="6.9" style="fill: #d62728;"/><circle cx="231.42857142857142" cy="600" r="2.7" style="fill: #d62728;"/><text/><text/><text/><text/><text y="600" x="930" class="label" style="fill: #d62728;">Specification of...</text></g><rect width="10" height="450" x="915" y="1830" style="fill: #ffffff;"/></g><g><g class="journal"><circle cx="0" cy="620" r="5.5" style="fill: #9467bd;"/><circle cx="25.71428571428571" cy="620" r="5.5" style="fill: #9467bd;"/><text/><text/><text y="620" x="930" class="label" style="fill: #9467bd;">Synthesis of Partial Behavior...</text></g><g class="journal"><circle cx="77.14285714285714" cy="640" r="3.166666666669" style="fill: #9467bd;"/><circle cx="0" cy="640" r="5.5" style="fill: #9467bd;"/><circle cx="25.71428571428571" cy="640" r="4.333333333331" style="fill: #9467bd;"/><text/><text/><text/><text y="640" x="930" class="label" style="fill: #9467bd;">Coordinating Rule-Based...</text></g><g class="journal"><circle cx="25.71428571428571" cy="660" r="5.5" style="fill: #9467bd;"/><circle cx="0" cy="660" r="5.5" style="fill: #9467bd;"/><text/><text/><text y="660" x="930" class="label" style="fill: #9467bd;">A tool for automatic UML model...</text></g><g class="journal"><circle cx="25.71428571428571" cy="680" r="5.5" style="fill: #9467bd;"/><circle cx="0" cy="680" r="5.5" style="fill: #9467bd;"/><text/><text/><text y="680" x="930" class="label" style="fill: #9467bd;">Customizaton and Compositon of...</text></g><g class="journal"><circle cx="0" cy="700" r="4.625" style="fill: #9467bd;"/><circle cx="848.5714285714286" cy="700" r="2.175" style="fill: #9467bd;"/><circle cx="51.42857142857142" cy="700" r="2.175" style="fill: #9467bd;"/><circle cx="540" cy="700" r="2.175" style="fill: #9467bd;"/><circle cx="180" cy="700" r="2.175" style="fill: #9467bd;"/><circle cx="25.71428571428571" cy="700" r="5.675000000000001" style="fill: #9467bd;"/><text/><text/><text/><text/><text/><text/><text y="700" x="930" class="label" style="fill: #9467bd;">An Environment for Specifying...</text></g><rect width="10" height="450" x="915" y="2280" style="fill: #ffffff;"/></g><g><g class="journal"><circle cx="25.71428571428571" cy="720" r="4.333333333331" style="fill: #8c564b;"/><circle cx="77.14285714285714" cy="720" r="6.666666666669" style="fill: #8c564b;"/><text/><text/><text y="720" x="930" class="label" style="fill: #8c564b;">Design and Specification of...</text></g><g class="journal"><circle cx="25.71428571428571" cy="740" r="3.75" style="fill: #8c564b;"/><circle cx="77.14285714285714" cy="740" r="7.25" style="fill: #8c564b;"/><text/><text/><text y="740" x="930" class="label" style="fill: #8c564b;">Effective typestate...</text></g><g class="journal"><circle cx="25.71428571428571" cy="760" r="3.75" style="fill: #8c564b;"/><circle cx="77.14285714285714" cy="760" r="6.375" style="fill: #8c564b;"/><circle cx="231.42857142857142" cy="760" r="2.875" style="fill: #8c564b;"/><text/><text/><text/><text y="760" x="930" class="label" style="fill: #8c564b;">Accurate Centralization for...</text></g><g class="journal"><circle cx="25.71428571428571" cy="780" r="4.333333333331" style="fill: #8c564b;"/><circle cx="77.14285714285714" cy="780" r="6.666666666669" style="fill: #8c564b;"/><text/><text/><text y="780" x="930" class="label" style="fill: #8c564b;">The Property Vector...</text></g><g class="journal"><circle cx="231.42857142857142" cy="800" r="2.0546875" style="fill: #8c564b;"/><circle cx="565.7142857142857" cy="800" r="2.4921875" style="fill: #8c564b;"/><circle cx="437.1428571428571" cy="800" r="2.1276041666668997" style="fill: #8c564b;"/><circle cx="77.14285714285714" cy="800" r="6.065104166669" style="fill: #8c564b;"/><circle cx="128.57142857142856" cy="800" r="2.0546875" style="fill: #8c564b;"/><circle cx="0" cy="800" r="2.2552083333331003" style="fill: #8c564b;"/><circle cx="720" cy="800" r="2.0546875" style="fill: #8c564b;"/><circle cx="360" cy="800" r="2.0729166666669" style="fill: #8c564b;"/><circle cx="25.71428571428571" cy="800" r="3.75" style="fill: #8c564b;"/><circle cx="205.7142857142857" cy="800" r="2.0729166666669" style="fill: #8c564b;"/><text/><text/><text/><text/><text/><text/><text/><text/><text/><text/><text y="800" x="930" class="label" style="fill: #8c564b;">Using Specialized Procedures...</text></g><rect width="10" height="450" x="915" y="2730" style="fill: #ffffff;"/></g><g><g class="journal"><circle cx="231.42857142857142" cy="820" r="4.625" style="fill: #e377c2;"/><circle cx="77.14285714285714" cy="820" r="2.875" style="fill: #e377c2;"/><circle cx="25.71428571428571" cy="820" r="5.5" style="fill: #e377c2;"/><text/><text/><text/><text y="820" x="930" class="label" style="fill: #e377c2;">Discovering Documentation for...</text></g><g class="journal"><circle cx="231.42857142857142" cy="840" r="4.625" style="fill: #e377c2;"/><circle cx="77.14285714285714" cy="840" r="2.875" style="fill: #e377c2;"/><circle cx="25.71428571428571" cy="840" r="5.5" style="fill: #e377c2;"/><text/><text/><text/><text y="840" x="930" class="label" style="fill: #e377c2;">Developing and debugging...</text></g><g class="journal"><circle cx="25.71428571428571" cy="860" r="6.666666666669" style="fill: #e377c2;"/><circle cx="231.42857142857142" cy="860" r="4.333333333331" style="fill: #e377c2;"/><text/><text/><text y="860" x="930" class="label" style="fill: #e377c2;">Reggae: Automated Test...</text></g><g class="journal"><circle cx="797.1428571428571" cy="880" r="2.0729166666669" style="fill: #e377c2;"/><circle cx="25.71428571428571" cy="880" r="6.15625" style="fill: #e377c2;"/><circle cx="77.14285714285714" cy="880" r="2.5833333333331" style="fill: #e377c2;"/><circle cx="437.1428571428571" cy="880" r="2.0729166666669" style="fill: #e377c2;"/><circle cx="360" cy="880" r="2.21875" style="fill: #e377c2;"/><circle cx="231.42857142857142" cy="880" r="3.8958333333310002" style="fill: #e377c2;"/><text/><text/><text/><text/><text/><text/><text y="880" x="930" class="label" style="fill: #e377c2;">Automated systematic testing...</text></g><g class="journal"><circle cx="231.42857142857142" cy="900" r="3.385416666669" style="fill: #e377c2;"/><circle cx="797.1428571428571" cy="900" r="2.2552083333331003" style="fill: #e377c2;"/><circle cx="437.1428571428571" cy="900" r="2.2552083333331003" style="fill: #e377c2;"/><circle cx="77.14285714285714" cy="900" r="2.2916666666668997" style="fill: #e377c2;"/><circle cx="360" cy="900" r="2.765625" style="fill: #e377c2;"/><circle cx="25.71428571428571" cy="900" r="6.046875" style="fill: #e377c2;"/><text/><text/><text/><text/><text/><text/><text y="900" x="930" class="label" style="fill: #e377c2;">A Scalable Formal Method for...</text></g><rect width="10" height="450" x="915" y="3180" style="fill: #ffffff;"/></g><g><g class="journal"><circle cx="668.5714285714286" cy="920" r="2.02156482960639" style="fill: #7f7f7f;"/><circle cx="128.57142857142856" cy="920" r="2.001331107747025" style="fill: #7f7f7f;"/><circle cx="874.2857142857142" cy="920" r="2.000445804459391" style="fill: #7f7f7f;"/><circle cx="154.28571428571428" cy="920" r="2.02053541191828" style="fill: #7f7f7f;"/><circle cx="180" cy="920" r="2.1518101370359" style="fill: #7f7f7f;"/><circle cx="205.7142857142857" cy="920" r="2.004770423208019" style="fill: #7f7f7f;"/><circle cx="231.42857142857142" cy="920" r="2.0020965116136162" style="fill: #7f7f7f;"/><circle cx="745.7142857142858" cy="920" r="2.0006194946775295" style="fill: #7f7f7f;"/><circle cx="257.1428571428571" cy="920" r="2.000311145398802" style="fill: #7f7f7f;"/><circle cx="282.85714285714283" cy="920" r="2.0000142970235077" style="fill: #7f7f7f;"/><circle cx="308.57142857142856" cy="920" r="2.0002595728705264" style="fill: #7f7f7f;"/><circle cx="0" cy="920" r="4.580139894689" style="fill: #7f7f7f;"/><circle cx="334.2857142857143" cy="920" r="2.000183125650007" style="fill: #7f7f7f;"/><circle cx="360" cy="920" r="2.01002741067923" style="fill: #7f7f7f;"/><circle cx="25.71428571428571" cy="920" r="2.3542917644532" style="fill: #7f7f7f;"/><circle cx="411.4285714285714" cy="920" r="2.000516464937329" style="fill: #7f7f7f;"/><circle cx="771.4285714285713" cy="920" r="2.0000238870191223" style="fill: #7f7f7f;"/><circle cx="437.1428571428571" cy="920" r="2.0311295484613403" style="fill: #7f7f7f;"/><circle cx="462.85714285714283" cy="920" r="2.0002825783073717" style="fill: #7f7f7f;"/><circle cx="488.57142857142856" cy="920" r="2.3515854369965" style="fill: #7f7f7f;"/><circle cx="51.42857142857142" cy="920" r="2.3464011327406" style="fill: #7f7f7f;"/><circle cx="514.2857142857142" cy="920" r="2.3190814061778" style="fill: #7f7f7f;"/><circle cx="540" cy="920" r="2.0001898273226484" style="fill: #7f7f7f;"/><circle cx="565.7142857142857" cy="920" r="2.3205996186876" style="fill: #7f7f7f;"/><circle cx="797.1428571428571" cy="920" r="2.0202763003533297" style="fill: #7f7f7f;"/><circle cx="591.4285714285714" cy="920" r="2.003993324089692" style="fill: #7f7f7f;"/><circle cx="617.1428571428571" cy="920" r="2.6364278926488" style="fill: #7f7f7f;"/><circle cx="77.14285714285714" cy="920" r="2.3707602975132" style="fill: #7f7f7f;"/><circle cx="848.5714285714286" cy="920" r="2.0000129637420114" style="fill: #7f7f7f;"/><circle cx="642.8571428571429" cy="920" r="3.4503183899680003" style="fill: #7f7f7f;"/><text/><text/><text/><text/><text/><text/><text/><text/><text/><text/><text/><text/><text/><text/><text/><text/><text/><text/><text/><text/><text/><text/><text/><text/><text/><text/><text/><text/><text/><text/><text y="920" x="930" class="label" style="fill: #7f7f7f;">Experiences Using Lightweight...</text></g><g class="journal"><circle cx="0" cy="940" r="5.5" style="fill: #7f7f7f;"/><circle cx="642.8571428571429" cy="940" r="5.5" style="fill: #7f7f7f;"/><text/><text/><text y="940" x="930" class="label" style="fill: #7f7f7f;">Metamodel-based model...</text></g><g class="journal"><circle cx="0" cy="960" r="5.5" style="fill: #7f7f7f;"/><circle cx="642.8571428571429" cy="960" r="5.5" style="fill: #7f7f7f;"/><text/><text/><text y="960" x="930" class="label" style="fill: #7f7f7f;">Automating Software...</text></g><g class="journal"><circle cx="0" cy="980" r="6.199999999999999" style="fill: #7f7f7f;"/><circle cx="642.8571428571429" cy="980" r="4.8" style="fill: #7f7f7f;"/><text/><text/><text y="980" x="930" class="label" style="fill: #7f7f7f;">Metrics for model driven...</text></g><g class="journal"><circle cx="437.1428571428571" cy="1000" r="2.04915123456789" style="fill: #7f7f7f;"/><circle cx="771.4285714285713" cy="1000" r="2.02160493827163" style="fill: #7f7f7f;"/><circle cx="462.85714285714283" cy="1000" r="2.02353395061731" style="fill: #7f7f7f;"/><circle cx="488.57142857142856" cy="1000" r="2.03796296296296" style="fill: #7f7f7f;"/><circle cx="154.28571428571428" cy="1000" r="2.005555555555557" style="fill: #7f7f7f;"/><circle cx="205.7142857142857" cy="1000" r="2.2633641975307" style="fill: #7f7f7f;"/><circle cx="565.7142857142857" cy="1000" r="2.169624485597" style="fill: #7f7f7f;"/><circle cx="591.4285714285714" cy="1000" r="2.1151234567903" style="fill: #7f7f7f;"/><circle cx="745.7142857142858" cy="1000" r="2.005555555555557" style="fill: #7f7f7f;"/><circle cx="257.1428571428571" cy="1000" r="2.006558641975312" style="fill: #7f7f7f;"/><circle cx="77.14285714285714" cy="1000" r="2.02160493827163" style="fill: #7f7f7f;"/><circle cx="0" cy="1000" r="4.826543209875" style="fill: #7f7f7f;"/><circle cx="308.57142857142856" cy="1000" r="2.0842129629628" style="fill: #7f7f7f;"/><circle cx="334.2857142857143" cy="1000" r="2.000385802469136" style="fill: #7f7f7f;"/><circle cx="360" cy="1000" r="2.06995884773661" style="fill: #7f7f7f;"/><circle cx="25.71428571428571" cy="1000" r="2.1449382716047" style="fill: #7f7f7f;"/><circle cx="642.8571428571429" cy="1000" r="5.154320987657" style="fill: #7f7f7f;"/><text/><text/><text/><text/><text/><text/><text/><text/><text/><text/><text/><text/><text/><text/><text/><text/><text/><text y="1000" x="930" class="label" style="fill: #7f7f7f;">Composable semantics for...</text></g><rect width="10" height="450" x="915" y="3630" style="fill: #ffffff;"/></g><g><g class="journal"><circle cx="180" cy="1020" r="3.2499999999969997" style="fill: #bcbd22;"/><circle cx="642.8571428571429" cy="1020" r="7.000000000001999" style="fill: #bcbd22;"/><circle cx="360" cy="1020" r="2.2500000000001" style="fill: #bcbd22;"/><circle cx="231.42857142857142" cy="1020" r="2.5000000000002" style="fill: #bcbd22;"/><text/><text/><text/><text/><text y="1020" x="930" class="label" style="fill: #bcbd22;">A Cognitive-Based Mechanism...</text></g><g class="journal"><circle cx="642.8571428571429" cy="1040" r="6.666666666669" style="fill: #bcbd22;"/><circle cx="360" cy="1040" r="4.333333333331" style="fill: #bcbd22;"/><text/><text/><text y="1040" x="930" class="label" style="fill: #bcbd22;">An empirical study of...</text></g><g class="journal"><circle cx="0" cy="1060" r="3.75" style="fill: #bcbd22;"/><circle cx="642.8571428571429" cy="1060" r="7.25" style="fill: #bcbd22;"/><text/><text/><text y="1060" x="930" class="label" style="fill: #bcbd22;">An Analysis-Revision Cycle to...</text></g><g class="journal"><circle cx="0" cy="1080" r="2.999999999999" style="fill: #bcbd22;"/><circle cx="642.8571428571429" cy="1080" r="7.499999999998001" style="fill: #bcbd22;"/><circle cx="591.4285714285714" cy="1080" r="2.5000000000002" style="fill: #bcbd22;"/><text/><text/><text/><text y="1080" x="930" class="label" style="fill: #bcbd22;">How to Identify Binary...</text></g><g class="journal"><circle cx="51.42857142857142" cy="1100" r="2.777777777777" style="fill: #bcbd22;"/><circle cx="0" cy="1100" r="2.777777777777" style="fill: #bcbd22;"/><circle cx="642.8571428571429" cy="1100" r="7.444444444445999" style="fill: #bcbd22;"/><text/><text/><text/><text y="1100" x="930" class="label" style="fill: #bcbd22;">Requirements engineering: from...</text></g><rect width="10" height="450" x="915" y="4080" style="fill: #ffffff;"/></g></g></svg>
