<svg xmlns="http://www.w3.org/2000/svg" width="1420" height="1220" id="bundles" style="margin-left: 20px;"><g transform="translate(20,100)"><g class="x axis" transform="translate(0,90)"><g class="tick" transform="translate(0,0)" style="opacity: 1;"><line y2="-6" x2="0"/><text dy="1em" y="-9" x="0" dx="1em" transform="rotate(290)" style="text-anchor: start;">REAL TIME SYSTEMS</text></g><g class="tick" transform="translate(25,0)" style="opacity: 1;"><line y2="-6" x2="0"/><text dy="1em" y="-9" x="0" dx="1em" transform="rotate(290)" style="text-anchor: start;">VISUALIZATION</text></g><g class="tick" transform="translate(50,0)" style="opacity: 1;"><line y2="-6" x2="0"/><text dy="1em" y="-9" x="0" dx="1em" transform="rotate(290)" style="text-anchor: start;">PROGRAM ANALYSIS</text></g><g class="tick" transform="translate(75,0)" style="opacity: 1;"><line y2="-6" x2="0"/><text dy="1em" y="-9" x="0" dx="1em" transform="rotate(290)" style="text-anchor: start;">OPERATING SYSTEMS</text></g><g class="tick" transform="translate(100,0)" style="opacity: 1;"><line y2="-6" x2="0"/><text dy="1em" y="-9" x="0" dx="1em" transform="rotate(290)" style="text-anchor: start;">ARTIFICIAL INTELLIGENCE</text></g><g class="tick" transform="translate(125,0)" style="opacity: 1;"><line y2="-6" x2="0"/><text dy="1em" y="-9" x="0" dx="1em" transform="rotate(290)" style="text-anchor: start;">RELIABILITY</text></g><g class="tick" transform="translate(150,0)" style="opacity: 1;"><line y2="-6" x2="0"/><text dy="1em" y="-9" x="0" dx="1em" transform="rotate(290)" style="text-anchor: start;">PROGRAM COMPREHENSION</text></g><g class="tick" transform="translate(175,0)" style="opacity: 1;"><line y2="-6" x2="0"/><text dy="1em" y="-9" x="0" dx="1em" transform="rotate(290)" style="text-anchor: start;">TESTING</text></g><g class="tick" transform="translate(200,0)" style="opacity: 1;"><line y2="-6" x2="0"/><text dy="1em" y="-9" x="0" dx="1em" transform="rotate(290)" style="text-anchor: start;">EMPIRICAL SOFTWARE ENGINEERING</text></g><g class="tick" transform="translate(225,0)" style="opacity: 1;"><line y2="-6" x2="0"/><text dy="1em" y="-9" x="0" dx="1em" transform="rotate(290)" style="text-anchor: start;">CONCURRENCY</text></g><g class="tick" transform="translate(250,0)" style="opacity: 1;"><line y2="-6" x2="0"/><text dy="1em" y="-9" x="0" dx="1em" transform="rotate(290)" style="text-anchor: start;">MODELS</text></g><g class="tick" transform="translate(275,0)" style="opacity: 1;"><line y2="-6" x2="0"/><text dy="1em" y="-9" x="0" dx="1em" transform="rotate(290)" style="text-anchor: start;">METRICS</text></g><g class="tick" transform="translate(300,0)" style="opacity: 1;"><line y2="-6" x2="0"/><text dy="1em" y="-9" x="0" dx="1em" transform="rotate(290)" style="text-anchor: start;">SOFTWARE QUALITY</text></g><g class="tick" transform="translate(325,0)" style="opacity: 1;"><line y2="-6" x2="0"/><text dy="1em" y="-9" x="0" dx="1em" transform="rotate(290)" style="text-anchor: start;">EVOLUTION</text></g><g class="tick" transform="translate(350,0)" style="opacity: 1;"><line y2="-6" x2="0"/><text dy="1em" y="-9" x="0" dx="1em" transform="rotate(290)" style="text-anchor: start;">FORMAL METHODS</text></g><g class="tick" transform="translate(375,0)" style="opacity: 1;"><line y2="-6" x2="0"/><text dy="1em" y="-9" x="0" dx="1em" transform="rotate(290)" style="text-anchor: start;">HUMAN COMPUTER INTERACTION</text></g><g class="tick" transform="translate(400,0)" style="opacity: 1;"><line y2="-6" x2="0"/><text dy="1em" y="-9" x="0" dx="1em" transform="rotate(290)" style="text-anchor: start;">DATABASE</text></g><g class="tick" transform="translate(425,0)" style="opacity: 1;"><line y2="-6" x2="0"/><text dy="1em" y="-9" x="0" dx="1em" transform="rotate(290)" style="text-anchor: start;">MAINTENANCE</text></g><g class="tick" transform="translate(450,0)" style="opacity: 1;"><line y2="-6" x2="0"/><text dy="1em" y="-9" x="0" dx="1em" transform="rotate(290)" style="text-anchor: start;">ALGORITHM</text></g><g class="tick" transform="translate(475,0)" style="opacity: 1;"><line y2="-6" x2="0"/><text dy="1em" y="-9" x="0" dx="1em" transform="rotate(290)" style="text-anchor: start;">INFORMATION SYSTMS</text></g><g class="tick" transform="translate(500,0)" style="opacity: 1;"><line y2="-6" x2="0"/><text dy="1em" y="-9" x="0" dx="1em" transform="rotate(290)" style="text-anchor: start;">DISTRIBUTED SYSTEMS</text></g><g class="tick" transform="translate(525,0)" style="opacity: 1;"><line y2="-6" x2="0"/><text dy="1em" y="-9" x="0" dx="1em" transform="rotate(290)" style="text-anchor: start;">METHODOLOGIES</text></g><g class="tick" transform="translate(550,0)" style="opacity: 1;"><line y2="-6" x2="0"/><text dy="1em" y="-9" x="0" dx="1em" transform="rotate(290)" style="text-anchor: start;">KNOWLEDGE ENGINEERING</text></g><g class="tick" transform="translate(575,0)" style="opacity: 1;"><line y2="-6" x2="0"/><text dy="1em" y="-9" x="0" dx="1em" transform="rotate(290)" style="text-anchor: start;">ARCHITECTURES</text></g><g class="tick" transform="translate(600,0)" style="opacity: 1;"><line y2="-6" x2="0"/><text dy="1em" y="-9" x="0" dx="1em" transform="rotate(290)" style="text-anchor: start;">SERVICES</text></g><g class="tick" transform="translate(625,0)" style="opacity: 1;"><line y2="-6" x2="0"/><text dy="1em" y="-9" x="0" dx="1em" transform="rotate(290)" style="text-anchor: start;">LANGUAGES</text></g><g class="tick" transform="translate(650,0)" style="opacity: 1;"><line y2="-6" x2="0"/><text dy="1em" y="-9" x="0" dx="1em" transform="rotate(290)" style="text-anchor: start;">SECURITY</text></g><g class="tick" transform="translate(675,0)" style="opacity: 1;"><line y2="-6" x2="0"/><text dy="1em" y="-9" x="0" dx="1em" transform="rotate(290)" style="text-anchor: start;">REQUIREMENTS</text></g><g class="tick" transform="translate(700,0)" style="opacity: 1;"><line y2="-6" x2="0"/><text dy="1em" y="-9" x="0" dx="1em" transform="rotate(290)" style="text-anchor: start;">REVERSE ENGINEERING</text></g><g class="tick" transform="translate(725,0)" style="opacity: 1;"><line y2="-6" x2="0"/><text dy="1em" y="-9" x="0" dx="1em" transform="rotate(290)" style="text-anchor: start;">EDUCATION</text></g><g class="tick" transform="translate(750,0)" style="opacity: 1;"><line y2="-6" x2="0"/><text dy="1em" y="-9" x="0" dx="1em" transform="rotate(290)" style="text-anchor: start;">PROCESS</text></g><g class="tick" transform="translate(775,0)" style="opacity: 1;"><line y2="-6" x2="0"/><text dy="1em" y="-9" x="0" dx="1em" transform="rotate(290)" style="text-anchor: start;">PRODUCT LINES</text></g><g class="tick" transform="translate(800,0)" style="opacity: 1;"><line y2="-6" x2="0"/><text dy="1em" y="-9" x="0" dx="1em" transform="rotate(290)" style="text-anchor: start;">SYNTHESIS</text></g><g class="tick" transform="translate(825,0)" style="opacity: 1;"><line y2="-6" x2="0"/><text dy="1em" y="-9" x="0" dx="1em" transform="rotate(290)" style="text-anchor: start;">ADAPTIVE SYSTEMS</text></g><g class="tick" transform="translate(850,0)" style="opacity: 1;"><line y2="-6" x2="0"/><text dy="1em" y="-9" x="0" dx="1em" transform="rotate(290)" style="text-anchor: start;">EMBEDDED</text></g><g class="tick" transform="translate(875,0)" style="opacity: 1;"><line y2="-6" x2="0"/><text dy="1em" y="-9" x="0" dx="1em" transform="rotate(290)" style="text-anchor: start;">PERFORMANCE</text></g><g class="tick" transform="translate(900,0)" style="opacity: 1;"><line y2="-6" x2="0"/><text dy="1em" y="-9" x="0" dx="1em" transform="rotate(290)" style="text-anchor: start;"/></g><path class="domain" d="M0,-6V0H900V-6"/></g><g><g class="journal"><circle cx="0" cy="120" r="2.2813475498589" style="fill: #17becf;"/><circle cx="25" cy="120" r="2.0000078278761855" style="fill: #17becf;"/><circle cx="50" cy="120" r="2.001353344835437" style="fill: #17becf;"/><circle cx="75" cy="120" r="2.0546875" style="fill: #17becf;"/><circle cx="100" cy="120" r="2.003007024678217" style="fill: #17becf;"/><circle cx="125" cy="120" r="2.06322495955202" style="fill: #17becf;"/><circle cx="150" cy="120" r="2.002379813511138" style="fill: #17becf;"/><circle cx="175" cy="120" r="2.05817906299142" style="fill: #17becf;"/><circle cx="200" cy="120" r="2.0133446396974097" style="fill: #17becf;"/><circle cx="225" cy="120" r="7.853532608693" style="fill: #17becf;"/><circle cx="250" cy="120" r="2.0003438738231374" style="fill: #17becf;"/><circle cx="275" cy="120" r="2.0000001223105657" style="fill: #17becf;"/><circle cx="300" cy="120" r="2.0071719097142" style="fill: #17becf;"/><circle cx="325" cy="120" r="2.000700147340424" style="fill: #17becf;"/><circle cx="350" cy="120" r="2.0721983839031" style="fill: #17becf;"/><circle cx="375" cy="120" r="2.000000489242262" style="fill: #17becf;"/><circle cx="400" cy="120" r="2.003926254886505" style="fill: #17becf;"/><circle cx="425" cy="120" r="2.0926500939441" style="fill: #17becf;"/><circle cx="450" cy="120" r="2.0000001134474807" style="fill: #17becf;"/><circle cx="475" cy="120" r="2.0000000611552826" style="fill: #17becf;"/><circle cx="500" cy="120" r="2.3027435319657" style="fill: #17becf;"/><circle cx="525" cy="120" r="2.0001678356330945" style="fill: #17becf;"/><circle cx="550" cy="120" r="2.0304347826087197" style="fill: #17becf;"/><circle cx="575" cy="120" r="2.059768741375" style="fill: #17becf;"/><circle cx="600" cy="120" r="2.00303958692891" style="fill: #17becf;"/><circle cx="625" cy="120" r="2.03529896279441" style="fill: #17becf;"/><circle cx="650" cy="120" r="2.0000000790694563" style="fill: #17becf;"/><circle cx="675" cy="120" r="2.03314694816055" style="fill: #17becf;"/><text/><text/><text/><text/><text/><text/><text/><text/><text/><text/><text/><text/><text/><text/><text/><text/><text/><text/><text/><text/><text/><text/><text/><text/><text/><text/><text/><text/><text y="120" x="930" class="label" style="fill: #17becf;">Monitoring for Deadlock and...</text></g><rect width="10" height="90" x="915" y="30" style="fill: #ffffff;"/></g><g><g class="journal"><circle cx="625" cy="140" r="5.5" style="fill: #1f77b4;"/><circle cx="350" cy="140" r="5.5" style="fill: #1f77b4;"/><text/><text/><text y="140" x="930" class="label" style="fill: #1f77b4;">A Domain-Specific Language for...</text></g><g class="journal"><circle cx="350" cy="160" r="5.5" style="fill: #1f77b4;"/><circle cx="625" cy="160" r="5.5" style="fill: #1f77b4;"/><text/><text/><text y="160" x="930" class="label" style="fill: #1f77b4;">Composition and Refinement of...</text></g><g class="journal"><circle cx="350" cy="180" r="5.5" style="fill: #1f77b4;"/><circle cx="625" cy="180" r="5.5" style="fill: #1f77b4;"/><text/><text/><text y="180" x="930" class="label" style="fill: #1f77b4;">Tutorial on JML, the java...</text></g><g class="journal"><circle cx="350" cy="200" r="5.5" style="fill: #1f77b4;"/><circle cx="625" cy="200" r="5.5" style="fill: #1f77b4;"/><text/><text/><text y="200" x="930" class="label" style="fill: #1f77b4;">Integrating static analysis...</text></g><g class="journal"><circle cx="350" cy="220" r="5.5" style="fill: #1f77b4;"/><circle cx="625" cy="220" r="5.5" style="fill: #1f77b4;"/><text/><text/><text y="220" x="930" class="label" style="fill: #1f77b4;">Interpolation for data...</text></g><rect width="10" height="450" x="915" y="480" style="fill: #ffffff;"/></g><g><g class="journal"><circle cx="125" cy="240" r="3.2499999999969997" style="fill: #ff7f0e;"/><circle cx="675" cy="240" r="7.000000000001999" style="fill: #ff7f0e;"/><circle cx="300" cy="240" r="2.2500000000001" style="fill: #ff7f0e;"/><circle cx="175" cy="240" r="2.5000000000002" style="fill: #ff7f0e;"/><text/><text/><text/><text/><text y="240" x="930" class="label" style="fill: #ff7f0e;">A Cognitive-Based Mechanism...</text></g><g class="journal"><circle cx="250" cy="260" r="3.999999999998" style="fill: #ff7f0e;"/><circle cx="675" cy="260" r="6.000000000003" style="fill: #ff7f0e;"/><circle cx="600" cy="260" r="2.999999999999" style="fill: #ff7f0e;"/><text/><text/><text/><text y="260" x="930" class="label" style="fill: #ff7f0e;">Semantic parameterization: A...</text></g><g class="journal"><circle cx="250" cy="280" r="3.75" style="fill: #ff7f0e;"/><circle cx="675" cy="280" r="7.25" style="fill: #ff7f0e;"/><text/><text/><text y="280" x="930" class="label" style="fill: #ff7f0e;">An Analysis-Revision Cycle to...</text></g><g class="journal"><circle cx="250" cy="300" r="2.999999999999" style="fill: #ff7f0e;"/><circle cx="675" cy="300" r="7.499999999998001" style="fill: #ff7f0e;"/><circle cx="600" cy="300" r="2.5000000000002" style="fill: #ff7f0e;"/><text/><text/><text/><text y="300" x="930" class="label" style="fill: #ff7f0e;">How to Identify Binary...</text></g><g class="journal"><circle cx="500" cy="320" r="2.777777777777" style="fill: #ff7f0e;"/><circle cx="250" cy="320" r="2.777777777777" style="fill: #ff7f0e;"/><circle cx="675" cy="320" r="7.444444444445999" style="fill: #ff7f0e;"/><text/><text/><text/><text y="320" x="930" class="label" style="fill: #ff7f0e;">Requirements engineering: from...</text></g><rect width="10" height="450" x="915" y="930" style="fill: #ffffff;"/></g><g><g class="journal"><circle cx="575" cy="340" r="5.5" style="fill: #2ca02c;"/><circle cx="150" cy="340" r="5.5" style="fill: #2ca02c;"/><text/><text/><text y="340" x="930" class="label" style="fill: #2ca02c;">Software Architecture...</text></g><g class="journal"><circle cx="575" cy="360" r="4.333333333331" style="fill: #2ca02c;"/><circle cx="150" cy="360" r="6.666666666669" style="fill: #2ca02c;"/><text/><text/><text y="360" x="930" class="label" style="fill: #2ca02c;">Formal interpreters for...</text></g><g class="journal"><circle cx="575" cy="380" r="4.8" style="fill: #2ca02c;"/><circle cx="350" cy="380" r="2.04666666666669" style="fill: #2ca02c;"/><circle cx="475" cy="380" r="2.04666666666669" style="fill: #2ca02c;"/><circle cx="550" cy="380" r="2.7466666666690003" style="fill: #2ca02c;"/><circle cx="425" cy="380" r="2.04666666666669" style="fill: #2ca02c;"/><circle cx="275" cy="380" r="2.04666666666669" style="fill: #2ca02c;"/><circle cx="250" cy="380" r="2.28" style="fill: #2ca02c;"/><circle cx="150" cy="380" r="4.893333333331" style="fill: #2ca02c;"/><circle cx="700" cy="380" r="2.04666666666669" style="fill: #2ca02c;"/><circle cx="300" cy="380" r="2.04666666666669" style="fill: #2ca02c;"/><text/><text/><text/><text/><text/><text/><text/><text/><text/><text/><text y="380" x="930" class="label" style="fill: #2ca02c;">SPQR: Flexible Automated...</text></g><g class="journal"><circle cx="575" cy="400" r="5.5" style="fill: #2ca02c;"/><circle cx="150" cy="400" r="5.5" style="fill: #2ca02c;"/><text/><text/><text y="400" x="930" class="label" style="fill: #2ca02c;">Improving API documentation...</text></g><g class="journal"><circle cx="575" cy="420" r="7.833333333331" style="fill: #2ca02c;"/><circle cx="150" cy="420" r="3.166666666669" style="fill: #2ca02c;"/><text/><text/><text y="420" x="930" class="label" style="fill: #2ca02c;">The universe model: an...</text></g><rect width="10" height="450" x="915" y="1380" style="fill: #ffffff;"/></g><g><g class="journal"><circle cx="575" cy="440" r="2.006525072150072" style="fill: #d62728;"/><circle cx="100" cy="440" r="2.0712904738917" style="fill: #d62728;"/><circle cx="725" cy="440" r="2.1247685185187" style="fill: #d62728;"/><circle cx="200" cy="440" r="3.362316989929" style="fill: #d62728;"/><circle cx="325" cy="440" r="2.00151515151515" style="fill: #d62728;"/><circle cx="375" cy="440" r="2.2294618055555" style="fill: #d62728;"/><circle cx="550" cy="440" r="2.2448842592595" style="fill: #d62728;"/><circle cx="625" cy="440" r="2.00151515151515" style="fill: #d62728;"/><circle cx="425" cy="440" r="2.91692227333" style="fill: #d62728;"/><circle cx="525" cy="440" r="2.2043256753461" style="fill: #d62728;"/><circle cx="275" cy="440" r="4.186250663142" style="fill: #d62728;"/><circle cx="250" cy="440" r="2.0706828703707" style="fill: #d62728;"/><circle cx="750" cy="440" r="2.03088235294116" style="fill: #d62728;"/><circle cx="775" cy="440" r="2.0000103096794275" style="fill: #d62728;"/><circle cx="50" cy="440" r="2.04861111111108" style="fill: #d62728;"/><circle cx="150" cy="440" r="2.00843434343437" style="fill: #d62728;"/><circle cx="125" cy="440" r="2.9231902533770002" style="fill: #d62728;"/><circle cx="675" cy="440" r="2.02258184523812" style="fill: #d62728;"/><circle cx="700" cy="440" r="2.0060606060606068" style="fill: #d62728;"/><circle cx="300" cy="440" r="2.232883699566" style="fill: #d62728;"/><circle cx="175" cy="440" r="2.2445023148148" style="fill: #d62728;"/><circle cx="25" cy="440" r="2.06238425925928" style="fill: #d62728;"/><text/><text/><text/><text/><text/><text/><text/><text/><text/><text/><text/><text/><text/><text/><text/><text/><text/><text/><text/><text/><text/><text/><text y="440" x="930" class="label" style="fill: #d62728;">Understanding the Sources of...</text></g><g class="journal"><circle cx="25" cy="460" r="2.3181818181815" style="fill: #d62728;"/><circle cx="425" cy="460" r="2.3363636363633" style="fill: #d62728;"/><circle cx="50" cy="460" r="2.6363636363636997" style="fill: #d62728;"/><circle cx="100" cy="460" r="2.02045454545456" style="fill: #d62728;"/><circle cx="550" cy="460" r="2.6681818181815" style="fill: #d62728;"/><circle cx="125" cy="460" r="2.0181818181818" style="fill: #d62728;"/><circle cx="150" cy="460" r="2.002272727272725" style="fill: #d62728;"/><circle cx="175" cy="460" r="2.35" style="fill: #d62728;"/><circle cx="200" cy="460" r="2.3363636363633" style="fill: #d62728;"/><circle cx="625" cy="460" r="2.3340909090911" style="fill: #d62728;"/><circle cx="700" cy="460" r="2.04772727272726" style="fill: #d62728;"/><circle cx="275" cy="460" r="5.9000000000010004" style="fill: #d62728;"/><circle cx="300" cy="460" r="2.01590909090911" style="fill: #d62728;"/><circle cx="325" cy="460" r="2.01590909090911" style="fill: #d62728;"/><text/><text/><text/><text/><text/><text/><text/><text/><text/><text/><text/><text/><text/><text/><text y="460" x="930" class="label" style="fill: #d62728;">Automatic Identification of...</text></g><g class="journal"><circle cx="200" cy="480" r="5.5" style="fill: #d62728;"/><circle cx="275" cy="480" r="5.5" style="fill: #d62728;"/><text/><text/><text y="480" x="930" class="label" style="fill: #d62728;">Interval quality: relating...</text></g><g class="journal"><circle cx="200" cy="500" r="5.5" style="fill: #d62728;"/><circle cx="275" cy="500" r="5.5" style="fill: #d62728;"/><text/><text/><text y="500" x="930" class="label" style="fill: #d62728;">Relevancy based semantic...</text></g><g class="journal"><circle cx="25" cy="520" r="2.0075431034483" style="fill: #d62728;"/><circle cx="425" cy="520" r="2.0875" style="fill: #d62728;"/><circle cx="50" cy="520" r="2.0075431034483" style="fill: #d62728;"/><circle cx="475" cy="520" r="2.5099137931034" style="fill: #d62728;"/><circle cx="500" cy="520" r="2.1206896551721" style="fill: #d62728;"/><circle cx="100" cy="520" r="2.2353448275864" style="fill: #d62728;"/><circle cx="125" cy="520" r="2.7874999999999996" style="fill: #d62728;"/><circle cx="550" cy="520" r="2.06034482758619" style="fill: #d62728;"/><circle cx="175" cy="520" r="2.1206896551721" style="fill: #d62728;"/><circle cx="200" cy="520" r="4.41681034483" style="fill: #d62728;"/><circle cx="625" cy="520" r="2.1206896551721" style="fill: #d62728;"/><circle cx="250" cy="520" r="2.03017241379313" style="fill: #d62728;"/><circle cx="275" cy="520" r="4.106034482762" style="fill: #d62728;"/><circle cx="300" cy="520" r="2.2413793103449" style="fill: #d62728;"/><circle cx="675" cy="520" r="2.06034482758619" style="fill: #d62728;"/><circle cx="350" cy="520" r="2.0875" style="fill: #d62728;"/><text/><text/><text/><text/><text/><text/><text/><text/><text/><text/><text/><text/><text/><text/><text/><text/><text y="520" x="930" class="label" style="fill: #d62728;">Estimeetings: Development...</text></g><rect width="10" height="450" x="915" y="1830" style="fill: #ffffff;"/></g><g><g class="journal"><circle cx="175" cy="540" r="4.333333333331" style="fill: #9467bd;"/><circle cx="300" cy="540" r="6.666666666669" style="fill: #9467bd;"/><text/><text/><text y="540" x="930" class="label" style="fill: #9467bd;">Avoiding coincidental...</text></g><g class="journal"><circle cx="300" cy="560" r="6.666666666669" style="fill: #9467bd;"/><circle cx="175" cy="560" r="4.333333333331" style="fill: #9467bd;"/><text/><text/><text y="560" x="930" class="label" style="fill: #9467bd;">Evaluating Models for...</text></g><g class="journal"><circle cx="300" cy="580" r="6.666666666669" style="fill: #9467bd;"/><circle cx="175" cy="580" r="4.333333333331" style="fill: #9467bd;"/><text/><text/><text y="580" x="930" class="label" style="fill: #9467bd;">Taming coincidental...</text></g><g class="journal"><circle cx="375" cy="600" r="2.03870650183148" style="fill: #9467bd;"/><circle cx="25" cy="600" r="2.004761904761908" style="fill: #9467bd;"/><circle cx="425" cy="600" r="2.1735988225419" style="fill: #9467bd;"/><circle cx="800" cy="600" r="2.03963738059323" style="fill: #9467bd;"/><circle cx="475" cy="600" r="2.0000356125356125" style="fill: #9467bd;"/><circle cx="525" cy="600" r="2.2012833231584" style="fill: #9467bd;"/><circle cx="100" cy="600" r="2.003941600678736" style="fill: #9467bd;"/><circle cx="550" cy="600" r="2.01249999999997" style="fill: #9467bd;"/><circle cx="125" cy="600" r="2.0128257200316" style="fill: #9467bd;"/><circle cx="150" cy="600" r="2.3066399348201" style="fill: #9467bd;"/><circle cx="175" cy="600" r="2.01785714285712" style="fill: #9467bd;"/><circle cx="575" cy="600" r="2.0854055489714" style="fill: #9467bd;"/><circle cx="600" cy="600" r="2.1349130036632" style="fill: #9467bd;"/><circle cx="200" cy="600" r="2.0972816824377998" style="fill: #9467bd;"/><circle cx="625" cy="600" r="2.8042268189339996" style="fill: #9467bd;"/><circle cx="775" cy="600" r="2.0119249622926" style="fill: #9467bd;"/><circle cx="700" cy="600" r="2.0161438619251" style="fill: #9467bd;"/><circle cx="250" cy="600" r="2.02562396753574" style="fill: #9467bd;"/><circle cx="650" cy="600" r="2.0897435897435" style="fill: #9467bd;"/><circle cx="275" cy="600" r="2.006370001526252" style="fill: #9467bd;"/><circle cx="300" cy="600" r="6.82630021293" style="fill: #9467bd;"/><circle cx="325" cy="600" r="2.005761599511598" style="fill: #9467bd;"/><circle cx="350" cy="600" r="2.0705882352938" style="fill: #9467bd;"/><circle cx="675" cy="600" r="2.01392857142859" style="fill: #9467bd;"/><text/><text/><text/><text/><text/><text/><text/><text/><text/><text/><text/><text/><text/><text/><text/><text/><text/><text/><text/><text/><text/><text/><text/><text/><text y="600" x="930" class="label" style="fill: #9467bd;">Coven: brewing better...</text></g><g class="journal"><circle cx="475" cy="620" r="2.7" style="fill: #9467bd;"/><circle cx="125" cy="620" r="2.7" style="fill: #9467bd;"/><circle cx="300" cy="620" r="6.9" style="fill: #9467bd;"/><circle cx="175" cy="620" r="2.7" style="fill: #9467bd;"/><text/><text/><text/><text/><text y="620" x="930" class="label" style="fill: #9467bd;">Specification of...</text></g><rect width="10" height="450" x="915" y="2280" style="fill: #ffffff;"/></g><g><g class="journal"><circle cx="25" cy="640" r="2.1366478575021" style="fill: #8c564b;"/><circle cx="50" cy="640" r="2.1370586217434" style="fill: #8c564b;"/><circle cx="100" cy="640" r="2.1483144433512003" style="fill: #8c564b;"/><circle cx="125" cy="640" r="2.01739719195291" style="fill: #8c564b;"/><circle cx="150" cy="640" r="2.9074494623950002" style="fill: #8c564b;"/><circle cx="175" cy="640" r="2.0011075952692767" style="fill: #8c564b;"/><circle cx="200" cy="640" r="2.0507019056814197" style="fill: #8c564b;"/><circle cx="775" cy="640" r="2.0956604720148" style="fill: #8c564b;"/><circle cx="250" cy="640" r="2.06394428578307" style="fill: #8c564b;"/><circle cx="700" cy="640" r="2.4696210010317" style="fill: #8c564b;"/><circle cx="275" cy="640" r="2.0962664226789998" style="fill: #8c564b;"/><circle cx="300" cy="640" r="2.01425760313516" style="fill: #8c564b;"/><circle cx="325" cy="640" r="2.01586893875588" style="fill: #8c564b;"/><circle cx="350" cy="640" r="2.06234200725403" style="fill: #8c564b;"/><circle cx="375" cy="640" r="2.0947058467558" style="fill: #8c564b;"/><circle cx="425" cy="640" r="6.256655671429" style="fill: #8c564b;"/><circle cx="800" cy="640" r="2.1727971523551" style="fill: #8c564b;"/><circle cx="475" cy="640" r="2.05015233665449" style="fill: #8c564b;"/><circle cx="500" cy="640" r="2.005421607786483" style="fill: #8c564b;"/><circle cx="525" cy="640" r="2.005265950969734" style="fill: #8c564b;"/><circle cx="550" cy="640" r="2.02833138526288" style="fill: #8c564b;"/><circle cx="575" cy="640" r="2.02758947475858" style="fill: #8c564b;"/><circle cx="600" cy="640" r="2.002862590380153" style="fill: #8c564b;"/><circle cx="625" cy="640" r="2.1364645869769" style="fill: #8c564b;"/><circle cx="725" cy="640" r="2.0002162095102385" style="fill: #8c564b;"/><circle cx="675" cy="640" r="2.002899378612893" style="fill: #8c564b;"/><text/><text/><text/><text/><text/><text/><text/><text/><text/><text/><text/><text/><text/><text/><text/><text/><text/><text/><text/><text/><text/><text/><text/><text/><text/><text/><text y="640" x="930" class="label" style="fill: #8c564b;">An Extensible System for...</text></g><g class="journal"><circle cx="375" cy="660" r="2.5384615384617" style="fill: #8c564b;"/><circle cx="25" cy="660" r="2.02692307692305" style="fill: #8c564b;"/><circle cx="425" cy="660" r="5.4730769230780005" style="fill: #8c564b;"/><circle cx="200" cy="660" r="2.1076923076922" style="fill: #8c564b;"/><circle cx="625" cy="660" r="2.5384615384617" style="fill: #8c564b;"/><circle cx="800" cy="660" r="2.1076923076922" style="fill: #8c564b;"/><circle cx="50" cy="660" r="2.5653846153844" style="fill: #8c564b;"/><circle cx="700" cy="660" r="2.5384615384617" style="fill: #8c564b;"/><circle cx="275" cy="660" r="2.02692307692305" style="fill: #8c564b;"/><circle cx="550" cy="660" r="2.5384615384617" style="fill: #8c564b;"/><circle cx="150" cy="660" r="2.5384615384617" style="fill: #8c564b;"/><text/><text/><text/><text/><text/><text/><text/><text/><text/><text/><text/><text y="660" x="930" class="label" style="fill: #8c564b;">The Desert environment.</text></g><g class="journal"><circle cx="575" cy="680" r="2.02758947475858" style="fill: #8c564b;"/><circle cx="100" cy="680" r="2.1483144433512003" style="fill: #8c564b;"/><circle cx="500" cy="680" r="2.005421607786483" style="fill: #8c564b;"/><circle cx="725" cy="680" r="2.0002162095102385" style="fill: #8c564b;"/><circle cx="200" cy="680" r="2.0507019056814197" style="fill: #8c564b;"/><circle cx="325" cy="680" r="2.01586893875588" style="fill: #8c564b;"/><circle cx="350" cy="680" r="2.06234200725403" style="fill: #8c564b;"/><circle cx="375" cy="680" r="2.0947058467558" style="fill: #8c564b;"/><circle cx="475" cy="680" r="2.05015233665449" style="fill: #8c564b;"/><circle cx="550" cy="680" r="2.02833138526288" style="fill: #8c564b;"/><circle cx="625" cy="680" r="2.1364645869769" style="fill: #8c564b;"/><circle cx="425" cy="680" r="6.256655671429" style="fill: #8c564b;"/><circle cx="525" cy="680" r="2.005265950969734" style="fill: #8c564b;"/><circle cx="275" cy="680" r="2.0962664226789998" style="fill: #8c564b;"/><circle cx="250" cy="680" r="2.06394428578307" style="fill: #8c564b;"/><circle cx="775" cy="680" r="2.0956604720148" style="fill: #8c564b;"/><circle cx="50" cy="680" r="2.1370586217434" style="fill: #8c564b;"/><circle cx="150" cy="680" r="2.9074494623950002" style="fill: #8c564b;"/><circle cx="125" cy="680" r="2.01739719195291" style="fill: #8c564b;"/><circle cx="675" cy="680" r="2.002899378612893" style="fill: #8c564b;"/><circle cx="700" cy="680" r="2.4696210010317" style="fill: #8c564b;"/><circle cx="600" cy="680" r="2.002862590380153" style="fill: #8c564b;"/><circle cx="300" cy="680" r="2.01425760313516" style="fill: #8c564b;"/><circle cx="800" cy="680" r="2.1727971523551" style="fill: #8c564b;"/><circle cx="175" cy="680" r="2.0011075952692767" style="fill: #8c564b;"/><circle cx="25" cy="680" r="2.1366478575021" style="fill: #8c564b;"/><text/><text/><text/><text/><text/><text/><text/><text/><text/><text/><text/><text/><text/><text/><text/><text/><text/><text/><text/><text/><text/><text/><text/><text/><text/><text/><text y="680" x="930" class="label" style="fill: #8c564b;">Automated Construction of...</text></g><g class="journal"><circle cx="0" cy="700" r="2.0000051324664643" style="fill: #8c564b;"/><circle cx="25" cy="700" r="2.02438493304443" style="fill: #8c564b;"/><circle cx="825" cy="700" r="2.0000000002213745" style="fill: #8c564b;"/><circle cx="50" cy="700" r="2.9338476518350003" style="fill: #8c564b;"/><circle cx="75" cy="700" r="2.000000628541809" style="fill: #8c564b;"/><circle cx="100" cy="700" r="2.0157966948489703" style="fill: #8c564b;"/><circle cx="125" cy="700" r="2.0004109319458685" style="fill: #8c564b;"/><circle cx="150" cy="700" r="2.2237745079899" style="fill: #8c564b;"/><circle cx="175" cy="700" r="2.0774962262662" style="fill: #8c564b;"/><circle cx="200" cy="700" r="2.2073948697506003" style="fill: #8c564b;"/><circle cx="225" cy="700" r="2.0000000001525176" style="fill: #8c564b;"/><circle cx="775" cy="700" r="2.000022411891855" style="fill: #8c564b;"/><circle cx="700" cy="700" r="2.2857570506784" style="fill: #8c564b;"/><circle cx="250" cy="700" r="2.0103579064117203" style="fill: #8c564b;"/><circle cx="275" cy="700" r="2.1395630100697" style="fill: #8c564b;"/><circle cx="300" cy="700" r="2.2333861668397" style="fill: #8c564b;"/><circle cx="325" cy="700" r="2.0007993194770752" style="fill: #8c564b;"/><circle cx="350" cy="700" r="2.1108255552082" style="fill: #8c564b;"/><circle cx="375" cy="700" r="2.000381410609162" style="fill: #8c564b;"/><circle cx="425" cy="700" r="5.732009529346" style="fill: #8c564b;"/><circle cx="400" cy="700" r="2.001989480004295" style="fill: #8c564b;"/><circle cx="800" cy="700" r="2.006853699208587" style="fill: #8c564b;"/><circle cx="475" cy="700" r="2.00788947358941" style="fill: #8c564b;"/><circle cx="500" cy="700" r="2.4111173737937" style="fill: #8c564b;"/><circle cx="525" cy="700" r="2.1644776096278" style="fill: #8c564b;"/><circle cx="550" cy="700" r="2.01022497297864" style="fill: #8c564b;"/><circle cx="575" cy="700" r="2.05989122713021" style="fill: #8c564b;"/><circle cx="850" cy="700" r="2.000000000603109" style="fill: #8c564b;"/><circle cx="600" cy="700" r="2.1439894457267" style="fill: #8c564b;"/><circle cx="750" cy="700" r="2.000959429824563" style="fill: #8c564b;"/><circle cx="625" cy="700" r="2.188168513491" style="fill: #8c564b;"/><circle cx="725" cy="700" r="2.000393280591483" style="fill: #8c564b;"/><circle cx="650" cy="700" r="2.0006435758976258" style="fill: #8c564b;"/><circle cx="675" cy="700" r="2.00718797994124" style="fill: #8c564b;"/><text/><text/><text/><text/><text/><text/><text/><text/><text/><text/><text/><text/><text/><text/><text/><text/><text/><text/><text/><text/><text/><text/><text/><text/><text/><text/><text/><text/><text/><text/><text/><text/><text/><text/><text y="700" x="930" class="label" style="fill: #8c564b;">Software Measure...</text></g><g class="journal"><circle cx="375" cy="720" r="2.3888888888892" style="fill: #8c564b;"/><circle cx="25" cy="720" r="2.3888888888892" style="fill: #8c564b;"/><circle cx="425" cy="720" r="6.888888888891" style="fill: #8c564b;"/><circle cx="200" cy="720" r="2.1111111111109997" style="fill: #8c564b;"/><circle cx="625" cy="720" r="2.1944444444446" style="fill: #8c564b;"/><circle cx="275" cy="720" r="2.4166666666666" style="fill: #8c564b;"/><circle cx="500" cy="720" r="2.1944444444446" style="fill: #8c564b;"/><circle cx="150" cy="720" r="2.4166666666666" style="fill: #8c564b;"/><text/><text/><text/><text/><text/><text/><text/><text/><text y="720" x="930" class="label" style="fill: #8c564b;">Automatic Method Completion.</text></g><rect width="10" height="450" x="915" y="2730" style="fill: #ffffff;"/></g><g><g class="journal"><circle cx="400" cy="740" r="4.333333333331" style="fill: #e377c2;"/><circle cx="475" cy="740" r="4.333333333331" style="fill: #e377c2;"/><circle cx="500" cy="740" r="4.333333333331" style="fill: #e377c2;"/><text/><text/><text/><text y="740" x="930" class="label" style="fill: #e377c2;">Fragmenting Relations...</text></g><g class="journal"><circle cx="375" cy="760" r="2.5384615384617" style="fill: #e377c2;"/><circle cx="250" cy="760" r="2.5384615384617" style="fill: #e377c2;"/><circle cx="475" cy="760" r="5.7692307692339995" style="fill: #e377c2;"/><circle cx="300" cy="760" r="2.5384615384617" style="fill: #e377c2;"/><circle cx="550" cy="760" r="3.076923076922" style="fill: #e377c2;"/><circle cx="675" cy="760" r="2.5384615384617" style="fill: #e377c2;"/><text/><text/><text/><text/><text/><text/><text y="760" x="930" class="label" style="fill: #e377c2;">Reasoning about...</text></g><g class="journal"><circle cx="475" cy="780" r="6.666666666669" style="fill: #e377c2;"/><circle cx="250" cy="780" r="4.333333333331" style="fill: #e377c2;"/><text/><text/><text y="780" x="930" class="label" style="fill: #e377c2;">Managing Models through...</text></g><g class="journal"><circle cx="400" cy="800" r="3.166666666669" style="fill: #e377c2;"/><circle cx="500" cy="800" r="3.166666666669" style="fill: #e377c2;"/><circle cx="475" cy="800" r="5.5" style="fill: #e377c2;"/><circle cx="250" cy="800" r="3.166666666669" style="fill: #e377c2;"/><text/><text/><text/><text/><text y="800" x="930" class="label" style="fill: #e377c2;">Managing exceptions in the...</text></g><g class="journal"><circle cx="400" cy="820" r="4.333333333331" style="fill: #e377c2;"/><circle cx="500" cy="820" r="4.333333333331" style="fill: #e377c2;"/><circle cx="475" cy="820" r="4.333333333331" style="fill: #e377c2;"/><text/><text/><text/><text y="820" x="930" class="label" style="fill: #e377c2;">Experience in using a process...</text></g><rect width="10" height="450" x="915" y="3180" style="fill: #ffffff;"/></g><g><g class="journal"><circle cx="875" cy="840" r="6.666666666669" style="fill: #7f7f7f;"/><circle cx="75" cy="840" r="4.333333333331" style="fill: #7f7f7f;"/><text/><text/><text y="840" x="930" class="label" style="fill: #7f7f7f;">Some Empirical Observations on...</text></g><rect width="10" height="90" x="915" y="750" style="fill: #ffffff;"/></g><g><g class="journal"><circle cx="525" cy="860" r="5.5" style="fill: #bcbd22;"/><circle cx="100" cy="860" r="5.5" style="fill: #bcbd22;"/><text/><text/><text y="860" x="930" class="label" style="fill: #bcbd22;">The Use of Cooperation...</text></g><g class="journal"><circle cx="525" cy="880" r="7.25" style="fill: #bcbd22;"/><circle cx="100" cy="880" r="3.75" style="fill: #bcbd22;"/><text/><text/><text y="880" x="930" class="label" style="fill: #bcbd22;">Distributed development: an...</text></g><rect width="10" height="180" x="915" y="1650" style="fill: #ffffff;"/></g></g></svg>
