<svg xmlns="http://www.w3.org/2000/svg" width="1420" height="1220" id="bundles" style="margin-left: 20px;"><g transform="translate(20,100)"><g class="x axis" transform="translate(0,90)"><g class="tick" transform="translate(0,0)" style="opacity: 1;"><line y2="-6" x2="0"/><text dy="1em" y="-9" x="0" dx="1em" transform="rotate(290)" style="text-anchor: start;">REAL TIME SYSTEMS</text></g><g class="tick" transform="translate(24.324324324324326,0)" style="opacity: 1;"><line y2="-6" x2="0"/><text dy="1em" y="-9" x="0" dx="1em" transform="rotate(290)" style="text-anchor: start;">VISUALIZATION</text></g><g class="tick" transform="translate(48.64864864864865,0)" style="opacity: 1;"><line y2="-6" x2="0"/><text dy="1em" y="-9" x="0" dx="1em" transform="rotate(290)" style="text-anchor: start;">ADAPTIVE SYSTEMS</text></g><g class="tick" transform="translate(72.97297297297298,0)" style="opacity: 1;"><line y2="-6" x2="0"/><text dy="1em" y="-9" x="0" dx="1em" transform="rotate(290)" style="text-anchor: start;">AUTONOMIC SYSTEMS</text></g><g class="tick" transform="translate(97.2972972972973,0)" style="opacity: 1;"><line y2="-6" x2="0"/><text dy="1em" y="-9" x="0" dx="1em" transform="rotate(290)" style="text-anchor: start;">PROGRAM ANALYSIS</text></g><g class="tick" transform="translate(121.62162162162163,0)" style="opacity: 1;"><line y2="-6" x2="0"/><text dy="1em" y="-9" x="0" dx="1em" transform="rotate(290)" style="text-anchor: start;">OPERATING SYSTEMS</text></g><g class="tick" transform="translate(145.94594594594597,0)" style="opacity: 1;"><line y2="-6" x2="0"/><text dy="1em" y="-9" x="0" dx="1em" transform="rotate(290)" style="text-anchor: start;">PERFORMANCE</text></g><g class="tick" transform="translate(170.2702702702703,0)" style="opacity: 1;"><line y2="-6" x2="0"/><text dy="1em" y="-9" x="0" dx="1em" transform="rotate(290)" style="text-anchor: start;">ARTIFICIAL INTELLIGENCE</text></g><g class="tick" transform="translate(194.5945945945946,0)" style="opacity: 1;"><line y2="-6" x2="0"/><text dy="1em" y="-9" x="0" dx="1em" transform="rotate(290)" style="text-anchor: start;">RELIABILITY</text></g><g class="tick" transform="translate(218.91891891891893,0)" style="opacity: 1;"><line y2="-6" x2="0"/><text dy="1em" y="-9" x="0" dx="1em" transform="rotate(290)" style="text-anchor: start;">PROGRAM COMPREHENSION</text></g><g class="tick" transform="translate(243.24324324324326,0)" style="opacity: 1;"><line y2="-6" x2="0"/><text dy="1em" y="-9" x="0" dx="1em" transform="rotate(290)" style="text-anchor: start;">TESTING</text></g><g class="tick" transform="translate(267.5675675675676,0)" style="opacity: 1;"><line y2="-6" x2="0"/><text dy="1em" y="-9" x="0" dx="1em" transform="rotate(290)" style="text-anchor: start;">CONCURRENCY</text></g><g class="tick" transform="translate(291.89189189189193,0)" style="opacity: 1;"><line y2="-6" x2="0"/><text dy="1em" y="-9" x="0" dx="1em" transform="rotate(290)" style="text-anchor: start;">EMPIRICAL SOFTWARE ENGINEERING</text></g><g class="tick" transform="translate(316.21621621621625,0)" style="opacity: 1;"><line y2="-6" x2="0"/><text dy="1em" y="-9" x="0" dx="1em" transform="rotate(290)" style="text-anchor: start;">PRODUCT LINES</text></g><g class="tick" transform="translate(340.5405405405406,0)" style="opacity: 1;"><line y2="-6" x2="0"/><text dy="1em" y="-9" x="0" dx="1em" transform="rotate(290)" style="text-anchor: start;">MODELS</text></g><g class="tick" transform="translate(364.8648648648649,0)" style="opacity: 1;"><line y2="-6" x2="0"/><text dy="1em" y="-9" x="0" dx="1em" transform="rotate(290)" style="text-anchor: start;">REVERSE ENGINEERING</text></g><g class="tick" transform="translate(389.1891891891892,0)" style="opacity: 1;"><line y2="-6" x2="0"/><text dy="1em" y="-9" x="0" dx="1em" transform="rotate(290)" style="text-anchor: start;">METRICS</text></g><g class="tick" transform="translate(413.51351351351354,0)" style="opacity: 1;"><line y2="-6" x2="0"/><text dy="1em" y="-9" x="0" dx="1em" transform="rotate(290)" style="text-anchor: start;">SOFTWARE QUALITY</text></g><g class="tick" transform="translate(437.83783783783787,0)" style="opacity: 1;"><line y2="-6" x2="0"/><text dy="1em" y="-9" x="0" dx="1em" transform="rotate(290)" style="text-anchor: start;">EVOLUTION</text></g><g class="tick" transform="translate(462.16216216216213,0)" style="opacity: 1;"><line y2="-6" x2="0"/><text dy="1em" y="-9" x="0" dx="1em" transform="rotate(290)" style="text-anchor: start;">FORMAL METHODS</text></g><g class="tick" transform="translate(486.4864864864865,0)" style="opacity: 1;"><line y2="-6" x2="0"/><text dy="1em" y="-9" x="0" dx="1em" transform="rotate(290)" style="text-anchor: start;">HUMAN COMPUTER INTERACTION</text></g><g class="tick" transform="translate(510.8108108108108,0)" style="opacity: 1;"><line y2="-6" x2="0"/><text dy="1em" y="-9" x="0" dx="1em" transform="rotate(290)" style="text-anchor: start;">DATABASE</text></g><g class="tick" transform="translate(535.1351351351352,0)" style="opacity: 1;"><line y2="-6" x2="0"/><text dy="1em" y="-9" x="0" dx="1em" transform="rotate(290)" style="text-anchor: start;">MAINTENANCE</text></g><g class="tick" transform="translate(559.4594594594595,0)" style="opacity: 1;"><line y2="-6" x2="0"/><text dy="1em" y="-9" x="0" dx="1em" transform="rotate(290)" style="text-anchor: start;">SYNTHESIS</text></g><g class="tick" transform="translate(583.7837837837839,0)" style="opacity: 1;"><line y2="-6" x2="0"/><text dy="1em" y="-9" x="0" dx="1em" transform="rotate(290)" style="text-anchor: start;">ALGORITHM</text></g><g class="tick" transform="translate(608.1081081081081,0)" style="opacity: 1;"><line y2="-6" x2="0"/><text dy="1em" y="-9" x="0" dx="1em" transform="rotate(290)" style="text-anchor: start;">INFORMATION SYSTMS</text></g><g class="tick" transform="translate(632.4324324324325,0)" style="opacity: 1;"><line y2="-6" x2="0"/><text dy="1em" y="-9" x="0" dx="1em" transform="rotate(290)" style="text-anchor: start;">DISTRIBUTED SYSTEMS</text></g><g class="tick" transform="translate(656.7567567567568,0)" style="opacity: 1;"><line y2="-6" x2="0"/><text dy="1em" y="-9" x="0" dx="1em" transform="rotate(290)" style="text-anchor: start;">METHODOLOGIES</text></g><g class="tick" transform="translate(681.0810810810812,0)" style="opacity: 1;"><line y2="-6" x2="0"/><text dy="1em" y="-9" x="0" dx="1em" transform="rotate(290)" style="text-anchor: start;">KNOWLEDGE ENGINEERING</text></g><g class="tick" transform="translate(705.4054054054054,0)" style="opacity: 1;"><line y2="-6" x2="0"/><text dy="1em" y="-9" x="0" dx="1em" transform="rotate(290)" style="text-anchor: start;">ARCHITECTURES</text></g><g class="tick" transform="translate(729.7297297297298,0)" style="opacity: 1;"><line y2="-6" x2="0"/><text dy="1em" y="-9" x="0" dx="1em" transform="rotate(290)" style="text-anchor: start;">EMBEDDED</text></g><g class="tick" transform="translate(754.0540540540541,0)" style="opacity: 1;"><line y2="-6" x2="0"/><text dy="1em" y="-9" x="0" dx="1em" transform="rotate(290)" style="text-anchor: start;">SERVICES</text></g><g class="tick" transform="translate(778.3783783783784,0)" style="opacity: 1;"><line y2="-6" x2="0"/><text dy="1em" y="-9" x="0" dx="1em" transform="rotate(290)" style="text-anchor: start;">PROCESS</text></g><g class="tick" transform="translate(802.7027027027027,0)" style="opacity: 1;"><line y2="-6" x2="0"/><text dy="1em" y="-9" x="0" dx="1em" transform="rotate(290)" style="text-anchor: start;">EDUCATION</text></g><g class="tick" transform="translate(827.0270270270271,0)" style="opacity: 1;"><line y2="-6" x2="0"/><text dy="1em" y="-9" x="0" dx="1em" transform="rotate(290)" style="text-anchor: start;">LANGUAGES</text></g><g class="tick" transform="translate(851.3513513513514,0)" style="opacity: 1;"><line y2="-6" x2="0"/><text dy="1em" y="-9" x="0" dx="1em" transform="rotate(290)" style="text-anchor: start;">SECURITY</text></g><g class="tick" transform="translate(875.6756756756757,0)" style="opacity: 1;"><line y2="-6" x2="0"/><text dy="1em" y="-9" x="0" dx="1em" transform="rotate(290)" style="text-anchor: start;">REQUIREMENTS</text></g><g class="tick" transform="translate(900,0)" style="opacity: 1;"><line y2="-6" x2="0"/><text dy="1em" y="-9" x="0" dx="1em" transform="rotate(290)" style="text-anchor: start;"/></g><path class="domain" d="M0,-6V0H900V-6"/></g><g><g class="journal"><circle cx="0" cy="120" r="2.5581894241238" style="fill: #17becf;"/><circle cx="24.324324324324326" cy="120" r="2.000145211619154" style="fill: #17becf;"/><circle cx="48.64864864864865" cy="120" r="2.001422575308805" style="fill: #17becf;"/><circle cx="72.97297297297298" cy="120" r="2.0000002859351786" style="fill: #17becf;"/><circle cx="97.2972972972973" cy="120" r="2.004919030673305" style="fill: #17becf;"/><circle cx="121.62162162162163" cy="120" r="2.000001525350384" style="fill: #17becf;"/><circle cx="145.94594594594597" cy="120" r="2.05560591652056" style="fill: #17becf;"/><circle cx="170.2702702702703" cy="120" r="2.02165710652721" style="fill: #17becf;"/><circle cx="194.5945945945946" cy="120" r="2.2954398983102" style="fill: #17becf;"/><circle cx="218.91891891891893" cy="120" r="2.1490702874199" style="fill: #17becf;"/><circle cx="243.24324324324326" cy="120" r="2.02312396628171" style="fill: #17becf;"/><circle cx="267.5675675675676" cy="120" r="2.5026697007961998" style="fill: #17becf;"/><circle cx="291.89189189189193" cy="120" r="2.001579535609463" style="fill: #17becf;"/><circle cx="316.21621621621625" cy="120" r="2.0000174939077855" style="fill: #17becf;"/><circle cx="340.5405405405406" cy="120" r="3.813750547609" style="fill: #17becf;"/><circle cx="364.8648648648649" cy="120" r="2.0002616602706236" style="fill: #17becf;"/><circle cx="389.1891891891892" cy="120" r="2.01398028698234" style="fill: #17becf;"/><circle cx="413.51351351351354" cy="120" r="2.0120792421015" style="fill: #17becf;"/><circle cx="437.83783783783787" cy="120" r="2.0003801225217868" style="fill: #17becf;"/><circle cx="462.16216216216213" cy="120" r="2.793725637236" style="fill: #17becf;"/><circle cx="486.4864864864865" cy="120" r="3.0075304255660003" style="fill: #17becf;"/><circle cx="510.8108108108108" cy="120" r="2.0050915409712298" style="fill: #17becf;"/><circle cx="535.1351351351352" cy="120" r="2.0095471511023" style="fill: #17becf;"/><circle cx="559.4594594594595" cy="120" r="2.000041535282235" style="fill: #17becf;"/><circle cx="583.7837837837839" cy="120" r="2.5001132328682" style="fill: #17becf;"/><circle cx="608.1081081081081" cy="120" r="2.02591106556192" style="fill: #17becf;"/><circle cx="632.4324324324325" cy="120" r="2.05168373754432" style="fill: #17becf;"/><circle cx="656.7567567567568" cy="120" r="2.01135419204549" style="fill: #17becf;"/><circle cx="681.0810810810812" cy="120" r="2.04859590529423" style="fill: #17becf;"/><circle cx="705.4054054054054" cy="120" r="2.5248103897889997" style="fill: #17becf;"/><circle cx="729.7297297297298" cy="120" r="2.004618061392672" style="fill: #17becf;"/><circle cx="754.0540540540541" cy="120" r="2.00078701386085" style="fill: #17becf;"/><circle cx="778.3783783783784" cy="120" r="2.002732062853884" style="fill: #17becf;"/><circle cx="802.7027027027027" cy="120" r="2.5017387469745" style="fill: #17becf;"/><circle cx="827.0270270270271" cy="120" r="2.04349603059585" style="fill: #17becf;"/><circle cx="851.3513513513514" cy="120" r="2.0000051427777157" style="fill: #17becf;"/><circle cx="875.6756756756757" cy="120" r="2.01392431041575" style="fill: #17becf;"/><text/><text/><text/><text/><text/><text/><text/><text/><text/><text/><text/><text/><text/><text/><text/><text/><text/><text/><text/><text/><text/><text/><text/><text/><text/><text/><text/><text/><text/><text/><text/><text/><text/><text/><text/><text/><text/><text y="120" x="930" class="label" style="fill: #17becf;">PROTEAN: A High-Level Petri...</text></g><g class="journal"><circle cx="535.1351351351352" cy="140" r="5.5" style="fill: #17becf;"/><circle cx="97.2972972972973" cy="140" r="5.5" style="fill: #17becf;"/><text/><text/><text y="140" x="930" class="label" style="fill: #17becf;">An empirical study of...</text></g><g class="journal"><circle cx="437.83783783783787" cy="160" r="7.833333333331" style="fill: #17becf;"/><circle cx="535.1351351351352" cy="160" r="3.166666666669" style="fill: #17becf;"/><text/><text/><text y="160" x="930" class="label" style="fill: #17becf;">Sieve: A Tool for...</text></g><g class="journal"><circle cx="364.8648648648649" cy="180" r="4.333333333331" style="fill: #17becf;"/><circle cx="851.3513513513514" cy="180" r="6.666666666669" style="fill: #17becf;"/><text/><text/><text y="180" x="930" class="label" style="fill: #17becf;">A tool for analyzing and...</text></g><g class="journal"><circle cx="291.89189189189193" cy="200" r="2.875" style="fill: #17becf;"/><circle cx="778.3783783783784" cy="200" r="6.375" style="fill: #17becf;"/><circle cx="413.51351351351354" cy="200" r="2.875" style="fill: #17becf;"/><circle cx="875.6756756756757" cy="200" r="2.875" style="fill: #17becf;"/><text/><text/><text/><text/><text y="200" x="930" class="label" style="fill: #17becf;">CAIS: Collaborative...</text></g><rect width="10" height="450" x="915" y="30" style="fill: #ffffff;"/></g><g><g class="journal"><circle cx="0" cy="220" r="2.1892035532037" style="fill: #1f77b4;"/><circle cx="24.324324324324326" cy="220" r="2.0076002555183803" style="fill: #1f77b4;"/><circle cx="48.64864864864865" cy="220" r="2.002082172796655" style="fill: #1f77b4;"/><circle cx="97.2972972972973" cy="220" r="2.1004466388709" style="fill: #1f77b4;"/><circle cx="121.62162162162163" cy="220" r="2.0074051565287" style="fill: #1f77b4;"/><circle cx="145.94594594594597" cy="220" r="2.0000000753391207" style="fill: #1f77b4;"/><circle cx="170.2702702702703" cy="220" r="2.4040295676151" style="fill: #1f77b4;"/><circle cx="194.5945945945946" cy="220" r="2.6868395320983" style="fill: #1f77b4;"/><circle cx="218.91891891891893" cy="220" r="2.4612356853062" style="fill: #1f77b4;"/><circle cx="243.24324324324326" cy="220" r="3.115473605778" style="fill: #1f77b4;"/><circle cx="291.89189189189193" cy="220" r="2.6824841815274" style="fill: #1f77b4;"/><circle cx="267.5675675675676" cy="220" r="2.000000008202218" style="fill: #1f77b4;"/><circle cx="316.21621621621625" cy="220" r="2.0003041536300707" style="fill: #1f77b4;"/><circle cx="340.5405405405406" cy="220" r="2.02499331051112" style="fill: #1f77b4;"/><circle cx="364.8648648648649" cy="220" r="2.0033938905912523" style="fill: #1f77b4;"/><circle cx="389.1891891891892" cy="220" r="2.01581025649455" style="fill: #1f77b4;"/><circle cx="413.51351351351354" cy="220" r="2.6575908818822" style="fill: #1f77b4;"/><circle cx="437.83783783783787" cy="220" r="2.0001298455395244" style="fill: #1f77b4;"/><circle cx="462.16216216216213" cy="220" r="2.3124955660918" style="fill: #1f77b4;"/><circle cx="486.4864864864865" cy="220" r="2.02865819022682" style="fill: #1f77b4;"/><circle cx="535.1351351351352" cy="220" r="2.5133572252823" style="fill: #1f77b4;"/><circle cx="510.8108108108108" cy="220" r="2.1993379223759" style="fill: #1f77b4;"/><circle cx="559.4594594594595" cy="220" r="2.001406111056651" style="fill: #1f77b4;"/><circle cx="583.7837837837839" cy="220" r="2.000911935058559" style="fill: #1f77b4;"/><circle cx="608.1081081081081" cy="220" r="2.01901215243277" style="fill: #1f77b4;"/><circle cx="632.4324324324325" cy="220" r="2.01638084972398" style="fill: #1f77b4;"/><circle cx="656.7567567567568" cy="220" r="2.3993921050693" style="fill: #1f77b4;"/><circle cx="681.0810810810812" cy="220" r="2.5893748863862998" style="fill: #1f77b4;"/><circle cx="705.4054054054054" cy="220" r="2.0199466390253202" style="fill: #1f77b4;"/><circle cx="729.7297297297298" cy="220" r="2.001899129203349" style="fill: #1f77b4;"/><circle cx="754.0540540540541" cy="220" r="2.04604840467654" style="fill: #1f77b4;"/><circle cx="778.3783783783784" cy="220" r="2.00087589499501" style="fill: #1f77b4;"/><circle cx="827.0270270270271" cy="220" r="2.4759785655618" style="fill: #1f77b4;"/><circle cx="802.7027027027027" cy="220" r="2.005017188266916" style="fill: #1f77b4;"/><circle cx="851.3513513513514" cy="220" r="2.01074659986603" style="fill: #1f77b4;"/><circle cx="875.6756756756757" cy="220" r="2.0001378632657745" style="fill: #1f77b4;"/><text/><text/><text/><text/><text/><text/><text/><text/><text/><text/><text/><text/><text/><text/><text/><text/><text/><text/><text/><text/><text/><text/><text/><text/><text/><text/><text/><text/><text/><text/><text/><text/><text/><text/><text/><text/><text y="220" x="930" class="label" style="fill: #1f77b4;">Automated Software Test Data...</text></g><g class="journal"><circle cx="340.5405405405406" cy="240" r="5.5" style="fill: #1f77b4;"/><circle cx="875.6756756756757" cy="240" r="5.5" style="fill: #1f77b4;"/><text/><text/><text y="240" x="930" class="label" style="fill: #1f77b4;">Metamodel-based model...</text></g><g class="journal"><circle cx="340.5405405405406" cy="260" r="3.75" style="fill: #1f77b4;"/><circle cx="875.6756756756757" cy="260" r="7.25" style="fill: #1f77b4;"/><text/><text/><text y="260" x="930" class="label" style="fill: #1f77b4;">An Analysis-Revision Cycle to...</text></g><g class="journal"><circle cx="48.64864864864865" cy="280" r="3.75" style="fill: #1f77b4;"/><circle cx="875.6756756756757" cy="280" r="7.25" style="fill: #1f77b4;"/><text/><text/><text y="280" x="930" class="label" style="fill: #1f77b4;">Analysis of multi-agent...</text></g><g class="journal"><circle cx="632.4324324324325" cy="300" r="2.777777777777" style="fill: #1f77b4;"/><circle cx="340.5405405405406" cy="300" r="2.777777777777" style="fill: #1f77b4;"/><circle cx="875.6756756756757" cy="300" r="7.444444444445999" style="fill: #1f77b4;"/><text/><text/><text/><text y="300" x="930" class="label" style="fill: #1f77b4;">Requirements engineering: from...</text></g><rect width="10" height="450" x="915" y="480" style="fill: #ffffff;"/></g><g><g class="journal"><circle cx="705.4054054054054" cy="320" r="4.999999999997" style="fill: #ff7f0e;"/><circle cx="632.4324324324325" cy="320" r="6.000000000003" style="fill: #ff7f0e;"/><text/><text/><text y="320" x="930" class="label" style="fill: #ff7f0e;">VERTAF: An Application...</text></g><g class="journal"><circle cx="632.4324324324325" cy="340" r="4.333333333331" style="fill: #ff7f0e;"/><circle cx="389.1891891891892" cy="340" r="6.666666666669" style="fill: #ff7f0e;"/><text/><text/><text y="340" x="930" class="label" style="fill: #ff7f0e;">Functional size measurement...</text></g><g class="journal"><circle cx="705.4054054054054" cy="360" r="6.666666666669" style="fill: #ff7f0e;"/><circle cx="632.4324324324325" cy="360" r="4.333333333331" style="fill: #ff7f0e;"/><text/><text/><text y="360" x="930" class="label" style="fill: #ff7f0e;">An energy consumption...</text></g><g class="journal"><circle cx="510.8108108108108" cy="380" r="2.2809364548494" style="fill: #ff7f0e;"/><circle cx="535.1351351351352" cy="380" r="2.8506131549580003" style="fill: #ff7f0e;"/><circle cx="559.4594594594595" cy="380" r="2.0999999999999" style="fill: #ff7f0e;"/><circle cx="97.2972972972973" cy="380" r="2.1546265328874" style="fill: #ff7f0e;"/><circle cx="608.1081081081081" cy="380" r="2.6003344481603" style="fill: #ff7f0e;"/><circle cx="121.62162162162163" cy="380" r="2.02341137123745" style="fill: #ff7f0e;"/><circle cx="170.2702702702703" cy="380" r="2.0468227424749" style="fill: #ff7f0e;"/><circle cx="194.5945945945946" cy="380" r="2.2408026755855" style="fill: #ff7f0e;"/><circle cx="681.0810810810812" cy="380" r="2.01365663322184" style="fill: #ff7f0e;"/><circle cx="218.91891891891893" cy="380" r="2.5384615384617" style="fill: #ff7f0e;"/><circle cx="243.24324324324326" cy="380" r="2.6641025641026" style="fill: #ff7f0e;"/><circle cx="754.0540540540541" cy="380" r="2.3433667781495" style="fill: #ff7f0e;"/><circle cx="291.89189189189193" cy="380" r="2.73132664437" style="fill: #ff7f0e;"/><circle cx="827.0270270270271" cy="380" r="3.1618729097009997" style="fill: #ff7f0e;"/><circle cx="340.5405405405406" cy="380" r="2.01755852842807" style="fill: #ff7f0e;"/><circle cx="364.8648648648649" cy="380" r="2.5384615384617" style="fill: #ff7f0e;"/><circle cx="851.3513513513514" cy="380" r="2.02341137123745" style="fill: #ff7f0e;"/><circle cx="413.51351351351354" cy="380" r="2.1234113712377" style="fill: #ff7f0e;"/><circle cx="437.83783783783787" cy="380" r="2.5234113712373" style="fill: #ff7f0e;"/><circle cx="462.16216216216213" cy="380" r="2.02341137123745" style="fill: #ff7f0e;"/><text/><text/><text/><text/><text/><text/><text/><text/><text/><text/><text/><text/><text/><text/><text/><text/><text/><text/><text/><text/><text y="380" x="930" class="label" style="fill: #ff7f0e;">Safe query objects: statically...</text></g><g class="journal"><circle cx="705.4054054054054" cy="400" r="2.999999999999" style="fill: #ff7f0e;"/><circle cx="632.4324324324325" cy="400" r="8.000000000001" style="fill: #ff7f0e;"/><text/><text/><text y="400" x="930" class="label" style="fill: #ff7f0e;">System architecture: the...</text></g><rect width="10" height="450" x="915" y="930" style="fill: #ffffff;"/></g><g><g class="journal"><circle cx="705.4054054054054" cy="420" r="2.999999999999" style="fill: #2ca02c;"/><circle cx="632.4324324324325" cy="420" r="2.999999999999" style="fill: #2ca02c;"/><circle cx="827.0270270270271" cy="420" r="2.999999999999" style="fill: #2ca02c;"/><circle cx="656.7567567567568" cy="420" r="2.999999999999" style="fill: #2ca02c;"/><circle cx="340.5405405405406" cy="420" r="2.999999999999" style="fill: #2ca02c;"/><circle cx="145.94594594594597" cy="420" r="3.999999999998" style="fill: #2ca02c;"/><text/><text/><text/><text/><text/><text/><text y="420" x="930" class="label" style="fill: #2ca02c;">Design Tradeoffs for Process...</text></g><g class="journal"><circle cx="462.16216216216213" cy="440" r="4.333333333331" style="fill: #2ca02c;"/><circle cx="827.0270270270271" cy="440" r="4.333333333331" style="fill: #2ca02c;"/><circle cx="0" cy="440" r="4.333333333331" style="fill: #2ca02c;"/><text/><text/><text/><text y="440" x="930" class="label" style="fill: #2ca02c;">A Time-Sensitive Object Model...</text></g><g class="journal"><circle cx="48.64864864864865" cy="460" r="2.999999999999" style="fill: #2ca02c;"/><circle cx="535.1351351351352" cy="460" r="2.999999999999" style="fill: #2ca02c;"/><circle cx="754.0540540540541" cy="460" r="7.000000000001999" style="fill: #2ca02c;"/><text/><text/><text/><text y="460" x="930" class="label" style="fill: #2ca02c;">Context-Aware Browsing of...</text></g><g class="journal"><circle cx="462.16216216216213" cy="480" r="5.5" style="fill: #2ca02c;"/><circle cx="827.0270270270271" cy="480" r="5.5" style="fill: #2ca02c;"/><text/><text/><text y="480" x="930" class="label" style="fill: #2ca02c;">Interpolation for data...</text></g><g class="journal"><circle cx="632.4324324324325" cy="500" r="2.777777777777" style="fill: #2ca02c;"/><circle cx="827.0270270270271" cy="500" r="5.888888888892001" style="fill: #2ca02c;"/><circle cx="121.62162162162163" cy="500" r="4.333333333331" style="fill: #2ca02c;"/><text/><text/><text/><text y="500" x="930" class="label" style="fill: #2ca02c;">Signaling in Monitors.</text></g><rect width="10" height="450" x="915" y="1380" style="fill: #ffffff;"/></g><g><g class="journal"><circle cx="48.64864864864865" cy="520" r="2.0000001367121683" style="fill: #d62728;"/><circle cx="583.7837837837839" cy="520" r="2.00000199718682" style="fill: #d62728;"/><circle cx="705.4054054054054" cy="520" r="2.05840044067172" style="fill: #d62728;"/><circle cx="170.2702702702703" cy="520" r="2.4056594675973" style="fill: #d62728;"/><circle cx="72.97297297297298" cy="520" r="2.0000000011095485" style="fill: #d62728;"/><circle cx="267.5675675675676" cy="520" r="2.000002202266682" style="fill: #d62728;"/><circle cx="510.8108108108108" cy="520" r="2.0375957893143" style="fill: #d62728;"/><circle cx="632.4324324324325" cy="520" r="2.1100880311818" style="fill: #d62728;"/><circle cx="802.7027027027027" cy="520" r="2.0003447315713174" style="fill: #d62728;"/><circle cx="729.7297297297298" cy="520" r="2.0000018696050517" style="fill: #d62728;"/><circle cx="291.89189189189193" cy="520" r="2.3422322777937" style="fill: #d62728;"/><circle cx="437.83783783783787" cy="520" r="2.05976300754718" style="fill: #d62728;"/><circle cx="462.16216216216213" cy="520" r="2.2523487299711" style="fill: #d62728;"/><circle cx="486.4864864864865" cy="520" r="2.3420319115794" style="fill: #d62728;"/><circle cx="608.1081081081081" cy="520" r="2.1768469828559" style="fill: #d62728;"/><circle cx="681.0810810810812" cy="520" r="2.2046734972492" style="fill: #d62728;"/><circle cx="827.0270270270271" cy="520" r="2.04286752368682" style="fill: #d62728;"/><circle cx="535.1351351351352" cy="520" r="2.4010116893615" style="fill: #d62728;"/><circle cx="656.7567567567568" cy="520" r="2.2398995373215" style="fill: #d62728;"/><circle cx="389.1891891891892" cy="520" r="3.0206030680370004" style="fill: #d62728;"/><circle cx="340.5405405405406" cy="520" r="2.4018128529954" style="fill: #d62728;"/><circle cx="121.62162162162163" cy="520" r="2.00872955183331" style="fill: #d62728;"/><circle cx="145.94594594594597" cy="520" r="2.3363679646530002" style="fill: #d62728;"/><circle cx="778.3783783783784" cy="520" r="2.0002713443189717" style="fill: #d62728;"/><circle cx="316.21621621621625" cy="520" r="2.0031642211129688" style="fill: #d62728;"/><circle cx="97.2972972972973" cy="520" r="2.02118390301524" style="fill: #d62728;"/><circle cx="218.91891891891893" cy="520" r="2.01026022459686" style="fill: #d62728;"/><circle cx="0" cy="520" r="2.0005892618817733" style="fill: #d62728;"/><circle cx="194.5945945945946" cy="520" r="2.6799346057014" style="fill: #d62728;"/><circle cx="875.6756756756757" cy="520" r="2.01827901201042" style="fill: #d62728;"/><circle cx="364.8648648648649" cy="520" r="2.0340769228549402" style="fill: #d62728;"/><circle cx="851.3513513513514" cy="520" r="2.8140354852279996" style="fill: #d62728;"/><circle cx="754.0540540540541" cy="520" r="2.4155789210776" style="fill: #d62728;"/><circle cx="413.51351351351354" cy="520" r="2.3706766532203" style="fill: #d62728;"/><circle cx="559.4594594594595" cy="520" r="2.002584171273544" style="fill: #d62728;"/><circle cx="243.24324324324326" cy="520" r="2.1867162114048" style="fill: #d62728;"/><circle cx="24.324324324324326" cy="520" r="2.001365800207079" style="fill: #d62728;"/><text/><text/><text/><text/><text/><text/><text/><text/><text/><text/><text/><text/><text/><text/><text/><text/><text/><text/><text/><text/><text/><text/><text/><text/><text/><text/><text/><text/><text/><text/><text/><text/><text/><text/><text/><text/><text/><text y="520" x="930" class="label" style="fill: #d62728;">Validating Halstead's Theory...</text></g><g class="journal"><circle cx="705.4054054054054" cy="540" r="4.333333333331" style="fill: #d62728;"/><circle cx="218.91891891891893" cy="540" r="6.666666666669" style="fill: #d62728;"/><text/><text/><text y="540" x="930" class="label" style="fill: #d62728;">Formal interpreters for...</text></g><g class="journal"><circle cx="827.0270270270271" cy="560" r="4.333333333331" style="fill: #d62728;"/><circle cx="218.91891891891893" cy="560" r="4.333333333331" style="fill: #d62728;"/><circle cx="24.324324324324326" cy="560" r="4.333333333331" style="fill: #d62728;"/><text/><text/><text/><text y="560" x="930" class="label" style="fill: #d62728;">Object ownership profiling: a...</text></g><g class="journal"><circle cx="827.0270270270271" cy="580" r="2.3888888888892" style="fill: #d62728;"/><circle cx="218.91891891891893" cy="580" r="8.611111111108" style="fill: #d62728;"/><text/><text/><text y="580" x="930" class="label" style="fill: #d62728;">Breaking the barriers to...</text></g><g class="journal"><circle cx="267.5675675675676" cy="600" r="5.5" style="fill: #d62728;"/><circle cx="827.0270270270271" cy="600" r="5.5" style="fill: #d62728;"/><text/><text/><text y="600" x="930" class="label" style="fill: #d62728;">Proof Linking: An Architecture...</text></g><rect width="10" height="450" x="915" y="1830" style="fill: #ffffff;"/></g><g><g class="journal"><circle cx="243.24324324324326" cy="620" r="4.333333333331" style="fill: #9467bd;"/><circle cx="413.51351351351354" cy="620" r="6.666666666669" style="fill: #9467bd;"/><text/><text/><text y="620" x="930" class="label" style="fill: #9467bd;">Avoiding coincidental...</text></g><g class="journal"><circle cx="194.5945945945946" cy="640" r="3.4000000000000004" style="fill: #9467bd;"/><circle cx="413.51351351351354" cy="640" r="6.199999999999999" style="fill: #9467bd;"/><circle cx="243.24324324324326" cy="640" r="3.4000000000000004" style="fill: #9467bd;"/><text/><text/><text/><text y="640" x="930" class="label" style="fill: #9467bd;">An experimental comparison of...</text></g><g class="journal"><circle cx="632.4324324324325" cy="660" r="4.193333333331" style="fill: #9467bd;"/><circle cx="194.5945945945946" cy="660" r="5.733333333331" style="fill: #9467bd;"/><circle cx="851.3513513513514" cy="660" r="2.7" style="fill: #9467bd;"/><circle cx="754.0540540540541" cy="660" r="2.14" style="fill: #9467bd;"/><circle cx="413.51351351351354" cy="660" r="2.2333333333331" style="fill: #9467bd;"/><text/><text/><text/><text/><text/><text y="660" x="930" class="label" style="fill: #9467bd;">Engineering human trust in...</text></g><g class="journal"><circle cx="486.4864864864865" cy="680" r="4.333333333331" style="fill: #9467bd;"/><circle cx="510.8108108108108" cy="680" r="2.1111111111109997" style="fill: #9467bd;"/><circle cx="535.1351351351352" cy="680" r="2.2539682539681" style="fill: #9467bd;"/><circle cx="754.0540540540541" cy="680" r="2.0039682539682517" style="fill: #9467bd;"/><circle cx="827.0270270270271" cy="680" r="2.1111111111109997" style="fill: #9467bd;"/><circle cx="340.5405405405406" cy="680" r="2.0218253968254003" style="fill: #9467bd;"/><circle cx="608.1081081081081" cy="680" r="2.0039682539682517" style="fill: #9467bd;"/><circle cx="170.2702702702703" cy="680" r="2.001984126984126" style="fill: #9467bd;"/><circle cx="681.0810810810812" cy="680" r="4.5714285714319995" style="fill: #9467bd;"/><circle cx="462.16216216216213" cy="680" r="2.777777777777" style="fill: #9467bd;"/><circle cx="218.91891891891893" cy="680" r="2.7936507936490003" style="fill: #9467bd;"/><circle cx="875.6756756756757" cy="680" r="2.01587301587305" style="fill: #9467bd;"/><text/><text/><text/><text/><text/><text/><text/><text/><text/><text/><text/><text/><text y="680" x="930" class="label" style="fill: #9467bd;">Guest Editors' Introduction...</text></g><g class="journal"><circle cx="389.1891891891892" cy="700" r="3.166666666669" style="fill: #9467bd;"/><circle cx="194.5945945945946" cy="700" r="7.833333333331" style="fill: #9467bd;"/><text/><text/><text y="700" x="930" class="label" style="fill: #9467bd;">Towards a Theory for...</text></g><rect width="10" height="450" x="915" y="2280" style="fill: #ffffff;"/></g><g><g class="journal"><circle cx="364.8648648648649" cy="720" r="5.5" style="fill: #8c564b;"/><circle cx="243.24324324324326" cy="720" r="5.5" style="fill: #8c564b;"/><text/><text/><text y="720" x="930" class="label" style="fill: #8c564b;">ADI: Automatic Derivation of...</text></g><g class="journal"><circle cx="291.89189189189193" cy="740" r="7.6" style="fill: #8c564b;"/><circle cx="218.91891891891893" cy="740" r="3.4000000000000004" style="fill: #8c564b;"/><text/><text/><text y="740" x="930" class="label" style="fill: #8c564b;">Power laws in software.</text></g><g class="journal"><circle cx="851.3513513513514" cy="760" r="4.333333333331" style="fill: #8c564b;"/><circle cx="243.24324324324326" cy="760" r="6.666666666669" style="fill: #8c564b;"/><text/><text/><text y="760" x="930" class="label" style="fill: #8c564b;">A dynamic birthmark for java.</text></g><g class="journal"><circle cx="0" cy="780" r="2.6222222222223" style="fill: #8c564b;"/><circle cx="510.8108108108108" cy="780" r="2.002777777777775" style="fill: #8c564b;"/><circle cx="535.1351351351352" cy="780" r="3.243981481484" style="fill: #8c564b;"/><circle cx="145.94594594594597" cy="780" r="2.02870370370371" style="fill: #8c564b;"/><circle cx="608.1081081081081" cy="780" r="2.1112654320988" style="fill: #8c564b;"/><circle cx="632.4324324324325" cy="780" r="2.9231481481459998" style="fill: #8c564b;"/><circle cx="170.2702702702703" cy="780" r="2.01944444444446" style="fill: #8c564b;"/><circle cx="656.7567567567568" cy="780" r="2.0574074074074202" style="fill: #8c564b;"/><circle cx="681.0810810810812" cy="780" r="2.6350694444444" style="fill: #8c564b;"/><circle cx="194.5945945945946" cy="780" r="2.6148148148149" style="fill: #8c564b;"/><circle cx="705.4054054054054" cy="780" r="3.0536265432069998" style="fill: #8c564b;"/><circle cx="729.7297297297298" cy="780" r="2.03888888888892" style="fill: #8c564b;"/><circle cx="754.0540540540541" cy="780" r="2.0777777777777002" style="fill: #8c564b;"/><circle cx="291.89189189189193" cy="780" r="2.00717592592591" style="fill: #8c564b;"/><circle cx="827.0270270270271" cy="780" r="2.06759259259256" style="fill: #8c564b;"/><circle cx="340.5405405405406" cy="780" r="3.242746913583" style="fill: #8c564b;"/><circle cx="413.51351351351354" cy="780" r="2.1451388888886997" style="fill: #8c564b;"/><circle cx="437.83783783783787" cy="780" r="2.01944444444446" style="fill: #8c564b;"/><circle cx="462.16216216216213" cy="780" r="2.0887731481483" style="fill: #8c564b;"/><text/><text/><text/><text/><text/><text/><text/><text/><text/><text/><text/><text/><text/><text/><text/><text/><text/><text/><text/><text y="780" x="930" class="label" style="fill: #8c564b;">Exploiting ADLs to Specify...</text></g><g class="journal"><circle cx="291.89189189189193" cy="800" r="5.5" style="fill: #8c564b;"/><circle cx="389.1891891891892" cy="800" r="5.5" style="fill: #8c564b;"/><text/><text/><text y="800" x="930" class="label" style="fill: #8c564b;">Relevancy based semantic...</text></g><rect width="10" height="450" x="915" y="2730" style="fill: #ffffff;"/></g><g><g class="journal"><circle cx="705.4054054054054" cy="820" r="2.5000000000002" style="fill: #e377c2;"/><circle cx="170.2702702702703" cy="820" r="2.830808080809" style="fill: #e377c2;"/><circle cx="291.89189189189193" cy="820" r="3.1489898989869998" style="fill: #e377c2;"/><circle cx="608.1081081081081" cy="820" r="2.5000000000002" style="fill: #e377c2;"/><circle cx="681.0810810810812" cy="820" r="2.5000000000002" style="fill: #e377c2;"/><circle cx="535.1351351351352" cy="820" r="2.080808080808" style="fill: #e377c2;"/><circle cx="656.7567567567568" cy="820" r="3.5808080808100002" style="fill: #e377c2;"/><circle cx="389.1891891891892" cy="820" r="2.5000000000002" style="fill: #e377c2;"/><circle cx="340.5405405405406" cy="820" r="2.1161616161615" style="fill: #e377c2;"/><circle cx="0" cy="820" r="2.5000000000002" style="fill: #e377c2;"/><circle cx="194.5945945945946" cy="820" r="2.04545454545457" style="fill: #e377c2;"/><circle cx="413.51351351351354" cy="820" r="2.6969696969697" style="fill: #e377c2;"/><text/><text/><text/><text/><text/><text/><text/><text/><text/><text/><text/><text/><text y="820" x="930" class="label" style="fill: #e377c2;">Comparing Software Prediction...</text></g><g class="journal"><circle cx="486.4864864864865" cy="840" r="2.5384615384617" style="fill: #e377c2;"/><circle cx="340.5405405405406" cy="840" r="2.5384615384617" style="fill: #e377c2;"/><circle cx="608.1081081081081" cy="840" r="5.7692307692339995" style="fill: #e377c2;"/><circle cx="413.51351351351354" cy="840" r="2.5384615384617" style="fill: #e377c2;"/><circle cx="681.0810810810812" cy="840" r="3.076923076922" style="fill: #e377c2;"/><circle cx="875.6756756756757" cy="840" r="2.5384615384617" style="fill: #e377c2;"/><text/><text/><text/><text/><text/><text/><text y="840" x="930" class="label" style="fill: #e377c2;">Reasoning about...</text></g><g class="journal"><circle cx="291.89189189189193" cy="860" r="2.3947368421051998" style="fill: #e377c2;"/><circle cx="535.1351351351352" cy="860" r="3.289473684212" style="fill: #e377c2;"/><circle cx="656.7567567567568" cy="860" r="5.710526315789999" style="fill: #e377c2;"/><circle cx="389.1891891891892" cy="860" r="2.3947368421051998" style="fill: #e377c2;"/><circle cx="875.6756756756757" cy="860" r="2.3684210526318" style="fill: #e377c2;"/><circle cx="413.51351351351354" cy="860" r="2.8421052631599997" style="fill: #e377c2;"/><text/><text/><text/><text/><text/><text/><text y="860" x="930" class="label" style="fill: #e377c2;">Lessons learned from 25 years...</text></g><g class="journal"><circle cx="729.7297297297298" cy="880" r="4.333333333331" style="fill: #e377c2;"/><circle cx="827.0270270270271" cy="880" r="3.555555555554" style="fill: #e377c2;"/><circle cx="97.2972972972973" cy="880" r="2.777777777777" style="fill: #e377c2;"/><circle cx="194.5945945945946" cy="880" r="2.777777777777" style="fill: #e377c2;"/><circle cx="364.8648648648649" cy="880" r="2.777777777777" style="fill: #e377c2;"/><circle cx="413.51351351351354" cy="880" r="2.777777777777" style="fill: #e377c2;"/><text/><text/><text/><text/><text/><text/><text y="880" x="930" class="label" style="fill: #e377c2;">The Architecture of Montana:...</text></g><g class="journal"><circle cx="462.16216216216213" cy="900" r="4.8" style="fill: #e377c2;"/><circle cx="218.91891891891893" cy="900" r="4.8" style="fill: #e377c2;"/><circle cx="24.324324324324326" cy="900" r="3.4000000000000004" style="fill: #e377c2;"/><text/><text/><text/><text y="900" x="930" class="label" style="fill: #e377c2;">CodeCrawler - Polymetric Views...</text></g><rect width="10" height="450" x="915" y="3180" style="fill: #ffffff;"/></g><g><g class="journal"><circle cx="486.4864864864865" cy="920" r="2.05555555555557" style="fill: #7f7f7f;"/><circle cx="535.1351351351352" cy="920" r="2.2430555555554" style="fill: #7f7f7f;"/><circle cx="608.1081081081081" cy="920" r="2.02430555555554" style="fill: #7f7f7f;"/><circle cx="656.7567567567568" cy="920" r="2.04861111111108" style="fill: #7f7f7f;"/><circle cx="194.5945945945946" cy="920" r="2.1944444444446" style="fill: #7f7f7f;"/><circle cx="218.91891891891893" cy="920" r="2.01388888888891" style="fill: #7f7f7f;"/><circle cx="243.24324324324326" cy="920" r="2.2500000000001" style="fill: #7f7f7f;"/><circle cx="705.4054054054054" cy="920" r="3.166666666669" style="fill: #7f7f7f;"/><circle cx="729.7297297297298" cy="920" r="6.666666666669" style="fill: #7f7f7f;"/><circle cx="754.0540540540541" cy="920" r="2.01388888888891" style="fill: #7f7f7f;"/><circle cx="291.89189189189193" cy="920" r="2.02430555555554" style="fill: #7f7f7f;"/><circle cx="827.0270270270271" cy="920" r="2.2083333333333" style="fill: #7f7f7f;"/><circle cx="364.8648648648649" cy="920" r="2.04166666666666" style="fill: #7f7f7f;"/><circle cx="389.1891891891892" cy="920" r="2.04861111111108" style="fill: #7f7f7f;"/><text/><text/><text/><text/><text/><text/><text/><text/><text/><text/><text/><text/><text/><text/><text y="920" x="930" class="label" style="fill: #7f7f7f;">Reversible Debugging Using...</text></g><g class="journal"><circle cx="462.16216216216213" cy="940" r="5.5" style="fill: #7f7f7f;"/><circle cx="97.2972972972973" cy="940" r="5.5" style="fill: #7f7f7f;"/><text/><text/><text y="940" x="930" class="label" style="fill: #7f7f7f;">Breaking up is hard to do: An...</text></g><g class="journal"><circle cx="462.16216216216213" cy="960" r="5.5" style="fill: #7f7f7f;"/><circle cx="340.5405405405406" cy="960" r="5.5" style="fill: #7f7f7f;"/><text/><text/><text y="960" x="930" class="label" style="fill: #7f7f7f;">On correct and complete strong...</text></g><g class="journal"><circle cx="462.16216216216213" cy="980" r="4.333333333331" style="fill: #7f7f7f;"/><circle cx="851.3513513513514" cy="980" r="6.666666666669" style="fill: #7f7f7f;"/><text/><text/><text y="980" x="930" class="label" style="fill: #7f7f7f;">Siddhartha: A Method for...</text></g><g class="journal"><circle cx="510.8108108108108" cy="1000" r="5.5" style="fill: #7f7f7f;"/><circle cx="145.94594594594597" cy="1000" r="5.5" style="fill: #7f7f7f;"/><text/><text/><text y="1000" x="930" class="label" style="fill: #7f7f7f;">An Extendable Approach to...</text></g><rect width="10" height="450" x="915" y="3630" style="fill: #ffffff;"/></g><g><g class="journal"><circle cx="121.62162162162163" cy="1020" r="5.5" style="fill: #bcbd22;"/><circle cx="145.94594594594597" cy="1020" r="5.5" style="fill: #bcbd22;"/><text/><text/><text y="1020" x="930" class="label" style="fill: #bcbd22;">A Parallel Processor Operating...</text></g><g class="journal"><circle cx="875.6756756756757" cy="1040" r="6.666666666669" style="fill: #bcbd22;"/><circle cx="413.51351351351354" cy="1040" r="4.333333333331" style="fill: #bcbd22;"/><text/><text/><text y="1040" x="930" class="label" style="fill: #bcbd22;">An empirical study of...</text></g><g class="journal"><circle cx="48.64864864864865" cy="1060" r="5.5" style="fill: #bcbd22;"/><circle cx="170.2702702702703" cy="1060" r="5.5" style="fill: #bcbd22;"/><text/><text/><text y="1060" x="930" class="label" style="fill: #bcbd22;">Automated Mapping from Goal...</text></g><g class="journal"><circle cx="486.4864864864865" cy="1080" r="4.333333333331" style="fill: #bcbd22;"/><circle cx="875.6756756756757" cy="1080" r="6.666666666669" style="fill: #bcbd22;"/><text/><text/><text y="1080" x="930" class="label" style="fill: #bcbd22;">Developing use cases and...</text></g><g class="journal"><circle cx="24.324324324324326" cy="1100" r="2.02765432098765" style="fill: #bcbd22;"/><circle cx="535.1351351351352" cy="1100" r="3.165834721247" style="fill: #bcbd22;"/><circle cx="97.2972972972973" cy="1100" r="2.707748220844" style="fill: #bcbd22;"/><circle cx="608.1081081081081" cy="1100" r="2.3362603305782" style="fill: #bcbd22;"/><circle cx="632.4324324324325" cy="1100" r="3.79375" style="fill: #bcbd22;"/><circle cx="656.7567567567568" cy="1100" r="2.001334422657953" style="fill: #bcbd22;"/><circle cx="681.0810810810812" cy="1100" r="2.0070833333333" style="fill: #bcbd22;"/><circle cx="194.5945945945946" cy="1100" r="2.006383014638364" style="fill: #bcbd22;"/><circle cx="218.91891891891893" cy="1100" r="2.0596677559912697" style="fill: #bcbd22;"/><circle cx="243.24324324324326" cy="1100" r="2.1747808984579002" style="fill: #bcbd22;"/><circle cx="705.4054054054054" cy="1100" r="2.0840650826449" style="fill: #bcbd22;"/><circle cx="291.89189189189193" cy="1100" r="2.0036220043573" style="fill: #bcbd22;"/><circle cx="827.0270270270271" cy="1100" r="3.1412912798" style="fill: #bcbd22;"/><circle cx="340.5405405405406" cy="1100" r="2.1053150826448" style="fill: #bcbd22;"/><circle cx="364.8648648648649" cy="1100" r="2.00295164208934" style="fill: #bcbd22;"/><circle cx="389.1891891891892" cy="1100" r="2.002287581699347" style="fill: #bcbd22;"/><circle cx="851.3513513513514" cy="1100" r="2.01166666666669" style="fill: #bcbd22;"/><circle cx="413.51351351351354" cy="1100" r="2.0352764948954603" style="fill: #bcbd22;"/><circle cx="462.16216216216213" cy="1100" r="3.3330271464649996" style="fill: #bcbd22;"/><text/><text/><text/><text/><text/><text/><text/><text/><text/><text/><text/><text/><text/><text/><text/><text/><text/><text/><text/><text y="1100" x="930" class="label" style="fill: #bcbd22;">Duplication, Insertion and...</text></g><rect width="10" height="450" x="915" y="4080" style="fill: #ffffff;"/></g></g></svg>
