<svg xmlns="http://www.w3.org/2000/svg" width="1420" height="1220" id="bundles" style="margin-left: 20px;"><g transform="translate(20,100)"><g class="x axis" transform="translate(0,90)"><g class="tick" transform="translate(0,0)" style="opacity: 1;"><line y2="-6" x2="0"/><text dy="1em" y="-9" x="0" dx="1em" transform="rotate(290)" style="text-anchor: start;">ADAPTIVE SYSTEMS</text></g><g class="tick" transform="translate(24.324324324324326,0)" style="opacity: 1;"><line y2="-6" x2="0"/><text dy="1em" y="-9" x="0" dx="1em" transform="rotate(290)" style="text-anchor: start;">ARCHITECTURES</text></g><g class="tick" transform="translate(48.64864864864865,0)" style="opacity: 1;"><line y2="-6" x2="0"/><text dy="1em" y="-9" x="0" dx="1em" transform="rotate(290)" style="text-anchor: start;">ARTIFICIAL INTELLIGENCE</text></g><g class="tick" transform="translate(72.97297297297298,0)" style="opacity: 1;"><line y2="-6" x2="0"/><text dy="1em" y="-9" x="0" dx="1em" transform="rotate(290)" style="text-anchor: start;">AUTONOMIC SYSTEMS</text></g><g class="tick" transform="translate(97.2972972972973,0)" style="opacity: 1;"><line y2="-6" x2="0"/><text dy="1em" y="-9" x="0" dx="1em" transform="rotate(290)" style="text-anchor: start;">CONCURRENCY</text></g><g class="tick" transform="translate(121.62162162162163,0)" style="opacity: 1;"><line y2="-6" x2="0"/><text dy="1em" y="-9" x="0" dx="1em" transform="rotate(290)" style="text-anchor: start;">DATABASE</text></g><g class="tick" transform="translate(145.94594594594597,0)" style="opacity: 1;"><line y2="-6" x2="0"/><text dy="1em" y="-9" x="0" dx="1em" transform="rotate(290)" style="text-anchor: start;">DISTRIBUTED SYSTEMS</text></g><g class="tick" transform="translate(170.2702702702703,0)" style="opacity: 1;"><line y2="-6" x2="0"/><text dy="1em" y="-9" x="0" dx="1em" transform="rotate(290)" style="text-anchor: start;">EDUCATION</text></g><g class="tick" transform="translate(194.5945945945946,0)" style="opacity: 1;"><line y2="-6" x2="0"/><text dy="1em" y="-9" x="0" dx="1em" transform="rotate(290)" style="text-anchor: start;">EMBEDDED</text></g><g class="tick" transform="translate(218.91891891891893,0)" style="opacity: 1;"><line y2="-6" x2="0"/><text dy="1em" y="-9" x="0" dx="1em" transform="rotate(290)" style="text-anchor: start;">EVOLUTION</text></g><g class="tick" transform="translate(243.24324324324326,0)" style="opacity: 1;"><line y2="-6" x2="0"/><text dy="1em" y="-9" x="0" dx="1em" transform="rotate(290)" style="text-anchor: start;">FORMAL METHODS</text></g><g class="tick" transform="translate(267.5675675675676,0)" style="opacity: 1;"><line y2="-6" x2="0"/><text dy="1em" y="-9" x="0" dx="1em" transform="rotate(290)" style="text-anchor: start;">HUMAN COMPUTER INTERACTION</text></g><g class="tick" transform="translate(291.89189189189193,0)" style="opacity: 1;"><line y2="-6" x2="0"/><text dy="1em" y="-9" x="0" dx="1em" transform="rotate(290)" style="text-anchor: start;">INFORMATION SYSTMS</text></g><g class="tick" transform="translate(316.21621621621625,0)" style="opacity: 1;"><line y2="-6" x2="0"/><text dy="1em" y="-9" x="0" dx="1em" transform="rotate(290)" style="text-anchor: start;">KNOWLEDGE ENGINEERING</text></g><g class="tick" transform="translate(340.5405405405406,0)" style="opacity: 1;"><line y2="-6" x2="0"/><text dy="1em" y="-9" x="0" dx="1em" transform="rotate(290)" style="text-anchor: start;">LANGUAGES</text></g><g class="tick" transform="translate(364.8648648648649,0)" style="opacity: 1;"><line y2="-6" x2="0"/><text dy="1em" y="-9" x="0" dx="1em" transform="rotate(290)" style="text-anchor: start;">MAINTENANCE</text></g><g class="tick" transform="translate(389.1891891891892,0)" style="opacity: 1;"><line y2="-6" x2="0"/><text dy="1em" y="-9" x="0" dx="1em" transform="rotate(290)" style="text-anchor: start;">METHODOLOGIES</text></g><g class="tick" transform="translate(413.51351351351354,0)" style="opacity: 1;"><line y2="-6" x2="0"/><text dy="1em" y="-9" x="0" dx="1em" transform="rotate(290)" style="text-anchor: start;">METRICS</text></g><g class="tick" transform="translate(437.83783783783787,0)" style="opacity: 1;"><line y2="-6" x2="0"/><text dy="1em" y="-9" x="0" dx="1em" transform="rotate(290)" style="text-anchor: start;">MODELS</text></g><g class="tick" transform="translate(462.16216216216213,0)" style="opacity: 1;"><line y2="-6" x2="0"/><text dy="1em" y="-9" x="0" dx="1em" transform="rotate(290)" style="text-anchor: start;">OPERATING SYSTEMS</text></g><g class="tick" transform="translate(486.4864864864865,0)" style="opacity: 1;"><line y2="-6" x2="0"/><text dy="1em" y="-9" x="0" dx="1em" transform="rotate(290)" style="text-anchor: start;">PERFORMANCE</text></g><g class="tick" transform="translate(510.8108108108108,0)" style="opacity: 1;"><line y2="-6" x2="0"/><text dy="1em" y="-9" x="0" dx="1em" transform="rotate(290)" style="text-anchor: start;">PRODUCT LINES</text></g><g class="tick" transform="translate(535.1351351351352,0)" style="opacity: 1;"><line y2="-6" x2="0"/><text dy="1em" y="-9" x="0" dx="1em" transform="rotate(290)" style="text-anchor: start;">PROGRAM ANALYSIS</text></g><g class="tick" transform="translate(559.4594594594595,0)" style="opacity: 1;"><line y2="-6" x2="0"/><text dy="1em" y="-9" x="0" dx="1em" transform="rotate(290)" style="text-anchor: start;">PROGRAM COMPREHENSION</text></g><g class="tick" transform="translate(583.7837837837839,0)" style="opacity: 1;"><line y2="-6" x2="0"/><text dy="1em" y="-9" x="0" dx="1em" transform="rotate(290)" style="text-anchor: start;">REAL TIME SYSTEMS</text></g><g class="tick" transform="translate(608.1081081081081,0)" style="opacity: 1;"><line y2="-6" x2="0"/><text dy="1em" y="-9" x="0" dx="1em" transform="rotate(290)" style="text-anchor: start;">RELIABILITY</text></g><g class="tick" transform="translate(632.4324324324325,0)" style="opacity: 1;"><line y2="-6" x2="0"/><text dy="1em" y="-9" x="0" dx="1em" transform="rotate(290)" style="text-anchor: start;">REQUIREMENTS</text></g><g class="tick" transform="translate(656.7567567567568,0)" style="opacity: 1;"><line y2="-6" x2="0"/><text dy="1em" y="-9" x="0" dx="1em" transform="rotate(290)" style="text-anchor: start;">REVERSE ENGINEERING</text></g><g class="tick" transform="translate(681.0810810810812,0)" style="opacity: 1;"><line y2="-6" x2="0"/><text dy="1em" y="-9" x="0" dx="1em" transform="rotate(290)" style="text-anchor: start;">SECURITY</text></g><g class="tick" transform="translate(705.4054054054054,0)" style="opacity: 1;"><line y2="-6" x2="0"/><text dy="1em" y="-9" x="0" dx="1em" transform="rotate(290)" style="text-anchor: start;">SERVICES</text></g><g class="tick" transform="translate(729.7297297297298,0)" style="opacity: 1;"><line y2="-6" x2="0"/><text dy="1em" y="-9" x="0" dx="1em" transform="rotate(290)" style="text-anchor: start;">SOFTWARE QUALITY</text></g><g class="tick" transform="translate(754.0540540540541,0)" style="opacity: 1;"><line y2="-6" x2="0"/><text dy="1em" y="-9" x="0" dx="1em" transform="rotate(290)" style="text-anchor: start;">SYNTHESIS</text></g><g class="tick" transform="translate(778.3783783783784,0)" style="opacity: 1;"><line y2="-6" x2="0"/><text dy="1em" y="-9" x="0" dx="1em" transform="rotate(290)" style="text-anchor: start;">TESTING</text></g><g class="tick" transform="translate(802.7027027027027,0)" style="opacity: 1;"><line y2="-6" x2="0"/><text dy="1em" y="-9" x="0" dx="1em" transform="rotate(290)" style="text-anchor: start;">EMPIRICAL SOFTWARE ENGINEERING</text></g><g class="tick" transform="translate(827.0270270270271,0)" style="opacity: 1;"><line y2="-6" x2="0"/><text dy="1em" y="-9" x="0" dx="1em" transform="rotate(290)" style="text-anchor: start;">PROCESS</text></g><g class="tick" transform="translate(851.3513513513514,0)" style="opacity: 1;"><line y2="-6" x2="0"/><text dy="1em" y="-9" x="0" dx="1em" transform="rotate(290)" style="text-anchor: start;">VISUALIZATION</text></g><g class="tick" transform="translate(875.6756756756757,0)" style="opacity: 1;"><line y2="-6" x2="0"/><text dy="1em" y="-9" x="0" dx="1em" transform="rotate(290)" style="text-anchor: start;">ALGORITHM</text></g><g class="tick" transform="translate(900,0)" style="opacity: 1;"><line y2="-6" x2="0"/><text dy="1em" y="-9" x="0" dx="1em" transform="rotate(290)" style="text-anchor: start;"/></g><path class="domain" d="M0,-6V0H900V-6"/></g><g><g class="journal"><circle cx="0" cy="120" r="2.0001064143307836" style="fill: #17becf;"/><circle cx="24.324324324324326" cy="120" r="2.0722966547625" style="fill: #17becf;"/><circle cx="48.64864864864865" cy="120" r="2.3624158753922" style="fill: #17becf;"/><circle cx="72.97297297297298" cy="120" r="2.0000158277936055" style="fill: #17becf;"/><circle cx="97.2972972972973" cy="120" r="2.03536077465354" style="fill: #17becf;"/><circle cx="121.62162162162163" cy="120" r="2.0632407514018003" style="fill: #17becf;"/><circle cx="145.94594594594597" cy="120" r="2.1387413513100997" style="fill: #17becf;"/><circle cx="170.2702702702703" cy="120" r="2.000057318284062" style="fill: #17becf;"/><circle cx="194.5945945945946" cy="120" r="2.00091579738138" style="fill: #17becf;"/><circle cx="218.91891891891893" cy="120" r="2.0324856213745" style="fill: #17becf;"/><circle cx="243.24324324324326" cy="120" r="3.080694302373" style="fill: #17becf;"/><circle cx="267.5675675675676" cy="120" r="2.6709709602673" style="fill: #17becf;"/><circle cx="291.89189189189193" cy="120" r="2.3587730271713" style="fill: #17becf;"/><circle cx="316.21621621621625" cy="120" r="2.0094124664168502" style="fill: #17becf;"/><circle cx="340.5405405405406" cy="120" r="2.03143829797829" style="fill: #17becf;"/><circle cx="364.8648648648649" cy="120" r="2.785518264258" style="fill: #17becf;"/><circle cx="389.1891891891892" cy="120" r="2.02596662270482" style="fill: #17becf;"/><circle cx="413.51351351351354" cy="120" r="2.003434065934068" style="fill: #17becf;"/><circle cx="437.83783783783787" cy="120" r="2.705297647537" style="fill: #17becf;"/><circle cx="462.16216216216213" cy="120" r="2.000031655587211" style="fill: #17becf;"/><circle cx="486.4864864864865" cy="120" r="2.00838141476228" style="fill: #17becf;"/><circle cx="510.8108108108108" cy="120" r="2.0001512510420927" style="fill: #17becf;"/><circle cx="535.1351351351352" cy="120" r="2.000970173020649" style="fill: #17becf;"/><circle cx="559.4594594594595" cy="120" r="2.02916232013688" style="fill: #17becf;"/><circle cx="583.7837837837839" cy="120" r="2.02473063440141" style="fill: #17becf;"/><circle cx="608.1081081081081" cy="120" r="2.1219832246423" style="fill: #17becf;"/><circle cx="632.4324324324325" cy="120" r="3.3039856666059997" style="fill: #17becf;"/><circle cx="656.7567567567568" cy="120" r="2.06399919007958" style="fill: #17becf;"/><circle cx="681.0810810810812" cy="120" r="2.004313505987637" style="fill: #17becf;"/><circle cx="705.4054054054054" cy="120" r="2.0793487323621997" style="fill: #17becf;"/><circle cx="729.7297297297298" cy="120" r="2.917665012138" style="fill: #17becf;"/><circle cx="754.0540540540541" cy="120" r="2.0002292731362483" style="fill: #17becf;"/><circle cx="778.3783783783784" cy="120" r="2.06790590476817" style="fill: #17becf;"/><text/><text/><text/><text/><text/><text/><text/><text/><text/><text/><text/><text/><text/><text/><text/><text/><text/><text/><text/><text/><text/><text/><text/><text/><text/><text/><text/><text/><text/><text/><text/><text/><text/><text y="120" x="930" class="label" style="fill: #17becf;">Supporting Scenario-Based...</text></g><g class="journal"><circle cx="802.7027027027027" cy="140" r="7.6" style="fill: #17becf;"/><circle cx="559.4594594594595" cy="140" r="3.4000000000000004" style="fill: #17becf;"/><text/><text/><text y="140" x="930" class="label" style="fill: #17becf;">Power laws in software.</text></g><g class="journal"><circle cx="170.2702702702703" cy="160" r="5.5" style="fill: #17becf;"/><circle cx="802.7027027027027" cy="160" r="3.75" style="fill: #17becf;"/><circle cx="827.0270270270271" cy="160" r="3.75" style="fill: #17becf;"/><text/><text/><text/><text y="160" x="930" class="label" style="fill: #17becf;">A Comparison of U.S. and...</text></g><g class="journal"><circle cx="802.7027027027027" cy="180" r="5.5" style="fill: #17becf;"/><circle cx="413.51351351351354" cy="180" r="5.5" style="fill: #17becf;"/><text/><text/><text y="180" x="930" class="label" style="fill: #17becf;">Relevancy based semantic...</text></g><g class="journal"><circle cx="802.7027027027027" cy="200" r="3.75" style="fill: #17becf;"/><circle cx="170.2702702702703" cy="200" r="3.75" style="fill: #17becf;"/><circle cx="316.21621621621625" cy="200" r="5.5" style="fill: #17becf;"/><text/><text/><text/><text y="200" x="930" class="label" style="fill: #17becf;">Modeling the Application...</text></g><rect width="10" height="450" x="915" y="30" style="fill: #ffffff;"/></g><g><g class="journal"><circle cx="340.5405405405406" cy="220" r="5.5" style="fill: #1f77b4;"/><circle cx="778.3783783783784" cy="220" r="5.5" style="fill: #1f77b4;"/><text/><text/><text y="220" x="930" class="label" style="fill: #1f77b4;">DSD-Crasher: A hybrid analysis...</text></g><g class="journal"><circle cx="340.5405405405406" cy="240" r="4.333333333331" style="fill: #1f77b4;"/><circle cx="754.0540540540541" cy="240" r="4.333333333331" style="fill: #1f77b4;"/><circle cx="778.3783783783784" cy="240" r="4.333333333331" style="fill: #1f77b4;"/><text/><text/><text/><text y="240" x="930" class="label" style="fill: #1f77b4;">Inferring Method Effect...</text></g><g class="journal"><circle cx="778.3783783783784" cy="260" r="5.5" style="fill: #1f77b4;"/><circle cx="340.5405405405406" cy="260" r="5.5" style="fill: #1f77b4;"/><text/><text/><text y="260" x="930" class="label" style="fill: #1f77b4;">Juzi: a tool for repairing...</text></g><g class="journal"><circle cx="48.64864864864865" cy="280" r="5.5" style="fill: #1f77b4;"/><circle cx="340.5405405405406" cy="280" r="5.5" style="fill: #1f77b4;"/><text/><text/><text y="280" x="930" class="label" style="fill: #1f77b4;">A Practical Approach to...</text></g><g class="journal"><circle cx="24.324324324324326" cy="300" r="2.0187732851194697" style="fill: #1f77b4;"/><circle cx="48.64864864864865" cy="300" r="2.000014381985536" style="fill: #1f77b4;"/><circle cx="145.94594594594597" cy="300" r="2.04523613850539" style="fill: #1f77b4;"/><circle cx="170.2702702702703" cy="300" r="2.04487179487182" style="fill: #1f77b4;"/><circle cx="194.5945945945946" cy="300" r="2.000003595496384" style="fill: #1f77b4;"/><circle cx="243.24324324324326" cy="300" r="2.2380654346098" style="fill: #1f77b4;"/><circle cx="267.5675675675676" cy="300" r="2.01350468441812" style="fill: #1f77b4;"/><circle cx="291.89189189189193" cy="300" r="7.250023370725001" style="fill: #1f77b4;"/><circle cx="316.21621621621625" cy="300" r="2.02124219263642" style="fill: #1f77b4;"/><circle cx="364.8648648648649" cy="300" r="2.04487179487182" style="fill: #1f77b4;"/><circle cx="413.51351351351354" cy="300" r="2.001109467455621" style="fill: #1f77b4;"/><circle cx="437.83783783783787" cy="300" r="2.04503564677843" style="fill: #1f77b4;"/><circle cx="486.4864864864865" cy="300" r="2.002707100591713" style="fill: #1f77b4;"/><circle cx="510.8108108108108" cy="300" r="2.000016179733728" style="fill: #1f77b4;"/><circle cx="535.1351351351352" cy="300" r="2.0007478632478657" style="fill: #1f77b4;"/><circle cx="559.4594594594595" cy="300" r="2.0134615384615597" style="fill: #1f77b4;"/><circle cx="583.7837837837839" cy="300" r="2.5519230769234" style="fill: #1f77b4;"/><circle cx="608.1081081081081" cy="300" r="2.4918254335141" style="fill: #1f77b4;"/><circle cx="632.4324324324325" cy="300" r="2.04896244247209" style="fill: #1f77b4;"/><circle cx="705.4054054054054" cy="300" r="2.1358203895461" style="fill: #1f77b4;"/><circle cx="729.7297297297298" cy="300" r="2.03141025641026" style="fill: #1f77b4;"/><circle cx="778.3783783783784" cy="300" r="2.0003739316239315" style="fill: #1f77b4;"/><text/><text/><text/><text/><text/><text/><text/><text/><text/><text/><text/><text/><text/><text/><text/><text/><text/><text/><text/><text/><text/><text/><text y="300" x="930" class="label" style="fill: #1f77b4;">Guest Editors' Introduction...</text></g><rect width="10" height="450" x="915" y="480" style="fill: #ffffff;"/></g><g><g class="journal"><circle cx="48.64864864864865" cy="320" r="3.4000000000000004" style="fill: #ff7f0e;"/><circle cx="802.7027027027027" cy="320" r="3.4000000000000004" style="fill: #ff7f0e;"/><circle cx="364.8648648648649" cy="320" r="4.8" style="fill: #ff7f0e;"/><circle cx="632.4324324324325" cy="320" r="3.4000000000000004" style="fill: #ff7f0e;"/><text/><text/><text/><text/><text y="320" x="930" class="label" style="fill: #ff7f0e;">An Empirical Study of the...</text></g><g class="journal"><circle cx="24.324324324324326" cy="340" r="3.999999999998" style="fill: #ff7f0e;"/><circle cx="243.24324324324326" cy="340" r="2.999999999999" style="fill: #ff7f0e;"/><circle cx="316.21621621621625" cy="340" r="2.999999999999" style="fill: #ff7f0e;"/><circle cx="437.83783783783787" cy="340" r="2.999999999999" style="fill: #ff7f0e;"/><circle cx="608.1081081081081" cy="340" r="2.999999999999" style="fill: #ff7f0e;"/><circle cx="729.7297297297298" cy="340" r="2.999999999999" style="fill: #ff7f0e;"/><text/><text/><text/><text/><text/><text/><text y="340" x="930" class="label" style="fill: #ff7f0e;">Architecting families of...</text></g><g class="journal"><circle cx="24.324324324324326" cy="360" r="5.5" style="fill: #ff7f0e;"/><circle cx="729.7297297297298" cy="360" r="5.5" style="fill: #ff7f0e;"/><text/><text/><text y="360" x="930" class="label" style="fill: #ff7f0e;">Model-based self-monitoring...</text></g><g class="journal"><circle cx="729.7297297297298" cy="380" r="7.25" style="fill: #ff7f0e;"/><circle cx="145.94594594594597" cy="380" r="3.75" style="fill: #ff7f0e;"/><text/><text/><text y="380" x="930" class="label" style="fill: #ff7f0e;">Software Process Description...</text></g><g class="journal"><circle cx="243.24324324324326" cy="400" r="2.5925925925927" style="fill: #ff7f0e;"/><circle cx="705.4054054054054" cy="400" r="2.6574074074071" style="fill: #ff7f0e;"/><circle cx="729.7297297297298" cy="400" r="7.601851851855" style="fill: #ff7f0e;"/><circle cx="778.3783783783784" cy="400" r="2.148148148148" style="fill: #ff7f0e;"/><text/><text/><text/><text/><text y="400" x="930" class="label" style="fill: #ff7f0e;">Testing context-aware...</text></g><rect width="10" height="450" x="915" y="930" style="fill: #ffffff;"/></g><g><g class="journal"><circle cx="802.7027027027027" cy="420" r="7.25" style="fill: #2ca02c;"/><circle cx="389.1891891891892" cy="420" r="3.75" style="fill: #2ca02c;"/><text/><text/><text y="420" x="930" class="label" style="fill: #2ca02c;">The Role of Deliberate...</text></g><g class="journal"><circle cx="802.7027027027027" cy="440" r="7.6" style="fill: #2ca02c;"/><circle cx="559.4594594594595" cy="440" r="3.4000000000000004" style="fill: #2ca02c;"/><text/><text/><text y="440" x="930" class="label" style="fill: #2ca02c;">Power laws in software.</text></g><g class="journal"><circle cx="778.3783783783784" cy="460" r="3.75" style="fill: #2ca02c;"/><circle cx="413.51351351351354" cy="460" r="7.25" style="fill: #2ca02c;"/><text/><text/><text y="460" x="930" class="label" style="fill: #2ca02c;">SpotWeb: Detecting Framework...</text></g><g class="journal"><circle cx="802.7027027027027" cy="480" r="5.5" style="fill: #2ca02c;"/><circle cx="413.51351351351354" cy="480" r="5.5" style="fill: #2ca02c;"/><text/><text/><text y="480" x="930" class="label" style="fill: #2ca02c;">Relevancy based semantic...</text></g><g class="journal"><circle cx="583.7837837837839" cy="500" r="2.1903259965894" style="fill: #2ca02c;"/><circle cx="851.3513513513514" cy="500" r="2.0000171783421825" style="fill: #2ca02c;"/><circle cx="0" cy="500" r="2.0001541245837973" style="fill: #2ca02c;"/><circle cx="72.97297297297298" cy="500" r="2.0000000001199956" style="fill: #2ca02c;"/><circle cx="535.1351351351352" cy="500" r="2.000058576486879" style="fill: #2ca02c;"/><circle cx="486.4864864864865" cy="500" r="2.005970039600385" style="fill: #2ca02c;"/><circle cx="462.16216216216213" cy="500" r="5.823178150561" style="fill: #2ca02c;"/><circle cx="48.64864864864865" cy="500" r="2.00160481666534" style="fill: #2ca02c;"/><circle cx="608.1081081081081" cy="500" r="2.1195301807112" style="fill: #2ca02c;"/><circle cx="559.4594594594595" cy="500" r="2.0002436675873407" style="fill: #2ca02c;"/><circle cx="778.3783783783784" cy="500" r="2.0000974683822936" style="fill: #2ca02c;"/><circle cx="802.7027027027027" cy="500" r="2.0000183312425728" style="fill: #2ca02c;"/><circle cx="97.2972972972973" cy="500" r="2.1737311882859" style="fill: #2ca02c;"/><circle cx="510.8108108108108" cy="500" r="2.000098553487888" style="fill: #2ca02c;"/><circle cx="656.7567567567568" cy="500" r="2.0000767446862397" style="fill: #2ca02c;"/><circle cx="437.83783783783787" cy="500" r="2.006817446498779" style="fill: #2ca02c;"/><circle cx="413.51351351351354" cy="500" r="2.000045136379489" style="fill: #2ca02c;"/><circle cx="729.7297297297298" cy="500" r="2.001861580809396" style="fill: #2ca02c;"/><circle cx="218.91891891891893" cy="500" r="2.0001163741521912" style="fill: #2ca02c;"/><circle cx="243.24324324324326" cy="500" r="2.01145741196404" style="fill: #2ca02c;"/><circle cx="267.5675675675676" cy="500" r="2.0634117247043" style="fill: #2ca02c;"/><circle cx="364.8648648648649" cy="500" r="2.01031615109133" style="fill: #2ca02c;"/><circle cx="121.62162162162163" cy="500" r="2.066955956333" style="fill: #2ca02c;"/><circle cx="754.0540540540541" cy="500" r="2.0002948894856147" style="fill: #2ca02c;"/><circle cx="875.6756756756757" cy="500" r="2.00701195975116" style="fill: #2ca02c;"/><circle cx="291.89189189189193" cy="500" r="2.0612441117508498" style="fill: #2ca02c;"/><circle cx="145.94594594594597" cy="500" r="4.034958927022" style="fill: #2ca02c;"/><circle cx="389.1891891891892" cy="500" r="2.0006200433739045" style="fill: #2ca02c;"/><circle cx="316.21621621621625" cy="500" r="2.2219208479796" style="fill: #2ca02c;"/><circle cx="24.324324324324326" cy="500" r="2.01154818343693" style="fill: #2ca02c;"/><circle cx="194.5945945945946" cy="500" r="2.0000535281839" style="fill: #2ca02c;"/><circle cx="705.4054054054054" cy="500" r="2.000712922873803" style="fill: #2ca02c;"/><circle cx="827.0270270270271" cy="500" r="2.0001595657351814" style="fill: #2ca02c;"/><circle cx="340.5405405405406" cy="500" r="2.171831387413" style="fill: #2ca02c;"/><circle cx="170.2702702702703" cy="500" r="2.0000154073110537" style="fill: #2ca02c;"/><circle cx="681.0810810810812" cy="500" r="2.0000008113183676" style="fill: #2ca02c;"/><circle cx="632.4324324324325" cy="500" r="2.01171749325264" style="fill: #2ca02c;"/><text/><text/><text/><text/><text/><text/><text/><text/><text/><text/><text/><text/><text/><text/><text/><text/><text/><text/><text/><text/><text/><text/><text/><text/><text/><text/><text/><text/><text/><text/><text/><text/><text/><text/><text/><text/><text/><text y="500" x="930" class="label" style="fill: #2ca02c;">Edmas: A Locally Distributed...</text></g><rect width="10" height="450" x="915" y="1380" style="fill: #ffffff;"/></g><g><g class="journal"><circle cx="851.3513513513514" cy="520" r="2.0002172989367857" style="fill: #d62728;"/><circle cx="0" cy="520" r="2.0000672818146867" style="fill: #d62728;"/><circle cx="535.1351351351352" cy="520" r="2.001287646516121" style="fill: #d62728;"/><circle cx="486.4864864864865" cy="520" r="2.4117647058826" style="fill: #d62728;"/><circle cx="462.16216216216213" cy="520" r="2.000001526615006" style="fill: #d62728;"/><circle cx="48.64864864864865" cy="520" r="2.03442465405519" style="fill: #d62728;"/><circle cx="608.1081081081081" cy="520" r="3.268757464576" style="fill: #d62728;"/><circle cx="559.4594594594595" cy="520" r="2.000729406427414" style="fill: #d62728;"/><circle cx="778.3783783783784" cy="520" r="2.4143717938346" style="fill: #d62728;"/><circle cx="802.7027027027027" cy="520" r="2.01998397939587" style="fill: #d62728;"/><circle cx="510.8108108108108" cy="520" r="2.000002342546953" style="fill: #d62728;"/><circle cx="656.7567567567568" cy="520" r="2.001979848229268" style="fill: #d62728;"/><circle cx="437.83783783783787" cy="520" r="2.4132422144774" style="fill: #d62728;"/><circle cx="413.51351351351354" cy="520" r="2.1241545293548" style="fill: #d62728;"/><circle cx="729.7297297297298" cy="520" r="2.0468213622183997" style="fill: #d62728;"/><circle cx="218.91891891891893" cy="520" r="2.2354591112685003" style="fill: #d62728;"/><circle cx="243.24324324324326" cy="520" r="2.006527994950589" style="fill: #d62728;"/><circle cx="267.5675675675676" cy="520" r="2.002163624846481" style="fill: #d62728;"/><circle cx="364.8648648648649" cy="520" r="4.919234407684" style="fill: #d62728;"/><circle cx="121.62162162162163" cy="520" r="2.0003600306967355" style="fill: #d62728;"/><circle cx="754.0540540540541" cy="520" r="2.0000105998105377" style="fill: #d62728;"/><circle cx="291.89189189189193" cy="520" r="2.01455086989902" style="fill: #d62728;"/><circle cx="145.94594594594597" cy="520" r="2.000932967280728" style="fill: #d62728;"/><circle cx="389.1891891891892" cy="520" r="2.0005426823570702" style="fill: #d62728;"/><circle cx="316.21621621621625" cy="520" r="2.4130522137966" style="fill: #d62728;"/><circle cx="24.324324324324326" cy="520" r="2.0036652838462032" style="fill: #d62728;"/><circle cx="194.5945945945946" cy="520" r="2.0000002339168153" style="fill: #d62728;"/><circle cx="705.4054054054054" cy="520" r="2.000931408281216" style="fill: #d62728;"/><circle cx="170.2702702702703" cy="520" r="2.0004649082947012" style="fill: #d62728;"/><circle cx="340.5405405405406" cy="520" r="2.2490043447654" style="fill: #d62728;"/><circle cx="632.4324324324325" cy="520" r="2.4152932634304998" style="fill: #d62728;"/><text/><text/><text/><text/><text/><text/><text/><text/><text/><text/><text/><text/><text/><text/><text/><text/><text/><text/><text/><text/><text/><text/><text/><text/><text/><text/><text/><text/><text/><text/><text/><text y="520" x="930" class="label" style="fill: #d62728;">Certification of Software...</text></g><g class="journal"><circle cx="145.94594594594597" cy="540" r="7.25" style="fill: #d62728;"/><circle cx="535.1351351351352" cy="540" r="3.75" style="fill: #d62728;"/><text/><text/><text y="540" x="930" class="label" style="fill: #d62728;">Equivalence analysis and its...</text></g><g class="journal"><circle cx="121.62162162162163" cy="560" r="7.6" style="fill: #d62728;"/><circle cx="559.4594594594595" cy="560" r="3.4000000000000004" style="fill: #d62728;"/><text/><text/><text y="560" x="930" class="label" style="fill: #d62728;">A study of student strategies...</text></g><g class="journal"><circle cx="24.324324324324326" cy="580" r="2.999999999999" style="fill: #d62728;"/><circle cx="145.94594594594597" cy="580" r="8.000000000001" style="fill: #d62728;"/><text/><text/><text y="580" x="930" class="label" style="fill: #d62728;">System architecture: the...</text></g><g class="journal"><circle cx="145.94594594594597" cy="600" r="7.25" style="fill: #d62728;"/><circle cx="389.1891891891892" cy="600" r="3.75" style="fill: #d62728;"/><text/><text/><text y="600" x="930" class="label" style="fill: #d62728;">Dynamic Accommodation of...</text></g><rect width="10" height="450" x="915" y="1830" style="fill: #ffffff;"/></g><g><g class="journal"><circle cx="145.94594594594597" cy="620" r="4.333333333331" style="fill: #9467bd;"/><circle cx="340.5405405405406" cy="620" r="6.666666666669" style="fill: #9467bd;"/><text/><text/><text y="620" x="930" class="label" style="fill: #9467bd;">Translation and Execution of...</text></g><g class="journal"><circle cx="340.5405405405406" cy="640" r="5.5" style="fill: #9467bd;"/><circle cx="145.94594594594597" cy="640" r="5.5" style="fill: #9467bd;"/><text/><text/><text y="640" x="930" class="label" style="fill: #9467bd;">An inheritance-based technique...</text></g><g class="journal"><circle cx="48.64864864864865" cy="660" r="2.1458333333331003" style="fill: #9467bd;"/><circle cx="802.7027027027027" cy="660" r="3.75" style="fill: #9467bd;"/><circle cx="608.1081081081081" cy="660" r="2.5833333333331" style="fill: #9467bd;"/><circle cx="632.4324324324325" cy="660" r="5.208333333331001" style="fill: #9467bd;"/><circle cx="705.4054054054054" cy="660" r="3.3125" style="fill: #9467bd;"/><text/><text/><text/><text/><text/><text y="660" x="930" class="label" style="fill: #9467bd;">Automated Analysis of...</text></g><g class="journal"><circle cx="24.324324324324326" cy="680" r="7.833333333331" style="fill: #9467bd;"/><circle cx="559.4594594594595" cy="680" r="3.166666666669" style="fill: #9467bd;"/><text/><text/><text y="680" x="930" class="label" style="fill: #9467bd;">The universe model: an...</text></g><g class="journal"><circle cx="24.324324324324326" cy="700" r="5.5" style="fill: #9467bd;"/><circle cx="340.5405405405406" cy="700" r="5.5" style="fill: #9467bd;"/><text/><text/><text y="700" x="930" class="label" style="fill: #9467bd;">Adapting Applications on the...</text></g><rect width="10" height="450" x="915" y="2280" style="fill: #ffffff;"/></g><g><g class="journal"><circle cx="364.8648648648649" cy="720" r="2.402199074074" style="fill: #8c564b;"/><circle cx="875.6756756756757" cy="720" r="2.5833333333331" style="fill: #8c564b;"/><circle cx="389.1891891891892" cy="720" r="2.3605324074072" style="fill: #8c564b;"/><circle cx="48.64864864864865" cy="720" r="2.6990740740739" style="fill: #8c564b;"/><circle cx="608.1081081081081" cy="720" r="2.4123263888891" style="fill: #8c564b;"/><circle cx="316.21621621621625" cy="720" r="2.2916666666668997" style="fill: #8c564b;"/><circle cx="559.4594594594595" cy="720" r="2.6371527777776" style="fill: #8c564b;"/><circle cx="24.324324324324326" cy="720" r="2.5833333333331" style="fill: #8c564b;"/><circle cx="802.7027027027027" cy="720" r="2.991608796297" style="fill: #8c564b;"/><circle cx="437.83783783783787" cy="720" r="2.06481481481482" style="fill: #8c564b;"/><circle cx="656.7567567567568" cy="720" r="2.5833333333331" style="fill: #8c564b;"/><circle cx="413.51351351351354" cy="720" r="2.703993055556" style="fill: #8c564b;"/><circle cx="729.7297297297298" cy="720" r="2.3949652777777" style="fill: #8c564b;"/><circle cx="632.4324324324325" cy="720" r="2.2916666666668997" style="fill: #8c564b;"/><text/><text/><text/><text/><text/><text/><text/><text/><text/><text/><text/><text/><text/><text/><text y="720" x="930" class="label" style="fill: #8c564b;">Data Mining Static Code...</text></g><g class="journal"><circle cx="243.24324324324326" cy="740" r="3.75" style="fill: #8c564b;"/><circle cx="340.5405405405406" cy="740" r="7.25" style="fill: #8c564b;"/><text/><text/><text y="740" x="930" class="label" style="fill: #8c564b;">Effective typestate...</text></g><g class="journal"><circle cx="145.94594594594597" cy="760" r="3.166666666669" style="fill: #8c564b;"/><circle cx="340.5405405405406" cy="760" r="7.833333333331" style="fill: #8c564b;"/><text/><text/><text y="760" x="930" class="label" style="fill: #8c564b;">Introducing Formal...</text></g><g class="journal"><circle cx="243.24324324324326" cy="780" r="5.5" style="fill: #8c564b;"/><circle cx="340.5405405405406" cy="780" r="5.5" style="fill: #8c564b;"/><text/><text/><text y="780" x="930" class="label" style="fill: #8c564b;">Interpolation for data...</text></g><g class="journal"><circle cx="243.24324324324326" cy="800" r="3.4000000000000004" style="fill: #8c564b;"/><circle cx="291.89189189189193" cy="800" r="7.6" style="fill: #8c564b;"/><text/><text/><text y="800" x="930" class="label" style="fill: #8c564b;">Towards Automatic Imperative...</text></g><rect width="10" height="450" x="915" y="2730" style="fill: #ffffff;"/></g><g><g class="journal"><circle cx="875.6756756756757" cy="820" r="4.333333333331" style="fill: #e377c2;"/><circle cx="267.5675675675676" cy="820" r="6.666666666669" style="fill: #e377c2;"/><text/><text/><text y="820" x="930" class="label" style="fill: #e377c2;">Parametric Graph Drawing.</text></g><g class="journal"><circle cx="0" cy="840" r="2.02760659179558" style="fill: #e377c2;"/><circle cx="24.324324324324326" cy="840" r="2.766967728968" style="fill: #e377c2;"/><circle cx="48.64864864864865" cy="840" r="2.1329227862151" style="fill: #e377c2;"/><circle cx="97.2972972972973" cy="840" r="2.04364323004993" style="fill: #e377c2;"/><circle cx="121.62162162162163" cy="840" r="2.01996227299647" style="fill: #e377c2;"/><circle cx="145.94594594594597" cy="840" r="2.1809893742468" style="fill: #e377c2;"/><circle cx="170.2702702702703" cy="840" r="2.03813076764427" style="fill: #e377c2;"/><circle cx="194.5945945945946" cy="840" r="2.1043646921611" style="fill: #e377c2;"/><circle cx="802.7027027027027" cy="840" r="2.03670476968865" style="fill: #e377c2;"/><circle cx="218.91891891891893" cy="840" r="2.1928369143834" style="fill: #e377c2;"/><circle cx="243.24324324324326" cy="840" r="2.4174659845677997" style="fill: #e377c2;"/><circle cx="291.89189189189193" cy="840" r="2.3985446971303" style="fill: #e377c2;"/><circle cx="316.21621621621625" cy="840" r="2.2307872994392" style="fill: #e377c2;"/><circle cx="340.5405405405406" cy="840" r="2.3333905070314" style="fill: #e377c2;"/><circle cx="364.8648648648649" cy="840" r="2.1926239953617" style="fill: #e377c2;"/><circle cx="389.1891891891892" cy="840" r="2.197964602962" style="fill: #e377c2;"/><circle cx="413.51351351351354" cy="840" r="2.1864182929231" style="fill: #e377c2;"/><circle cx="437.83783783783787" cy="840" r="2.371644116641" style="fill: #e377c2;"/><circle cx="486.4864864864865" cy="840" r="2.1409057214313" style="fill: #e377c2;"/><circle cx="827.0270270270271" cy="840" r="2.1853144096195" style="fill: #e377c2;"/><circle cx="510.8108108108108" cy="840" r="2.02099207681536" style="fill: #e377c2;"/><circle cx="535.1351351351352" cy="840" r="2.0292429753478802" style="fill: #e377c2;"/><circle cx="559.4594594594595" cy="840" r="2.194565717976" style="fill: #e377c2;"/><circle cx="583.7837837837839" cy="840" r="2.2250623027975" style="fill: #e377c2;"/><circle cx="608.1081081081081" cy="840" r="2.1322472826465" style="fill: #e377c2;"/><circle cx="632.4324324324325" cy="840" r="2.4014458702701997" style="fill: #e377c2;"/><circle cx="656.7567567567568" cy="840" r="2.2815135291822" style="fill: #e377c2;"/><circle cx="681.0810810810812" cy="840" r="2.0033116499112973" style="fill: #e377c2;"/><circle cx="705.4054054054054" cy="840" r="2.5528467931903" style="fill: #e377c2;"/><circle cx="729.7297297297298" cy="840" r="2.2761086349056" style="fill: #e377c2;"/><circle cx="754.0540540540541" cy="840" r="2.3888012123744" style="fill: #e377c2;"/><circle cx="778.3783783783784" cy="840" r="2.1975979555522" style="fill: #e377c2;"/><circle cx="851.3513513513514" cy="840" r="2.004969980618092" style="fill: #e377c2;"/><text/><text/><text/><text/><text/><text/><text/><text/><text/><text/><text/><text/><text/><text/><text/><text/><text/><text/><text/><text/><text/><text/><text/><text/><text/><text/><text/><text/><text/><text/><text/><text/><text/><text y="840" x="930" class="label" style="fill: #e377c2;">A Formal Basis for...</text></g><g class="journal"><circle cx="267.5675675675676" cy="860" r="8.499999999997" style="fill: #e377c2;"/><circle cx="437.83783783783787" cy="860" r="2.5000000000002" style="fill: #e377c2;"/><text/><text/><text y="860" x="930" class="label" style="fill: #e377c2;">Using communicative acts in...</text></g><g class="journal"><circle cx="267.5675675675676" cy="880" r="6.666666666669" style="fill: #e377c2;"/><circle cx="851.3513513513514" cy="880" r="4.333333333331" style="fill: #e377c2;"/><text/><text/><text y="880" x="930" class="label" style="fill: #e377c2;">Role Migration and Advancement...</text></g><g class="journal"><circle cx="608.1081081081081" cy="900" r="7.833333333331" style="fill: #e377c2;"/><circle cx="681.0810810810812" cy="900" r="3.166666666669" style="fill: #e377c2;"/><text/><text/><text y="900" x="930" class="label" style="fill: #e377c2;">Secure systems development...</text></g><rect width="10" height="450" x="915" y="3180" style="fill: #ffffff;"/></g><g><g class="journal"><circle cx="364.8648648648649" cy="920" r="3.6871402407089997" style="fill: #7f7f7f;"/><circle cx="754.0540540540541" cy="920" r="3.6678440607010003" style="fill: #7f7f7f;"/><circle cx="535.1351351351352" cy="920" r="2.00952380952383" style="fill: #7f7f7f;"/><circle cx="48.64864864864865" cy="920" r="2.0205128205128" style="fill: #7f7f7f;"/><circle cx="608.1081081081081" cy="920" r="2.3355311355312" style="fill: #7f7f7f;"/><circle cx="559.4594594594595" cy="920" r="2.3730900052327" style="fill: #7f7f7f;"/><circle cx="778.3783783783784" cy="920" r="2.02527472527475" style="fill: #7f7f7f;"/><circle cx="24.324324324324326" cy="920" r="2.005363683935113" style="fill: #7f7f7f;"/><circle cx="802.7027027027027" cy="920" r="2.3468602825744" style="fill: #7f7f7f;"/><circle cx="340.5405405405406" cy="920" r="3.010256410254" style="fill: #7f7f7f;"/><circle cx="656.7567567567568" cy="920" r="3.087872841447" style="fill: #7f7f7f;"/><circle cx="413.51351351351354" cy="920" r="2.3628728414444002" style="fill: #7f7f7f;"/><circle cx="729.7297297297298" cy="920" r="2.05833333333331" style="fill: #7f7f7f;"/><circle cx="218.91891891891893" cy="920" r="2.00952380952383" style="fill: #7f7f7f;"/><text/><text/><text/><text/><text/><text/><text/><text/><text/><text/><text/><text/><text/><text/><text y="920" x="930" class="label" style="fill: #7f7f7f;">On the Use of Clone Detection...</text></g><g class="journal"><circle cx="243.24324324324326" cy="940" r="3.75" style="fill: #7f7f7f;"/><circle cx="389.1891891891892" cy="940" r="7.25" style="fill: #7f7f7f;"/><text/><text/><text y="940" x="930" class="label" style="fill: #7f7f7f;">Toward Formalizing Structured...</text></g><g class="journal"><circle cx="340.5405405405406" cy="960" r="7.25" style="fill: #7f7f7f;"/><circle cx="681.0810810810812" cy="960" r="3.75" style="fill: #7f7f7f;"/><text/><text/><text y="960" x="930" class="label" style="fill: #7f7f7f;">A threat-driven approach to...</text></g><g class="journal"><circle cx="340.5405405405406" cy="980" r="7.25" style="fill: #7f7f7f;"/><circle cx="559.4594594594595" cy="980" r="3.75" style="fill: #7f7f7f;"/><text/><text/><text y="980" x="930" class="label" style="fill: #7f7f7f;">Automating bug report...</text></g><g class="journal"><circle cx="778.3783783783784" cy="1000" r="2.6057692307695" style="fill: #7f7f7f;"/><circle cx="364.8648648648649" cy="1000" r="5.5" style="fill: #7f7f7f;"/><circle cx="802.7027027027027" cy="1000" r="2.5384615384617" style="fill: #7f7f7f;"/><circle cx="340.5405405405406" cy="1000" r="2.6730769230766" style="fill: #7f7f7f;"/><circle cx="535.1351351351352" cy="1000" r="2.06730769230766" style="fill: #7f7f7f;"/><circle cx="413.51351351351354" cy="1000" r="2.5384615384617" style="fill: #7f7f7f;"/><circle cx="608.1081081081081" cy="1000" r="2.5384615384617" style="fill: #7f7f7f;"/><circle cx="559.4594594594595" cy="1000" r="2.5384615384617" style="fill: #7f7f7f;"/><text/><text/><text/><text/><text/><text/><text/><text/><text y="1000" x="930" class="label" style="fill: #7f7f7f;">Scaling regression testing to...</text></g><rect width="10" height="450" x="915" y="3630" style="fill: #ffffff;"/></g><g><g class="journal"><circle cx="583.7837837837839" cy="1020" r="5.5" style="fill: #bcbd22;"/><circle cx="340.5405405405406" cy="1020" r="5.5" style="fill: #bcbd22;"/><text/><text/><text y="1020" x="930" class="label" style="fill: #bcbd22;">Compiling Real-Time Programs...</text></g><g class="journal"><circle cx="340.5405405405406" cy="1040" r="3.166666666669" style="fill: #bcbd22;"/><circle cx="437.83783783783787" cy="1040" r="5.5" style="fill: #bcbd22;"/><circle cx="243.24324324324326" cy="1040" r="4.333333333331" style="fill: #bcbd22;"/><text/><text/><text/><text y="1040" x="930" class="label" style="fill: #bcbd22;">Coordinating Rule-Based...</text></g><g class="journal"><circle cx="802.7027027027027" cy="1060" r="5.5" style="fill: #bcbd22;"/><circle cx="608.1081081081081" cy="1060" r="5.5" style="fill: #bcbd22;"/><text/><text/><text y="1060" x="930" class="label" style="fill: #bcbd22;">A Study on the Failure...</text></g><g class="journal"><circle cx="778.3783783783784" cy="1080" r="2.0546875" style="fill: #bcbd22;"/><circle cx="24.324324324324326" cy="1080" r="2.4921875" style="fill: #bcbd22;"/><circle cx="364.8648648648649" cy="1080" r="2.1276041666668997" style="fill: #bcbd22;"/><circle cx="340.5405405405406" cy="1080" r="6.065104166669" style="fill: #bcbd22;"/><circle cx="535.1351351351352" cy="1080" r="2.0546875" style="fill: #bcbd22;"/><circle cx="437.83783783783787" cy="1080" r="2.2552083333331003" style="fill: #bcbd22;"/><circle cx="462.16216216216213" cy="1080" r="2.0546875" style="fill: #bcbd22;"/><circle cx="729.7297297297298" cy="1080" r="2.0729166666669" style="fill: #bcbd22;"/><circle cx="243.24324324324326" cy="1080" r="3.75" style="fill: #bcbd22;"/><circle cx="559.4594594594595" cy="1080" r="2.0729166666669" style="fill: #bcbd22;"/><text/><text/><text/><text/><text/><text/><text/><text/><text/><text/><text y="1080" x="930" class="label" style="fill: #bcbd22;">Using Specialized Procedures...</text></g><g class="journal"><circle cx="48.64864864864865" cy="1100" r="4.999999999997" style="fill: #bcbd22;"/><circle cx="243.24324324324326" cy="1100" r="2.999999999999" style="fill: #bcbd22;"/><circle cx="340.5405405405406" cy="1100" r="3.999999999998" style="fill: #bcbd22;"/><circle cx="729.7297297297298" cy="1100" r="2.999999999999" style="fill: #bcbd22;"/><text/><text/><text/><text/><text y="1100" x="930" class="label" style="fill: #bcbd22;">Circular Coinductive...</text></g><rect width="10" height="450" x="915" y="4080" style="fill: #ffffff;"/></g></g></svg>
