<svg xmlns="http://www.w3.org/2000/svg" width="1420" height="1220" id="bundles" style="margin-left: 20px;"><g transform="translate(20,100)"><g class="x axis" transform="translate(0,90)"><g class="tick" transform="translate(0,0)" style="opacity: 1;"><line y2="-6" x2="0"/><text dy="1em" y="-9" x="0" dx="1em" transform="rotate(290)" style="text-anchor: start;">HUMAN COMPUTER INTERACTION</text></g><g class="tick" transform="translate(25,0)" style="opacity: 1;"><line y2="-6" x2="0"/><text dy="1em" y="-9" x="0" dx="1em" transform="rotate(290)" style="text-anchor: start;">MAINTENANCE</text></g><g class="tick" transform="translate(50,0)" style="opacity: 1;"><line y2="-6" x2="0"/><text dy="1em" y="-9" x="0" dx="1em" transform="rotate(290)" style="text-anchor: start;">METHODOLOGIES</text></g><g class="tick" transform="translate(75,0)" style="opacity: 1;"><line y2="-6" x2="0"/><text dy="1em" y="-9" x="0" dx="1em" transform="rotate(290)" style="text-anchor: start;">RELIABILITY</text></g><g class="tick" transform="translate(100,0)" style="opacity: 1;"><line y2="-6" x2="0"/><text dy="1em" y="-9" x="0" dx="1em" transform="rotate(290)" style="text-anchor: start;">PROGRAM COMPREHENSION</text></g><g class="tick" transform="translate(125,0)" style="opacity: 1;"><line y2="-6" x2="0"/><text dy="1em" y="-9" x="0" dx="1em" transform="rotate(290)" style="text-anchor: start;">ARCHITECTURES</text></g><g class="tick" transform="translate(150,0)" style="opacity: 1;"><line y2="-6" x2="0"/><text dy="1em" y="-9" x="0" dx="1em" transform="rotate(290)" style="text-anchor: start;">EMPIRICAL SOFTWARE ENGINEERING</text></g><g class="tick" transform="translate(175,0)" style="opacity: 1;"><line y2="-6" x2="0"/><text dy="1em" y="-9" x="0" dx="1em" transform="rotate(290)" style="text-anchor: start;">LANGUAGES</text></g><g class="tick" transform="translate(200,0)" style="opacity: 1;"><line y2="-6" x2="0"/><text dy="1em" y="-9" x="0" dx="1em" transform="rotate(290)" style="text-anchor: start;">MODELS</text></g><g class="tick" transform="translate(225,0)" style="opacity: 1;"><line y2="-6" x2="0"/><text dy="1em" y="-9" x="0" dx="1em" transform="rotate(290)" style="text-anchor: start;">REVERSE ENGINEERING</text></g><g class="tick" transform="translate(250,0)" style="opacity: 1;"><line y2="-6" x2="0"/><text dy="1em" y="-9" x="0" dx="1em" transform="rotate(290)" style="text-anchor: start;">METRICS</text></g><g class="tick" transform="translate(275,0)" style="opacity: 1;"><line y2="-6" x2="0"/><text dy="1em" y="-9" x="0" dx="1em" transform="rotate(290)" style="text-anchor: start;">SOFTWARE QUALITY</text></g><g class="tick" transform="translate(300,0)" style="opacity: 1;"><line y2="-6" x2="0"/><text dy="1em" y="-9" x="0" dx="1em" transform="rotate(290)" style="text-anchor: start;">EVOLUTION</text></g><g class="tick" transform="translate(325,0)" style="opacity: 1;"><line y2="-6" x2="0"/><text dy="1em" y="-9" x="0" dx="1em" transform="rotate(290)" style="text-anchor: start;">INFORMATION SYSTMS</text></g><g class="tick" transform="translate(350,0)" style="opacity: 1;"><line y2="-6" x2="0"/><text dy="1em" y="-9" x="0" dx="1em" transform="rotate(290)" style="text-anchor: start;">DISTRIBUTED SYSTEMS</text></g><g class="tick" transform="translate(375,0)" style="opacity: 1;"><line y2="-6" x2="0"/><text dy="1em" y="-9" x="0" dx="1em" transform="rotate(290)" style="text-anchor: start;">KNOWLEDGE ENGINEERING</text></g><g class="tick" transform="translate(400,0)" style="opacity: 1;"><line y2="-6" x2="0"/><text dy="1em" y="-9" x="0" dx="1em" transform="rotate(290)" style="text-anchor: start;">FORMAL METHODS</text></g><g class="tick" transform="translate(425,0)" style="opacity: 1;"><line y2="-6" x2="0"/><text dy="1em" y="-9" x="0" dx="1em" transform="rotate(290)" style="text-anchor: start;">VISUALIZATION</text></g><g class="tick" transform="translate(450,0)" style="opacity: 1;"><line y2="-6" x2="0"/><text dy="1em" y="-9" x="0" dx="1em" transform="rotate(290)" style="text-anchor: start;">PROGRAM ANALYSIS</text></g><g class="tick" transform="translate(475,0)" style="opacity: 1;"><line y2="-6" x2="0"/><text dy="1em" y="-9" x="0" dx="1em" transform="rotate(290)" style="text-anchor: start;">TESTING</text></g><g class="tick" transform="translate(500,0)" style="opacity: 1;"><line y2="-6" x2="0"/><text dy="1em" y="-9" x="0" dx="1em" transform="rotate(290)" style="text-anchor: start;">EDUCATION</text></g><g class="tick" transform="translate(525,0)" style="opacity: 1;"><line y2="-6" x2="0"/><text dy="1em" y="-9" x="0" dx="1em" transform="rotate(290)" style="text-anchor: start;">REQUIREMENTS</text></g><g class="tick" transform="translate(550,0)" style="opacity: 1;"><line y2="-6" x2="0"/><text dy="1em" y="-9" x="0" dx="1em" transform="rotate(290)" style="text-anchor: start;">REAL TIME SYSTEMS</text></g><g class="tick" transform="translate(575,0)" style="opacity: 1;"><line y2="-6" x2="0"/><text dy="1em" y="-9" x="0" dx="1em" transform="rotate(290)" style="text-anchor: start;">ADAPTIVE SYSTEMS</text></g><g class="tick" transform="translate(600,0)" style="opacity: 1;"><line y2="-6" x2="0"/><text dy="1em" y="-9" x="0" dx="1em" transform="rotate(290)" style="text-anchor: start;">OPERATING SYSTEMS</text></g><g class="tick" transform="translate(625,0)" style="opacity: 1;"><line y2="-6" x2="0"/><text dy="1em" y="-9" x="0" dx="1em" transform="rotate(290)" style="text-anchor: start;">ARTIFICIAL INTELLIGENCE</text></g><g class="tick" transform="translate(650,0)" style="opacity: 1;"><line y2="-6" x2="0"/><text dy="1em" y="-9" x="0" dx="1em" transform="rotate(290)" style="text-anchor: start;">DATABASE</text></g><g class="tick" transform="translate(675,0)" style="opacity: 1;"><line y2="-6" x2="0"/><text dy="1em" y="-9" x="0" dx="1em" transform="rotate(290)" style="text-anchor: start;">EMBEDDED</text></g><g class="tick" transform="translate(700,0)" style="opacity: 1;"><line y2="-6" x2="0"/><text dy="1em" y="-9" x="0" dx="1em" transform="rotate(290)" style="text-anchor: start;">SERVICES</text></g><g class="tick" transform="translate(725,0)" style="opacity: 1;"><line y2="-6" x2="0"/><text dy="1em" y="-9" x="0" dx="1em" transform="rotate(290)" style="text-anchor: start;">SYNTHESIS</text></g><g class="tick" transform="translate(750,0)" style="opacity: 1;"><line y2="-6" x2="0"/><text dy="1em" y="-9" x="0" dx="1em" transform="rotate(290)" style="text-anchor: start;">PRODUCT LINES</text></g><g class="tick" transform="translate(775,0)" style="opacity: 1;"><line y2="-6" x2="0"/><text dy="1em" y="-9" x="0" dx="1em" transform="rotate(290)" style="text-anchor: start;">PERFORMANCE</text></g><g class="tick" transform="translate(800,0)" style="opacity: 1;"><line y2="-6" x2="0"/><text dy="1em" y="-9" x="0" dx="1em" transform="rotate(290)" style="text-anchor: start;">ALGORITHM</text></g><g class="tick" transform="translate(825,0)" style="opacity: 1;"><line y2="-6" x2="0"/><text dy="1em" y="-9" x="0" dx="1em" transform="rotate(290)" style="text-anchor: start;">CONCURRENCY</text></g><g class="tick" transform="translate(850,0)" style="opacity: 1;"><line y2="-6" x2="0"/><text dy="1em" y="-9" x="0" dx="1em" transform="rotate(290)" style="text-anchor: start;">SECURITY</text></g><g class="tick" transform="translate(875,0)" style="opacity: 1;"><line y2="-6" x2="0"/><text dy="1em" y="-9" x="0" dx="1em" transform="rotate(290)" style="text-anchor: start;">AUTONOMIC SYSTEMS</text></g><g class="tick" transform="translate(900,0)" style="opacity: 1;"><line y2="-6" x2="0"/><text dy="1em" y="-9" x="0" dx="1em" transform="rotate(290)" style="text-anchor: start;"/></g><path class="domain" d="M0,-6V0H900V-6"/></g><g><g class="journal"><circle cx="0" cy="120" r="2.7" style="fill: #17becf;"/><circle cx="25" cy="120" r="2.04040404040407" style="fill: #17becf;"/><circle cx="50" cy="120" r="2.4823232323231" style="fill: #17becf;"/><circle cx="75" cy="120" r="2.06060606060607" style="fill: #17becf;"/><circle cx="100" cy="120" r="2.1686868686867" style="fill: #17becf;"/><circle cx="125" cy="120" r="2.030303030303" style="fill: #17becf;"/><circle cx="150" cy="120" r="6.67929292929" style="fill: #17becf;"/><circle cx="175" cy="120" r="2.030303030303" style="fill: #17becf;"/><circle cx="200" cy="120" r="2.0121212121211998" style="fill: #17becf;"/><circle cx="225" cy="120" r="2.121212121212" style="fill: #17becf;"/><circle cx="250" cy="120" r="2.0030303030303" style="fill: #17becf;"/><circle cx="275" cy="120" r="2.6414141414142" style="fill: #17becf;"/><circle cx="300" cy="120" r="2.030303030303" style="fill: #17becf;"/><text/><text/><text/><text/><text/><text/><text/><text/><text/><text/><text/><text/><text/><text y="120" x="930" class="label" style="fill: #17becf;">A Systematic Review of Theory...</text></g><g class="journal"><circle cx="150" cy="140" r="7.6" style="fill: #17becf;"/><circle cx="100" cy="140" r="3.4000000000000004" style="fill: #17becf;"/><text/><text/><text y="140" x="930" class="label" style="fill: #17becf;">Power laws in software.</text></g><g class="journal"><circle cx="150" cy="160" r="5.645833333331" style="fill: #17becf;"/><circle cx="25" cy="160" r="2.2916666666668997" style="fill: #17becf;"/><circle cx="50" cy="160" r="3.020833333331" style="fill: #17becf;"/><circle cx="250" cy="160" r="2.875" style="fill: #17becf;"/><circle cx="100" cy="160" r="2.1458333333331003" style="fill: #17becf;"/><circle cx="75" cy="160" r="2.875" style="fill: #17becf;"/><circle cx="275" cy="160" r="2.1458333333331003" style="fill: #17becf;"/><text/><text/><text/><text/><text/><text/><text/><text y="160" x="930" class="label" style="fill: #17becf;">Can developer-module networks...</text></g><g class="journal"><circle cx="25" cy="180" r="2.3929824561404" style="fill: #17becf;"/><circle cx="325" cy="180" r="2.02456140350874" style="fill: #17becf;"/><circle cx="350" cy="180" r="2.3684210526318" style="fill: #17becf;"/><circle cx="375" cy="180" r="2.0706140350874" style="fill: #17becf;"/><circle cx="100" cy="180" r="2.04912280701755" style="fill: #17becf;"/><circle cx="125" cy="180" r="2.0921052631576003" style="fill: #17becf;"/><circle cx="150" cy="180" r="4.3026315789469995" style="fill: #17becf;"/><circle cx="175" cy="180" r="3.105263157894" style="fill: #17becf;"/><circle cx="225" cy="180" r="2.3929824561404" style="fill: #17becf;"/><circle cx="200" cy="180" r="3.2526315789469997" style="fill: #17becf;"/><circle cx="250" cy="180" r="2.02456140350874" style="fill: #17becf;"/><circle cx="275" cy="180" r="2.1166666666669" style="fill: #17becf;"/><circle cx="400" cy="180" r="2.8074561403510003" style="fill: #17becf;"/><text/><text/><text/><text/><text/><text/><text/><text/><text/><text/><text/><text/><text/><text y="180" x="930" class="label" style="fill: #17becf;">Precise Specification and...</text></g><g class="journal"><circle cx="0" cy="200" r="2.01030303030302" style="fill: #17becf;"/><circle cx="425" cy="200" r="2.000094696969697" style="fill: #17becf;"/><circle cx="25" cy="200" r="2.001410479251391" style="fill: #17becf;"/><circle cx="450" cy="200" r="2.000094696969697" style="fill: #17becf;"/><circle cx="325" cy="200" r="2.2393939393937" style="fill: #17becf;"/><circle cx="50" cy="200" r="2.0417073877301197" style="fill: #17becf;"/><circle cx="75" cy="200" r="2.986932638069" style="fill: #17becf;"/><circle cx="375" cy="200" r="2.01325757575758" style="fill: #17becf;"/><circle cx="100" cy="200" r="2.005533637238185" style="fill: #17becf;"/><circle cx="475" cy="200" r="2.3684343434345" style="fill: #17becf;"/><circle cx="125" cy="200" r="2.03216581398401" style="fill: #17becf;"/><circle cx="150" cy="200" r="5.768326664921" style="fill: #17becf;"/><circle cx="500" cy="200" r="2.000757575757575" style="fill: #17becf;"/><circle cx="175" cy="200" r="2.000347632165814" style="fill: #17becf;"/><circle cx="225" cy="200" r="2.001390528663258" style="fill: #17becf;"/><circle cx="200" cy="200" r="2.001275416502689" style="fill: #17becf;"/><circle cx="250" cy="200" r="2.0795802177618" style="fill: #17becf;"/><circle cx="275" cy="200" r="2.883115789934" style="fill: #17becf;"/><circle cx="300" cy="200" r="2.000347632165814" style="fill: #17becf;"/><circle cx="525" cy="200" r="2.56553030303" style="fill: #17becf;"/><text/><text/><text/><text/><text/><text/><text/><text/><text/><text/><text/><text/><text/><text/><text/><text/><text/><text/><text/><text/><text y="200" x="930" class="label" style="fill: #17becf;">Overcoming the NAH Syndrome...</text></g><rect width="10" height="450" x="915" y="30" style="fill: #ffffff;"/></g><g><g class="journal"><circle cx="550" cy="220" r="2.000583333333333" style="fill: #1f77b4;"/><circle cx="575" cy="220" r="2.000610902255639" style="fill: #1f77b4;"/><circle cx="450" cy="220" r="2.03873704502731" style="fill: #1f77b4;"/><circle cx="600" cy="220" r="2.000610902255639" style="fill: #1f77b4;"/><circle cx="625" cy="220" r="2.000795454545452" style="fill: #1f77b4;"/><circle cx="75" cy="220" r="2.1639026533676002" style="fill: #1f77b4;"/><circle cx="100" cy="220" r="2.1053631422928" style="fill: #1f77b4;"/><circle cx="475" cy="220" r="5.823915568102" style="fill: #1f77b4;"/><circle cx="150" cy="220" r="2.0854539061243003" style="fill: #1f77b4;"/><circle cx="200" cy="220" r="2.01136516358355" style="fill: #1f77b4;"/><circle cx="225" cy="220" r="2.0750000000001" style="fill: #1f77b4;"/><circle cx="275" cy="220" r="2.139584654552" style="fill: #1f77b4;"/><circle cx="300" cy="220" r="2.0000692399705557" style="fill: #1f77b4;"/><circle cx="400" cy="220" r="2.2305924755071" style="fill: #1f77b4;"/><circle cx="0" cy="220" r="2.005000000000002" style="fill: #1f77b4;"/><circle cx="25" cy="220" r="2.1158560606063" style="fill: #1f77b4;"/><circle cx="650" cy="220" r="2.000010466507177" style="fill: #1f77b4;"/><circle cx="325" cy="220" r="2.07" style="fill: #1f77b4;"/><circle cx="350" cy="220" r="2.01001046650716" style="fill: #1f77b4;"/><circle cx="50" cy="220" r="2.072142857143" style="fill: #1f77b4;"/><circle cx="375" cy="220" r="2.00705513784458" style="fill: #1f77b4;"/><circle cx="125" cy="220" r="2.14875" style="fill: #1f77b4;"/><circle cx="675" cy="220" r="2.000625" style="fill: #1f77b4;"/><circle cx="700" cy="220" r="2.01255510936435" style="fill: #1f77b4;"/><circle cx="175" cy="220" r="3.8720771277740003" style="fill: #1f77b4;"/><circle cx="500" cy="220" r="2.000583333333333" style="fill: #1f77b4;"/><circle cx="525" cy="220" r="2.00875" style="fill: #1f77b4;"/><text/><text/><text/><text/><text/><text/><text/><text/><text/><text/><text/><text/><text/><text/><text/><text/><text/><text/><text/><text/><text/><text/><text/><text/><text/><text/><text/><text y="220" x="930" class="label" style="fill: #1f77b4;">Testing the Completeness of...</text></g><g class="journal"><circle cx="175" cy="240" r="5.5" style="fill: #1f77b4;"/><circle cx="475" cy="240" r="5.5" style="fill: #1f77b4;"/><text/><text/><text y="240" x="930" class="label" style="fill: #1f77b4;">DSD-Crasher: A hybrid analysis...</text></g><g class="journal"><circle cx="175" cy="260" r="5.5" style="fill: #1f77b4;"/><circle cx="475" cy="260" r="5.5" style="fill: #1f77b4;"/><text/><text/><text y="260" x="930" class="label" style="fill: #1f77b4;">Efficient unit test case...</text></g><g class="journal"><circle cx="475" cy="280" r="5.5" style="fill: #1f77b4;"/><circle cx="175" cy="280" r="5.5" style="fill: #1f77b4;"/><text/><text/><text y="280" x="930" class="label" style="fill: #1f77b4;">Juzi: a tool for repairing...</text></g><g class="journal"><circle cx="25" cy="300" r="2.1543397358944" style="fill: #1f77b4;"/><circle cx="725" cy="300" r="2.106539380458" style="fill: #1f77b4;"/><circle cx="350" cy="300" r="2.00432773109244" style="fill: #1f77b4;"/><circle cx="625" cy="300" r="2.00714885954384" style="fill: #1f77b4;"/><circle cx="50" cy="300" r="2.002857142857142" style="fill: #1f77b4;"/><circle cx="375" cy="300" r="2.003001200480194" style="fill: #1f77b4;"/><circle cx="75" cy="300" r="2.752872619639" style="fill: #1f77b4;"/><circle cx="100" cy="300" r="2.05295918367348" style="fill: #1f77b4;"/><circle cx="475" cy="300" r="4.901428571426" style="fill: #1f77b4;"/><circle cx="125" cy="300" r="2.05458330390982" style="fill: #1f77b4;"/><circle cx="700" cy="300" r="2.001428571428571" style="fill: #1f77b4;"/><circle cx="175" cy="300" r="3.455405632842" style="fill: #1f77b4;"/><circle cx="750" cy="300" r="2.0007301744227117" style="fill: #1f77b4;"/><circle cx="200" cy="300" r="3.4014895958349998" style="fill: #1f77b4;"/><circle cx="275" cy="300" r="2.000121048419367" style="fill: #1f77b4;"/><circle cx="400" cy="300" r="2.05076724807567" style="fill: #1f77b4;"/><circle cx="525" cy="300" r="2.05000000000002" style="fill: #1f77b4;"/><text/><text/><text/><text/><text/><text/><text/><text/><text/><text/><text/><text/><text/><text/><text/><text/><text/><text y="300" x="930" class="label" style="fill: #1f77b4;">Verifying cross-cutting...</text></g><rect width="10" height="450" x="915" y="480" style="fill: #ffffff;"/></g><g><g class="journal"><circle cx="475" cy="320" r="4.333333333331" style="fill: #ff7f0e;"/><circle cx="275" cy="320" r="6.666666666669" style="fill: #ff7f0e;"/><text/><text/><text y="320" x="930" class="label" style="fill: #ff7f0e;">Avoiding coincidental...</text></g><g class="journal"><circle cx="700" cy="340" r="3.75" style="fill: #ff7f0e;"/><circle cx="275" cy="340" r="7.25" style="fill: #ff7f0e;"/><text/><text/><text y="340" x="930" class="label" style="fill: #ff7f0e;">Weaving Context Sensitivity...</text></g><g class="journal"><circle cx="275" cy="360" r="7.25" style="fill: #ff7f0e;"/><circle cx="350" cy="360" r="3.75" style="fill: #ff7f0e;"/><text/><text/><text y="360" x="930" class="label" style="fill: #ff7f0e;">Software Process Description...</text></g><g class="journal"><circle cx="400" cy="380" r="2.5925925925927" style="fill: #ff7f0e;"/><circle cx="700" cy="380" r="2.6574074074071" style="fill: #ff7f0e;"/><circle cx="275" cy="380" r="7.601851851855" style="fill: #ff7f0e;"/><circle cx="475" cy="380" r="2.148148148148" style="fill: #ff7f0e;"/><text/><text/><text/><text/><text y="380" x="930" class="label" style="fill: #ff7f0e;">Testing context-aware...</text></g><g class="journal"><circle cx="325" cy="400" r="2.7" style="fill: #ff7f0e;"/><circle cx="75" cy="400" r="2.7" style="fill: #ff7f0e;"/><circle cx="275" cy="400" r="6.9" style="fill: #ff7f0e;"/><circle cx="475" cy="400" r="2.7" style="fill: #ff7f0e;"/><text/><text/><text/><text/><text y="400" x="930" class="label" style="fill: #ff7f0e;">Specification of...</text></g><rect width="10" height="450" x="915" y="930" style="fill: #ffffff;"/></g><g><g class="journal"><circle cx="0" cy="420" r="2.002173913043477" style="fill: #2ca02c;"/><circle cx="25" cy="420" r="3.131918564525" style="fill: #2ca02c;"/><circle cx="450" cy="420" r="2.0028985507246357" style="fill: #2ca02c;"/><circle cx="625" cy="420" r="2.0869565217388" style="fill: #2ca02c;"/><circle cx="50" cy="420" r="2.1564225327812" style="fill: #2ca02c;"/><circle cx="375" cy="420" r="2.000724637681159" style="fill: #2ca02c;"/><circle cx="75" cy="420" r="2.005693581780537" style="fill: #2ca02c;"/><circle cx="100" cy="420" r="2.05006901311251" style="fill: #2ca02c;"/><circle cx="475" cy="420" r="2.6612318840582" style="fill: #2ca02c;"/><circle cx="125" cy="420" r="2.0010351966873707" style="fill: #2ca02c;"/><circle cx="150" cy="420" r="2.5475845410630003" style="fill: #2ca02c;"/><circle cx="175" cy="420" r="2.0046583850931663" style="fill: #2ca02c;"/><circle cx="200" cy="420" r="2.001863354037265" style="fill: #2ca02c;"/><circle cx="225" cy="420" r="2.02877846790889" style="fill: #2ca02c;"/><circle cx="250" cy="420" r="6.266058488614999" style="fill: #2ca02c;"/><circle cx="275" cy="420" r="2.04437543133198" style="fill: #2ca02c;"/><circle cx="300" cy="420" r="2.00175983436853" style="fill: #2ca02c;"/><circle cx="400" cy="420" r="2.005797101449272" style="fill: #2ca02c;"/><text/><text/><text/><text/><text/><text/><text/><text/><text/><text/><text/><text/><text/><text/><text/><text/><text/><text/><text y="420" x="930" class="label" style="fill: #2ca02c;">Parallel changes in...</text></g><g class="journal"><circle cx="425" cy="440" r="2.3181818181815" style="fill: #2ca02c;"/><circle cx="25" cy="440" r="2.3363636363633" style="fill: #2ca02c;"/><circle cx="450" cy="440" r="2.6363636363636997" style="fill: #2ca02c;"/><circle cx="625" cy="440" r="2.02045454545456" style="fill: #2ca02c;"/><circle cx="375" cy="440" r="2.6681818181815" style="fill: #2ca02c;"/><circle cx="75" cy="440" r="2.0181818181818" style="fill: #2ca02c;"/><circle cx="100" cy="440" r="2.002272727272725" style="fill: #2ca02c;"/><circle cx="475" cy="440" r="2.35" style="fill: #2ca02c;"/><circle cx="150" cy="440" r="2.3363636363633" style="fill: #2ca02c;"/><circle cx="175" cy="440" r="2.3340909090911" style="fill: #2ca02c;"/><circle cx="225" cy="440" r="2.04772727272726" style="fill: #2ca02c;"/><circle cx="250" cy="440" r="5.9000000000010004" style="fill: #2ca02c;"/><circle cx="275" cy="440" r="2.01590909090911" style="fill: #2ca02c;"/><circle cx="300" cy="440" r="2.01590909090911" style="fill: #2ca02c;"/><text/><text/><text/><text/><text/><text/><text/><text/><text/><text/><text/><text/><text/><text/><text y="440" x="930" class="label" style="fill: #2ca02c;">Automatic Identification of...</text></g><g class="journal"><circle cx="150" cy="460" r="5.5" style="fill: #2ca02c;"/><circle cx="250" cy="460" r="5.5" style="fill: #2ca02c;"/><text/><text/><text y="460" x="930" class="label" style="fill: #2ca02c;">Portfolio management of...</text></g><g class="journal"><circle cx="150" cy="480" r="5.5" style="fill: #2ca02c;"/><circle cx="250" cy="480" r="5.5" style="fill: #2ca02c;"/><text/><text/><text y="480" x="930" class="label" style="fill: #2ca02c;">Relevancy based semantic...</text></g><g class="journal"><circle cx="425" cy="500" r="2.0075431034483" style="fill: #2ca02c;"/><circle cx="25" cy="500" r="2.0875" style="fill: #2ca02c;"/><circle cx="450" cy="500" r="2.0075431034483" style="fill: #2ca02c;"/><circle cx="325" cy="500" r="2.5099137931034" style="fill: #2ca02c;"/><circle cx="350" cy="500" r="2.1206896551721" style="fill: #2ca02c;"/><circle cx="625" cy="500" r="2.2353448275864" style="fill: #2ca02c;"/><circle cx="75" cy="500" r="2.7874999999999996" style="fill: #2ca02c;"/><circle cx="375" cy="500" r="2.06034482758619" style="fill: #2ca02c;"/><circle cx="475" cy="500" r="2.1206896551721" style="fill: #2ca02c;"/><circle cx="150" cy="500" r="4.41681034483" style="fill: #2ca02c;"/><circle cx="175" cy="500" r="2.1206896551721" style="fill: #2ca02c;"/><circle cx="200" cy="500" r="2.03017241379313" style="fill: #2ca02c;"/><circle cx="250" cy="500" r="4.106034482762" style="fill: #2ca02c;"/><circle cx="275" cy="500" r="2.2413793103449" style="fill: #2ca02c;"/><circle cx="525" cy="500" r="2.06034482758619" style="fill: #2ca02c;"/><circle cx="400" cy="500" r="2.0875" style="fill: #2ca02c;"/><text/><text/><text/><text/><text/><text/><text/><text/><text/><text/><text/><text/><text/><text/><text/><text/><text y="500" x="930" class="label" style="fill: #2ca02c;">Estimeetings: Development...</text></g><rect width="10" height="450" x="915" y="1380" style="fill: #ffffff;"/></g><g><g class="journal"><circle cx="350" cy="520" r="7.25" style="fill: #d62728;"/><circle cx="450" cy="520" r="3.75" style="fill: #d62728;"/><text/><text/><text y="520" x="930" class="label" style="fill: #d62728;">Equivalence analysis and its...</text></g><g class="journal"><circle cx="550" cy="540" r="2.05833333333331" style="fill: #d62728;"/><circle cx="650" cy="540" r="2.004166666666666" style="fill: #d62728;"/><circle cx="25" cy="540" r="2.0743055555557" style="fill: #d62728;"/><circle cx="775" cy="540" r="2.001388888888891" style="fill: #d62728;"/><circle cx="325" cy="540" r="2.0696759259259" style="fill: #d62728;"/><circle cx="350" cy="540" r="6.405555555555" style="fill: #d62728;"/><circle cx="625" cy="540" r="2.02916666666669" style="fill: #d62728;"/><circle cx="50" cy="540" r="2.002777777777775" style="fill: #d62728;"/><circle cx="75" cy="540" r="2.005555555555557" style="fill: #d62728;"/><circle cx="375" cy="540" r="2.03072916666666" style="fill: #d62728;"/><circle cx="125" cy="540" r="3.090856481484" style="fill: #d62728;"/><circle cx="675" cy="540" r="2.05833333333331" style="fill: #d62728;"/><circle cx="700" cy="540" r="2.5055555555554" style="fill: #d62728;"/><circle cx="150" cy="540" r="2.0003472222222225" style="fill: #d62728;"/><circle cx="175" cy="540" r="2.05972222222225" style="fill: #d62728;"/><circle cx="200" cy="540" r="2.0585648148147997" style="fill: #d62728;"/><circle cx="275" cy="540" r="2.082291666667" style="fill: #d62728;"/><circle cx="300" cy="540" r="2.02916666666669" style="fill: #d62728;"/><circle cx="400" cy="540" r="2.4335069444447" style="fill: #d62728;"/><text/><text/><text/><text/><text/><text/><text/><text/><text/><text/><text/><text/><text/><text/><text/><text/><text/><text/><text/><text y="540" x="930" class="label" style="fill: #d62728;">An Architectural Style for...</text></g><g class="journal"><circle cx="125" cy="560" r="2.999999999999" style="fill: #d62728;"/><circle cx="350" cy="560" r="8.000000000001" style="fill: #d62728;"/><text/><text/><text y="560" x="930" class="label" style="fill: #d62728;">System architecture: the...</text></g><g class="journal"><circle cx="350" cy="580" r="7.25" style="fill: #d62728;"/><circle cx="50" cy="580" r="3.75" style="fill: #d62728;"/><text/><text/><text y="580" x="930" class="label" style="fill: #d62728;">Dynamic Accommodation of...</text></g><g class="journal"><circle cx="350" cy="600" r="7.6" style="fill: #d62728;"/><circle cx="400" cy="600" r="2.7" style="fill: #d62728;"/><circle cx="75" cy="600" r="2.7" style="fill: #d62728;"/><text/><text/><text/><text y="600" x="930" class="label" style="fill: #d62728;">Allocating Programs Containing...</text></g><rect width="10" height="450" x="915" y="1830" style="fill: #ffffff;"/></g><g><g class="journal"><circle cx="125" cy="620" r="5.5" style="fill: #9467bd;"/><circle cx="175" cy="620" r="5.5" style="fill: #9467bd;"/><text/><text/><text y="620" x="930" class="label" style="fill: #9467bd;">Access Control in Parallel...</text></g><g class="journal"><circle cx="125" cy="640" r="6.199999999999999" style="fill: #9467bd;"/><circle cx="650" cy="640" r="3.4000000000000004" style="fill: #9467bd;"/><circle cx="700" cy="640" r="3.4000000000000004" style="fill: #9467bd;"/><text/><text/><text/><text y="640" x="930" class="label" style="fill: #9467bd;">Corrigenda: a hierarchy-aware...</text></g><g class="journal"><circle cx="125" cy="660" r="5.5" style="fill: #9467bd;"/><circle cx="175" cy="660" r="5.5" style="fill: #9467bd;"/><text/><text/><text y="660" x="930" class="label" style="fill: #9467bd;">A Formal Framework for...</text></g><g class="journal"><circle cx="125" cy="680" r="7.833333333331" style="fill: #9467bd;"/><circle cx="100" cy="680" r="3.166666666669" style="fill: #9467bd;"/><text/><text/><text y="680" x="930" class="label" style="fill: #9467bd;">The universe model: an...</text></g><g class="journal"><circle cx="125" cy="700" r="5.5" style="fill: #9467bd;"/><circle cx="175" cy="700" r="5.5" style="fill: #9467bd;"/><text/><text/><text y="700" x="930" class="label" style="fill: #9467bd;">Adapting Applications on the...</text></g><rect width="10" height="450" x="915" y="2280" style="fill: #ffffff;"/></g><g><g class="journal"><circle cx="400" cy="720" r="3.75" style="fill: #8c564b;"/><circle cx="175" cy="720" r="7.25" style="fill: #8c564b;"/><text/><text/><text y="720" x="930" class="label" style="fill: #8c564b;">Effective typestate...</text></g><g class="journal"><circle cx="400" cy="740" r="3.75" style="fill: #8c564b;"/><circle cx="175" cy="740" r="6.375" style="fill: #8c564b;"/><circle cx="475" cy="740" r="2.875" style="fill: #8c564b;"/><text/><text/><text/><text y="740" x="930" class="label" style="fill: #8c564b;">Accurate Centralization for...</text></g><g class="journal"><circle cx="350" cy="760" r="3.166666666669" style="fill: #8c564b;"/><circle cx="175" cy="760" r="7.833333333331" style="fill: #8c564b;"/><text/><text/><text y="760" x="930" class="label" style="fill: #8c564b;">Introducing Formal...</text></g><g class="journal"><circle cx="400" cy="780" r="5.5" style="fill: #8c564b;"/><circle cx="175" cy="780" r="5.5" style="fill: #8c564b;"/><text/><text/><text y="780" x="930" class="label" style="fill: #8c564b;">Interpolation for data...</text></g><g class="journal"><circle cx="25" cy="800" r="3.12" style="fill: #8c564b;"/><circle cx="175" cy="800" r="6.386666666669" style="fill: #8c564b;"/><circle cx="725" cy="800" r="2.0933333333331" style="fill: #8c564b;"/><circle cx="400" cy="800" r="3.4000000000000004" style="fill: #8c564b;"/><text/><text/><text/><text/><text y="800" x="930" class="label" style="fill: #8c564b;">Modular Verification of Data...</text></g><rect width="10" height="450" x="915" y="2730" style="fill: #ffffff;"/></g><g><g class="journal"><circle cx="800" cy="820" r="4.333333333331" style="fill: #e377c2;"/><circle cx="0" cy="820" r="6.666666666669" style="fill: #e377c2;"/><text/><text/><text y="820" x="930" class="label" style="fill: #e377c2;">Parametric Graph Drawing.</text></g><g class="journal"><circle cx="0" cy="840" r="4.314444444445" style="fill: #e377c2;"/><circle cx="650" cy="840" r="2.006205143540673" style="fill: #e377c2;"/><circle cx="25" cy="840" r="2.002580077086657" style="fill: #e377c2;"/><circle cx="450" cy="840" r="2.03713118022327" style="fill: #e377c2;"/><circle cx="725" cy="840" r="2.002093301435407" style="fill: #e377c2;"/><circle cx="325" cy="840" r="2.03865131578945" style="fill: #e377c2;"/><circle cx="600" cy="840" r="2.0001495215311005" style="fill: #e377c2;"/><circle cx="350" cy="840" r="2.5550621345030997" style="fill: #e377c2;"/><circle cx="625" cy="840" r="2.4392361111109997" style="fill: #e377c2;"/><circle cx="375" cy="840" r="2.002430555555554" style="fill: #e377c2;"/><circle cx="75" cy="840" r="2.6279216507178997" style="fill: #e377c2;"/><circle cx="100" cy="840" r="2.02317583732058" style="fill: #e377c2;"/><circle cx="475" cy="840" r="2.01484416533761" style="fill: #e377c2;"/><circle cx="125" cy="840" r="2.02317583732058" style="fill: #e377c2;"/><circle cx="700" cy="840" r="2.0153125" style="fill: #e377c2;"/><circle cx="825" cy="840" r="2.1315789473684" style="fill: #e377c2;"/><circle cx="175" cy="840" r="2.1056203482187" style="fill: #e377c2;"/><circle cx="200" cy="840" r="2.02774305555553" style="fill: #e377c2;"/><circle cx="850" cy="840" r="2.9579861111100003" style="fill: #e377c2;"/><circle cx="275" cy="840" r="2.9019163676249997" style="fill: #e377c2;"/><circle cx="525" cy="840" r="2.1577394005845" style="fill: #e377c2;"/><circle cx="400" cy="840" r="2.6150019936207" style="fill: #e377c2;"/><text/><text/><text/><text/><text/><text/><text/><text/><text/><text/><text/><text/><text/><text/><text/><text/><text/><text/><text/><text/><text/><text/><text y="840" x="930" class="label" style="fill: #e377c2;">Verifying security protocols...</text></g><g class="journal"><circle cx="0" cy="860" r="8.499999999997" style="fill: #e377c2;"/><circle cx="200" cy="860" r="2.5000000000002" style="fill: #e377c2;"/><text/><text/><text y="860" x="930" class="label" style="fill: #e377c2;">Using communicative acts in...</text></g><g class="journal"><circle cx="0" cy="880" r="6.666666666669" style="fill: #e377c2;"/><circle cx="425" cy="880" r="4.333333333331" style="fill: #e377c2;"/><text/><text/><text y="880" x="930" class="label" style="fill: #e377c2;">Role Migration and Advancement...</text></g><g class="journal"><circle cx="0" cy="900" r="5.5" style="fill: #e377c2;"/><circle cx="50" cy="900" r="5.5" style="fill: #e377c2;"/><text/><text/><text y="900" x="930" class="label" style="fill: #e377c2;">Integrating Status and Event...</text></g><rect width="10" height="450" x="915" y="3180" style="fill: #ffffff;"/></g><g><g class="journal"><circle cx="0" cy="920" r="2.00360983590212" style="fill: #7f7f7f;"/><circle cx="25" cy="920" r="2.57877427923" style="fill: #7f7f7f;"/><circle cx="450" cy="920" r="2.0004934210644802" style="fill: #7f7f7f;"/><circle cx="725" cy="920" r="2.000510538204746" style="fill: #7f7f7f;"/><circle cx="325" cy="920" r="2.00740834464615" style="fill: #7f7f7f;"/><circle cx="625" cy="920" r="2.000762696049311" style="fill: #7f7f7f;"/><circle cx="50" cy="920" r="2.001415899029174" style="fill: #7f7f7f;"/><circle cx="75" cy="920" r="2.444218997908" style="fill: #7f7f7f;"/><circle cx="100" cy="920" r="3.7133878064520003" style="fill: #7f7f7f;"/><circle cx="475" cy="920" r="2.001644736881599" style="fill: #7f7f7f;"/><circle cx="125" cy="920" r="2.0079858589608" style="fill: #7f7f7f;"/><circle cx="700" cy="920" r="2.0230263163424" style="fill: #7f7f7f;"/><circle cx="150" cy="920" r="2.4592400723603" style="fill: #7f7f7f;"/><circle cx="175" cy="920" r="5.54869744208" style="fill: #7f7f7f;"/><circle cx="750" cy="920" r="2.002290723944208" style="fill: #7f7f7f;"/><circle cx="500" cy="920" r="2.001918859403363" style="fill: #7f7f7f;"/><circle cx="225" cy="920" r="2.1177915203402002" style="fill: #7f7f7f;"/><circle cx="200" cy="920" r="2.004689100625944" style="fill: #7f7f7f;"/><circle cx="250" cy="920" r="2.0718012732668" style="fill: #7f7f7f;"/><circle cx="275" cy="920" r="2.0015754427325207" style="fill: #7f7f7f;"/><circle cx="300" cy="920" r="2.001751976112327" style="fill: #7f7f7f;"/><circle cx="400" cy="920" r="2.001219039720738" style="fill: #7f7f7f;"/><circle cx="525" cy="920" r="2.005785818747331" style="fill: #7f7f7f;"/><text/><text/><text/><text/><text/><text/><text/><text/><text/><text/><text/><text/><text/><text/><text/><text/><text/><text/><text/><text/><text/><text/><text/><text y="920" x="930" class="label" style="fill: #7f7f7f;">Higher Order Software - A...</text></g><g class="journal"><circle cx="400" cy="940" r="3.4000000000000004" style="fill: #7f7f7f;"/><circle cx="175" cy="940" r="7.6" style="fill: #7f7f7f;"/><text/><text/><text y="940" x="930" class="label" style="fill: #7f7f7f;">The Larch/Smalltalk Interface...</text></g><g class="journal"><circle cx="175" cy="960" r="7.25" style="fill: #7f7f7f;"/><circle cx="850" cy="960" r="3.75" style="fill: #7f7f7f;"/><text/><text/><text y="960" x="930" class="label" style="fill: #7f7f7f;">A threat-driven approach to...</text></g><g class="journal"><circle cx="175" cy="980" r="7.25" style="fill: #7f7f7f;"/><circle cx="100" cy="980" r="3.75" style="fill: #7f7f7f;"/><text/><text/><text y="980" x="930" class="label" style="fill: #7f7f7f;">Automating bug report...</text></g><g class="journal"><circle cx="0" cy="1000" r="2.4644780219779" style="fill: #7f7f7f;"/><circle cx="425" cy="1000" r="2.05714285714284" style="fill: #7f7f7f;"/><circle cx="25" cy="1000" r="3.300832929326" style="fill: #7f7f7f;"/><circle cx="725" cy="1000" r="2.4344720965312" style="fill: #7f7f7f;"/><circle cx="325" cy="1000" r="2.000427350427351" style="fill: #7f7f7f;"/><circle cx="625" cy="1000" r="2.006122737556558" style="fill: #7f7f7f;"/><circle cx="50" cy="1000" r="2.100015262515" style="fill: #7f7f7f;"/><circle cx="75" cy="1000" r="2.0777321697907998" style="fill: #7f7f7f;"/><circle cx="375" cy="1000" r="2.1500000000002" style="fill: #7f7f7f;"/><circle cx="100" cy="1000" r="2.546149806076" style="fill: #7f7f7f;"/><circle cx="475" cy="1000" r="2.214285714286" style="fill: #7f7f7f;"/><circle cx="125" cy="1000" r="2.1299646268767" style="fill: #7f7f7f;"/><circle cx="700" cy="1000" r="2.003571428571431" style="fill: #7f7f7f;"/><circle cx="150" cy="1000" r="2.0904571123323" style="fill: #7f7f7f;"/><circle cx="750" cy="1000" r="2.01957013574663" style="fill: #7f7f7f;"/><circle cx="175" cy="1000" r="4.574545356607" style="fill: #7f7f7f;"/><circle cx="225" cy="1000" r="2.05372634310134" style="fill: #7f7f7f;"/><circle cx="200" cy="1000" r="2.2251346692525" style="fill: #7f7f7f;"/><circle cx="250" cy="1000" r="2.0764400183147997" style="fill: #7f7f7f;"/><circle cx="275" cy="1000" r="2.2727669593481" style="fill: #7f7f7f;"/><circle cx="300" cy="1000" r="2.06913919413919" style="fill: #7f7f7f;"/><circle cx="525" cy="1000" r="2.02714285714287" style="fill: #7f7f7f;"/><circle cx="400" cy="1000" r="2.1058823529414" style="fill: #7f7f7f;"/><text/><text/><text/><text/><text/><text/><text/><text/><text/><text/><text/><text/><text/><text/><text/><text/><text/><text/><text/><text/><text/><text/><text/><text y="1000" x="930" class="label" style="fill: #7f7f7f;">Supporting aggregation in fine...</text></g><rect width="10" height="450" x="915" y="3630" style="fill: #ffffff;"/></g><g><g class="journal"><circle cx="550" cy="1020" r="2.00048709315376" style="fill: #bcbd22;"/><circle cx="575" cy="1020" r="2.0000589225589227" style="fill: #bcbd22;"/><circle cx="450" cy="1020" r="2.004582725402171" style="fill: #bcbd22;"/><circle cx="775" cy="1020" r="2.1708333333336" style="fill: #bcbd22;"/><circle cx="625" cy="1020" r="2.000016835016835" style="fill: #bcbd22;"/><circle cx="75" cy="1020" r="2.00079932319831" style="fill: #bcbd22;"/><circle cx="100" cy="1020" r="2.000822764683874" style="fill: #bcbd22;"/><circle cx="475" cy="1020" r="2.006433202343141" style="fill: #bcbd22;"/><circle cx="825" cy="1020" r="2.0988103254768" style="fill: #bcbd22;"/><circle cx="150" cy="1020" r="2.0001344463150015" style="fill: #bcbd22;"/><circle cx="750" cy="1020" r="2.0000589225589227" style="fill: #bcbd22;"/><circle cx="200" cy="1020" r="2.8973868312780002" style="fill: #bcbd22;"/><circle cx="225" cy="1020" r="2.0002551907968575" style="fill: #bcbd22;"/><circle cx="250" cy="1020" r="2.0000011690983914" style="fill: #bcbd22;"/><circle cx="275" cy="1020" r="2.001043528170468" style="fill: #bcbd22;"/><circle cx="400" cy="1020" r="2.8190707099820003" style="fill: #bcbd22;"/><circle cx="25" cy="1020" r="2.0002078656939766" style="fill: #bcbd22;"/><circle cx="650" cy="1020" r="2.1167411148518998" style="fill: #bcbd22;"/><circle cx="725" cy="1020" r="2.0000713150018705" style="fill: #bcbd22;"/><circle cx="325" cy="1020" r="2.0003507295173963" style="fill: #bcbd22;"/><circle cx="350" cy="1020" r="2.8282019266710003" style="fill: #bcbd22;"/><circle cx="50" cy="1020" r="2.1166666666669" style="fill: #bcbd22;"/><circle cx="375" cy="1020" r="2.003093434343433" style="fill: #bcbd22;"/><circle cx="125" cy="1020" r="2.0839589823604" style="fill: #bcbd22;"/><circle cx="675" cy="1020" r="2.0972536475869" style="fill: #bcbd22;"/><circle cx="700" cy="1020" r="2.001438178884023" style="fill: #bcbd22;"/><circle cx="500" cy="1020" r="2.000229143284699" style="fill: #bcbd22;"/><circle cx="175" cy="1020" r="5.74025794562" style="fill: #bcbd22;"/><circle cx="525" cy="1020" r="2.01073372615042" style="fill: #bcbd22;"/><text/><text/><text/><text/><text/><text/><text/><text/><text/><text/><text/><text/><text/><text/><text/><text/><text/><text/><text/><text/><text/><text/><text/><text/><text/><text/><text/><text/><text/><text y="1020" x="930" class="label" style="fill: #bcbd22;">A Message-Based Approach to...</text></g><g class="journal"><circle cx="550" cy="1040" r="2.01420152946471" style="fill: #bcbd22;"/><circle cx="575" cy="1040" r="2.001234398842761" style="fill: #bcbd22;"/><circle cx="875" cy="1040" r="2.0000314889788573" style="fill: #bcbd22;"/><circle cx="450" cy="1040" r="2.000079744816587" style="fill: #bcbd22;"/><circle cx="600" cy="1040" r="2.0000629779577146" style="fill: #bcbd22;"/><circle cx="775" cy="1040" r="2.0008856275303613" style="fill: #bcbd22;"/><circle cx="625" cy="1040" r="2.02807551286925" style="fill: #bcbd22;"/><circle cx="75" cy="1040" r="2.0318622508061903" style="fill: #bcbd22;"/><circle cx="100" cy="1040" r="2.3876521608428" style="fill: #bcbd22;"/><circle cx="475" cy="1040" r="2.0043336354390493" style="fill: #bcbd22;"/><circle cx="150" cy="1040" r="2.0091546625114" style="fill: #bcbd22;"/><circle cx="750" cy="1040" r="2.004186602870814" style="fill: #bcbd22;"/><circle cx="200" cy="1040" r="2.05798710147643" style="fill: #bcbd22;"/><circle cx="225" cy="1040" r="2.4125769735017" style="fill: #bcbd22;"/><circle cx="250" cy="1040" r="2.000097782334624" style="fill: #bcbd22;"/><circle cx="275" cy="1040" r="2.01557893458093" style="fill: #bcbd22;"/><circle cx="300" cy="1040" r="2.02545653152336" style="fill: #bcbd22;"/><circle cx="400" cy="1040" r="2.02065630639156" style="fill: #bcbd22;"/><circle cx="0" cy="1040" r="2.0000629779577146" style="fill: #bcbd22;"/><circle cx="25" cy="1040" r="2.4176180137283" style="fill: #bcbd22;"/><circle cx="650" cy="1040" r="2.04294011801751" style="fill: #bcbd22;"/><circle cx="725" cy="1040" r="2.0001358747246907" style="fill: #bcbd22;"/><circle cx="800" cy="1040" r="2.0566801619432997" style="fill: #bcbd22;"/><circle cx="325" cy="1040" r="2.4025223689333" style="fill: #bcbd22;"/><circle cx="350" cy="1040" r="2.05752180875987" style="fill: #bcbd22;"/><circle cx="50" cy="1040" r="2.0172855951863" style="fill: #bcbd22;"/><circle cx="375" cy="1040" r="2.7566176959249997" style="fill: #bcbd22;"/><circle cx="125" cy="1040" r="2.0326989504268" style="fill: #bcbd22;"/><circle cx="675" cy="1040" r="2.02834008097165" style="fill: #bcbd22;"/><circle cx="700" cy="1040" r="2.01851407161513" style="fill: #bcbd22;"/><circle cx="175" cy="1040" r="6.077158580522999" style="fill: #bcbd22;"/><circle cx="500" cy="1040" r="2.0000373803827753" style="fill: #bcbd22;"/><circle cx="525" cy="1040" r="2.0777520981678" style="fill: #bcbd22;"/><text/><text/><text/><text/><text/><text/><text/><text/><text/><text/><text/><text/><text/><text/><text/><text/><text/><text/><text/><text/><text/><text/><text/><text/><text/><text/><text/><text/><text/><text/><text/><text/><text/><text y="1040" x="930" class="label" style="fill: #bcbd22;">Assessing Process-Centered...</text></g><g class="journal"><circle cx="125" cy="1060" r="2.1249999999997" style="fill: #bcbd22;"/><circle cx="175" cy="1060" r="6.125000000001999" style="fill: #bcbd22;"/><circle cx="25" cy="1060" r="2.2500000000001" style="fill: #bcbd22;"/><circle cx="200" cy="1060" r="3.75" style="fill: #bcbd22;"/><circle cx="700" cy="1060" r="2.750000000001" style="fill: #bcbd22;"/><text/><text/><text/><text/><text/><text y="1060" x="930" class="label" style="fill: #bcbd22;">A parameterized interpreter...</text></g><g class="journal"><circle cx="475" cy="1080" r="2.0546875" style="fill: #bcbd22;"/><circle cx="125" cy="1080" r="2.4921875" style="fill: #bcbd22;"/><circle cx="25" cy="1080" r="2.1276041666668997" style="fill: #bcbd22;"/><circle cx="175" cy="1080" r="6.065104166669" style="fill: #bcbd22;"/><circle cx="450" cy="1080" r="2.0546875" style="fill: #bcbd22;"/><circle cx="200" cy="1080" r="2.2552083333331003" style="fill: #bcbd22;"/><circle cx="600" cy="1080" r="2.0546875" style="fill: #bcbd22;"/><circle cx="275" cy="1080" r="2.0729166666669" style="fill: #bcbd22;"/><circle cx="400" cy="1080" r="3.75" style="fill: #bcbd22;"/><circle cx="100" cy="1080" r="2.0729166666669" style="fill: #bcbd22;"/><text/><text/><text/><text/><text/><text/><text/><text/><text/><text/><text y="1080" x="930" class="label" style="fill: #bcbd22;">Using Specialized Procedures...</text></g><g class="journal"><circle cx="550" cy="1100" r="2.4338709490738" style="fill: #bcbd22;"/><circle cx="450" cy="1100" r="2.02179726080245" style="fill: #bcbd22;"/><circle cx="775" cy="1100" r="2.002107038751713" style="fill: #bcbd22;"/><circle cx="625" cy="1100" r="2.06237844619587" style="fill: #bcbd22;"/><circle cx="75" cy="1100" r="2.0890163966048" style="fill: #bcbd22;"/><circle cx="100" cy="1100" r="2.05153947527295" style="fill: #bcbd22;"/><circle cx="475" cy="1100" r="2.00064826317444" style="fill: #bcbd22;"/><circle cx="150" cy="1100" r="2.01364161927065" style="fill: #bcbd22;"/><circle cx="825" cy="1100" r="2.01507216547459" style="fill: #bcbd22;"/><circle cx="225" cy="1100" r="2.0079417215388697" style="fill: #bcbd22;"/><circle cx="200" cy="1100" r="2.2423731615697" style="fill: #bcbd22;"/><circle cx="250" cy="1100" r="2.0001887794378512" style="fill: #bcbd22;"/><circle cx="275" cy="1100" r="2.0001270664587283" style="fill: #bcbd22;"/><circle cx="300" cy="1100" r="2.000432098765432" style="fill: #bcbd22;"/><circle cx="400" cy="1100" r="3.054391473611" style="fill: #bcbd22;"/><circle cx="0" cy="1100" r="2.00228202160494" style="fill: #bcbd22;"/><circle cx="25" cy="1100" r="2.01101327044398" style="fill: #bcbd22;"/><circle cx="650" cy="1100" r="2.0989898583961" style="fill: #bcbd22;"/><circle cx="725" cy="1100" r="2.0000427447829914" style="fill: #bcbd22;"/><circle cx="325" cy="1100" r="2.03837720841297" style="fill: #bcbd22;"/><circle cx="350" cy="1100" r="2.5875645790468997" style="fill: #bcbd22;"/><circle cx="50" cy="1100" r="2.03888888888892" style="fill: #bcbd22;"/><circle cx="375" cy="1100" r="2.2974257330247" style="fill: #bcbd22;"/><circle cx="125" cy="1100" r="2.1280323085538" style="fill: #bcbd22;"/><circle cx="675" cy="1100" r="2.004238040123457" style="fill: #bcbd22;"/><circle cx="700" cy="1100" r="2.0195266059282697" style="fill: #bcbd22;"/><circle cx="175" cy="1100" r="5.658835537406" style="fill: #bcbd22;"/><circle cx="500" cy="1100" r="2.004861111111108" style="fill: #bcbd22;"/><circle cx="525" cy="1100" r="2.1143961762692" style="fill: #bcbd22;"/><text/><text/><text/><text/><text/><text/><text/><text/><text/><text/><text/><text/><text/><text/><text/><text/><text/><text/><text/><text/><text/><text/><text/><text/><text/><text/><text/><text/><text/><text y="1100" x="930" class="label" style="fill: #bcbd22;">An Illustration of Current...</text></g><rect width="10" height="450" x="915" y="4080" style="fill: #ffffff;"/></g></g></svg>
