<svg xmlns="http://www.w3.org/2000/svg" width="1420" height="1220" id="bundles" style="margin-left: 20px;"><g transform="translate(20,100)"><g class="x axis" transform="translate(0,90)"><g class="tick" transform="translate(0,0)" style="opacity: 1;"><line y2="-6" x2="0"/><text dy="1em" y="-9" x="0" dx="1em" transform="rotate(290)" style="text-anchor: start;">INFORMATION SYSTMS</text></g><g class="tick" transform="translate(26.470588235294116,0)" style="opacity: 1;"><line y2="-6" x2="0"/><text dy="1em" y="-9" x="0" dx="1em" transform="rotate(290)" style="text-anchor: start;">MAINTENANCE</text></g><g class="tick" transform="translate(52.94117647058823,0)" style="opacity: 1;"><line y2="-6" x2="0"/><text dy="1em" y="-9" x="0" dx="1em" transform="rotate(290)" style="text-anchor: start;">ARCHITECTURES</text></g><g class="tick" transform="translate(79.41176470588236,0)" style="opacity: 1;"><line y2="-6" x2="0"/><text dy="1em" y="-9" x="0" dx="1em" transform="rotate(290)" style="text-anchor: start;">LANGUAGES</text></g><g class="tick" transform="translate(105.88235294117646,0)" style="opacity: 1;"><line y2="-6" x2="0"/><text dy="1em" y="-9" x="0" dx="1em" transform="rotate(290)" style="text-anchor: start;">METRICS</text></g><g class="tick" transform="translate(132.35294117647058,0)" style="opacity: 1;"><line y2="-6" x2="0"/><text dy="1em" y="-9" x="0" dx="1em" transform="rotate(290)" style="text-anchor: start;">RELIABILITY</text></g><g class="tick" transform="translate(158.82352941176472,0)" style="opacity: 1;"><line y2="-6" x2="0"/><text dy="1em" y="-9" x="0" dx="1em" transform="rotate(290)" style="text-anchor: start;">FORMAL METHODS</text></g><g class="tick" transform="translate(185.2941176470588,0)" style="opacity: 1;"><line y2="-6" x2="0"/><text dy="1em" y="-9" x="0" dx="1em" transform="rotate(290)" style="text-anchor: start;">VISUALIZATION</text></g><g class="tick" transform="translate(211.76470588235293,0)" style="opacity: 1;"><line y2="-6" x2="0"/><text dy="1em" y="-9" x="0" dx="1em" transform="rotate(290)" style="text-anchor: start;">PROGRAM ANALYSIS</text></g><g class="tick" transform="translate(238.23529411764707,0)" style="opacity: 1;"><line y2="-6" x2="0"/><text dy="1em" y="-9" x="0" dx="1em" transform="rotate(290)" style="text-anchor: start;">ARTIFICIAL INTELLIGENCE</text></g><g class="tick" transform="translate(264.70588235294116,0)" style="opacity: 1;"><line y2="-6" x2="0"/><text dy="1em" y="-9" x="0" dx="1em" transform="rotate(290)" style="text-anchor: start;">PROGRAM COMPREHENSION</text></g><g class="tick" transform="translate(291.1764705882353,0)" style="opacity: 1;"><line y2="-6" x2="0"/><text dy="1em" y="-9" x="0" dx="1em" transform="rotate(290)" style="text-anchor: start;">TESTING</text></g><g class="tick" transform="translate(317.64705882352945,0)" style="opacity: 1;"><line y2="-6" x2="0"/><text dy="1em" y="-9" x="0" dx="1em" transform="rotate(290)" style="text-anchor: start;">CONCURRENCY</text></g><g class="tick" transform="translate(344.1176470588235,0)" style="opacity: 1;"><line y2="-6" x2="0"/><text dy="1em" y="-9" x="0" dx="1em" transform="rotate(290)" style="text-anchor: start;">EMPIRICAL SOFTWARE ENGINEERING</text></g><g class="tick" transform="translate(370.5882352941176,0)" style="opacity: 1;"><line y2="-6" x2="0"/><text dy="1em" y="-9" x="0" dx="1em" transform="rotate(290)" style="text-anchor: start;">PRODUCT LINES</text></g><g class="tick" transform="translate(397.05882352941177,0)" style="opacity: 1;"><line y2="-6" x2="0"/><text dy="1em" y="-9" x="0" dx="1em" transform="rotate(290)" style="text-anchor: start;">MODELS</text></g><g class="tick" transform="translate(423.52941176470586,0)" style="opacity: 1;"><line y2="-6" x2="0"/><text dy="1em" y="-9" x="0" dx="1em" transform="rotate(290)" style="text-anchor: start;">REVERSE ENGINEERING</text></g><g class="tick" transform="translate(450,0)" style="opacity: 1;"><line y2="-6" x2="0"/><text dy="1em" y="-9" x="0" dx="1em" transform="rotate(290)" style="text-anchor: start;">SOFTWARE QUALITY</text></g><g class="tick" transform="translate(476.47058823529414,0)" style="opacity: 1;"><line y2="-6" x2="0"/><text dy="1em" y="-9" x="0" dx="1em" transform="rotate(290)" style="text-anchor: start;">EVOLUTION</text></g><g class="tick" transform="translate(502.94117647058823,0)" style="opacity: 1;"><line y2="-6" x2="0"/><text dy="1em" y="-9" x="0" dx="1em" transform="rotate(290)" style="text-anchor: start;">HUMAN COMPUTER INTERACTION</text></g><g class="tick" transform="translate(529.4117647058823,0)" style="opacity: 1;"><line y2="-6" x2="0"/><text dy="1em" y="-9" x="0" dx="1em" transform="rotate(290)" style="text-anchor: start;">DATABASE</text></g><g class="tick" transform="translate(555.8823529411765,0)" style="opacity: 1;"><line y2="-6" x2="0"/><text dy="1em" y="-9" x="0" dx="1em" transform="rotate(290)" style="text-anchor: start;">SYNTHESIS</text></g><g class="tick" transform="translate(582.3529411764706,0)" style="opacity: 1;"><line y2="-6" x2="0"/><text dy="1em" y="-9" x="0" dx="1em" transform="rotate(290)" style="text-anchor: start;">DISTRIBUTED SYSTEMS</text></g><g class="tick" transform="translate(608.8235294117648,0)" style="opacity: 1;"><line y2="-6" x2="0"/><text dy="1em" y="-9" x="0" dx="1em" transform="rotate(290)" style="text-anchor: start;">KNOWLEDGE ENGINEERING</text></g><g class="tick" transform="translate(635.2941176470589,0)" style="opacity: 1;"><line y2="-6" x2="0"/><text dy="1em" y="-9" x="0" dx="1em" transform="rotate(290)" style="text-anchor: start;">SERVICES</text></g><g class="tick" transform="translate(661.764705882353,0)" style="opacity: 1;"><line y2="-6" x2="0"/><text dy="1em" y="-9" x="0" dx="1em" transform="rotate(290)" style="text-anchor: start;">PROCESS</text></g><g class="tick" transform="translate(688.235294117647,0)" style="opacity: 1;"><line y2="-6" x2="0"/><text dy="1em" y="-9" x="0" dx="1em" transform="rotate(290)" style="text-anchor: start;">EDUCATION</text></g><g class="tick" transform="translate(714.7058823529411,0)" style="opacity: 1;"><line y2="-6" x2="0"/><text dy="1em" y="-9" x="0" dx="1em" transform="rotate(290)" style="text-anchor: start;">REQUIREMENTS</text></g><g class="tick" transform="translate(741.1764705882352,0)" style="opacity: 1;"><line y2="-6" x2="0"/><text dy="1em" y="-9" x="0" dx="1em" transform="rotate(290)" style="text-anchor: start;">REAL TIME SYSTEMS</text></g><g class="tick" transform="translate(767.6470588235294,0)" style="opacity: 1;"><line y2="-6" x2="0"/><text dy="1em" y="-9" x="0" dx="1em" transform="rotate(290)" style="text-anchor: start;">ADAPTIVE SYSTEMS</text></g><g class="tick" transform="translate(794.1176470588235,0)" style="opacity: 1;"><line y2="-6" x2="0"/><text dy="1em" y="-9" x="0" dx="1em" transform="rotate(290)" style="text-anchor: start;">METHODOLOGIES</text></g><g class="tick" transform="translate(820.5882352941177,0)" style="opacity: 1;"><line y2="-6" x2="0"/><text dy="1em" y="-9" x="0" dx="1em" transform="rotate(290)" style="text-anchor: start;">SECURITY</text></g><g class="tick" transform="translate(847.0588235294117,0)" style="opacity: 1;"><line y2="-6" x2="0"/><text dy="1em" y="-9" x="0" dx="1em" transform="rotate(290)" style="text-anchor: start;">OPERATING SYSTEMS</text></g><g class="tick" transform="translate(873.5294117647059,0)" style="opacity: 1;"><line y2="-6" x2="0"/><text dy="1em" y="-9" x="0" dx="1em" transform="rotate(290)" style="text-anchor: start;">EMBEDDED</text></g><g class="tick" transform="translate(900,0)" style="opacity: 1;"><line y2="-6" x2="0"/><text dy="1em" y="-9" x="0" dx="1em" transform="rotate(290)" style="text-anchor: start;"/></g><path class="domain" d="M0,-6V0H900V-6"/></g><g><g class="journal"><circle cx="0" cy="120" r="5.5" style="fill: #17becf;"/><circle cx="26.470588235294116" cy="120" r="5.5" style="fill: #17becf;"/><text/><text/><text y="120" x="930" class="label" style="fill: #17becf;">The role of outcome feedback...</text></g><g class="journal"><circle cx="52.94117647058823" cy="140" r="2.999999999999" style="fill: #17becf;"/><circle cx="26.470588235294116" cy="140" r="7.000000000001999" style="fill: #17becf;"/><circle cx="79.41176470588236" cy="140" r="2.1666666666665" style="fill: #17becf;"/><circle cx="105.88235294117646" cy="140" r="2.333333333333" style="fill: #17becf;"/><circle cx="132.35294117647058" cy="140" r="2.333333333333" style="fill: #17becf;"/><circle cx="158.82352941176472" cy="140" r="2.1666666666665" style="fill: #17becf;"/><text/><text/><text/><text/><text/><text/><text y="140" x="930" class="label" style="fill: #17becf;">Multiple mass-market...</text></g><g class="journal"><circle cx="185.2941176470588" cy="160" r="2.0390778688030498" style="fill: #17becf;"/><circle cx="211.76470588235293" cy="160" r="2.000309553637332" style="fill: #17becf;"/><circle cx="238.23529411764707" cy="160" r="2.1405098283575" style="fill: #17becf;"/><circle cx="132.35294117647058" cy="160" r="2.03091054499148" style="fill: #17becf;"/><circle cx="264.70588235294116" cy="160" r="2.04994340728475" style="fill: #17becf;"/><circle cx="291.1764705882353" cy="160" r="2.004876724054783" style="fill: #17becf;"/><circle cx="317.64705882352945" cy="160" r="2.04768907048661" style="fill: #17becf;"/><circle cx="344.1176470588235" cy="160" r="2.02932098162616" style="fill: #17becf;"/><circle cx="370.5882352941176" cy="160" r="2.4659094069441" style="fill: #17becf;"/><circle cx="397.05882352941177" cy="160" r="2.3925610435509" style="fill: #17becf;"/><circle cx="423.52941176470586" cy="160" r="2.0000336958341887" style="fill: #17becf;"/><circle cx="105.88235294117646" cy="160" r="2.002453700689622" style="fill: #17becf;"/><circle cx="450" cy="160" r="2.2955349463213" style="fill: #17becf;"/><circle cx="476.47058823529414" cy="160" r="2.0000664980817766" style="fill: #17becf;"/><circle cx="158.82352941176472" cy="160" r="2.1010672763765" style="fill: #17becf;"/><circle cx="502.94117647058823" cy="160" r="2.00972222222223" style="fill: #17becf;"/><circle cx="26.470588235294116" cy="160" r="5.708236983696" style="fill: #17becf;"/><circle cx="529.4117647058823" cy="160" r="2.0009644587233892" style="fill: #17becf;"/><circle cx="555.8823529411765" cy="160" r="2.0770742539448" style="fill: #17becf;"/><circle cx="0" cy="160" r="2.0097141079823198" style="fill: #17becf;"/><circle cx="582.3529411764706" cy="160" r="2.002141601547974" style="fill: #17becf;"/><circle cx="608.8235294117648" cy="160" r="2.01182877620267" style="fill: #17becf;"/><circle cx="52.94117647058823" cy="160" r="3.395149312606" style="fill: #17becf;"/><circle cx="635.2941176470589" cy="160" r="2.02495868193959" style="fill: #17becf;"/><circle cx="661.764705882353" cy="160" r="2.04770422954507" style="fill: #17becf;"/><circle cx="688.235294117647" cy="160" r="2.0073240740741" style="fill: #17becf;"/><circle cx="79.41176470588236" cy="160" r="2.0572277118989097" style="fill: #17becf;"/><circle cx="714.7058823529411" cy="160" r="2.04768903857284" style="fill: #17becf;"/><text/><text/><text/><text/><text/><text/><text/><text/><text/><text/><text/><text/><text/><text/><text/><text/><text/><text/><text/><text/><text/><text/><text/><text/><text/><text/><text/><text/><text y="160" x="930" class="label" style="fill: #17becf;">Reengineering a Complex...</text></g><g class="journal"><circle cx="52.94117647058823" cy="180" r="3.75" style="fill: #17becf;"/><circle cx="26.470588235294116" cy="180" r="7.25" style="fill: #17becf;"/><text/><text/><text y="180" x="930" class="label" style="fill: #17becf;">Fixing Some Transformation...</text></g><g class="journal"><circle cx="741.1764705882352" cy="200" r="2.00853658536584" style="fill: #17becf;"/><circle cx="185.2941176470588" cy="200" r="2.003651739996002" style="fill: #17becf;"/><circle cx="767.6470588235294" cy="200" r="2.0006097560975613" style="fill: #17becf;"/><circle cx="211.76470588235293" cy="200" r="2.001271281327302" style="fill: #17becf;"/><circle cx="238.23529411764707" cy="200" r="2.1900157625877" style="fill: #17becf;"/><circle cx="132.35294117647058" cy="200" r="2.0003256769985693" style="fill: #17becf;"/><circle cx="264.70588235294116" cy="200" r="2.875011901393" style="fill: #17becf;"/><circle cx="291.1764705882353" cy="200" r="2.0000317473970095" style="fill: #17becf;"/><circle cx="317.64705882352945" cy="200" r="2.0000110689012875" style="fill: #17becf;"/><circle cx="344.1176470588235" cy="200" r="2.01379802654902" style="fill: #17becf;"/><circle cx="370.5882352941176" cy="200" r="2.0001271326060164" style="fill: #17becf;"/><circle cx="423.52941176470586" cy="200" r="2.0000003876136243" style="fill: #17becf;"/><circle cx="397.05882352941177" cy="200" r="2.1813839844186997" style="fill: #17becf;"/><circle cx="105.88235294117646" cy="200" r="2.00816451209742" style="fill: #17becf;"/><circle cx="450" cy="200" r="2.002677935631469" style="fill: #17becf;"/><circle cx="476.47058823529414" cy="200" r="2.004268317235161" style="fill: #17becf;"/><circle cx="158.82352941176472" cy="200" r="2.01231556332867" style="fill: #17becf;"/><circle cx="502.94117647058823" cy="200" r="2.00857384823848" style="fill: #17becf;"/><circle cx="26.470588235294116" cy="200" r="6.746469033894" style="fill: #17becf;"/><circle cx="529.4117647058823" cy="200" r="2.004268847398389" style="fill: #17becf;"/><circle cx="555.8823529411765" cy="200" r="2.0006246958674754" style="fill: #17becf;"/><circle cx="0" cy="200" r="2.006243626796666" style="fill: #17becf;"/><circle cx="582.3529411764706" cy="200" r="2.0042884292934278" style="fill: #17becf;"/><circle cx="608.8235294117648" cy="200" r="2.5297126718079" style="fill: #17becf;"/><circle cx="52.94117647058823" cy="200" r="2.3614630761672" style="fill: #17becf;"/><circle cx="635.2941176470589" cy="200" r="2.00849485997339" style="fill: #17becf;"/><circle cx="661.764705882353" cy="200" r="2.0000238035667364" style="fill: #17becf;"/><circle cx="79.41176470588236" cy="200" r="2.0147917359489202" style="fill: #17becf;"/><circle cx="688.235294117647" cy="200" r="2.000028071364047" style="fill: #17becf;"/><circle cx="714.7058823529411" cy="200" r="2.01281592014024" style="fill: #17becf;"/><text/><text/><text/><text/><text/><text/><text/><text/><text/><text/><text/><text/><text/><text/><text/><text/><text/><text/><text/><text/><text/><text/><text/><text/><text/><text/><text/><text/><text/><text/><text y="200" x="930" class="label" style="fill: #17becf;">Programming in the Large.</text></g><rect width="10" height="450" x="915" y="30" style="fill: #ffffff;"/></g><g><g class="journal"><circle cx="502.94117647058823" cy="220" r="3.12" style="fill: #1f77b4;"/><circle cx="397.05882352941177" cy="220" r="2.28" style="fill: #1f77b4;"/><circle cx="132.35294117647058" cy="220" r="2.28" style="fill: #1f77b4;"/><circle cx="714.7058823529411" cy="220" r="6.199999999999999" style="fill: #1f77b4;"/><circle cx="635.2941176470589" cy="220" r="3.12" style="fill: #1f77b4;"/><text/><text/><text/><text/><text/><text y="220" x="930" class="label" style="fill: #1f77b4;">Security Requirements...</text></g><g class="journal"><circle cx="397.05882352941177" cy="240" r="3.999999999998" style="fill: #1f77b4;"/><circle cx="714.7058823529411" cy="240" r="6.000000000003" style="fill: #1f77b4;"/><circle cx="635.2941176470589" cy="240" r="2.999999999999" style="fill: #1f77b4;"/><text/><text/><text/><text y="240" x="930" class="label" style="fill: #1f77b4;">Semantic parameterization: A...</text></g><g class="journal"><circle cx="397.05882352941177" cy="260" r="3.75" style="fill: #1f77b4;"/><circle cx="714.7058823529411" cy="260" r="7.25" style="fill: #1f77b4;"/><text/><text/><text y="260" x="930" class="label" style="fill: #1f77b4;">An Analysis-Revision Cycle to...</text></g><g class="journal"><circle cx="158.82352941176472" cy="280" r="3.4000000000000004" style="fill: #1f77b4;"/><circle cx="714.7058823529411" cy="280" r="7.6" style="fill: #1f77b4;"/><text/><text/><text y="280" x="930" class="label" style="fill: #1f77b4;">Formal methods in industry:...</text></g><g class="journal"><circle cx="582.3529411764706" cy="300" r="2.777777777777" style="fill: #1f77b4;"/><circle cx="397.05882352941177" cy="300" r="2.777777777777" style="fill: #1f77b4;"/><circle cx="714.7058823529411" cy="300" r="7.444444444445999" style="fill: #1f77b4;"/><text/><text/><text/><text y="300" x="930" class="label" style="fill: #1f77b4;">Requirements engineering: from...</text></g><rect width="10" height="450" x="915" y="480" style="fill: #ffffff;"/></g><g><g class="journal"><circle cx="52.94117647058823" cy="320" r="4.999999999997" style="fill: #ff7f0e;"/><circle cx="582.3529411764706" cy="320" r="6.000000000003" style="fill: #ff7f0e;"/><text/><text/><text y="320" x="930" class="label" style="fill: #ff7f0e;">VERTAF: An Application...</text></g><g class="journal"><circle cx="52.94117647058823" cy="340" r="3.166666666669" style="fill: #ff7f0e;"/><circle cx="582.3529411764706" cy="340" r="4.333333333331" style="fill: #ff7f0e;"/><circle cx="238.23529411764707" cy="340" r="4.333333333331" style="fill: #ff7f0e;"/><circle cx="608.8235294117648" cy="340" r="3.166666666669" style="fill: #ff7f0e;"/><text/><text/><text/><text/><text y="340" x="930" class="label" style="fill: #ff7f0e;">Designing data marts for data...</text></g><g class="journal"><circle cx="52.94117647058823" cy="360" r="6.666666666669" style="fill: #ff7f0e;"/><circle cx="582.3529411764706" cy="360" r="4.333333333331" style="fill: #ff7f0e;"/><text/><text/><text y="360" x="930" class="label" style="fill: #ff7f0e;">An energy consumption...</text></g><g class="journal"><circle cx="52.94117647058823" cy="380" r="5.5" style="fill: #ff7f0e;"/><circle cx="582.3529411764706" cy="380" r="5.5" style="fill: #ff7f0e;"/><text/><text/><text y="380" x="930" class="label" style="fill: #ff7f0e;">A formal approach for...</text></g><g class="journal"><circle cx="52.94117647058823" cy="400" r="2.999999999999" style="fill: #ff7f0e;"/><circle cx="582.3529411764706" cy="400" r="8.000000000001" style="fill: #ff7f0e;"/><text/><text/><text y="400" x="930" class="label" style="fill: #ff7f0e;">System architecture: the...</text></g><rect width="10" height="450" x="915" y="930" style="fill: #ffffff;"/></g><g><g class="journal"><circle cx="79.41176470588236" cy="420" r="5.5" style="fill: #2ca02c;"/><circle cx="158.82352941176472" cy="420" r="5.5" style="fill: #2ca02c;"/><text/><text/><text y="420" x="930" class="label" style="fill: #2ca02c;">A New Method of Image...</text></g><g class="journal"><circle cx="158.82352941176472" cy="440" r="4.333333333331" style="fill: #2ca02c;"/><circle cx="79.41176470588236" cy="440" r="4.333333333331" style="fill: #2ca02c;"/><circle cx="741.1764705882352" cy="440" r="4.333333333331" style="fill: #2ca02c;"/><text/><text/><text/><text y="440" x="930" class="label" style="fill: #2ca02c;">A Time-Sensitive Object Model...</text></g><g class="journal"><circle cx="158.82352941176472" cy="460" r="5.5" style="fill: #2ca02c;"/><circle cx="79.41176470588236" cy="460" r="5.5" style="fill: #2ca02c;"/><text/><text/><text y="460" x="930" class="label" style="fill: #2ca02c;">Deviation Analysis Through...</text></g><g class="journal"><circle cx="158.82352941176472" cy="480" r="5.5" style="fill: #2ca02c;"/><circle cx="79.41176470588236" cy="480" r="5.5" style="fill: #2ca02c;"/><text/><text/><text y="480" x="930" class="label" style="fill: #2ca02c;">Effective static deadlock...</text></g><g class="journal"><circle cx="158.82352941176472" cy="500" r="5.5" style="fill: #2ca02c;"/><circle cx="79.41176470588236" cy="500" r="5.5" style="fill: #2ca02c;"/><text/><text/><text y="500" x="930" class="label" style="fill: #2ca02c;">Interpolation for data...</text></g><rect width="10" height="450" x="915" y="1380" style="fill: #ffffff;"/></g><g><g class="journal"><circle cx="502.94117647058823" cy="520" r="2.00360983590212" style="fill: #d62728;"/><circle cx="26.470588235294116" cy="520" r="2.57877427923" style="fill: #d62728;"/><circle cx="211.76470588235293" cy="520" r="2.0004934210644802" style="fill: #d62728;"/><circle cx="555.8823529411765" cy="520" r="2.000510538204746" style="fill: #d62728;"/><circle cx="0" cy="520" r="2.00740834464615" style="fill: #d62728;"/><circle cx="238.23529411764707" cy="520" r="2.000762696049311" style="fill: #d62728;"/><circle cx="794.1176470588235" cy="520" r="2.001415899029174" style="fill: #d62728;"/><circle cx="132.35294117647058" cy="520" r="2.444218997908" style="fill: #d62728;"/><circle cx="264.70588235294116" cy="520" r="3.7133878064520003" style="fill: #d62728;"/><circle cx="291.1764705882353" cy="520" r="2.001644736881599" style="fill: #d62728;"/><circle cx="52.94117647058823" cy="520" r="2.0079858589608" style="fill: #d62728;"/><circle cx="635.2941176470589" cy="520" r="2.0230263163424" style="fill: #d62728;"/><circle cx="344.1176470588235" cy="520" r="2.4592400723603" style="fill: #d62728;"/><circle cx="79.41176470588236" cy="520" r="5.54869744208" style="fill: #d62728;"/><circle cx="370.5882352941176" cy="520" r="2.002290723944208" style="fill: #d62728;"/><circle cx="688.235294117647" cy="520" r="2.001918859403363" style="fill: #d62728;"/><circle cx="423.52941176470586" cy="520" r="2.1177915203402002" style="fill: #d62728;"/><circle cx="397.05882352941177" cy="520" r="2.004689100625944" style="fill: #d62728;"/><circle cx="105.88235294117646" cy="520" r="2.0718012732668" style="fill: #d62728;"/><circle cx="450" cy="520" r="2.0015754427325207" style="fill: #d62728;"/><circle cx="476.47058823529414" cy="520" r="2.001751976112327" style="fill: #d62728;"/><circle cx="158.82352941176472" cy="520" r="2.001219039720738" style="fill: #d62728;"/><circle cx="714.7058823529411" cy="520" r="2.005785818747331" style="fill: #d62728;"/><text/><text/><text/><text/><text/><text/><text/><text/><text/><text/><text/><text/><text/><text/><text/><text/><text/><text/><text/><text/><text/><text/><text/><text y="520" x="930" class="label" style="fill: #d62728;">Higher Order Software - A...</text></g><g class="journal"><circle cx="688.235294117647" cy="540" r="2.777777777777" style="fill: #d62728;"/><circle cx="79.41176470588236" cy="540" r="2.777777777777" style="fill: #d62728;"/><circle cx="26.470588235294116" cy="540" r="2.777777777777" style="fill: #d62728;"/><circle cx="264.70588235294116" cy="540" r="5.888888888892001" style="fill: #d62728;"/><circle cx="423.52941176470586" cy="540" r="2.777777777777" style="fill: #d62728;"/><text/><text/><text/><text/><text/><text y="540" x="930" class="label" style="fill: #d62728;">Topology analysis of software...</text></g><g class="journal"><circle cx="291.1764705882353" cy="560" r="2.0837191358024" style="fill: #d62728;"/><circle cx="635.2941176470589" cy="560" r="2.3402777777777" style="fill: #d62728;"/><circle cx="79.41176470588236" cy="560" r="4.009259259259" style="fill: #d62728;"/><circle cx="397.05882352941177" cy="560" r="2.3348765432096" style="fill: #d62728;"/><circle cx="0" cy="560" r="3.166666666669" style="fill: #d62728;"/><circle cx="132.35294117647058" cy="560" r="2.0837191358024" style="fill: #d62728;"/><circle cx="264.70588235294116" cy="560" r="4.981481481482" style="fill: #d62728;"/><text/><text/><text/><text/><text/><text/><text/><text y="560" x="930" class="label" style="fill: #d62728;">ClassSheets: automatic...</text></g><g class="journal"><circle cx="79.41176470588236" cy="580" r="4.625" style="fill: #d62728;"/><circle cx="26.470588235294116" cy="580" r="2.875" style="fill: #d62728;"/><circle cx="264.70588235294116" cy="580" r="5.5" style="fill: #d62728;"/><text/><text/><text/><text y="580" x="930" class="label" style="fill: #d62728;">Tool support for just-in-time...</text></g><g class="journal"><circle cx="688.235294117647" cy="600" r="2.03535353535357" style="fill: #d62728;"/><circle cx="476.47058823529414" cy="600" r="2.4393939393942" style="fill: #d62728;"/><circle cx="502.94117647058823" cy="600" r="2.3181818181815" style="fill: #d62728;"/><circle cx="79.41176470588236" cy="600" r="3.9444444444460003" style="fill: #d62728;"/><circle cx="26.470588235294116" cy="600" r="2.5202020202022" style="fill: #d62728;"/><circle cx="794.1176470588235" cy="600" r="2.3181818181815" style="fill: #d62728;"/><circle cx="105.88235294117646" cy="600" r="2.3181818181815" style="fill: #d62728;"/><circle cx="211.76470588235293" cy="600" r="2.3181818181815" style="fill: #d62728;"/><circle cx="264.70588235294116" cy="600" r="3.934343434345" style="fill: #d62728;"/><circle cx="714.7058823529411" cy="600" r="2.04545454545457" style="fill: #d62728;"/><circle cx="423.52941176470586" cy="600" r="2.4444444444447" style="fill: #d62728;"/><circle cx="185.2941176470588" cy="600" r="2.3636363636367" style="fill: #d62728;"/><text/><text/><text/><text/><text/><text/><text/><text/><text/><text/><text/><text/><text y="600" x="930" class="label" style="fill: #d62728;">Questions programmers ask...</text></g><rect width="10" height="450" x="915" y="1830" style="fill: #ffffff;"/></g><g><g class="journal"><circle cx="291.1764705882353" cy="620" r="4.333333333331" style="fill: #9467bd;"/><circle cx="450" cy="620" r="6.666666666669" style="fill: #9467bd;"/><text/><text/><text y="620" x="930" class="label" style="fill: #9467bd;">Avoiding coincidental...</text></g><g class="journal"><circle cx="132.35294117647058" cy="640" r="3.4000000000000004" style="fill: #9467bd;"/><circle cx="450" cy="640" r="6.199999999999999" style="fill: #9467bd;"/><circle cx="291.1764705882353" cy="640" r="3.4000000000000004" style="fill: #9467bd;"/><text/><text/><text/><text y="640" x="930" class="label" style="fill: #9467bd;">An experimental comparison of...</text></g><g class="journal"><circle cx="502.94117647058823" cy="660" r="2.03870650183148" style="fill: #9467bd;"/><circle cx="185.2941176470588" cy="660" r="2.004761904761908" style="fill: #9467bd;"/><circle cx="26.470588235294116" cy="660" r="2.1735988225419" style="fill: #9467bd;"/><circle cx="555.8823529411765" cy="660" r="2.03963738059323" style="fill: #9467bd;"/><circle cx="0" cy="660" r="2.0000356125356125" style="fill: #9467bd;"/><circle cx="794.1176470588235" cy="660" r="2.2012833231584" style="fill: #9467bd;"/><circle cx="238.23529411764707" cy="660" r="2.003941600678736" style="fill: #9467bd;"/><circle cx="608.8235294117648" cy="660" r="2.01249999999997" style="fill: #9467bd;"/><circle cx="132.35294117647058" cy="660" r="2.0128257200316" style="fill: #9467bd;"/><circle cx="264.70588235294116" cy="660" r="2.3066399348201" style="fill: #9467bd;"/><circle cx="291.1764705882353" cy="660" r="2.01785714285712" style="fill: #9467bd;"/><circle cx="52.94117647058823" cy="660" r="2.0854055489714" style="fill: #9467bd;"/><circle cx="635.2941176470589" cy="660" r="2.1349130036632" style="fill: #9467bd;"/><circle cx="344.1176470588235" cy="660" r="2.0972816824377998" style="fill: #9467bd;"/><circle cx="79.41176470588236" cy="660" r="2.8042268189339996" style="fill: #9467bd;"/><circle cx="370.5882352941176" cy="660" r="2.0119249622926" style="fill: #9467bd;"/><circle cx="423.52941176470586" cy="660" r="2.0161438619251" style="fill: #9467bd;"/><circle cx="397.05882352941177" cy="660" r="2.02562396753574" style="fill: #9467bd;"/><circle cx="820.5882352941177" cy="660" r="2.0897435897435" style="fill: #9467bd;"/><circle cx="105.88235294117646" cy="660" r="2.006370001526252" style="fill: #9467bd;"/><circle cx="450" cy="660" r="6.82630021293" style="fill: #9467bd;"/><circle cx="476.47058823529414" cy="660" r="2.005761599511598" style="fill: #9467bd;"/><circle cx="158.82352941176472" cy="660" r="2.0705882352938" style="fill: #9467bd;"/><circle cx="714.7058823529411" cy="660" r="2.01392857142859" style="fill: #9467bd;"/><text/><text/><text/><text/><text/><text/><text/><text/><text/><text/><text/><text/><text/><text/><text/><text/><text/><text/><text/><text/><text/><text/><text/><text/><text y="660" x="930" class="label" style="fill: #9467bd;">Coven: brewing better...</text></g><g class="journal"><circle cx="0" cy="680" r="2.7" style="fill: #9467bd;"/><circle cx="132.35294117647058" cy="680" r="2.7" style="fill: #9467bd;"/><circle cx="450" cy="680" r="6.9" style="fill: #9467bd;"/><circle cx="291.1764705882353" cy="680" r="2.7" style="fill: #9467bd;"/><text/><text/><text/><text/><text y="680" x="930" class="label" style="fill: #9467bd;">Specification of...</text></g><g class="journal"><circle cx="291.1764705882353" cy="700" r="2.777777777777" style="fill: #9467bd;"/><circle cx="26.470588235294116" cy="700" r="2.777777777777" style="fill: #9467bd;"/><circle cx="450" cy="700" r="5.888888888892001" style="fill: #9467bd;"/><circle cx="132.35294117647058" cy="700" r="2.777777777777" style="fill: #9467bd;"/><circle cx="158.82352941176472" cy="700" r="2.777777777777" style="fill: #9467bd;"/><text/><text/><text/><text/><text/><text y="700" x="930" class="label" style="fill: #9467bd;">Mutation Operators for...</text></g><rect width="10" height="450" x="915" y="2280" style="fill: #ffffff;"/></g><g><g class="journal"><circle cx="502.94117647058823" cy="720" r="2.7" style="fill: #8c564b;"/><circle cx="26.470588235294116" cy="720" r="2.04040404040407" style="fill: #8c564b;"/><circle cx="794.1176470588235" cy="720" r="2.4823232323231" style="fill: #8c564b;"/><circle cx="132.35294117647058" cy="720" r="2.06060606060607" style="fill: #8c564b;"/><circle cx="264.70588235294116" cy="720" r="2.1686868686867" style="fill: #8c564b;"/><circle cx="52.94117647058823" cy="720" r="2.030303030303" style="fill: #8c564b;"/><circle cx="344.1176470588235" cy="720" r="6.67929292929" style="fill: #8c564b;"/><circle cx="79.41176470588236" cy="720" r="2.030303030303" style="fill: #8c564b;"/><circle cx="397.05882352941177" cy="720" r="2.0121212121211998" style="fill: #8c564b;"/><circle cx="423.52941176470586" cy="720" r="2.121212121212" style="fill: #8c564b;"/><circle cx="105.88235294117646" cy="720" r="2.0030303030303" style="fill: #8c564b;"/><circle cx="450" cy="720" r="2.6414141414142" style="fill: #8c564b;"/><circle cx="476.47058823529414" cy="720" r="2.030303030303" style="fill: #8c564b;"/><text/><text/><text/><text/><text/><text/><text/><text/><text/><text/><text/><text/><text/><text y="720" x="930" class="label" style="fill: #8c564b;">A Systematic Review of Theory...</text></g><g class="journal"><circle cx="344.1176470588235" cy="740" r="7.6" style="fill: #8c564b;"/><circle cx="264.70588235294116" cy="740" r="3.4000000000000004" style="fill: #8c564b;"/><text/><text/><text y="740" x="930" class="label" style="fill: #8c564b;">Power laws in software.</text></g><g class="journal"><circle cx="291.1764705882353" cy="760" r="2.875" style="fill: #8c564b;"/><circle cx="635.2941176470589" cy="760" r="2.875" style="fill: #8c564b;"/><circle cx="344.1176470588235" cy="760" r="3.75" style="fill: #8c564b;"/><circle cx="79.41176470588236" cy="760" r="2.875" style="fill: #8c564b;"/><circle cx="397.05882352941177" cy="760" r="2.875" style="fill: #8c564b;"/><circle cx="820.5882352941177" cy="760" r="2.875" style="fill: #8c564b;"/><circle cx="450" cy="760" r="2.875" style="fill: #8c564b;"/><text/><text/><text/><text/><text/><text/><text/><text y="760" x="930" class="label" style="fill: #8c564b;">An analysis of rule coverage...</text></g><g class="journal"><circle cx="344.1176470588235" cy="780" r="4.506944444445001" style="fill: #8c564b;"/><circle cx="0" cy="780" r="2.4375" style="fill: #8c564b;"/><circle cx="79.41176470588236" cy="780" r="2.4375" style="fill: #8c564b;"/><circle cx="847.0588235294117" cy="780" r="2.4375" style="fill: #8c564b;"/><circle cx="211.76470588235293" cy="780" r="2.4375" style="fill: #8c564b;"/><circle cx="132.35294117647058" cy="780" r="2.4375" style="fill: #8c564b;"/><circle cx="820.5882352941177" cy="780" r="2.4375" style="fill: #8c564b;"/><circle cx="635.2941176470589" cy="780" r="3.3611111111080003" style="fill: #8c564b;"/><circle cx="291.1764705882353" cy="780" r="2.5069444444442" style="fill: #8c564b;"/><text/><text/><text/><text/><text/><text/><text/><text/><text/><text y="780" x="930" class="label" style="fill: #8c564b;">Using positive tainting and...</text></g><g class="journal"><circle cx="502.94117647058823" cy="800" r="2.01030303030302" style="fill: #8c564b;"/><circle cx="185.2941176470588" cy="800" r="2.000094696969697" style="fill: #8c564b;"/><circle cx="26.470588235294116" cy="800" r="2.001410479251391" style="fill: #8c564b;"/><circle cx="211.76470588235293" cy="800" r="2.000094696969697" style="fill: #8c564b;"/><circle cx="0" cy="800" r="2.2393939393937" style="fill: #8c564b;"/><circle cx="794.1176470588235" cy="800" r="2.0417073877301197" style="fill: #8c564b;"/><circle cx="132.35294117647058" cy="800" r="2.986932638069" style="fill: #8c564b;"/><circle cx="608.8235294117648" cy="800" r="2.01325757575758" style="fill: #8c564b;"/><circle cx="264.70588235294116" cy="800" r="2.005533637238185" style="fill: #8c564b;"/><circle cx="291.1764705882353" cy="800" r="2.3684343434345" style="fill: #8c564b;"/><circle cx="52.94117647058823" cy="800" r="2.03216581398401" style="fill: #8c564b;"/><circle cx="344.1176470588235" cy="800" r="5.768326664921" style="fill: #8c564b;"/><circle cx="688.235294117647" cy="800" r="2.000757575757575" style="fill: #8c564b;"/><circle cx="79.41176470588236" cy="800" r="2.000347632165814" style="fill: #8c564b;"/><circle cx="423.52941176470586" cy="800" r="2.001390528663258" style="fill: #8c564b;"/><circle cx="397.05882352941177" cy="800" r="2.001275416502689" style="fill: #8c564b;"/><circle cx="105.88235294117646" cy="800" r="2.0795802177618" style="fill: #8c564b;"/><circle cx="450" cy="800" r="2.883115789934" style="fill: #8c564b;"/><circle cx="476.47058823529414" cy="800" r="2.000347632165814" style="fill: #8c564b;"/><circle cx="714.7058823529411" cy="800" r="2.56553030303" style="fill: #8c564b;"/><text/><text/><text/><text/><text/><text/><text/><text/><text/><text/><text/><text/><text/><text/><text/><text/><text/><text/><text/><text/><text y="800" x="930" class="label" style="fill: #8c564b;">Overcoming the NAH Syndrome...</text></g><rect width="10" height="450" x="915" y="2730" style="fill: #ffffff;"/></g><g><g class="journal"><circle cx="52.94117647058823" cy="820" r="2.005533640149023" style="fill: #e377c2;"/><circle cx="238.23529411764707" cy="820" r="2.5055577383066" style="fill: #e377c2;"/><circle cx="582.3529411764706" cy="820" r="2.0064772201524312" style="fill: #e377c2;"/><circle cx="344.1176470588235" cy="820" r="2.1273812300208" style="fill: #e377c2;"/><circle cx="502.94117647058823" cy="820" r="2.3900586237128003" style="fill: #e377c2;"/><circle cx="0" cy="820" r="2.3888888888892" style="fill: #e377c2;"/><circle cx="608.8235294117648" cy="820" r="2.04678939294323" style="fill: #e377c2;"/><circle cx="79.41176470588236" cy="820" r="2.0161078238001098" style="fill: #e377c2;"/><circle cx="26.470588235294116" cy="820" r="2.4115523539918" style="fill: #e377c2;"/><circle cx="794.1176470588235" cy="820" r="5.50698395859" style="fill: #e377c2;"/><circle cx="105.88235294117646" cy="820" r="2.4753786495241" style="fill: #e377c2;"/><circle cx="397.05882352941177" cy="820" r="2.02450457899176" style="fill: #e377c2;"/><circle cx="661.764705882353" cy="820" r="2.0299145299145" style="fill: #e377c2;"/><circle cx="370.5882352941176" cy="820" r="2.000146747280986" style="fill: #e377c2;"/><circle cx="132.35294117647058" cy="820" r="2.03444927579541" style="fill: #e377c2;"/><circle cx="714.7058823529411" cy="820" r="2.0000136971290816" style="fill: #e377c2;"/><circle cx="635.2941176470589" cy="820" r="2.0493461903718" style="fill: #e377c2;"/><circle cx="450" cy="820" r="2.980915460441" style="fill: #e377c2;"/><text/><text/><text/><text/><text/><text/><text/><text/><text/><text/><text/><text/><text/><text/><text/><text/><text/><text/><text y="820" x="930" class="label" style="fill: #e377c2;">Time-Sensitive Cost Models in...</text></g><g class="journal"><circle cx="52.94117647058823" cy="840" r="2.4375" style="fill: #e377c2;"/><circle cx="344.1176470588235" cy="840" r="3.3125" style="fill: #e377c2;"/><circle cx="79.41176470588236" cy="840" r="3.3125" style="fill: #e377c2;"/><circle cx="423.52941176470586" cy="840" r="2.4375" style="fill: #e377c2;"/><circle cx="450" cy="840" r="2.4375" style="fill: #e377c2;"/><circle cx="794.1176470588235" cy="840" r="5.0625" style="fill: #e377c2;"/><text/><text/><text/><text/><text/><text/><text y="840" x="930" class="label" style="fill: #e377c2;">The impact of software...</text></g><g class="journal"><circle cx="79.41176470588236" cy="860" r="2.7" style="fill: #e377c2;"/><circle cx="794.1176470588235" cy="860" r="4.1" style="fill: #e377c2;"/><circle cx="105.88235294117646" cy="860" r="5.5" style="fill: #e377c2;"/><circle cx="132.35294117647058" cy="860" r="2.7" style="fill: #e377c2;"/><text/><text/><text/><text/><text y="860" x="930" class="label" style="fill: #e377c2;">Modeling bug report quality.</text></g><g class="journal"><circle cx="344.1176470588235" cy="880" r="2.3947368421051998" style="fill: #e377c2;"/><circle cx="26.470588235294116" cy="880" r="3.289473684212" style="fill: #e377c2;"/><circle cx="794.1176470588235" cy="880" r="5.710526315789999" style="fill: #e377c2;"/><circle cx="105.88235294117646" cy="880" r="2.3947368421051998" style="fill: #e377c2;"/><circle cx="714.7058823529411" cy="880" r="2.3684210526318" style="fill: #e377c2;"/><circle cx="450" cy="880" r="2.8421052631599997" style="fill: #e377c2;"/><text/><text/><text/><text/><text/><text/><text y="880" x="930" class="label" style="fill: #e377c2;">Lessons learned from 25 years...</text></g><g class="journal"><circle cx="344.1176470588235" cy="900" r="2.3444444444441" style="fill: #e377c2;"/><circle cx="502.94117647058823" cy="900" r="3.011111111108" style="fill: #e377c2;"/><circle cx="79.41176470588236" cy="900" r="2.5444444444445997" style="fill: #e377c2;"/><circle cx="26.470588235294116" cy="900" r="2.0777777777777002" style="fill: #e377c2;"/><circle cx="794.1176470588235" cy="900" r="4.8" style="fill: #e377c2;"/><circle cx="105.88235294117646" cy="900" r="3.011111111108" style="fill: #e377c2;"/><circle cx="264.70588235294116" cy="900" r="2.4666666666669" style="fill: #e377c2;"/><circle cx="132.35294117647058" cy="900" r="2.4666666666669" style="fill: #e377c2;"/><circle cx="423.52941176470586" cy="900" r="2.0777777777777002" style="fill: #e377c2;"/><circle cx="291.1764705882353" cy="900" r="2.1999999999998" style="fill: #e377c2;"/><text/><text/><text/><text/><text/><text/><text/><text/><text/><text/><text y="900" x="930" class="label" style="fill: #e377c2;">What makes a good bug report?</text></g><rect width="10" height="450" x="915" y="3180" style="fill: #ffffff;"/></g><g><g class="journal"><circle cx="344.1176470588235" cy="920" r="2.999999999999" style="fill: #7f7f7f;"/><circle cx="158.82352941176472" cy="920" r="3.999999999998" style="fill: #7f7f7f;"/><circle cx="211.76470588235293" cy="920" r="6.000000000003" style="fill: #7f7f7f;"/><text/><text/><text/><text y="920" x="930" class="label" style="fill: #7f7f7f;">Generation of Execution...</text></g><g class="journal"><circle cx="158.82352941176472" cy="940" r="5.5" style="fill: #7f7f7f;"/><circle cx="211.76470588235293" cy="940" r="5.5" style="fill: #7f7f7f;"/><text/><text/><text y="940" x="930" class="label" style="fill: #7f7f7f;">Breaking up is hard to do: An...</text></g><g class="journal"><circle cx="158.82352941176472" cy="960" r="5.5" style="fill: #7f7f7f;"/><circle cx="211.76470588235293" cy="960" r="5.5" style="fill: #7f7f7f;"/><text/><text/><text y="960" x="930" class="label" style="fill: #7f7f7f;">The eureka tool for software...</text></g><g class="journal"><circle cx="291.1764705882353" cy="980" r="2.2241735537188" style="fill: #7f7f7f;"/><circle cx="52.94117647058823" cy="980" r="2.0361570247934" style="fill: #7f7f7f;"/><circle cx="26.470588235294116" cy="980" r="2.01446280991736" style="fill: #7f7f7f;"/><circle cx="79.41176470588236" cy="980" r="2.2217630853991" style="fill: #7f7f7f;"/><circle cx="211.76470588235293" cy="980" r="6.089359504132" style="fill: #7f7f7f;"/><circle cx="423.52941176470586" cy="980" r="2.01446280991736" style="fill: #7f7f7f;"/><circle cx="397.05882352941177" cy="980" r="2.0361570247934" style="fill: #7f7f7f;"/><circle cx="0" cy="980" r="2.1446280991736" style="fill: #7f7f7f;"/><circle cx="450" cy="980" r="2.04338842975208" style="fill: #7f7f7f;"/><circle cx="132.35294117647058" cy="980" r="2.01446280991736" style="fill: #7f7f7f;"/><circle cx="158.82352941176472" cy="980" r="4.1609848484839995" style="fill: #7f7f7f;"/><text/><text/><text/><text/><text/><text/><text/><text/><text/><text/><text/><text y="980" x="930" class="label" style="fill: #7f7f7f;">Verification of Concurrent...</text></g><g class="journal"><circle cx="291.1764705882353" cy="1000" r="2.3535353535357" style="fill: #7f7f7f;"/><circle cx="52.94117647058823" cy="1000" r="2.1590909090911" style="fill: #7f7f7f;"/><circle cx="317.64705882352945" cy="1000" r="2.3888888888892" style="fill: #7f7f7f;"/><circle cx="79.41176470588236" cy="1000" r="2.4065656565656" style="fill: #7f7f7f;"/><circle cx="211.76470588235293" cy="1000" r="3.9267676767709996" style="fill: #7f7f7f;"/><circle cx="397.05882352941177" cy="1000" r="2.1590909090911" style="fill: #7f7f7f;"/><circle cx="0" cy="1000" r="2.6363636363636997" style="fill: #7f7f7f;"/><circle cx="158.82352941176472" cy="1000" r="4.9696969696940005" style="fill: #7f7f7f;"/><text/><text/><text/><text/><text/><text/><text/><text/><text y="1000" x="930" class="label" style="fill: #7f7f7f;">Towards Scalable Compositional...</text></g><rect width="10" height="450" x="915" y="3630" style="fill: #ffffff;"/></g><g><g class="journal"><circle cx="132.35294117647058" cy="1020" r="3.2499999999969997" style="fill: #bcbd22;"/><circle cx="714.7058823529411" cy="1020" r="7.000000000001999" style="fill: #bcbd22;"/><circle cx="450" cy="1020" r="2.2500000000001" style="fill: #bcbd22;"/><circle cx="291.1764705882353" cy="1020" r="2.5000000000002" style="fill: #bcbd22;"/><text/><text/><text/><text/><text y="1020" x="930" class="label" style="fill: #bcbd22;">A Cognitive-Based Mechanism...</text></g><g class="journal"><circle cx="238.23529411764707" cy="1040" r="2.00747863247866" style="fill: #bcbd22;"/><circle cx="582.3529411764706" cy="1040" r="2.0598290598290703" style="fill: #bcbd22;"/><circle cx="873.5294117647059" cy="1040" r="2.001869658119658" style="fill: #bcbd22;"/><circle cx="158.82352941176472" cy="1040" r="3.3695245726470002" style="fill: #bcbd22;"/><circle cx="502.94117647058823" cy="1040" r="2.0224358974359102" style="fill: #bcbd22;"/><circle cx="0" cy="1040" r="2.0121527777777697" style="fill: #bcbd22;"/><circle cx="608.8235294117648" cy="1040" r="2.00747863247866" style="fill: #bcbd22;"/><circle cx="397.05882352941177" cy="1040" r="2.01682692307695" style="fill: #bcbd22;"/><circle cx="370.5882352941176" cy="1040" r="2.00841346153844" style="fill: #bcbd22;"/><circle cx="211.76470588235293" cy="1040" r="2.3888888888892" style="fill: #bcbd22;"/><circle cx="132.35294117647058" cy="1040" r="3.362045940171" style="fill: #bcbd22;"/><circle cx="714.7058823529411" cy="1040" r="5.537393162394" style="fill: #bcbd22;"/><circle cx="635.2941176470589" cy="1040" r="2.01121794871792" style="fill: #bcbd22;"/><circle cx="291.1764705882353" cy="1040" r="2.1944444444446" style="fill: #bcbd22;"/><text/><text/><text/><text/><text/><text/><text/><text/><text/><text/><text/><text/><text/><text/><text y="1040" x="930" class="label" style="fill: #bcbd22;">Formalizing Space Shuttle...</text></g><g class="journal"><circle cx="397.05882352941177" cy="1060" r="5.5" style="fill: #bcbd22;"/><circle cx="714.7058823529411" cy="1060" r="5.5" style="fill: #bcbd22;"/><text/><text/><text y="1060" x="930" class="label" style="fill: #bcbd22;">Let's agree to disagree.</text></g><g class="journal"><circle cx="52.94117647058823" cy="1080" r="2.05580757859831" style="fill: #bcbd22;"/><circle cx="238.23529411764707" cy="1080" r="2.0502836849025" style="fill: #bcbd22;"/><circle cx="317.64705882352945" cy="1080" r="2.05000000000002" style="fill: #bcbd22;"/><circle cx="582.3529411764706" cy="1080" r="2.5580421057309" style="fill: #bcbd22;"/><circle cx="688.235294117647" cy="1080" r="2.01203703703706" style="fill: #bcbd22;"/><circle cx="344.1176470588235" cy="1080" r="2.0004629629629633" style="fill: #bcbd22;"/><circle cx="158.82352941176472" cy="1080" r="2.928747767269" style="fill: #bcbd22;"/><circle cx="0" cy="1080" r="2.05000000000002" style="fill: #bcbd22;"/><circle cx="608.8235294117648" cy="1080" r="2.000119095257151" style="fill: #bcbd22;"/><circle cx="79.41176470588236" cy="1080" r="2.0852042879793" style="fill: #bcbd22;"/><circle cx="26.470588235294116" cy="1080" r="2.05017221174182" style="fill: #bcbd22;"/><circle cx="794.1176470588235" cy="1080" r="2.0001133786848078" style="fill: #bcbd22;"/><circle cx="397.05882352941177" cy="1080" r="2.8853765712610002" style="fill: #bcbd22;"/><circle cx="370.5882352941176" cy="1080" r="2.0000289751755043" style="fill: #bcbd22;"/><circle cx="211.76470588235293" cy="1080" r="2.072585978836" style="fill: #bcbd22;"/><circle cx="264.70588235294116" cy="1080" r="2.03011742792352" style="fill: #bcbd22;"/><circle cx="132.35294117647058" cy="1080" r="2.002470895199605" style="fill: #bcbd22;"/><circle cx="714.7058823529411" cy="1080" r="6.006018518515999" style="fill: #bcbd22;"/><circle cx="423.52941176470586" cy="1080" r="2.06198412698415" style="fill: #bcbd22;"/><circle cx="635.2941176470589" cy="1080" r="2.05620446282234" style="fill: #bcbd22;"/><circle cx="450" cy="1080" r="2.002253759114145" style="fill: #bcbd22;"/><circle cx="555.8823529411765" cy="1080" r="2.01018013414516" style="fill: #bcbd22;"/><circle cx="291.1764705882353" cy="1080" r="2.03178903985369" style="fill: #bcbd22;"/><text/><text/><text/><text/><text/><text/><text/><text/><text/><text/><text/><text/><text/><text/><text/><text/><text/><text/><text/><text/><text/><text/><text/><text y="1080" x="930" class="label" style="fill: #bcbd22;">Graphical animation of...</text></g><g class="journal"><circle cx="52.94117647058823" cy="1100" r="2.2708333333335" style="fill: #bcbd22;"/><circle cx="238.23529411764707" cy="1100" r="2.2509920634921" style="fill: #bcbd22;"/><circle cx="317.64705882352945" cy="1100" r="2.02083333333333" style="fill: #bcbd22;"/><circle cx="582.3529411764706" cy="1100" r="2.2513888888889" style="fill: #bcbd22;"/><circle cx="158.82352941176472" cy="1100" r="2.4749999999997" style="fill: #bcbd22;"/><circle cx="502.94117647058823" cy="1100" r="2.00111111111111" style="fill: #bcbd22;"/><circle cx="0" cy="1100" r="2.00892857142856" style="fill: #bcbd22;"/><circle cx="608.8235294117648" cy="1100" r="2.001388888888891" style="fill: #bcbd22;"/><circle cx="26.470588235294116" cy="1100" r="2.001388888888891" style="fill: #bcbd22;"/><circle cx="397.05882352941177" cy="1100" r="2.6929365079364" style="fill: #bcbd22;"/><circle cx="264.70588235294116" cy="1100" r="2.01249999999997" style="fill: #bcbd22;"/><circle cx="132.35294117647058" cy="1100" r="2.5724999999999" style="fill: #bcbd22;"/><circle cx="714.7058823529411" cy="1100" r="5.880158730161001" style="fill: #bcbd22;"/><circle cx="423.52941176470586" cy="1100" r="2.004166666666666" style="fill: #bcbd22;"/><circle cx="820.5882352941177" cy="1100" r="2.0117063492063703" style="fill: #bcbd22;"/><circle cx="635.2941176470589" cy="1100" r="2.2587500000001" style="fill: #bcbd22;"/><circle cx="450" cy="1100" r="2.01458333333331" style="fill: #bcbd22;"/><circle cx="291.1764705882353" cy="1100" r="2.2708333333335" style="fill: #bcbd22;"/><text/><text/><text/><text/><text/><text/><text/><text/><text/><text/><text/><text/><text/><text/><text/><text/><text/><text/><text y="1100" x="930" class="label" style="fill: #bcbd22;">Deriving operational software...</text></g><rect width="10" height="450" x="915" y="4080" style="fill: #ffffff;"/></g></g></svg>
