<svg xmlns="http://www.w3.org/2000/svg" width="1420" height="1220" id="bundles" style="margin-left: 20px;"><g transform="translate(20,100)"><g class="x axis" transform="translate(0,90)"><g class="tick" transform="translate(0,0)" style="opacity: 1;"><line y2="-6" x2="0"/><text dy="1em" y="-9" x="0" dx="1em" transform="rotate(290)" style="text-anchor: start;">VISUALIZATION</text></g><g class="tick" transform="translate(31.03448275862069,0)" style="opacity: 1;"><line y2="-6" x2="0"/><text dy="1em" y="-9" x="0" dx="1em" transform="rotate(290)" style="text-anchor: start;">ARTIFICIAL INTELLIGENCE</text></g><g class="tick" transform="translate(62.06896551724138,0)" style="opacity: 1;"><line y2="-6" x2="0"/><text dy="1em" y="-9" x="0" dx="1em" transform="rotate(290)" style="text-anchor: start;">LANGUAGES</text></g><g class="tick" transform="translate(93.10344827586206,0)" style="opacity: 1;"><line y2="-6" x2="0"/><text dy="1em" y="-9" x="0" dx="1em" transform="rotate(290)" style="text-anchor: start;">FORMAL METHODS</text></g><g class="tick" transform="translate(124.13793103448276,0)" style="opacity: 1;"><line y2="-6" x2="0"/><text dy="1em" y="-9" x="0" dx="1em" transform="rotate(290)" style="text-anchor: start;">TESTING</text></g><g class="tick" transform="translate(155.17241379310346,0)" style="opacity: 1;"><line y2="-6" x2="0"/><text dy="1em" y="-9" x="0" dx="1em" transform="rotate(290)" style="text-anchor: start;">SOFTWARE QUALITY</text></g><g class="tick" transform="translate(186.20689655172413,0)" style="opacity: 1;"><line y2="-6" x2="0"/><text dy="1em" y="-9" x="0" dx="1em" transform="rotate(290)" style="text-anchor: start;">SERVICES</text></g><g class="tick" transform="translate(217.24137931034483,0)" style="opacity: 1;"><line y2="-6" x2="0"/><text dy="1em" y="-9" x="0" dx="1em" transform="rotate(290)" style="text-anchor: start;">INFORMATION SYSTMS</text></g><g class="tick" transform="translate(248.27586206896552,0)" style="opacity: 1;"><line y2="-6" x2="0"/><text dy="1em" y="-9" x="0" dx="1em" transform="rotate(290)" style="text-anchor: start;">RELIABILITY</text></g><g class="tick" transform="translate(279.3103448275862,0)" style="opacity: 1;"><line y2="-6" x2="0"/><text dy="1em" y="-9" x="0" dx="1em" transform="rotate(290)" style="text-anchor: start;">REQUIREMENTS</text></g><g class="tick" transform="translate(310.3448275862069,0)" style="opacity: 1;"><line y2="-6" x2="0"/><text dy="1em" y="-9" x="0" dx="1em" transform="rotate(290)" style="text-anchor: start;">MODELS</text></g><g class="tick" transform="translate(341.37931034482756,0)" style="opacity: 1;"><line y2="-6" x2="0"/><text dy="1em" y="-9" x="0" dx="1em" transform="rotate(290)" style="text-anchor: start;">DISTRIBUTED SYSTEMS</text></g><g class="tick" transform="translate(372.41379310344826,0)" style="opacity: 1;"><line y2="-6" x2="0"/><text dy="1em" y="-9" x="0" dx="1em" transform="rotate(290)" style="text-anchor: start;">ARCHITECTURES</text></g><g class="tick" transform="translate(403.44827586206895,0)" style="opacity: 1;"><line y2="-6" x2="0"/><text dy="1em" y="-9" x="0" dx="1em" transform="rotate(290)" style="text-anchor: start;">PROGRAM COMPREHENSION</text></g><g class="tick" transform="translate(434.48275862068965,0)" style="opacity: 1;"><line y2="-6" x2="0"/><text dy="1em" y="-9" x="0" dx="1em" transform="rotate(290)" style="text-anchor: start;">KNOWLEDGE ENGINEERING</text></g><g class="tick" transform="translate(465.51724137931035,0)" style="opacity: 1;"><line y2="-6" x2="0"/><text dy="1em" y="-9" x="0" dx="1em" transform="rotate(290)" style="text-anchor: start;">MAINTENANCE</text></g><g class="tick" transform="translate(496.55172413793105,0)" style="opacity: 1;"><line y2="-6" x2="0"/><text dy="1em" y="-9" x="0" dx="1em" transform="rotate(290)" style="text-anchor: start;">METRICS</text></g><g class="tick" transform="translate(527.5862068965516,0)" style="opacity: 1;"><line y2="-6" x2="0"/><text dy="1em" y="-9" x="0" dx="1em" transform="rotate(290)" style="text-anchor: start;">REVERSE ENGINEERING</text></g><g class="tick" transform="translate(558.6206896551724,0)" style="opacity: 1;"><line y2="-6" x2="0"/><text dy="1em" y="-9" x="0" dx="1em" transform="rotate(290)" style="text-anchor: start;">PROGRAM ANALYSIS</text></g><g class="tick" transform="translate(589.6551724137931,0)" style="opacity: 1;"><line y2="-6" x2="0"/><text dy="1em" y="-9" x="0" dx="1em" transform="rotate(290)" style="text-anchor: start;">EDUCATION</text></g><g class="tick" transform="translate(620.6896551724138,0)" style="opacity: 1;"><line y2="-6" x2="0"/><text dy="1em" y="-9" x="0" dx="1em" transform="rotate(290)" style="text-anchor: start;">EMBEDDED</text></g><g class="tick" transform="translate(651.7241379310345,0)" style="opacity: 1;"><line y2="-6" x2="0"/><text dy="1em" y="-9" x="0" dx="1em" transform="rotate(290)" style="text-anchor: start;">METHODOLOGIES</text></g><g class="tick" transform="translate(682.7586206896551,0)" style="opacity: 1;"><line y2="-6" x2="0"/><text dy="1em" y="-9" x="0" dx="1em" transform="rotate(290)" style="text-anchor: start;">EMPIRICAL SOFTWARE ENGINEERING</text></g><g class="tick" transform="translate(713.7931034482759,0)" style="opacity: 1;"><line y2="-6" x2="0"/><text dy="1em" y="-9" x="0" dx="1em" transform="rotate(290)" style="text-anchor: start;">ALGORITHM</text></g><g class="tick" transform="translate(744.8275862068965,0)" style="opacity: 1;"><line y2="-6" x2="0"/><text dy="1em" y="-9" x="0" dx="1em" transform="rotate(290)" style="text-anchor: start;">HUMAN COMPUTER INTERACTION</text></g><g class="tick" transform="translate(775.8620689655172,0)" style="opacity: 1;"><line y2="-6" x2="0"/><text dy="1em" y="-9" x="0" dx="1em" transform="rotate(290)" style="text-anchor: start;">ADAPTIVE SYSTEMS</text></g><g class="tick" transform="translate(806.8965517241379,0)" style="opacity: 1;"><line y2="-6" x2="0"/><text dy="1em" y="-9" x="0" dx="1em" transform="rotate(290)" style="text-anchor: start;">DATABASE</text></g><g class="tick" transform="translate(837.9310344827586,0)" style="opacity: 1;"><line y2="-6" x2="0"/><text dy="1em" y="-9" x="0" dx="1em" transform="rotate(290)" style="text-anchor: start;">OPERATING SYSTEMS</text></g><g class="tick" transform="translate(868.9655172413793,0)" style="opacity: 1;"><line y2="-6" x2="0"/><text dy="1em" y="-9" x="0" dx="1em" transform="rotate(290)" style="text-anchor: start;">EVOLUTION</text></g><g class="tick" transform="translate(900,0)" style="opacity: 1;"><line y2="-6" x2="0"/><text dy="1em" y="-9" x="0" dx="1em" transform="rotate(290)" style="text-anchor: start;"/></g><path class="domain" d="M0,-6V0H900V-6"/></g><g><g class="journal"><circle cx="0" cy="120" r="5.5" style="fill: #17becf;"/><circle cx="31.03448275862069" cy="120" r="5.5" style="fill: #17becf;"/><text/><text/><text y="120" x="930" class="label" style="fill: #17becf;">Automated Software Synthesis:...</text></g><rect width="10" height="90" x="915" y="30" style="fill: #ffffff;"/></g><g><g class="journal"><circle cx="62.06896551724138" cy="140" r="5.5" style="fill: #1f77b4;"/><circle cx="93.10344827586206" cy="140" r="5.5" style="fill: #1f77b4;"/><text/><text/><text y="140" x="930" class="label" style="fill: #1f77b4;">A Domain-Specific Language for...</text></g><g class="journal"><circle cx="93.10344827586206" cy="160" r="5.5" style="fill: #1f77b4;"/><circle cx="62.06896551724138" cy="160" r="5.5" style="fill: #1f77b4;"/><text/><text/><text y="160" x="930" class="label" style="fill: #1f77b4;">Composition and Refinement of...</text></g><g class="journal"><circle cx="93.10344827586206" cy="180" r="5.5" style="fill: #1f77b4;"/><circle cx="62.06896551724138" cy="180" r="5.5" style="fill: #1f77b4;"/><text/><text/><text y="180" x="930" class="label" style="fill: #1f77b4;">Tutorial on JML, the java...</text></g><g class="journal"><circle cx="93.10344827586206" cy="200" r="5.5" style="fill: #1f77b4;"/><circle cx="62.06896551724138" cy="200" r="5.5" style="fill: #1f77b4;"/><text/><text/><text y="200" x="930" class="label" style="fill: #1f77b4;">Integrating static analysis...</text></g><g class="journal"><circle cx="93.10344827586206" cy="220" r="5.5" style="fill: #1f77b4;"/><circle cx="62.06896551724138" cy="220" r="5.5" style="fill: #1f77b4;"/><text/><text/><text y="220" x="930" class="label" style="fill: #1f77b4;">Interpolation for data...</text></g><rect width="10" height="450" x="915" y="480" style="fill: #ffffff;"/></g><g><g class="journal"><circle cx="124.13793103448276" cy="240" r="4.333333333331" style="fill: #ff7f0e;"/><circle cx="155.17241379310346" cy="240" r="6.666666666669" style="fill: #ff7f0e;"/><text/><text/><text y="240" x="930" class="label" style="fill: #ff7f0e;">Avoiding coincidental...</text></g><g class="journal"><circle cx="155.17241379310346" cy="260" r="6.666666666669" style="fill: #ff7f0e;"/><circle cx="124.13793103448276" cy="260" r="4.333333333331" style="fill: #ff7f0e;"/><text/><text/><text y="260" x="930" class="label" style="fill: #ff7f0e;">Evaluating Models for...</text></g><g class="journal"><circle cx="155.17241379310346" cy="280" r="6.666666666669" style="fill: #ff7f0e;"/><circle cx="124.13793103448276" cy="280" r="4.333333333331" style="fill: #ff7f0e;"/><text/><text/><text y="280" x="930" class="label" style="fill: #ff7f0e;">Taming coincidental...</text></g><g class="journal"><circle cx="93.10344827586206" cy="300" r="2.5925925925927" style="fill: #ff7f0e;"/><circle cx="186.20689655172413" cy="300" r="2.6574074074071" style="fill: #ff7f0e;"/><circle cx="155.17241379310346" cy="300" r="7.601851851855" style="fill: #ff7f0e;"/><circle cx="124.13793103448276" cy="300" r="2.148148148148" style="fill: #ff7f0e;"/><text/><text/><text/><text/><text y="300" x="930" class="label" style="fill: #ff7f0e;">Testing context-aware...</text></g><g class="journal"><circle cx="217.24137931034483" cy="320" r="2.7" style="fill: #ff7f0e;"/><circle cx="248.27586206896552" cy="320" r="2.7" style="fill: #ff7f0e;"/><circle cx="155.17241379310346" cy="320" r="6.9" style="fill: #ff7f0e;"/><circle cx="124.13793103448276" cy="320" r="2.7" style="fill: #ff7f0e;"/><text/><text/><text/><text/><text y="320" x="930" class="label" style="fill: #ff7f0e;">Specification of...</text></g><rect width="10" height="450" x="915" y="930" style="fill: #ffffff;"/></g><g><g class="journal"><circle cx="248.27586206896552" cy="340" r="3.2499999999969997" style="fill: #2ca02c;"/><circle cx="279.3103448275862" cy="340" r="7.000000000001999" style="fill: #2ca02c;"/><circle cx="155.17241379310346" cy="340" r="2.2500000000001" style="fill: #2ca02c;"/><circle cx="124.13793103448276" cy="340" r="2.5000000000002" style="fill: #2ca02c;"/><text/><text/><text/><text/><text y="340" x="930" class="label" style="fill: #2ca02c;">A Cognitive-Based Mechanism...</text></g><g class="journal"><circle cx="310.3448275862069" cy="360" r="3.999999999998" style="fill: #2ca02c;"/><circle cx="279.3103448275862" cy="360" r="6.000000000003" style="fill: #2ca02c;"/><circle cx="186.20689655172413" cy="360" r="2.999999999999" style="fill: #2ca02c;"/><text/><text/><text/><text y="360" x="930" class="label" style="fill: #2ca02c;">Semantic parameterization: A...</text></g><g class="journal"><circle cx="310.3448275862069" cy="380" r="3.75" style="fill: #2ca02c;"/><circle cx="279.3103448275862" cy="380" r="7.25" style="fill: #2ca02c;"/><text/><text/><text y="380" x="930" class="label" style="fill: #2ca02c;">An Analysis-Revision Cycle to...</text></g><g class="journal"><circle cx="310.3448275862069" cy="400" r="2.999999999999" style="fill: #2ca02c;"/><circle cx="279.3103448275862" cy="400" r="7.499999999998001" style="fill: #2ca02c;"/><circle cx="186.20689655172413" cy="400" r="2.5000000000002" style="fill: #2ca02c;"/><text/><text/><text/><text y="400" x="930" class="label" style="fill: #2ca02c;">How to Identify Binary...</text></g><g class="journal"><circle cx="341.37931034482756" cy="420" r="2.777777777777" style="fill: #2ca02c;"/><circle cx="310.3448275862069" cy="420" r="2.777777777777" style="fill: #2ca02c;"/><circle cx="279.3103448275862" cy="420" r="7.444444444445999" style="fill: #2ca02c;"/><text/><text/><text/><text y="420" x="930" class="label" style="fill: #2ca02c;">Requirements engineering: from...</text></g><rect width="10" height="450" x="915" y="1380" style="fill: #ffffff;"/></g><g><g class="journal"><circle cx="372.41379310344826" cy="440" r="5.5" style="fill: #d62728;"/><circle cx="403.44827586206895" cy="440" r="5.5" style="fill: #d62728;"/><text/><text/><text y="440" x="930" class="label" style="fill: #d62728;">Software Architecture...</text></g><g class="journal"><circle cx="372.41379310344826" cy="460" r="4.333333333331" style="fill: #d62728;"/><circle cx="403.44827586206895" cy="460" r="6.666666666669" style="fill: #d62728;"/><text/><text/><text y="460" x="930" class="label" style="fill: #d62728;">Formal interpreters for...</text></g><g class="journal"><circle cx="372.41379310344826" cy="480" r="4.8" style="fill: #d62728;"/><circle cx="93.10344827586206" cy="480" r="2.04666666666669" style="fill: #d62728;"/><circle cx="217.24137931034483" cy="480" r="2.04666666666669" style="fill: #d62728;"/><circle cx="434.48275862068965" cy="480" r="2.7466666666690003" style="fill: #d62728;"/><circle cx="465.51724137931035" cy="480" r="2.04666666666669" style="fill: #d62728;"/><circle cx="496.55172413793105" cy="480" r="2.04666666666669" style="fill: #d62728;"/><circle cx="310.3448275862069" cy="480" r="2.28" style="fill: #d62728;"/><circle cx="403.44827586206895" cy="480" r="4.893333333331" style="fill: #d62728;"/><circle cx="527.5862068965516" cy="480" r="2.04666666666669" style="fill: #d62728;"/><circle cx="155.17241379310346" cy="480" r="2.04666666666669" style="fill: #d62728;"/><text/><text/><text/><text/><text/><text/><text/><text/><text/><text/><text y="480" x="930" class="label" style="fill: #d62728;">SPQR: Flexible Automated...</text></g><g class="journal"><circle cx="372.41379310344826" cy="500" r="5.5" style="fill: #d62728;"/><circle cx="403.44827586206895" cy="500" r="5.5" style="fill: #d62728;"/><text/><text/><text y="500" x="930" class="label" style="fill: #d62728;">Improving API documentation...</text></g><g class="journal"><circle cx="372.41379310344826" cy="520" r="7.833333333331" style="fill: #d62728;"/><circle cx="403.44827586206895" cy="520" r="3.166666666669" style="fill: #d62728;"/><text/><text/><text y="520" x="930" class="label" style="fill: #d62728;">The universe model: an...</text></g><rect width="10" height="450" x="915" y="1830" style="fill: #ffffff;"/></g><g><g class="journal"><circle cx="558.6206896551724" cy="540" r="5.5" style="fill: #9467bd;"/><circle cx="527.5862068965516" cy="540" r="5.5" style="fill: #9467bd;"/><text/><text/><text y="540" x="930" class="label" style="fill: #9467bd;">Moral Dominance Relations for...</text></g><g class="journal"><circle cx="558.6206896551724" cy="560" r="5.5" style="fill: #9467bd;"/><circle cx="527.5862068965516" cy="560" r="5.5" style="fill: #9467bd;"/><text/><text/><text y="560" x="930" class="label" style="fill: #9467bd;">Semantics-based reverse...</text></g><rect width="10" height="180" x="915" y="930" style="fill: #ffffff;"/></g><g><g class="journal"><circle cx="341.37931034482756" cy="580" r="5.5" style="fill: #8c564b;"/><circle cx="589.6551724137931" cy="580" r="5.5" style="fill: #8c564b;"/><text/><text/><text y="580" x="930" class="label" style="fill: #8c564b;">An Algebraic Specification of...</text></g><g class="journal"><circle cx="341.37931034482756" cy="600" r="5.5" style="fill: #8c564b;"/><circle cx="589.6551724137931" cy="600" r="5.5" style="fill: #8c564b;"/><text/><text/><text y="600" x="930" class="label" style="fill: #8c564b;">On the Modelling, Analysis and...</text></g><rect width="10" height="180" x="915" y="1110" style="fill: #ffffff;"/></g><g><g class="journal"><circle cx="620.6896551724138" cy="620" r="3.4000000000000004" style="fill: #e377c2;"/><circle cx="651.7241379310345" cy="620" r="7.6" style="fill: #e377c2;"/><text/><text/><text y="620" x="930" class="label" style="fill: #e377c2;">An Introduction to Rapid...</text></g><g class="journal"><circle cx="682.7586206896551" cy="640" r="2.875" style="fill: #e377c2;"/><circle cx="651.7241379310345" cy="640" r="8.125" style="fill: #e377c2;"/><text/><text/><text y="640" x="930" class="label" style="fill: #e377c2;">Communication Metrics for...</text></g><rect width="10" height="180" x="915" y="1290" style="fill: #ffffff;"/></g><g><g class="journal"><circle cx="713.7931034482759" cy="660" r="4.333333333331" style="fill: #7f7f7f;"/><circle cx="744.8275862068965" cy="660" r="6.666666666669" style="fill: #7f7f7f;"/><text/><text/><text y="660" x="930" class="label" style="fill: #7f7f7f;">Parametric Graph Drawing.</text></g><g class="journal"><circle cx="372.41379310344826" cy="680" r="2.5833333333331" style="fill: #7f7f7f;"/><circle cx="31.03448275862069" cy="680" r="2.1944444444446" style="fill: #7f7f7f;"/><circle cx="682.7586206896551" cy="680" r="2.4666666666669" style="fill: #7f7f7f;"/><circle cx="744.8275862068965" cy="680" r="6.083333333331" style="fill: #7f7f7f;"/><circle cx="465.51724137931035" cy="680" r="2.2333333333331" style="fill: #7f7f7f;"/><circle cx="496.55172413793105" cy="680" r="3.205555555554" style="fill: #7f7f7f;"/><circle cx="248.27586206896552" cy="680" r="2.1944444444446" style="fill: #7f7f7f;"/><circle cx="0" cy="680" r="2.03888888888892" style="fill: #7f7f7f;"/><text/><text/><text/><text/><text/><text/><text/><text/><text y="680" x="930" class="label" style="fill: #7f7f7f;">Designing Software...</text></g><g class="journal"><circle cx="744.8275862068965" cy="700" r="7.25" style="fill: #7f7f7f;"/><circle cx="434.48275862068965" cy="700" r="3.75" style="fill: #7f7f7f;"/><text/><text/><text y="700" x="930" class="label" style="fill: #7f7f7f;">Using KIV to Specify and...</text></g><rect width="10" height="270" x="915" y="2190" style="fill: #ffffff;"/></g><g><g class="journal"><circle cx="775.8620689655172" cy="720" r="2.003837719298245" style="fill: #bcbd22;"/><circle cx="806.8965517241379" cy="720" r="7.264718364198999" style="fill: #bcbd22;"/><circle cx="465.51724137931035" cy="720" r="3.023533950614" style="fill: #bcbd22;"/><circle cx="558.6206896551724" cy="720" r="2.0002398574561404" style="fill: #bcbd22;"/><circle cx="837.9310344827586" cy="720" r="2.003837719298245" style="fill: #bcbd22;"/><circle cx="217.24137931034483" cy="720" r="2.0756172839506" style="fill: #bcbd22;"/><circle cx="341.37931034482756" cy="720" r="2.00729166666669" style="fill: #bcbd22;"/><circle cx="651.7241379310345" cy="720" r="2.0121527777777697" style="fill: #bcbd22;"/><circle cx="31.03448275862069" cy="720" r="2.0121527777777697" style="fill: #bcbd22;"/><circle cx="248.27586206896552" cy="720" r="2.001998812134501" style="fill: #bcbd22;"/><circle cx="434.48275862068965" cy="720" r="2.2291260558804" style="fill: #bcbd22;"/><circle cx="124.13793103448276" cy="720" r="2.05162265472707" style="fill: #bcbd22;"/><circle cx="372.41379310344826" cy="720" r="2.004996141975307" style="fill: #bcbd22;"/><circle cx="186.20689655172413" cy="720" r="2.1482638888892" style="fill: #bcbd22;"/><circle cx="682.7586206896551" cy="720" r="2.002430555555554" style="fill: #bcbd22;"/><circle cx="62.06896551724138" cy="720" r="2.001465795565304" style="fill: #bcbd22;"/><circle cx="310.3448275862069" cy="720" r="2.0002700617283953" style="fill: #bcbd22;"/><circle cx="527.5862068965516" cy="720" r="2.1482638888892" style="fill: #bcbd22;"/><circle cx="868.9655172413793" cy="720" r="2.0001350308641976" style="fill: #bcbd22;"/><circle cx="93.10344827586206" cy="720" r="2.002508731319038" style="fill: #bcbd22;"/><circle cx="279.3103448275862" cy="720" r="2.005536265432096" style="fill: #bcbd22;"/><text/><text/><text/><text/><text/><text/><text/><text/><text/><text/><text/><text/><text/><text/><text/><text/><text/><text/><text/><text/><text/><text y="720" x="930" class="label" style="fill: #bcbd22;">Design Recovery for...</text></g><rect width="10" height="90" x="915" y="840" style="fill: #ffffff;"/></g></g></svg>
