<svg xmlns="http://www.w3.org/2000/svg" width="1420" height="1220" id="bundles" style="margin-left: 20px;"><g transform="translate(20,100)"><g class="x axis" transform="translate(0,90)"><g class="tick" transform="translate(0,0)" style="opacity: 1;"><line y2="-6" x2="0"/><text dy="1em" y="-9" x="0" dx="1em" transform="rotate(290)" style="text-anchor: start;">ADAPTIVE SYSTEMS</text></g><g class="tick" transform="translate(25,0)" style="opacity: 1;"><line y2="-6" x2="0"/><text dy="1em" y="-9" x="0" dx="1em" transform="rotate(290)" style="text-anchor: start;">ARCHITECTURES</text></g><g class="tick" transform="translate(50,0)" style="opacity: 1;"><line y2="-6" x2="0"/><text dy="1em" y="-9" x="0" dx="1em" transform="rotate(290)" style="text-anchor: start;">ARTIFICIAL INTELLIGENCE</text></g><g class="tick" transform="translate(75,0)" style="opacity: 1;"><line y2="-6" x2="0"/><text dy="1em" y="-9" x="0" dx="1em" transform="rotate(290)" style="text-anchor: start;">AUTONOMIC SYSTEMS</text></g><g class="tick" transform="translate(100,0)" style="opacity: 1;"><line y2="-6" x2="0"/><text dy="1em" y="-9" x="0" dx="1em" transform="rotate(290)" style="text-anchor: start;">CONCURRENCY</text></g><g class="tick" transform="translate(125,0)" style="opacity: 1;"><line y2="-6" x2="0"/><text dy="1em" y="-9" x="0" dx="1em" transform="rotate(290)" style="text-anchor: start;">DATABASE</text></g><g class="tick" transform="translate(150,0)" style="opacity: 1;"><line y2="-6" x2="0"/><text dy="1em" y="-9" x="0" dx="1em" transform="rotate(290)" style="text-anchor: start;">DISTRIBUTED SYSTEMS</text></g><g class="tick" transform="translate(175,0)" style="opacity: 1;"><line y2="-6" x2="0"/><text dy="1em" y="-9" x="0" dx="1em" transform="rotate(290)" style="text-anchor: start;">EDUCATION</text></g><g class="tick" transform="translate(200,0)" style="opacity: 1;"><line y2="-6" x2="0"/><text dy="1em" y="-9" x="0" dx="1em" transform="rotate(290)" style="text-anchor: start;">EMBEDDED</text></g><g class="tick" transform="translate(225,0)" style="opacity: 1;"><line y2="-6" x2="0"/><text dy="1em" y="-9" x="0" dx="1em" transform="rotate(290)" style="text-anchor: start;">EMPIRICAL SOFTWARE ENGINEERING</text></g><g class="tick" transform="translate(250,0)" style="opacity: 1;"><line y2="-6" x2="0"/><text dy="1em" y="-9" x="0" dx="1em" transform="rotate(290)" style="text-anchor: start;">EVOLUTION</text></g><g class="tick" transform="translate(275,0)" style="opacity: 1;"><line y2="-6" x2="0"/><text dy="1em" y="-9" x="0" dx="1em" transform="rotate(290)" style="text-anchor: start;">FORMAL METHODS</text></g><g class="tick" transform="translate(300,0)" style="opacity: 1;"><line y2="-6" x2="0"/><text dy="1em" y="-9" x="0" dx="1em" transform="rotate(290)" style="text-anchor: start;">HUMAN COMPUTER INTERACTION</text></g><g class="tick" transform="translate(325,0)" style="opacity: 1;"><line y2="-6" x2="0"/><text dy="1em" y="-9" x="0" dx="1em" transform="rotate(290)" style="text-anchor: start;">INFORMATION SYSTMS</text></g><g class="tick" transform="translate(350,0)" style="opacity: 1;"><line y2="-6" x2="0"/><text dy="1em" y="-9" x="0" dx="1em" transform="rotate(290)" style="text-anchor: start;">KNOWLEDGE ENGINEERING</text></g><g class="tick" transform="translate(375,0)" style="opacity: 1;"><line y2="-6" x2="0"/><text dy="1em" y="-9" x="0" dx="1em" transform="rotate(290)" style="text-anchor: start;">LANGUAGES</text></g><g class="tick" transform="translate(400,0)" style="opacity: 1;"><line y2="-6" x2="0"/><text dy="1em" y="-9" x="0" dx="1em" transform="rotate(290)" style="text-anchor: start;">MAINTENANCE</text></g><g class="tick" transform="translate(425,0)" style="opacity: 1;"><line y2="-6" x2="0"/><text dy="1em" y="-9" x="0" dx="1em" transform="rotate(290)" style="text-anchor: start;">METHODOLOGIES</text></g><g class="tick" transform="translate(450,0)" style="opacity: 1;"><line y2="-6" x2="0"/><text dy="1em" y="-9" x="0" dx="1em" transform="rotate(290)" style="text-anchor: start;">METRICS</text></g><g class="tick" transform="translate(475,0)" style="opacity: 1;"><line y2="-6" x2="0"/><text dy="1em" y="-9" x="0" dx="1em" transform="rotate(290)" style="text-anchor: start;">MODELS</text></g><g class="tick" transform="translate(500,0)" style="opacity: 1;"><line y2="-6" x2="0"/><text dy="1em" y="-9" x="0" dx="1em" transform="rotate(290)" style="text-anchor: start;">OPERATING SYSTEMS</text></g><g class="tick" transform="translate(525,0)" style="opacity: 1;"><line y2="-6" x2="0"/><text dy="1em" y="-9" x="0" dx="1em" transform="rotate(290)" style="text-anchor: start;">PERFORMANCE</text></g><g class="tick" transform="translate(550,0)" style="opacity: 1;"><line y2="-6" x2="0"/><text dy="1em" y="-9" x="0" dx="1em" transform="rotate(290)" style="text-anchor: start;">PRODUCT LINES</text></g><g class="tick" transform="translate(575,0)" style="opacity: 1;"><line y2="-6" x2="0"/><text dy="1em" y="-9" x="0" dx="1em" transform="rotate(290)" style="text-anchor: start;">PROGRAM ANALYSIS</text></g><g class="tick" transform="translate(600,0)" style="opacity: 1;"><line y2="-6" x2="0"/><text dy="1em" y="-9" x="0" dx="1em" transform="rotate(290)" style="text-anchor: start;">PROGRAM COMPREHENSION</text></g><g class="tick" transform="translate(625,0)" style="opacity: 1;"><line y2="-6" x2="0"/><text dy="1em" y="-9" x="0" dx="1em" transform="rotate(290)" style="text-anchor: start;">REAL TIME SYSTEMS</text></g><g class="tick" transform="translate(650,0)" style="opacity: 1;"><line y2="-6" x2="0"/><text dy="1em" y="-9" x="0" dx="1em" transform="rotate(290)" style="text-anchor: start;">RELIABILITY</text></g><g class="tick" transform="translate(675,0)" style="opacity: 1;"><line y2="-6" x2="0"/><text dy="1em" y="-9" x="0" dx="1em" transform="rotate(290)" style="text-anchor: start;">REQUIREMENTS</text></g><g class="tick" transform="translate(700,0)" style="opacity: 1;"><line y2="-6" x2="0"/><text dy="1em" y="-9" x="0" dx="1em" transform="rotate(290)" style="text-anchor: start;">REVERSE ENGINEERING</text></g><g class="tick" transform="translate(725,0)" style="opacity: 1;"><line y2="-6" x2="0"/><text dy="1em" y="-9" x="0" dx="1em" transform="rotate(290)" style="text-anchor: start;">SECURITY</text></g><g class="tick" transform="translate(750,0)" style="opacity: 1;"><line y2="-6" x2="0"/><text dy="1em" y="-9" x="0" dx="1em" transform="rotate(290)" style="text-anchor: start;">SERVICES</text></g><g class="tick" transform="translate(775,0)" style="opacity: 1;"><line y2="-6" x2="0"/><text dy="1em" y="-9" x="0" dx="1em" transform="rotate(290)" style="text-anchor: start;">SOFTWARE QUALITY</text></g><g class="tick" transform="translate(800,0)" style="opacity: 1;"><line y2="-6" x2="0"/><text dy="1em" y="-9" x="0" dx="1em" transform="rotate(290)" style="text-anchor: start;">SYNTHESIS</text></g><g class="tick" transform="translate(825,0)" style="opacity: 1;"><line y2="-6" x2="0"/><text dy="1em" y="-9" x="0" dx="1em" transform="rotate(290)" style="text-anchor: start;">TESTING</text></g><g class="tick" transform="translate(850,0)" style="opacity: 1;"><line y2="-6" x2="0"/><text dy="1em" y="-9" x="0" dx="1em" transform="rotate(290)" style="text-anchor: start;">VISUALIZATION</text></g><g class="tick" transform="translate(875,0)" style="opacity: 1;"><line y2="-6" x2="0"/><text dy="1em" y="-9" x="0" dx="1em" transform="rotate(290)" style="text-anchor: start;">PROCESS</text></g><g class="tick" transform="translate(900,0)" style="opacity: 1;"><line y2="-6" x2="0"/><text dy="1em" y="-9" x="0" dx="1em" transform="rotate(290)" style="text-anchor: start;"/></g><path class="domain" d="M0,-6V0H900V-6"/></g><g><g class="journal"><circle cx="0" cy="120" r="2.000025899402468" style="fill: #17becf;"/><circle cx="25" cy="120" r="2.4541556727967" style="fill: #17becf;"/><circle cx="50" cy="120" r="2.00767900463568" style="fill: #17becf;"/><circle cx="75" cy="120" r="2.0000000042006065" style="fill: #17becf;"/><circle cx="100" cy="120" r="2.000296569043835" style="fill: #17becf;"/><circle cx="125" cy="120" r="2.001707544214789" style="fill: #17becf;"/><circle cx="150" cy="120" r="2.0023628931911692" style="fill: #17becf;"/><circle cx="175" cy="120" r="2.0000050429972935" style="fill: #17becf;"/><circle cx="200" cy="120" r="2.000000020609541" style="fill: #17becf;"/><circle cx="225" cy="120" r="2.01540801765272" style="fill: #17becf;"/><circle cx="250" cy="120" r="2.0051591417311068" style="fill: #17becf;"/><circle cx="275" cy="120" r="2.0735727025271" style="fill: #17becf;"/><circle cx="300" cy="120" r="2.005173062615021" style="fill: #17becf;"/><circle cx="325" cy="120" r="2.001343027931196" style="fill: #17becf;"/><circle cx="350" cy="120" r="2.2300510535547" style="fill: #17becf;"/><circle cx="375" cy="120" r="2.2710967080234" style="fill: #17becf;"/><circle cx="400" cy="120" r="2.3383274657063" style="fill: #17becf;"/><circle cx="425" cy="120" r="2.0006590713503822" style="fill: #17becf;"/><circle cx="450" cy="120" r="2.0172655759138802" style="fill: #17becf;"/><circle cx="475" cy="120" r="2.04033655478489" style="fill: #17becf;"/><circle cx="500" cy="120" r="2.000057763573389" style="fill: #17becf;"/><circle cx="525" cy="120" r="2.0000010496575586" style="fill: #17becf;"/><circle cx="550" cy="120" r="2.0002797032274953" style="fill: #17becf;"/><circle cx="575" cy="120" r="2.4859541444296" style="fill: #17becf;"/><circle cx="600" cy="120" r="3.7156247641049998" style="fill: #17becf;"/><circle cx="625" cy="120" r="2.0000002527409264" style="fill: #17becf;"/><circle cx="650" cy="120" r="2.00343920496108" style="fill: #17becf;"/><circle cx="675" cy="120" r="2.0019512008933127" style="fill: #17becf;"/><circle cx="700" cy="120" r="4.910959005535" style="fill: #17becf;"/><circle cx="725" cy="120" r="2.000003448910957" style="fill: #17becf;"/><circle cx="750" cy="120" r="2.002331890809416" style="fill: #17becf;"/><circle cx="775" cy="120" r="2.01233698649897" style="fill: #17becf;"/><circle cx="800" cy="120" r="2.2477718269943" style="fill: #17becf;"/><circle cx="825" cy="120" r="2.1496219568073998" style="fill: #17becf;"/><circle cx="850" cy="120" r="2.0050417679729478" style="fill: #17becf;"/><text/><text/><text/><text/><text/><text/><text/><text/><text/><text/><text/><text/><text/><text/><text/><text/><text/><text/><text/><text/><text/><text/><text/><text/><text/><text/><text/><text/><text/><text/><text/><text/><text/><text/><text/><text y="120" x="930" class="label" style="fill: #17becf;">Program Concept Recognition...</text></g><g class="journal"><circle cx="0" cy="140" r="2.001443289197812" style="fill: #17becf;"/><circle cx="25" cy="140" r="2.2109270595117" style="fill: #17becf;"/><circle cx="50" cy="140" r="2.004231799970853" style="fill: #17becf;"/><circle cx="100" cy="140" r="2.000315634591653" style="fill: #17becf;"/><circle cx="125" cy="140" r="2.004289286003086" style="fill: #17becf;"/><circle cx="150" cy="140" r="2.06543648517161" style="fill: #17becf;"/><circle cx="175" cy="140" r="2.001783287332176" style="fill: #17becf;"/><circle cx="225" cy="140" r="2.05642680618365" style="fill: #17becf;"/><circle cx="250" cy="140" r="2.1876045050663" style="fill: #17becf;"/><circle cx="275" cy="140" r="2.1398539361891" style="fill: #17becf;"/><circle cx="300" cy="140" r="2.002681861686273" style="fill: #17becf;"/><circle cx="325" cy="140" r="2.0024224062125198" style="fill: #17becf;"/><circle cx="350" cy="140" r="2.1964110940764" style="fill: #17becf;"/><circle cx="375" cy="140" r="2.3855876351131" style="fill: #17becf;"/><circle cx="400" cy="140" r="2.4613523819149" style="fill: #17becf;"/><circle cx="425" cy="140" r="2.0895817996514" style="fill: #17becf;"/><circle cx="450" cy="140" r="2.5548519924059" style="fill: #17becf;"/><circle cx="475" cy="140" r="2.0246847567724098" style="fill: #17becf;"/><circle cx="500" cy="140" r="2.0014245014245" style="fill: #17becf;"/><circle cx="525" cy="140" r="2.000104815998481" style="fill: #17becf;"/><circle cx="550" cy="140" r="2.01424140107096" style="fill: #17becf;"/><circle cx="575" cy="140" r="2.1065757969983" style="fill: #17becf;"/><circle cx="600" cy="140" r="3.455051370843" style="fill: #17becf;"/><circle cx="625" cy="140" r="2.0129366014829797" style="fill: #17becf;"/><circle cx="650" cy="140" r="2.0825227037866" style="fill: #17becf;"/><circle cx="675" cy="140" r="2.01746892143941" style="fill: #17becf;"/><circle cx="700" cy="140" r="4.352995392972" style="fill: #17becf;"/><circle cx="750" cy="140" r="2.02968563919314" style="fill: #17becf;"/><circle cx="775" cy="140" r="2.06242589854039" style="fill: #17becf;"/><circle cx="800" cy="140" r="2.03091061400308" style="fill: #17becf;"/><circle cx="825" cy="140" r="2.326844194985" style="fill: #17becf;"/><circle cx="850" cy="140" r="2.1169261302104" style="fill: #17becf;"/><text/><text/><text/><text/><text/><text/><text/><text/><text/><text/><text/><text/><text/><text/><text/><text/><text/><text/><text/><text/><text/><text/><text/><text/><text/><text/><text/><text/><text/><text/><text/><text/><text y="140" x="930" class="label" style="fill: #17becf;">Lightweight Lexical Source...</text></g><g class="journal"><circle cx="600" cy="160" r="4.333333333331" style="fill: #17becf;"/><circle cx="700" cy="160" r="6.666666666669" style="fill: #17becf;"/><text/><text/><text y="160" x="930" class="label" style="fill: #17becf;">A Scalable, Automated Process...</text></g><g class="journal"><circle cx="625" cy="180" r="2.00881881212765" style="fill: #17becf;"/><circle cx="850" cy="180" r="2.252008842365" style="fill: #17becf;"/><circle cx="0" cy="180" r="2.01159498402146" style="fill: #17becf;"/><circle cx="575" cy="180" r="2.1780936414593" style="fill: #17becf;"/><circle cx="525" cy="180" r="2.0964564163093997" style="fill: #17becf;"/><circle cx="500" cy="180" r="2.0000000022307165" style="fill: #17becf;"/><circle cx="50" cy="180" r="2.001014179654026" style="fill: #17becf;"/><circle cx="650" cy="180" r="2.0983295247543" style="fill: #17becf;"/><circle cx="600" cy="180" r="2.4999624116949" style="fill: #17becf;"/><circle cx="825" cy="180" r="2.03518103441475" style="fill: #17becf;"/><circle cx="225" cy="180" r="2.2054397194969" style="fill: #17becf;"/><circle cx="100" cy="180" r="2.005606574716631" style="fill: #17becf;"/><circle cx="550" cy="180" r="2.004315245371654" style="fill: #17becf;"/><circle cx="700" cy="180" r="4.924093139618" style="fill: #17becf;"/><circle cx="475" cy="180" r="2.1746159650746" style="fill: #17becf;"/><circle cx="450" cy="180" r="2.2940933800153998" style="fill: #17becf;"/><circle cx="775" cy="180" r="2.1586077614527" style="fill: #17becf;"/><circle cx="250" cy="180" r="2.025103507821" style="fill: #17becf;"/><circle cx="275" cy="180" r="2.2657264572193" style="fill: #17becf;"/><circle cx="300" cy="180" r="2.02212200263056" style="fill: #17becf;"/><circle cx="400" cy="180" r="2.4445642193629" style="fill: #17becf;"/><circle cx="125" cy="180" r="2.000281112818662" style="fill: #17becf;"/><circle cx="800" cy="180" r="2.00999458414171" style="fill: #17becf;"/><circle cx="325" cy="180" r="2.00908334289569" style="fill: #17becf;"/><circle cx="150" cy="180" r="2.2975275052932003" style="fill: #17becf;"/><circle cx="425" cy="180" r="2.2311825766152" style="fill: #17becf;"/><circle cx="350" cy="180" r="2.1372493416273" style="fill: #17becf;"/><circle cx="25" cy="180" r="2.3196725745003" style="fill: #17becf;"/><circle cx="750" cy="180" r="2.006023814066396" style="fill: #17becf;"/><circle cx="375" cy="180" r="2.1888650550325" style="fill: #17becf;"/><circle cx="175" cy="180" r="2.0322024894110498" style="fill: #17becf;"/><circle cx="675" cy="180" r="2.06216978178397" style="fill: #17becf;"/><text/><text/><text/><text/><text/><text/><text/><text/><text/><text/><text/><text/><text/><text/><text/><text/><text/><text/><text/><text/><text/><text/><text/><text/><text/><text/><text/><text/><text/><text/><text/><text/><text y="180" x="930" class="label" style="fill: #17becf;">Software Reflexion Models:...</text></g><g class="journal"><circle cx="700" cy="200" r="6.199999999999999" style="fill: #17becf;"/><circle cx="600" cy="200" r="4.8" style="fill: #17becf;"/><text/><text/><text y="200" x="930" class="label" style="fill: #17becf;">A Formal Automated Approach...</text></g><rect width="10" height="450" x="915" y="30" style="fill: #ffffff;"/></g><g><g class="journal"><circle cx="375" cy="220" r="5.5" style="fill: #1f77b4;"/><circle cx="275" cy="220" r="5.5" style="fill: #1f77b4;"/><text/><text/><text y="220" x="930" class="label" style="fill: #1f77b4;">A Domain-Specific Language for...</text></g><g class="journal"><circle cx="275" cy="240" r="5.5" style="fill: #1f77b4;"/><circle cx="375" cy="240" r="5.5" style="fill: #1f77b4;"/><text/><text/><text y="240" x="930" class="label" style="fill: #1f77b4;">Composition and Refinement of...</text></g><g class="journal"><circle cx="275" cy="260" r="5.5" style="fill: #1f77b4;"/><circle cx="375" cy="260" r="5.5" style="fill: #1f77b4;"/><text/><text/><text y="260" x="930" class="label" style="fill: #1f77b4;">Tutorial on JML, the java...</text></g><g class="journal"><circle cx="275" cy="280" r="5.5" style="fill: #1f77b4;"/><circle cx="375" cy="280" r="5.5" style="fill: #1f77b4;"/><text/><text/><text y="280" x="930" class="label" style="fill: #1f77b4;">Integrating static analysis...</text></g><g class="journal"><circle cx="275" cy="300" r="5.5" style="fill: #1f77b4;"/><circle cx="375" cy="300" r="5.5" style="fill: #1f77b4;"/><text/><text/><text y="300" x="930" class="label" style="fill: #1f77b4;">Interpolation for data...</text></g><rect width="10" height="450" x="915" y="480" style="fill: #ffffff;"/></g><g><g class="journal"><circle cx="375" cy="320" r="5.5" style="fill: #ff7f0e;"/><circle cx="275" cy="320" r="5.5" style="fill: #ff7f0e;"/><text/><text/><text y="320" x="930" class="label" style="fill: #ff7f0e;">A New Method of Image...</text></g><g class="journal"><circle cx="275" cy="340" r="5.5" style="fill: #ff7f0e;"/><circle cx="375" cy="340" r="5.5" style="fill: #ff7f0e;"/><text/><text/><text y="340" x="930" class="label" style="fill: #ff7f0e;">Foundations of incremental...</text></g><g class="journal"><circle cx="275" cy="360" r="5.5" style="fill: #ff7f0e;"/><circle cx="375" cy="360" r="5.5" style="fill: #ff7f0e;"/><text/><text/><text y="360" x="930" class="label" style="fill: #ff7f0e;">Deviation Analysis Through...</text></g><g class="journal"><circle cx="275" cy="380" r="5.5" style="fill: #ff7f0e;"/><circle cx="375" cy="380" r="5.5" style="fill: #ff7f0e;"/><text/><text/><text y="380" x="930" class="label" style="fill: #ff7f0e;">Effective static deadlock...</text></g><g class="journal"><circle cx="275" cy="400" r="5.5" style="fill: #ff7f0e;"/><circle cx="375" cy="400" r="5.5" style="fill: #ff7f0e;"/><text/><text/><text y="400" x="930" class="label" style="fill: #ff7f0e;">Alchemy: transmuting base...</text></g><rect width="10" height="450" x="915" y="930" style="fill: #ffffff;"/></g><g><g class="journal"><circle cx="275" cy="420" r="4.333333333331" style="fill: #2ca02c;"/><circle cx="375" cy="420" r="6.666666666669" style="fill: #2ca02c;"/><text/><text/><text y="420" x="930" class="label" style="fill: #2ca02c;">Design and Specification of...</text></g><g class="journal"><circle cx="275" cy="440" r="3.75" style="fill: #2ca02c;"/><circle cx="375" cy="440" r="7.25" style="fill: #2ca02c;"/><text/><text/><text y="440" x="930" class="label" style="fill: #2ca02c;">Effective typestate...</text></g><g class="journal"><circle cx="275" cy="460" r="3.75" style="fill: #2ca02c;"/><circle cx="375" cy="460" r="6.375" style="fill: #2ca02c;"/><circle cx="825" cy="460" r="2.875" style="fill: #2ca02c;"/><text/><text/><text/><text y="460" x="930" class="label" style="fill: #2ca02c;">Accurate Centralization for...</text></g><g class="journal"><circle cx="275" cy="480" r="4.333333333331" style="fill: #2ca02c;"/><circle cx="375" cy="480" r="6.666666666669" style="fill: #2ca02c;"/><text/><text/><text y="480" x="930" class="label" style="fill: #2ca02c;">The Property Vector...</text></g><g class="journal"><circle cx="825" cy="500" r="2.0546875" style="fill: #2ca02c;"/><circle cx="25" cy="500" r="2.4921875" style="fill: #2ca02c;"/><circle cx="400" cy="500" r="2.1276041666668997" style="fill: #2ca02c;"/><circle cx="375" cy="500" r="6.065104166669" style="fill: #2ca02c;"/><circle cx="575" cy="500" r="2.0546875" style="fill: #2ca02c;"/><circle cx="475" cy="500" r="2.2552083333331003" style="fill: #2ca02c;"/><circle cx="500" cy="500" r="2.0546875" style="fill: #2ca02c;"/><circle cx="775" cy="500" r="2.0729166666669" style="fill: #2ca02c;"/><circle cx="275" cy="500" r="3.75" style="fill: #2ca02c;"/><circle cx="600" cy="500" r="2.0729166666669" style="fill: #2ca02c;"/><text/><text/><text/><text/><text/><text/><text/><text/><text/><text/><text y="500" x="930" class="label" style="fill: #2ca02c;">Using Specialized Procedures...</text></g><rect width="10" height="450" x="915" y="1380" style="fill: #ffffff;"/></g><g><g class="journal"><circle cx="475" cy="520" r="5.5" style="fill: #d62728;"/><circle cx="275" cy="520" r="5.5" style="fill: #d62728;"/><text/><text/><text y="520" x="930" class="label" style="fill: #d62728;">Synthesis of Partial Behavior...</text></g><g class="journal"><circle cx="375" cy="540" r="3.166666666669" style="fill: #d62728;"/><circle cx="475" cy="540" r="5.5" style="fill: #d62728;"/><circle cx="275" cy="540" r="4.333333333331" style="fill: #d62728;"/><text/><text/><text/><text y="540" x="930" class="label" style="fill: #d62728;">Coordinating Rule-Based...</text></g><g class="journal"><circle cx="275" cy="560" r="5.5" style="fill: #d62728;"/><circle cx="475" cy="560" r="5.5" style="fill: #d62728;"/><text/><text/><text y="560" x="930" class="label" style="fill: #d62728;">A tool for automatic UML model...</text></g><g class="journal"><circle cx="275" cy="580" r="5.5" style="fill: #d62728;"/><circle cx="475" cy="580" r="5.5" style="fill: #d62728;"/><text/><text/><text y="580" x="930" class="label" style="fill: #d62728;">Customizaton and Compositon of...</text></g><g class="journal"><circle cx="475" cy="600" r="4.625" style="fill: #d62728;"/><circle cx="725" cy="600" r="2.175" style="fill: #d62728;"/><circle cx="150" cy="600" r="2.175" style="fill: #d62728;"/><circle cx="350" cy="600" r="2.175" style="fill: #d62728;"/><circle cx="650" cy="600" r="2.175" style="fill: #d62728;"/><circle cx="275" cy="600" r="5.675000000000001" style="fill: #d62728;"/><text/><text/><text/><text/><text/><text/><text y="600" x="930" class="label" style="fill: #d62728;">An Environment for Specifying...</text></g><rect width="10" height="450" x="915" y="1830" style="fill: #ffffff;"/></g><g><g class="journal"><circle cx="825" cy="620" r="4.625" style="fill: #9467bd;"/><circle cx="375" cy="620" r="2.875" style="fill: #9467bd;"/><circle cx="275" cy="620" r="5.5" style="fill: #9467bd;"/><text/><text/><text/><text y="620" x="930" class="label" style="fill: #9467bd;">Discovering Documentation for...</text></g><g class="journal"><circle cx="825" cy="640" r="4.625" style="fill: #9467bd;"/><circle cx="375" cy="640" r="2.875" style="fill: #9467bd;"/><circle cx="275" cy="640" r="5.5" style="fill: #9467bd;"/><text/><text/><text/><text y="640" x="930" class="label" style="fill: #9467bd;">Developing and debugging...</text></g><g class="journal"><circle cx="275" cy="660" r="6.666666666669" style="fill: #9467bd;"/><circle cx="825" cy="660" r="4.333333333331" style="fill: #9467bd;"/><text/><text/><text y="660" x="930" class="label" style="fill: #9467bd;">Reggae: Automated Test...</text></g><g class="journal"><circle cx="200" cy="680" r="2.0729166666669" style="fill: #9467bd;"/><circle cx="275" cy="680" r="6.15625" style="fill: #9467bd;"/><circle cx="375" cy="680" r="2.5833333333331" style="fill: #9467bd;"/><circle cx="400" cy="680" r="2.0729166666669" style="fill: #9467bd;"/><circle cx="775" cy="680" r="2.21875" style="fill: #9467bd;"/><circle cx="825" cy="680" r="3.8958333333310002" style="fill: #9467bd;"/><text/><text/><text/><text/><text/><text/><text y="680" x="930" class="label" style="fill: #9467bd;">Automated systematic testing...</text></g><g class="journal"><circle cx="825" cy="700" r="3.385416666669" style="fill: #9467bd;"/><circle cx="200" cy="700" r="2.2552083333331003" style="fill: #9467bd;"/><circle cx="400" cy="700" r="2.2552083333331003" style="fill: #9467bd;"/><circle cx="375" cy="700" r="2.2916666666668997" style="fill: #9467bd;"/><circle cx="775" cy="700" r="2.765625" style="fill: #9467bd;"/><circle cx="275" cy="700" r="6.046875" style="fill: #9467bd;"/><text/><text/><text/><text/><text/><text/><text y="700" x="930" class="label" style="fill: #9467bd;">A Scalable Formal Method for...</text></g><rect width="10" height="450" x="915" y="2280" style="fill: #ffffff;"/></g><g><g class="journal"><circle cx="850" cy="720" r="2.1366478575021" style="fill: #8c564b;"/><circle cx="575" cy="720" r="2.1370586217434" style="fill: #8c564b;"/><circle cx="50" cy="720" r="2.1483144433512003" style="fill: #8c564b;"/><circle cx="650" cy="720" r="2.01739719195291" style="fill: #8c564b;"/><circle cx="600" cy="720" r="2.9074494623950002" style="fill: #8c564b;"/><circle cx="825" cy="720" r="2.0011075952692767" style="fill: #8c564b;"/><circle cx="225" cy="720" r="2.0507019056814197" style="fill: #8c564b;"/><circle cx="550" cy="720" r="2.0956604720148" style="fill: #8c564b;"/><circle cx="475" cy="720" r="2.06394428578307" style="fill: #8c564b;"/><circle cx="700" cy="720" r="2.4696210010317" style="fill: #8c564b;"/><circle cx="450" cy="720" r="2.0962664226789998" style="fill: #8c564b;"/><circle cx="775" cy="720" r="2.01425760313516" style="fill: #8c564b;"/><circle cx="250" cy="720" r="2.01586893875588" style="fill: #8c564b;"/><circle cx="275" cy="720" r="2.06234200725403" style="fill: #8c564b;"/><circle cx="300" cy="720" r="2.0947058467558" style="fill: #8c564b;"/><circle cx="400" cy="720" r="6.256655671429" style="fill: #8c564b;"/><circle cx="800" cy="720" r="2.1727971523551" style="fill: #8c564b;"/><circle cx="325" cy="720" r="2.05015233665449" style="fill: #8c564b;"/><circle cx="150" cy="720" r="2.005421607786483" style="fill: #8c564b;"/><circle cx="425" cy="720" r="2.005265950969734" style="fill: #8c564b;"/><circle cx="350" cy="720" r="2.02833138526288" style="fill: #8c564b;"/><circle cx="25" cy="720" r="2.02758947475858" style="fill: #8c564b;"/><circle cx="750" cy="720" r="2.002862590380153" style="fill: #8c564b;"/><circle cx="375" cy="720" r="2.1364645869769" style="fill: #8c564b;"/><circle cx="175" cy="720" r="2.0002162095102385" style="fill: #8c564b;"/><circle cx="675" cy="720" r="2.002899378612893" style="fill: #8c564b;"/><text/><text/><text/><text/><text/><text/><text/><text/><text/><text/><text/><text/><text/><text/><text/><text/><text/><text/><text/><text/><text/><text/><text/><text/><text/><text/><text y="720" x="930" class="label" style="fill: #8c564b;">An Extensible System for...</text></g><g class="journal"><circle cx="300" cy="740" r="2.5384615384617" style="fill: #8c564b;"/><circle cx="850" cy="740" r="2.02692307692305" style="fill: #8c564b;"/><circle cx="400" cy="740" r="5.4730769230780005" style="fill: #8c564b;"/><circle cx="225" cy="740" r="2.1076923076922" style="fill: #8c564b;"/><circle cx="375" cy="740" r="2.5384615384617" style="fill: #8c564b;"/><circle cx="800" cy="740" r="2.1076923076922" style="fill: #8c564b;"/><circle cx="575" cy="740" r="2.5653846153844" style="fill: #8c564b;"/><circle cx="700" cy="740" r="2.5384615384617" style="fill: #8c564b;"/><circle cx="450" cy="740" r="2.02692307692305" style="fill: #8c564b;"/><circle cx="350" cy="740" r="2.5384615384617" style="fill: #8c564b;"/><circle cx="600" cy="740" r="2.5384615384617" style="fill: #8c564b;"/><text/><text/><text/><text/><text/><text/><text/><text/><text/><text/><text/><text y="740" x="930" class="label" style="fill: #8c564b;">The Desert environment.</text></g><g class="journal"><circle cx="25" cy="760" r="2.02758947475858" style="fill: #8c564b;"/><circle cx="50" cy="760" r="2.1483144433512003" style="fill: #8c564b;"/><circle cx="150" cy="760" r="2.005421607786483" style="fill: #8c564b;"/><circle cx="175" cy="760" r="2.0002162095102385" style="fill: #8c564b;"/><circle cx="225" cy="760" r="2.0507019056814197" style="fill: #8c564b;"/><circle cx="250" cy="760" r="2.01586893875588" style="fill: #8c564b;"/><circle cx="275" cy="760" r="2.06234200725403" style="fill: #8c564b;"/><circle cx="300" cy="760" r="2.0947058467558" style="fill: #8c564b;"/><circle cx="325" cy="760" r="2.05015233665449" style="fill: #8c564b;"/><circle cx="350" cy="760" r="2.02833138526288" style="fill: #8c564b;"/><circle cx="375" cy="760" r="2.1364645869769" style="fill: #8c564b;"/><circle cx="400" cy="760" r="6.256655671429" style="fill: #8c564b;"/><circle cx="425" cy="760" r="2.005265950969734" style="fill: #8c564b;"/><circle cx="450" cy="760" r="2.0962664226789998" style="fill: #8c564b;"/><circle cx="475" cy="760" r="2.06394428578307" style="fill: #8c564b;"/><circle cx="550" cy="760" r="2.0956604720148" style="fill: #8c564b;"/><circle cx="575" cy="760" r="2.1370586217434" style="fill: #8c564b;"/><circle cx="600" cy="760" r="2.9074494623950002" style="fill: #8c564b;"/><circle cx="650" cy="760" r="2.01739719195291" style="fill: #8c564b;"/><circle cx="675" cy="760" r="2.002899378612893" style="fill: #8c564b;"/><circle cx="700" cy="760" r="2.4696210010317" style="fill: #8c564b;"/><circle cx="750" cy="760" r="2.002862590380153" style="fill: #8c564b;"/><circle cx="775" cy="760" r="2.01425760313516" style="fill: #8c564b;"/><circle cx="800" cy="760" r="2.1727971523551" style="fill: #8c564b;"/><circle cx="825" cy="760" r="2.0011075952692767" style="fill: #8c564b;"/><circle cx="850" cy="760" r="2.1366478575021" style="fill: #8c564b;"/><text/><text/><text/><text/><text/><text/><text/><text/><text/><text/><text/><text/><text/><text/><text/><text/><text/><text/><text/><text/><text/><text/><text/><text/><text/><text/><text y="760" x="930" class="label" style="fill: #8c564b;">Automated Construction of...</text></g><g class="journal"><circle cx="625" cy="780" r="2.0000051324664643" style="fill: #8c564b;"/><circle cx="850" cy="780" r="2.02438493304443" style="fill: #8c564b;"/><circle cx="0" cy="780" r="2.0000000002213745" style="fill: #8c564b;"/><circle cx="575" cy="780" r="2.9338476518350003" style="fill: #8c564b;"/><circle cx="500" cy="780" r="2.000000628541809" style="fill: #8c564b;"/><circle cx="50" cy="780" r="2.0157966948489703" style="fill: #8c564b;"/><circle cx="650" cy="780" r="2.0004109319458685" style="fill: #8c564b;"/><circle cx="600" cy="780" r="2.2237745079899" style="fill: #8c564b;"/><circle cx="825" cy="780" r="2.0774962262662" style="fill: #8c564b;"/><circle cx="225" cy="780" r="2.2073948697506003" style="fill: #8c564b;"/><circle cx="100" cy="780" r="2.0000000001525176" style="fill: #8c564b;"/><circle cx="550" cy="780" r="2.000022411891855" style="fill: #8c564b;"/><circle cx="700" cy="780" r="2.2857570506784" style="fill: #8c564b;"/><circle cx="475" cy="780" r="2.0103579064117203" style="fill: #8c564b;"/><circle cx="450" cy="780" r="2.1395630100697" style="fill: #8c564b;"/><circle cx="775" cy="780" r="2.2333861668397" style="fill: #8c564b;"/><circle cx="250" cy="780" r="2.0007993194770752" style="fill: #8c564b;"/><circle cx="275" cy="780" r="2.1108255552082" style="fill: #8c564b;"/><circle cx="300" cy="780" r="2.000381410609162" style="fill: #8c564b;"/><circle cx="400" cy="780" r="5.732009529346" style="fill: #8c564b;"/><circle cx="125" cy="780" r="2.001989480004295" style="fill: #8c564b;"/><circle cx="800" cy="780" r="2.006853699208587" style="fill: #8c564b;"/><circle cx="325" cy="780" r="2.00788947358941" style="fill: #8c564b;"/><circle cx="150" cy="780" r="2.4111173737937" style="fill: #8c564b;"/><circle cx="425" cy="780" r="2.1644776096278" style="fill: #8c564b;"/><circle cx="350" cy="780" r="2.01022497297864" style="fill: #8c564b;"/><circle cx="25" cy="780" r="2.05989122713021" style="fill: #8c564b;"/><circle cx="200" cy="780" r="2.000000000603109" style="fill: #8c564b;"/><circle cx="750" cy="780" r="2.1439894457267" style="fill: #8c564b;"/><circle cx="875" cy="780" r="2.000959429824563" style="fill: #8c564b;"/><circle cx="375" cy="780" r="2.188168513491" style="fill: #8c564b;"/><circle cx="175" cy="780" r="2.000393280591483" style="fill: #8c564b;"/><circle cx="725" cy="780" r="2.0006435758976258" style="fill: #8c564b;"/><circle cx="675" cy="780" r="2.00718797994124" style="fill: #8c564b;"/><text/><text/><text/><text/><text/><text/><text/><text/><text/><text/><text/><text/><text/><text/><text/><text/><text/><text/><text/><text/><text/><text/><text/><text/><text/><text/><text/><text/><text/><text/><text/><text/><text/><text/><text y="780" x="930" class="label" style="fill: #8c564b;">Software Measure...</text></g><g class="journal"><circle cx="300" cy="800" r="2.3888888888892" style="fill: #8c564b;"/><circle cx="850" cy="800" r="2.3888888888892" style="fill: #8c564b;"/><circle cx="400" cy="800" r="6.888888888891" style="fill: #8c564b;"/><circle cx="225" cy="800" r="2.1111111111109997" style="fill: #8c564b;"/><circle cx="375" cy="800" r="2.1944444444446" style="fill: #8c564b;"/><circle cx="450" cy="800" r="2.4166666666666" style="fill: #8c564b;"/><circle cx="150" cy="800" r="2.1944444444446" style="fill: #8c564b;"/><circle cx="600" cy="800" r="2.4166666666666" style="fill: #8c564b;"/><text/><text/><text/><text/><text/><text/><text/><text/><text y="800" x="930" class="label" style="fill: #8c564b;">Automatic Method Completion.</text></g><rect width="10" height="450" x="915" y="2730" style="fill: #ffffff;"/></g><g><g class="journal"><circle cx="825" cy="820" r="4.333333333331" style="fill: #e377c2;"/><circle cx="775" cy="820" r="6.666666666669" style="fill: #e377c2;"/><text/><text/><text y="820" x="930" class="label" style="fill: #e377c2;">Avoiding coincidental...</text></g><g class="journal"><circle cx="775" cy="840" r="6.666666666669" style="fill: #e377c2;"/><circle cx="825" cy="840" r="4.333333333331" style="fill: #e377c2;"/><text/><text/><text y="840" x="930" class="label" style="fill: #e377c2;">Evaluating Models for...</text></g><g class="journal"><circle cx="775" cy="860" r="6.666666666669" style="fill: #e377c2;"/><circle cx="825" cy="860" r="4.333333333331" style="fill: #e377c2;"/><text/><text/><text y="860" x="930" class="label" style="fill: #e377c2;">Taming coincidental...</text></g><g class="journal"><circle cx="275" cy="880" r="2.5925925925927" style="fill: #e377c2;"/><circle cx="750" cy="880" r="2.6574074074071" style="fill: #e377c2;"/><circle cx="775" cy="880" r="7.601851851855" style="fill: #e377c2;"/><circle cx="825" cy="880" r="2.148148148148" style="fill: #e377c2;"/><text/><text/><text/><text/><text y="880" x="930" class="label" style="fill: #e377c2;">Testing context-aware...</text></g><g class="journal"><circle cx="325" cy="900" r="2.7" style="fill: #e377c2;"/><circle cx="650" cy="900" r="2.7" style="fill: #e377c2;"/><circle cx="775" cy="900" r="6.9" style="fill: #e377c2;"/><circle cx="825" cy="900" r="2.7" style="fill: #e377c2;"/><text/><text/><text/><text/><text y="900" x="930" class="label" style="fill: #e377c2;">Specification of...</text></g><rect width="10" height="450" x="915" y="3180" style="fill: #ffffff;"/></g><g><g class="journal"><circle cx="625" cy="920" r="2.02156482960639" style="fill: #7f7f7f;"/><circle cx="575" cy="920" r="2.001331107747025" style="fill: #7f7f7f;"/><circle cx="525" cy="920" r="2.000445804459391" style="fill: #7f7f7f;"/><circle cx="50" cy="920" r="2.02053541191828" style="fill: #7f7f7f;"/><circle cx="650" cy="920" r="2.1518101370359" style="fill: #7f7f7f;"/><circle cx="600" cy="920" r="2.004770423208019" style="fill: #7f7f7f;"/><circle cx="825" cy="920" r="2.0020965116136162" style="fill: #7f7f7f;"/><circle cx="100" cy="920" r="2.0006194946775295" style="fill: #7f7f7f;"/><circle cx="225" cy="920" r="2.000311145398802" style="fill: #7f7f7f;"/><circle cx="550" cy="920" r="2.0000142970235077" style="fill: #7f7f7f;"/><circle cx="700" cy="920" r="2.0002595728705264" style="fill: #7f7f7f;"/><circle cx="475" cy="920" r="4.580139894689" style="fill: #7f7f7f;"/><circle cx="450" cy="920" r="2.000183125650007" style="fill: #7f7f7f;"/><circle cx="775" cy="920" r="2.01002741067923" style="fill: #7f7f7f;"/><circle cx="275" cy="920" r="2.3542917644532" style="fill: #7f7f7f;"/><circle cx="300" cy="920" r="2.000516464937329" style="fill: #7f7f7f;"/><circle cx="125" cy="920" r="2.0000238870191223" style="fill: #7f7f7f;"/><circle cx="400" cy="920" r="2.0311295484613403" style="fill: #7f7f7f;"/><circle cx="800" cy="920" r="2.0002825783073717" style="fill: #7f7f7f;"/><circle cx="325" cy="920" r="2.3515854369965" style="fill: #7f7f7f;"/><circle cx="150" cy="920" r="2.3464011327406" style="fill: #7f7f7f;"/><circle cx="425" cy="920" r="2.3190814061778" style="fill: #7f7f7f;"/><circle cx="350" cy="920" r="2.0001898273226484" style="fill: #7f7f7f;"/><circle cx="25" cy="920" r="2.3205996186876" style="fill: #7f7f7f;"/><circle cx="200" cy="920" r="2.0202763003533297" style="fill: #7f7f7f;"/><circle cx="750" cy="920" r="2.003993324089692" style="fill: #7f7f7f;"/><circle cx="175" cy="920" r="2.6364278926488" style="fill: #7f7f7f;"/><circle cx="375" cy="920" r="2.3707602975132" style="fill: #7f7f7f;"/><circle cx="725" cy="920" r="2.0000129637420114" style="fill: #7f7f7f;"/><circle cx="675" cy="920" r="3.4503183899680003" style="fill: #7f7f7f;"/><text/><text/><text/><text/><text/><text/><text/><text/><text/><text/><text/><text/><text/><text/><text/><text/><text/><text/><text/><text/><text/><text/><text/><text/><text/><text/><text/><text/><text/><text/><text y="920" x="930" class="label" style="fill: #7f7f7f;">Experiences Using Lightweight...</text></g><g class="journal"><circle cx="475" cy="940" r="5.5" style="fill: #7f7f7f;"/><circle cx="675" cy="940" r="5.5" style="fill: #7f7f7f;"/><text/><text/><text y="940" x="930" class="label" style="fill: #7f7f7f;">Metamodel-based model...</text></g><g class="journal"><circle cx="475" cy="960" r="5.5" style="fill: #7f7f7f;"/><circle cx="675" cy="960" r="5.5" style="fill: #7f7f7f;"/><text/><text/><text y="960" x="930" class="label" style="fill: #7f7f7f;">Automating Software...</text></g><g class="journal"><circle cx="475" cy="980" r="6.199999999999999" style="fill: #7f7f7f;"/><circle cx="675" cy="980" r="4.8" style="fill: #7f7f7f;"/><text/><text/><text y="980" x="930" class="label" style="fill: #7f7f7f;">Metrics for model driven...</text></g><g class="journal"><circle cx="400" cy="1000" r="2.04915123456789" style="fill: #7f7f7f;"/><circle cx="125" cy="1000" r="2.02160493827163" style="fill: #7f7f7f;"/><circle cx="800" cy="1000" r="2.02353395061731" style="fill: #7f7f7f;"/><circle cx="325" cy="1000" r="2.03796296296296" style="fill: #7f7f7f;"/><circle cx="50" cy="1000" r="2.005555555555557" style="fill: #7f7f7f;"/><circle cx="600" cy="1000" r="2.2633641975307" style="fill: #7f7f7f;"/><circle cx="25" cy="1000" r="2.169624485597" style="fill: #7f7f7f;"/><circle cx="750" cy="1000" r="2.1151234567903" style="fill: #7f7f7f;"/><circle cx="100" cy="1000" r="2.005555555555557" style="fill: #7f7f7f;"/><circle cx="225" cy="1000" r="2.006558641975312" style="fill: #7f7f7f;"/><circle cx="375" cy="1000" r="2.02160493827163" style="fill: #7f7f7f;"/><circle cx="475" cy="1000" r="4.826543209875" style="fill: #7f7f7f;"/><circle cx="700" cy="1000" r="2.0842129629628" style="fill: #7f7f7f;"/><circle cx="450" cy="1000" r="2.000385802469136" style="fill: #7f7f7f;"/><circle cx="775" cy="1000" r="2.06995884773661" style="fill: #7f7f7f;"/><circle cx="275" cy="1000" r="2.1449382716047" style="fill: #7f7f7f;"/><circle cx="675" cy="1000" r="5.154320987657" style="fill: #7f7f7f;"/><text/><text/><text/><text/><text/><text/><text/><text/><text/><text/><text/><text/><text/><text/><text/><text/><text/><text y="1000" x="930" class="label" style="fill: #7f7f7f;">Composable semantics for...</text></g><rect width="10" height="450" x="915" y="3630" style="fill: #ffffff;"/></g><g><g class="journal"><circle cx="650" cy="1020" r="3.2499999999969997" style="fill: #bcbd22;"/><circle cx="675" cy="1020" r="7.000000000001999" style="fill: #bcbd22;"/><circle cx="775" cy="1020" r="2.2500000000001" style="fill: #bcbd22;"/><circle cx="825" cy="1020" r="2.5000000000002" style="fill: #bcbd22;"/><text/><text/><text/><text/><text y="1020" x="930" class="label" style="fill: #bcbd22;">A Cognitive-Based Mechanism...</text></g><g class="journal"><circle cx="475" cy="1040" r="3.999999999998" style="fill: #bcbd22;"/><circle cx="675" cy="1040" r="6.000000000003" style="fill: #bcbd22;"/><circle cx="750" cy="1040" r="2.999999999999" style="fill: #bcbd22;"/><text/><text/><text/><text y="1040" x="930" class="label" style="fill: #bcbd22;">Semantic parameterization: A...</text></g><g class="journal"><circle cx="475" cy="1060" r="3.75" style="fill: #bcbd22;"/><circle cx="675" cy="1060" r="7.25" style="fill: #bcbd22;"/><text/><text/><text y="1060" x="930" class="label" style="fill: #bcbd22;">An Analysis-Revision Cycle to...</text></g><g class="journal"><circle cx="475" cy="1080" r="2.999999999999" style="fill: #bcbd22;"/><circle cx="675" cy="1080" r="7.499999999998001" style="fill: #bcbd22;"/><circle cx="750" cy="1080" r="2.5000000000002" style="fill: #bcbd22;"/><text/><text/><text/><text y="1080" x="930" class="label" style="fill: #bcbd22;">How to Identify Binary...</text></g><g class="journal"><circle cx="150" cy="1100" r="2.777777777777" style="fill: #bcbd22;"/><circle cx="475" cy="1100" r="2.777777777777" style="fill: #bcbd22;"/><circle cx="675" cy="1100" r="7.444444444445999" style="fill: #bcbd22;"/><text/><text/><text/><text y="1100" x="930" class="label" style="fill: #bcbd22;">Requirements engineering: from...</text></g><rect width="10" height="450" x="915" y="4080" style="fill: #ffffff;"/></g></g></svg>
