<svg xmlns="http://www.w3.org/2000/svg" width="1420" height="1220" id="bundles" style="margin-left: 20px;"><g transform="translate(20,100)"><g class="x axis" transform="translate(0,90)"><g class="tick" transform="translate(0,0)" style="opacity: 1;"><line y2="-6" x2="0"/><text dy="1em" y="-9" x="0" dx="1em" transform="rotate(290)" style="text-anchor: start;">VISUALIZATION</text></g><g class="tick" transform="translate(28.125,0)" style="opacity: 1;"><line y2="-6" x2="0"/><text dy="1em" y="-9" x="0" dx="1em" transform="rotate(290)" style="text-anchor: start;">ARTIFICIAL INTELLIGENCE</text></g><g class="tick" transform="translate(56.25,0)" style="opacity: 1;"><line y2="-6" x2="0"/><text dy="1em" y="-9" x="0" dx="1em" transform="rotate(290)" style="text-anchor: start;">LANGUAGES</text></g><g class="tick" transform="translate(84.375,0)" style="opacity: 1;"><line y2="-6" x2="0"/><text dy="1em" y="-9" x="0" dx="1em" transform="rotate(290)" style="text-anchor: start;">FORMAL METHODS</text></g><g class="tick" transform="translate(112.5,0)" style="opacity: 1;"><line y2="-6" x2="0"/><text dy="1em" y="-9" x="0" dx="1em" transform="rotate(290)" style="text-anchor: start;">TESTING</text></g><g class="tick" transform="translate(140.625,0)" style="opacity: 1;"><line y2="-6" x2="0"/><text dy="1em" y="-9" x="0" dx="1em" transform="rotate(290)" style="text-anchor: start;">SOFTWARE QUALITY</text></g><g class="tick" transform="translate(168.75,0)" style="opacity: 1;"><line y2="-6" x2="0"/><text dy="1em" y="-9" x="0" dx="1em" transform="rotate(290)" style="text-anchor: start;">HUMAN COMPUTER INTERACTION</text></g><g class="tick" transform="translate(196.875,0)" style="opacity: 1;"><line y2="-6" x2="0"/><text dy="1em" y="-9" x="0" dx="1em" transform="rotate(290)" style="text-anchor: start;">MAINTENANCE</text></g><g class="tick" transform="translate(225,0)" style="opacity: 1;"><line y2="-6" x2="0"/><text dy="1em" y="-9" x="0" dx="1em" transform="rotate(290)" style="text-anchor: start;">SYNTHESIS</text></g><g class="tick" transform="translate(253.125,0)" style="opacity: 1;"><line y2="-6" x2="0"/><text dy="1em" y="-9" x="0" dx="1em" transform="rotate(290)" style="text-anchor: start;">INFORMATION SYSTMS</text></g><g class="tick" transform="translate(281.25,0)" style="opacity: 1;"><line y2="-6" x2="0"/><text dy="1em" y="-9" x="0" dx="1em" transform="rotate(290)" style="text-anchor: start;">METHODOLOGIES</text></g><g class="tick" transform="translate(309.375,0)" style="opacity: 1;"><line y2="-6" x2="0"/><text dy="1em" y="-9" x="0" dx="1em" transform="rotate(290)" style="text-anchor: start;">KNOWLEDGE ENGINEERING</text></g><g class="tick" transform="translate(337.5,0)" style="opacity: 1;"><line y2="-6" x2="0"/><text dy="1em" y="-9" x="0" dx="1em" transform="rotate(290)" style="text-anchor: start;">RELIABILITY</text></g><g class="tick" transform="translate(365.625,0)" style="opacity: 1;"><line y2="-6" x2="0"/><text dy="1em" y="-9" x="0" dx="1em" transform="rotate(290)" style="text-anchor: start;">PROGRAM COMPREHENSION</text></g><g class="tick" transform="translate(393.75,0)" style="opacity: 1;"><line y2="-6" x2="0"/><text dy="1em" y="-9" x="0" dx="1em" transform="rotate(290)" style="text-anchor: start;">ARCHITECTURES</text></g><g class="tick" transform="translate(421.875,0)" style="opacity: 1;"><line y2="-6" x2="0"/><text dy="1em" y="-9" x="0" dx="1em" transform="rotate(290)" style="text-anchor: start;">SERVICES</text></g><g class="tick" transform="translate(450,0)" style="opacity: 1;"><line y2="-6" x2="0"/><text dy="1em" y="-9" x="0" dx="1em" transform="rotate(290)" style="text-anchor: start;">EMPIRICAL SOFTWARE ENGINEERING</text></g><g class="tick" transform="translate(478.125,0)" style="opacity: 1;"><line y2="-6" x2="0"/><text dy="1em" y="-9" x="0" dx="1em" transform="rotate(290)" style="text-anchor: start;">PRODUCT LINES</text></g><g class="tick" transform="translate(506.25,0)" style="opacity: 1;"><line y2="-6" x2="0"/><text dy="1em" y="-9" x="0" dx="1em" transform="rotate(290)" style="text-anchor: start;">REVERSE ENGINEERING</text></g><g class="tick" transform="translate(534.375,0)" style="opacity: 1;"><line y2="-6" x2="0"/><text dy="1em" y="-9" x="0" dx="1em" transform="rotate(290)" style="text-anchor: start;">MODELS</text></g><g class="tick" transform="translate(562.5,0)" style="opacity: 1;"><line y2="-6" x2="0"/><text dy="1em" y="-9" x="0" dx="1em" transform="rotate(290)" style="text-anchor: start;">SECURITY</text></g><g class="tick" transform="translate(590.625,0)" style="opacity: 1;"><line y2="-6" x2="0"/><text dy="1em" y="-9" x="0" dx="1em" transform="rotate(290)" style="text-anchor: start;">METRICS</text></g><g class="tick" transform="translate(618.75,0)" style="opacity: 1;"><line y2="-6" x2="0"/><text dy="1em" y="-9" x="0" dx="1em" transform="rotate(290)" style="text-anchor: start;">EVOLUTION</text></g><g class="tick" transform="translate(646.875,0)" style="opacity: 1;"><line y2="-6" x2="0"/><text dy="1em" y="-9" x="0" dx="1em" transform="rotate(290)" style="text-anchor: start;">REQUIREMENTS</text></g><g class="tick" transform="translate(675,0)" style="opacity: 1;"><line y2="-6" x2="0"/><text dy="1em" y="-9" x="0" dx="1em" transform="rotate(290)" style="text-anchor: start;">DISTRIBUTED SYSTEMS</text></g><g class="tick" transform="translate(703.125,0)" style="opacity: 1;"><line y2="-6" x2="0"/><text dy="1em" y="-9" x="0" dx="1em" transform="rotate(290)" style="text-anchor: start;">PROGRAM ANALYSIS</text></g><g class="tick" transform="translate(731.25,0)" style="opacity: 1;"><line y2="-6" x2="0"/><text dy="1em" y="-9" x="0" dx="1em" transform="rotate(290)" style="text-anchor: start;">EDUCATION</text></g><g class="tick" transform="translate(759.375,0)" style="opacity: 1;"><line y2="-6" x2="0"/><text dy="1em" y="-9" x="0" dx="1em" transform="rotate(290)" style="text-anchor: start;">EMBEDDED</text></g><g class="tick" transform="translate(787.5,0)" style="opacity: 1;"><line y2="-6" x2="0"/><text dy="1em" y="-9" x="0" dx="1em" transform="rotate(290)" style="text-anchor: start;">ALGORITHM</text></g><g class="tick" transform="translate(815.625,0)" style="opacity: 1;"><line y2="-6" x2="0"/><text dy="1em" y="-9" x="0" dx="1em" transform="rotate(290)" style="text-anchor: start;">ADAPTIVE SYSTEMS</text></g><g class="tick" transform="translate(843.75,0)" style="opacity: 1;"><line y2="-6" x2="0"/><text dy="1em" y="-9" x="0" dx="1em" transform="rotate(290)" style="text-anchor: start;">DATABASE</text></g><g class="tick" transform="translate(871.875,0)" style="opacity: 1;"><line y2="-6" x2="0"/><text dy="1em" y="-9" x="0" dx="1em" transform="rotate(290)" style="text-anchor: start;">OPERATING SYSTEMS</text></g><g class="tick" transform="translate(900,0)" style="opacity: 1;"><line y2="-6" x2="0"/><text dy="1em" y="-9" x="0" dx="1em" transform="rotate(290)" style="text-anchor: start;"/></g><path class="domain" d="M0,-6V0H900V-6"/></g><g><g class="journal"><circle cx="0" cy="120" r="5.5" style="fill: #17becf;"/><circle cx="28.125" cy="120" r="5.5" style="fill: #17becf;"/><text/><text/><text y="120" x="930" class="label" style="fill: #17becf;">Automated Software Synthesis:...</text></g><rect width="10" height="90" x="915" y="30" style="fill: #ffffff;"/></g><g><g class="journal"><circle cx="56.25" cy="140" r="5.5" style="fill: #1f77b4;"/><circle cx="84.375" cy="140" r="5.5" style="fill: #1f77b4;"/><text/><text/><text y="140" x="930" class="label" style="fill: #1f77b4;">A Domain-Specific Language for...</text></g><g class="journal"><circle cx="84.375" cy="160" r="5.5" style="fill: #1f77b4;"/><circle cx="56.25" cy="160" r="5.5" style="fill: #1f77b4;"/><text/><text/><text y="160" x="930" class="label" style="fill: #1f77b4;">Composition and Refinement of...</text></g><g class="journal"><circle cx="84.375" cy="180" r="5.5" style="fill: #1f77b4;"/><circle cx="56.25" cy="180" r="5.5" style="fill: #1f77b4;"/><text/><text/><text y="180" x="930" class="label" style="fill: #1f77b4;">Tutorial on JML, the java...</text></g><g class="journal"><circle cx="84.375" cy="200" r="5.5" style="fill: #1f77b4;"/><circle cx="56.25" cy="200" r="5.5" style="fill: #1f77b4;"/><text/><text/><text y="200" x="930" class="label" style="fill: #1f77b4;">Integrating static analysis...</text></g><g class="journal"><circle cx="84.375" cy="220" r="5.5" style="fill: #1f77b4;"/><circle cx="56.25" cy="220" r="5.5" style="fill: #1f77b4;"/><text/><text/><text y="220" x="930" class="label" style="fill: #1f77b4;">Interpolation for data...</text></g><rect width="10" height="450" x="915" y="480" style="fill: #ffffff;"/></g><g><g class="journal"><circle cx="112.5" cy="240" r="4.333333333331" style="fill: #ff7f0e;"/><circle cx="140.625" cy="240" r="6.666666666669" style="fill: #ff7f0e;"/><text/><text/><text y="240" x="930" class="label" style="fill: #ff7f0e;">Avoiding coincidental...</text></g><g class="journal"><circle cx="140.625" cy="260" r="6.666666666669" style="fill: #ff7f0e;"/><circle cx="112.5" cy="260" r="4.333333333331" style="fill: #ff7f0e;"/><text/><text/><text y="260" x="930" class="label" style="fill: #ff7f0e;">Evaluating Models for...</text></g><g class="journal"><circle cx="140.625" cy="280" r="6.666666666669" style="fill: #ff7f0e;"/><circle cx="112.5" cy="280" r="4.333333333331" style="fill: #ff7f0e;"/><text/><text/><text y="280" x="930" class="label" style="fill: #ff7f0e;">Taming coincidental...</text></g><g class="journal"><circle cx="168.75" cy="300" r="2.03870650183148" style="fill: #ff7f0e;"/><circle cx="0" cy="300" r="2.004761904761908" style="fill: #ff7f0e;"/><circle cx="196.875" cy="300" r="2.1735988225419" style="fill: #ff7f0e;"/><circle cx="225" cy="300" r="2.03963738059323" style="fill: #ff7f0e;"/><circle cx="253.125" cy="300" r="2.0000356125356125" style="fill: #ff7f0e;"/><circle cx="281.25" cy="300" r="2.2012833231584" style="fill: #ff7f0e;"/><circle cx="28.125" cy="300" r="2.003941600678736" style="fill: #ff7f0e;"/><circle cx="309.375" cy="300" r="2.01249999999997" style="fill: #ff7f0e;"/><circle cx="337.5" cy="300" r="2.0128257200316" style="fill: #ff7f0e;"/><circle cx="365.625" cy="300" r="2.3066399348201" style="fill: #ff7f0e;"/><circle cx="112.5" cy="300" r="2.01785714285712" style="fill: #ff7f0e;"/><circle cx="393.75" cy="300" r="2.0854055489714" style="fill: #ff7f0e;"/><circle cx="421.875" cy="300" r="2.1349130036632" style="fill: #ff7f0e;"/><circle cx="450" cy="300" r="2.0972816824377998" style="fill: #ff7f0e;"/><circle cx="56.25" cy="300" r="2.8042268189339996" style="fill: #ff7f0e;"/><circle cx="478.125" cy="300" r="2.0119249622926" style="fill: #ff7f0e;"/><circle cx="506.25" cy="300" r="2.0161438619251" style="fill: #ff7f0e;"/><circle cx="534.375" cy="300" r="2.02562396753574" style="fill: #ff7f0e;"/><circle cx="562.5" cy="300" r="2.0897435897435" style="fill: #ff7f0e;"/><circle cx="590.625" cy="300" r="2.006370001526252" style="fill: #ff7f0e;"/><circle cx="140.625" cy="300" r="6.82630021293" style="fill: #ff7f0e;"/><circle cx="618.75" cy="300" r="2.005761599511598" style="fill: #ff7f0e;"/><circle cx="84.375" cy="300" r="2.0705882352938" style="fill: #ff7f0e;"/><circle cx="646.875" cy="300" r="2.01392857142859" style="fill: #ff7f0e;"/><text/><text/><text/><text/><text/><text/><text/><text/><text/><text/><text/><text/><text/><text/><text/><text/><text/><text/><text/><text/><text/><text/><text/><text/><text y="300" x="930" class="label" style="fill: #ff7f0e;">Coven: brewing better...</text></g><g class="journal"><circle cx="253.125" cy="320" r="2.7" style="fill: #ff7f0e;"/><circle cx="337.5" cy="320" r="2.7" style="fill: #ff7f0e;"/><circle cx="140.625" cy="320" r="6.9" style="fill: #ff7f0e;"/><circle cx="112.5" cy="320" r="2.7" style="fill: #ff7f0e;"/><text/><text/><text/><text/><text y="320" x="930" class="label" style="fill: #ff7f0e;">Specification of...</text></g><rect width="10" height="450" x="915" y="930" style="fill: #ffffff;"/></g><g><g class="journal"><circle cx="337.5" cy="340" r="3.2499999999969997" style="fill: #2ca02c;"/><circle cx="646.875" cy="340" r="7.000000000001999" style="fill: #2ca02c;"/><circle cx="140.625" cy="340" r="2.2500000000001" style="fill: #2ca02c;"/><circle cx="112.5" cy="340" r="2.5000000000002" style="fill: #2ca02c;"/><text/><text/><text/><text/><text y="340" x="930" class="label" style="fill: #2ca02c;">A Cognitive-Based Mechanism...</text></g><g class="journal"><circle cx="534.375" cy="360" r="3.999999999998" style="fill: #2ca02c;"/><circle cx="646.875" cy="360" r="6.000000000003" style="fill: #2ca02c;"/><circle cx="421.875" cy="360" r="2.999999999999" style="fill: #2ca02c;"/><text/><text/><text/><text y="360" x="930" class="label" style="fill: #2ca02c;">Semantic parameterization: A...</text></g><g class="journal"><circle cx="534.375" cy="380" r="3.75" style="fill: #2ca02c;"/><circle cx="646.875" cy="380" r="7.25" style="fill: #2ca02c;"/><text/><text/><text y="380" x="930" class="label" style="fill: #2ca02c;">An Analysis-Revision Cycle to...</text></g><g class="journal"><circle cx="534.375" cy="400" r="2.999999999999" style="fill: #2ca02c;"/><circle cx="646.875" cy="400" r="7.499999999998001" style="fill: #2ca02c;"/><circle cx="421.875" cy="400" r="2.5000000000002" style="fill: #2ca02c;"/><text/><text/><text/><text y="400" x="930" class="label" style="fill: #2ca02c;">How to Identify Binary...</text></g><g class="journal"><circle cx="675" cy="420" r="2.777777777777" style="fill: #2ca02c;"/><circle cx="534.375" cy="420" r="2.777777777777" style="fill: #2ca02c;"/><circle cx="646.875" cy="420" r="7.444444444445999" style="fill: #2ca02c;"/><text/><text/><text/><text y="420" x="930" class="label" style="fill: #2ca02c;">Requirements engineering: from...</text></g><rect width="10" height="450" x="915" y="1380" style="fill: #ffffff;"/></g><g><g class="journal"><circle cx="393.75" cy="440" r="5.5" style="fill: #d62728;"/><circle cx="365.625" cy="440" r="5.5" style="fill: #d62728;"/><text/><text/><text y="440" x="930" class="label" style="fill: #d62728;">Software Architecture...</text></g><g class="journal"><circle cx="393.75" cy="460" r="4.333333333331" style="fill: #d62728;"/><circle cx="365.625" cy="460" r="6.666666666669" style="fill: #d62728;"/><text/><text/><text y="460" x="930" class="label" style="fill: #d62728;">Formal interpreters for...</text></g><g class="journal"><circle cx="393.75" cy="480" r="4.8" style="fill: #d62728;"/><circle cx="84.375" cy="480" r="2.04666666666669" style="fill: #d62728;"/><circle cx="253.125" cy="480" r="2.04666666666669" style="fill: #d62728;"/><circle cx="309.375" cy="480" r="2.7466666666690003" style="fill: #d62728;"/><circle cx="196.875" cy="480" r="2.04666666666669" style="fill: #d62728;"/><circle cx="590.625" cy="480" r="2.04666666666669" style="fill: #d62728;"/><circle cx="534.375" cy="480" r="2.28" style="fill: #d62728;"/><circle cx="365.625" cy="480" r="4.893333333331" style="fill: #d62728;"/><circle cx="506.25" cy="480" r="2.04666666666669" style="fill: #d62728;"/><circle cx="140.625" cy="480" r="2.04666666666669" style="fill: #d62728;"/><text/><text/><text/><text/><text/><text/><text/><text/><text/><text/><text y="480" x="930" class="label" style="fill: #d62728;">SPQR: Flexible Automated...</text></g><g class="journal"><circle cx="393.75" cy="500" r="5.5" style="fill: #d62728;"/><circle cx="365.625" cy="500" r="5.5" style="fill: #d62728;"/><text/><text/><text y="500" x="930" class="label" style="fill: #d62728;">Improving API documentation...</text></g><g class="journal"><circle cx="393.75" cy="520" r="7.833333333331" style="fill: #d62728;"/><circle cx="365.625" cy="520" r="3.166666666669" style="fill: #d62728;"/><text/><text/><text y="520" x="930" class="label" style="fill: #d62728;">The universe model: an...</text></g><rect width="10" height="450" x="915" y="1830" style="fill: #ffffff;"/></g><g><g class="journal"><circle cx="703.125" cy="540" r="5.5" style="fill: #9467bd;"/><circle cx="506.25" cy="540" r="5.5" style="fill: #9467bd;"/><text/><text/><text y="540" x="930" class="label" style="fill: #9467bd;">Moral Dominance Relations for...</text></g><g class="journal"><circle cx="703.125" cy="560" r="5.5" style="fill: #9467bd;"/><circle cx="506.25" cy="560" r="5.5" style="fill: #9467bd;"/><text/><text/><text y="560" x="930" class="label" style="fill: #9467bd;">Semantics-based reverse...</text></g><rect width="10" height="180" x="915" y="930" style="fill: #ffffff;"/></g><g><g class="journal"><circle cx="675" cy="580" r="5.5" style="fill: #8c564b;"/><circle cx="731.25" cy="580" r="5.5" style="fill: #8c564b;"/><text/><text/><text y="580" x="930" class="label" style="fill: #8c564b;">An Algebraic Specification of...</text></g><g class="journal"><circle cx="675" cy="600" r="5.5" style="fill: #8c564b;"/><circle cx="731.25" cy="600" r="5.5" style="fill: #8c564b;"/><text/><text/><text y="600" x="930" class="label" style="fill: #8c564b;">On the Modelling, Analysis and...</text></g><rect width="10" height="180" x="915" y="1110" style="fill: #ffffff;"/></g><g><g class="journal"><circle cx="759.375" cy="620" r="3.4000000000000004" style="fill: #e377c2;"/><circle cx="281.25" cy="620" r="7.6" style="fill: #e377c2;"/><text/><text/><text y="620" x="930" class="label" style="fill: #e377c2;">An Introduction to Rapid...</text></g><g class="journal"><circle cx="450" cy="640" r="2.875" style="fill: #e377c2;"/><circle cx="281.25" cy="640" r="8.125" style="fill: #e377c2;"/><text/><text/><text y="640" x="930" class="label" style="fill: #e377c2;">Communication Metrics for...</text></g><rect width="10" height="180" x="915" y="1290" style="fill: #ffffff;"/></g><g><g class="journal"><circle cx="787.5" cy="660" r="4.333333333331" style="fill: #7f7f7f;"/><circle cx="168.75" cy="660" r="6.666666666669" style="fill: #7f7f7f;"/><text/><text/><text y="660" x="930" class="label" style="fill: #7f7f7f;">Parametric Graph Drawing.</text></g><rect width="10" height="90" x="915" y="750" style="fill: #ffffff;"/></g><g><g class="journal"><circle cx="815.625" cy="680" r="2.003837719298245" style="fill: #bcbd22;"/><circle cx="843.75" cy="680" r="7.264718364198999" style="fill: #bcbd22;"/><circle cx="196.875" cy="680" r="3.023533950614" style="fill: #bcbd22;"/><circle cx="703.125" cy="680" r="2.0002398574561404" style="fill: #bcbd22;"/><circle cx="871.875" cy="680" r="2.003837719298245" style="fill: #bcbd22;"/><circle cx="253.125" cy="680" r="2.0756172839506" style="fill: #bcbd22;"/><circle cx="675" cy="680" r="2.00729166666669" style="fill: #bcbd22;"/><circle cx="281.25" cy="680" r="2.0121527777777697" style="fill: #bcbd22;"/><circle cx="28.125" cy="680" r="2.0121527777777697" style="fill: #bcbd22;"/><circle cx="337.5" cy="680" r="2.001998812134501" style="fill: #bcbd22;"/><circle cx="309.375" cy="680" r="2.2291260558804" style="fill: #bcbd22;"/><circle cx="112.5" cy="680" r="2.05162265472707" style="fill: #bcbd22;"/><circle cx="393.75" cy="680" r="2.004996141975307" style="fill: #bcbd22;"/><circle cx="421.875" cy="680" r="2.1482638888892" style="fill: #bcbd22;"/><circle cx="450" cy="680" r="2.002430555555554" style="fill: #bcbd22;"/><circle cx="56.25" cy="680" r="2.001465795565304" style="fill: #bcbd22;"/><circle cx="534.375" cy="680" r="2.0002700617283953" style="fill: #bcbd22;"/><circle cx="506.25" cy="680" r="2.1482638888892" style="fill: #bcbd22;"/><circle cx="618.75" cy="680" r="2.0001350308641976" style="fill: #bcbd22;"/><circle cx="84.375" cy="680" r="2.002508731319038" style="fill: #bcbd22;"/><circle cx="646.875" cy="680" r="2.005536265432096" style="fill: #bcbd22;"/><text/><text/><text/><text/><text/><text/><text/><text/><text/><text/><text/><text/><text/><text/><text/><text/><text/><text/><text/><text/><text/><text y="680" x="930" class="label" style="fill: #bcbd22;">Design Recovery for...</text></g><rect width="10" height="90" x="915" y="840" style="fill: #ffffff;"/></g></g></svg>
