<svg xmlns="http://www.w3.org/2000/svg" width="1420" height="1220" id="bundles" style="margin-left: 20px;"><g transform="translate(20,100)"><g class="x axis" transform="translate(0,90)"><g class="tick" transform="translate(0,0)" style="opacity: 1;"><line y2="-6" x2="0"/><text dy="1em" y="-9" x="0" dx="1em" transform="rotate(290)" style="text-anchor: start;">REAL TIME SYSTEMS</text></g><g class="tick" transform="translate(24.324324324324326,0)" style="opacity: 1;"><line y2="-6" x2="0"/><text dy="1em" y="-9" x="0" dx="1em" transform="rotate(290)" style="text-anchor: start;">VISUALIZATION</text></g><g class="tick" transform="translate(48.64864864864865,0)" style="opacity: 1;"><line y2="-6" x2="0"/><text dy="1em" y="-9" x="0" dx="1em" transform="rotate(290)" style="text-anchor: start;">PROGRAM ANALYSIS</text></g><g class="tick" transform="translate(72.97297297297298,0)" style="opacity: 1;"><line y2="-6" x2="0"/><text dy="1em" y="-9" x="0" dx="1em" transform="rotate(290)" style="text-anchor: start;">OPERATING SYSTEMS</text></g><g class="tick" transform="translate(97.2972972972973,0)" style="opacity: 1;"><line y2="-6" x2="0"/><text dy="1em" y="-9" x="0" dx="1em" transform="rotate(290)" style="text-anchor: start;">ARTIFICIAL INTELLIGENCE</text></g><g class="tick" transform="translate(121.62162162162163,0)" style="opacity: 1;"><line y2="-6" x2="0"/><text dy="1em" y="-9" x="0" dx="1em" transform="rotate(290)" style="text-anchor: start;">RELIABILITY</text></g><g class="tick" transform="translate(145.94594594594597,0)" style="opacity: 1;"><line y2="-6" x2="0"/><text dy="1em" y="-9" x="0" dx="1em" transform="rotate(290)" style="text-anchor: start;">PROGRAM COMPREHENSION</text></g><g class="tick" transform="translate(170.2702702702703,0)" style="opacity: 1;"><line y2="-6" x2="0"/><text dy="1em" y="-9" x="0" dx="1em" transform="rotate(290)" style="text-anchor: start;">TESTING</text></g><g class="tick" transform="translate(194.5945945945946,0)" style="opacity: 1;"><line y2="-6" x2="0"/><text dy="1em" y="-9" x="0" dx="1em" transform="rotate(290)" style="text-anchor: start;">EMPIRICAL SOFTWARE ENGINEERING</text></g><g class="tick" transform="translate(218.91891891891893,0)" style="opacity: 1;"><line y2="-6" x2="0"/><text dy="1em" y="-9" x="0" dx="1em" transform="rotate(290)" style="text-anchor: start;">CONCURRENCY</text></g><g class="tick" transform="translate(243.24324324324326,0)" style="opacity: 1;"><line y2="-6" x2="0"/><text dy="1em" y="-9" x="0" dx="1em" transform="rotate(290)" style="text-anchor: start;">MODELS</text></g><g class="tick" transform="translate(267.5675675675676,0)" style="opacity: 1;"><line y2="-6" x2="0"/><text dy="1em" y="-9" x="0" dx="1em" transform="rotate(290)" style="text-anchor: start;">METRICS</text></g><g class="tick" transform="translate(291.89189189189193,0)" style="opacity: 1;"><line y2="-6" x2="0"/><text dy="1em" y="-9" x="0" dx="1em" transform="rotate(290)" style="text-anchor: start;">SOFTWARE QUALITY</text></g><g class="tick" transform="translate(316.21621621621625,0)" style="opacity: 1;"><line y2="-6" x2="0"/><text dy="1em" y="-9" x="0" dx="1em" transform="rotate(290)" style="text-anchor: start;">EVOLUTION</text></g><g class="tick" transform="translate(340.5405405405406,0)" style="opacity: 1;"><line y2="-6" x2="0"/><text dy="1em" y="-9" x="0" dx="1em" transform="rotate(290)" style="text-anchor: start;">FORMAL METHODS</text></g><g class="tick" transform="translate(364.8648648648649,0)" style="opacity: 1;"><line y2="-6" x2="0"/><text dy="1em" y="-9" x="0" dx="1em" transform="rotate(290)" style="text-anchor: start;">HUMAN COMPUTER INTERACTION</text></g><g class="tick" transform="translate(389.1891891891892,0)" style="opacity: 1;"><line y2="-6" x2="0"/><text dy="1em" y="-9" x="0" dx="1em" transform="rotate(290)" style="text-anchor: start;">DATABASE</text></g><g class="tick" transform="translate(413.51351351351354,0)" style="opacity: 1;"><line y2="-6" x2="0"/><text dy="1em" y="-9" x="0" dx="1em" transform="rotate(290)" style="text-anchor: start;">MAINTENANCE</text></g><g class="tick" transform="translate(437.83783783783787,0)" style="opacity: 1;"><line y2="-6" x2="0"/><text dy="1em" y="-9" x="0" dx="1em" transform="rotate(290)" style="text-anchor: start;">ALGORITHM</text></g><g class="tick" transform="translate(462.16216216216213,0)" style="opacity: 1;"><line y2="-6" x2="0"/><text dy="1em" y="-9" x="0" dx="1em" transform="rotate(290)" style="text-anchor: start;">INFORMATION SYSTMS</text></g><g class="tick" transform="translate(486.4864864864865,0)" style="opacity: 1;"><line y2="-6" x2="0"/><text dy="1em" y="-9" x="0" dx="1em" transform="rotate(290)" style="text-anchor: start;">DISTRIBUTED SYSTEMS</text></g><g class="tick" transform="translate(510.8108108108108,0)" style="opacity: 1;"><line y2="-6" x2="0"/><text dy="1em" y="-9" x="0" dx="1em" transform="rotate(290)" style="text-anchor: start;">METHODOLOGIES</text></g><g class="tick" transform="translate(535.1351351351352,0)" style="opacity: 1;"><line y2="-6" x2="0"/><text dy="1em" y="-9" x="0" dx="1em" transform="rotate(290)" style="text-anchor: start;">KNOWLEDGE ENGINEERING</text></g><g class="tick" transform="translate(559.4594594594595,0)" style="opacity: 1;"><line y2="-6" x2="0"/><text dy="1em" y="-9" x="0" dx="1em" transform="rotate(290)" style="text-anchor: start;">ARCHITECTURES</text></g><g class="tick" transform="translate(583.7837837837839,0)" style="opacity: 1;"><line y2="-6" x2="0"/><text dy="1em" y="-9" x="0" dx="1em" transform="rotate(290)" style="text-anchor: start;">SERVICES</text></g><g class="tick" transform="translate(608.1081081081081,0)" style="opacity: 1;"><line y2="-6" x2="0"/><text dy="1em" y="-9" x="0" dx="1em" transform="rotate(290)" style="text-anchor: start;">LANGUAGES</text></g><g class="tick" transform="translate(632.4324324324325,0)" style="opacity: 1;"><line y2="-6" x2="0"/><text dy="1em" y="-9" x="0" dx="1em" transform="rotate(290)" style="text-anchor: start;">SECURITY</text></g><g class="tick" transform="translate(656.7567567567568,0)" style="opacity: 1;"><line y2="-6" x2="0"/><text dy="1em" y="-9" x="0" dx="1em" transform="rotate(290)" style="text-anchor: start;">REQUIREMENTS</text></g><g class="tick" transform="translate(681.0810810810812,0)" style="opacity: 1;"><line y2="-6" x2="0"/><text dy="1em" y="-9" x="0" dx="1em" transform="rotate(290)" style="text-anchor: start;">PRODUCT LINES</text></g><g class="tick" transform="translate(705.4054054054054,0)" style="opacity: 1;"><line y2="-6" x2="0"/><text dy="1em" y="-9" x="0" dx="1em" transform="rotate(290)" style="text-anchor: start;">SYNTHESIS</text></g><g class="tick" transform="translate(729.7297297297298,0)" style="opacity: 1;"><line y2="-6" x2="0"/><text dy="1em" y="-9" x="0" dx="1em" transform="rotate(290)" style="text-anchor: start;">ADAPTIVE SYSTEMS</text></g><g class="tick" transform="translate(754.0540540540541,0)" style="opacity: 1;"><line y2="-6" x2="0"/><text dy="1em" y="-9" x="0" dx="1em" transform="rotate(290)" style="text-anchor: start;">AUTONOMIC SYSTEMS</text></g><g class="tick" transform="translate(778.3783783783784,0)" style="opacity: 1;"><line y2="-6" x2="0"/><text dy="1em" y="-9" x="0" dx="1em" transform="rotate(290)" style="text-anchor: start;">EDUCATION</text></g><g class="tick" transform="translate(802.7027027027027,0)" style="opacity: 1;"><line y2="-6" x2="0"/><text dy="1em" y="-9" x="0" dx="1em" transform="rotate(290)" style="text-anchor: start;">EMBEDDED</text></g><g class="tick" transform="translate(827.0270270270271,0)" style="opacity: 1;"><line y2="-6" x2="0"/><text dy="1em" y="-9" x="0" dx="1em" transform="rotate(290)" style="text-anchor: start;">PERFORMANCE</text></g><g class="tick" transform="translate(851.3513513513514,0)" style="opacity: 1;"><line y2="-6" x2="0"/><text dy="1em" y="-9" x="0" dx="1em" transform="rotate(290)" style="text-anchor: start;">REVERSE ENGINEERING</text></g><g class="tick" transform="translate(875.6756756756757,0)" style="opacity: 1;"><line y2="-6" x2="0"/><text dy="1em" y="-9" x="0" dx="1em" transform="rotate(290)" style="text-anchor: start;">PROCESS</text></g><g class="tick" transform="translate(900,0)" style="opacity: 1;"><line y2="-6" x2="0"/><text dy="1em" y="-9" x="0" dx="1em" transform="rotate(290)" style="text-anchor: start;"/></g><path class="domain" d="M0,-6V0H900V-6"/></g><g><g class="journal"><circle cx="0" cy="120" r="2.2813475498589" style="fill: #17becf;"/><circle cx="24.324324324324326" cy="120" r="2.0000078278761855" style="fill: #17becf;"/><circle cx="48.64864864864865" cy="120" r="2.001353344835437" style="fill: #17becf;"/><circle cx="72.97297297297298" cy="120" r="2.0546875" style="fill: #17becf;"/><circle cx="97.2972972972973" cy="120" r="2.003007024678217" style="fill: #17becf;"/><circle cx="121.62162162162163" cy="120" r="2.06322495955202" style="fill: #17becf;"/><circle cx="145.94594594594597" cy="120" r="2.002379813511138" style="fill: #17becf;"/><circle cx="170.2702702702703" cy="120" r="2.05817906299142" style="fill: #17becf;"/><circle cx="194.5945945945946" cy="120" r="2.0133446396974097" style="fill: #17becf;"/><circle cx="218.91891891891893" cy="120" r="7.853532608693" style="fill: #17becf;"/><circle cx="243.24324324324326" cy="120" r="2.0003438738231374" style="fill: #17becf;"/><circle cx="267.5675675675676" cy="120" r="2.0000001223105657" style="fill: #17becf;"/><circle cx="291.89189189189193" cy="120" r="2.0071719097142" style="fill: #17becf;"/><circle cx="316.21621621621625" cy="120" r="2.000700147340424" style="fill: #17becf;"/><circle cx="340.5405405405406" cy="120" r="2.0721983839031" style="fill: #17becf;"/><circle cx="364.8648648648649" cy="120" r="2.000000489242262" style="fill: #17becf;"/><circle cx="389.1891891891892" cy="120" r="2.003926254886505" style="fill: #17becf;"/><circle cx="413.51351351351354" cy="120" r="2.0926500939441" style="fill: #17becf;"/><circle cx="437.83783783783787" cy="120" r="2.0000001134474807" style="fill: #17becf;"/><circle cx="462.16216216216213" cy="120" r="2.0000000611552826" style="fill: #17becf;"/><circle cx="486.4864864864865" cy="120" r="2.3027435319657" style="fill: #17becf;"/><circle cx="510.8108108108108" cy="120" r="2.0001678356330945" style="fill: #17becf;"/><circle cx="535.1351351351352" cy="120" r="2.0304347826087197" style="fill: #17becf;"/><circle cx="559.4594594594595" cy="120" r="2.059768741375" style="fill: #17becf;"/><circle cx="583.7837837837839" cy="120" r="2.00303958692891" style="fill: #17becf;"/><circle cx="608.1081081081081" cy="120" r="2.03529896279441" style="fill: #17becf;"/><circle cx="632.4324324324325" cy="120" r="2.0000000790694563" style="fill: #17becf;"/><circle cx="656.7567567567568" cy="120" r="2.03314694816055" style="fill: #17becf;"/><text/><text/><text/><text/><text/><text/><text/><text/><text/><text/><text/><text/><text/><text/><text/><text/><text/><text/><text/><text/><text/><text/><text/><text/><text/><text/><text/><text/><text y="120" x="930" class="label" style="fill: #17becf;">Monitoring for Deadlock and...</text></g><g class="journal"><circle cx="583.7837837837839" cy="140" r="3.166666666669" style="fill: #17becf;"/><circle cx="218.91891891891893" cy="140" r="4.333333333331" style="fill: #17becf;"/><circle cx="608.1081081081081" cy="140" r="3.166666666669" style="fill: #17becf;"/><circle cx="510.8108108108108" cy="140" r="3.166666666669" style="fill: #17becf;"/><circle cx="340.5405405405406" cy="140" r="3.166666666669" style="fill: #17becf;"/><text/><text/><text/><text/><text/><text y="140" x="930" class="label" style="fill: #17becf;">A model-checking verification...</text></g><g class="journal"><circle cx="559.4594594594595" cy="160" r="2.4117647058826" style="fill: #17becf;"/><circle cx="608.1081081081081" cy="160" r="2.4117647058826" style="fill: #17becf;"/><circle cx="681.0810810810812" cy="160" r="3.647058823529" style="fill: #17becf;"/><circle cx="705.4054054054054" cy="160" r="5.294117647058" style="fill: #17becf;"/><circle cx="121.62162162162163" cy="160" r="2.4117647058826" style="fill: #17becf;"/><circle cx="340.5405405405406" cy="160" r="2.823529411768" style="fill: #17becf;"/><text/><text/><text/><text/><text/><text/><text y="160" x="930" class="label" style="fill: #17becf;">Type-Checking Software Product...</text></g><g class="journal"><circle cx="218.91891891891893" cy="180" r="5.5" style="fill: #17becf;"/><circle cx="608.1081081081081" cy="180" r="5.5" style="fill: #17becf;"/><text/><text/><text y="180" x="930" class="label" style="fill: #17becf;">Proof Linking: An Architecture...</text></g><g class="journal"><circle cx="559.4594594594595" cy="200" r="2.282828282828" style="fill: #17becf;"/><circle cx="97.2972972972973" cy="200" r="2.282828282828" style="fill: #17becf;"/><circle cx="218.91891891891893" cy="200" r="5.818181818185" style="fill: #17becf;"/><circle cx="389.1891891891892" cy="200" r="2.6363636363636997" style="fill: #17becf;"/><circle cx="535.1351351351352" cy="200" r="2.212121212121" style="fill: #17becf;"/><circle cx="510.8108108108108" cy="200" r="3.2727272727259997" style="fill: #17becf;"/><circle cx="145.94594594594597" cy="200" r="2.212121212121" style="fill: #17becf;"/><circle cx="291.89189189189193" cy="200" r="2.282828282828" style="fill: #17becf;"/><text/><text/><text/><text/><text/><text/><text/><text/><text y="200" x="930" class="label" style="fill: #17becf;">Quantifying Software Designs.</text></g><rect width="10" height="450" x="915" y="30" style="fill: #ffffff;"/></g><g><g class="journal"><circle cx="729.7297297297298" cy="220" r="2.000025899402468" style="fill: #1f77b4;"/><circle cx="559.4594594594595" cy="220" r="2.4541556727967" style="fill: #1f77b4;"/><circle cx="97.2972972972973" cy="220" r="2.00767900463568" style="fill: #1f77b4;"/><circle cx="754.0540540540541" cy="220" r="2.0000000042006065" style="fill: #1f77b4;"/><circle cx="218.91891891891893" cy="220" r="2.000296569043835" style="fill: #1f77b4;"/><circle cx="389.1891891891892" cy="220" r="2.001707544214789" style="fill: #1f77b4;"/><circle cx="486.4864864864865" cy="220" r="2.0023628931911692" style="fill: #1f77b4;"/><circle cx="778.3783783783784" cy="220" r="2.0000050429972935" style="fill: #1f77b4;"/><circle cx="802.7027027027027" cy="220" r="2.000000020609541" style="fill: #1f77b4;"/><circle cx="194.5945945945946" cy="220" r="2.01540801765272" style="fill: #1f77b4;"/><circle cx="316.21621621621625" cy="220" r="2.0051591417311068" style="fill: #1f77b4;"/><circle cx="340.5405405405406" cy="220" r="2.0735727025271" style="fill: #1f77b4;"/><circle cx="364.8648648648649" cy="220" r="2.005173062615021" style="fill: #1f77b4;"/><circle cx="462.16216216216213" cy="220" r="2.001343027931196" style="fill: #1f77b4;"/><circle cx="535.1351351351352" cy="220" r="2.2300510535547" style="fill: #1f77b4;"/><circle cx="608.1081081081081" cy="220" r="2.2710967080234" style="fill: #1f77b4;"/><circle cx="413.51351351351354" cy="220" r="2.3383274657063" style="fill: #1f77b4;"/><circle cx="510.8108108108108" cy="220" r="2.0006590713503822" style="fill: #1f77b4;"/><circle cx="267.5675675675676" cy="220" r="2.0172655759138802" style="fill: #1f77b4;"/><circle cx="243.24324324324326" cy="220" r="2.04033655478489" style="fill: #1f77b4;"/><circle cx="72.97297297297298" cy="220" r="2.000057763573389" style="fill: #1f77b4;"/><circle cx="827.0270270270271" cy="220" r="2.0000010496575586" style="fill: #1f77b4;"/><circle cx="681.0810810810812" cy="220" r="2.0002797032274953" style="fill: #1f77b4;"/><circle cx="48.64864864864865" cy="220" r="2.4859541444296" style="fill: #1f77b4;"/><circle cx="145.94594594594597" cy="220" r="3.7156247641049998" style="fill: #1f77b4;"/><circle cx="0" cy="220" r="2.0000002527409264" style="fill: #1f77b4;"/><circle cx="121.62162162162163" cy="220" r="2.00343920496108" style="fill: #1f77b4;"/><circle cx="656.7567567567568" cy="220" r="2.0019512008933127" style="fill: #1f77b4;"/><circle cx="851.3513513513514" cy="220" r="4.910959005535" style="fill: #1f77b4;"/><circle cx="632.4324324324325" cy="220" r="2.000003448910957" style="fill: #1f77b4;"/><circle cx="583.7837837837839" cy="220" r="2.002331890809416" style="fill: #1f77b4;"/><circle cx="291.89189189189193" cy="220" r="2.01233698649897" style="fill: #1f77b4;"/><circle cx="705.4054054054054" cy="220" r="2.2477718269943" style="fill: #1f77b4;"/><circle cx="170.2702702702703" cy="220" r="2.1496219568073998" style="fill: #1f77b4;"/><circle cx="24.324324324324326" cy="220" r="2.0050417679729478" style="fill: #1f77b4;"/><text/><text/><text/><text/><text/><text/><text/><text/><text/><text/><text/><text/><text/><text/><text/><text/><text/><text/><text/><text/><text/><text/><text/><text/><text/><text/><text/><text/><text/><text/><text/><text/><text/><text/><text/><text y="220" x="930" class="label" style="fill: #1f77b4;">Program Concept Recognition...</text></g><g class="journal"><circle cx="729.7297297297298" cy="240" r="2.001443289197812" style="fill: #1f77b4;"/><circle cx="559.4594594594595" cy="240" r="2.2109270595117" style="fill: #1f77b4;"/><circle cx="97.2972972972973" cy="240" r="2.004231799970853" style="fill: #1f77b4;"/><circle cx="218.91891891891893" cy="240" r="2.000315634591653" style="fill: #1f77b4;"/><circle cx="389.1891891891892" cy="240" r="2.004289286003086" style="fill: #1f77b4;"/><circle cx="486.4864864864865" cy="240" r="2.06543648517161" style="fill: #1f77b4;"/><circle cx="778.3783783783784" cy="240" r="2.001783287332176" style="fill: #1f77b4;"/><circle cx="194.5945945945946" cy="240" r="2.05642680618365" style="fill: #1f77b4;"/><circle cx="316.21621621621625" cy="240" r="2.1876045050663" style="fill: #1f77b4;"/><circle cx="340.5405405405406" cy="240" r="2.1398539361891" style="fill: #1f77b4;"/><circle cx="364.8648648648649" cy="240" r="2.002681861686273" style="fill: #1f77b4;"/><circle cx="462.16216216216213" cy="240" r="2.0024224062125198" style="fill: #1f77b4;"/><circle cx="535.1351351351352" cy="240" r="2.1964110940764" style="fill: #1f77b4;"/><circle cx="608.1081081081081" cy="240" r="2.3855876351131" style="fill: #1f77b4;"/><circle cx="413.51351351351354" cy="240" r="2.4613523819149" style="fill: #1f77b4;"/><circle cx="510.8108108108108" cy="240" r="2.0895817996514" style="fill: #1f77b4;"/><circle cx="267.5675675675676" cy="240" r="2.5548519924059" style="fill: #1f77b4;"/><circle cx="243.24324324324326" cy="240" r="2.0246847567724098" style="fill: #1f77b4;"/><circle cx="72.97297297297298" cy="240" r="2.0014245014245" style="fill: #1f77b4;"/><circle cx="827.0270270270271" cy="240" r="2.000104815998481" style="fill: #1f77b4;"/><circle cx="681.0810810810812" cy="240" r="2.01424140107096" style="fill: #1f77b4;"/><circle cx="48.64864864864865" cy="240" r="2.1065757969983" style="fill: #1f77b4;"/><circle cx="145.94594594594597" cy="240" r="3.455051370843" style="fill: #1f77b4;"/><circle cx="0" cy="240" r="2.0129366014829797" style="fill: #1f77b4;"/><circle cx="121.62162162162163" cy="240" r="2.0825227037866" style="fill: #1f77b4;"/><circle cx="656.7567567567568" cy="240" r="2.01746892143941" style="fill: #1f77b4;"/><circle cx="851.3513513513514" cy="240" r="4.352995392972" style="fill: #1f77b4;"/><circle cx="583.7837837837839" cy="240" r="2.02968563919314" style="fill: #1f77b4;"/><circle cx="291.89189189189193" cy="240" r="2.06242589854039" style="fill: #1f77b4;"/><circle cx="705.4054054054054" cy="240" r="2.03091061400308" style="fill: #1f77b4;"/><circle cx="170.2702702702703" cy="240" r="2.326844194985" style="fill: #1f77b4;"/><circle cx="24.324324324324326" cy="240" r="2.1169261302104" style="fill: #1f77b4;"/><text/><text/><text/><text/><text/><text/><text/><text/><text/><text/><text/><text/><text/><text/><text/><text/><text/><text/><text/><text/><text/><text/><text/><text/><text/><text/><text/><text/><text/><text/><text/><text/><text y="240" x="930" class="label" style="fill: #1f77b4;">Lightweight Lexical Source...</text></g><g class="journal"><circle cx="145.94594594594597" cy="260" r="4.333333333331" style="fill: #1f77b4;"/><circle cx="851.3513513513514" cy="260" r="6.666666666669" style="fill: #1f77b4;"/><text/><text/><text y="260" x="930" class="label" style="fill: #1f77b4;">A Scalable, Automated Process...</text></g><g class="journal"><circle cx="0" cy="280" r="2.00881881212765" style="fill: #1f77b4;"/><circle cx="24.324324324324326" cy="280" r="2.252008842365" style="fill: #1f77b4;"/><circle cx="729.7297297297298" cy="280" r="2.01159498402146" style="fill: #1f77b4;"/><circle cx="48.64864864864865" cy="280" r="2.1780936414593" style="fill: #1f77b4;"/><circle cx="827.0270270270271" cy="280" r="2.0964564163093997" style="fill: #1f77b4;"/><circle cx="72.97297297297298" cy="280" r="2.0000000022307165" style="fill: #1f77b4;"/><circle cx="97.2972972972973" cy="280" r="2.001014179654026" style="fill: #1f77b4;"/><circle cx="121.62162162162163" cy="280" r="2.0983295247543" style="fill: #1f77b4;"/><circle cx="145.94594594594597" cy="280" r="2.4999624116949" style="fill: #1f77b4;"/><circle cx="170.2702702702703" cy="280" r="2.03518103441475" style="fill: #1f77b4;"/><circle cx="194.5945945945946" cy="280" r="2.2054397194969" style="fill: #1f77b4;"/><circle cx="218.91891891891893" cy="280" r="2.005606574716631" style="fill: #1f77b4;"/><circle cx="681.0810810810812" cy="280" r="2.004315245371654" style="fill: #1f77b4;"/><circle cx="851.3513513513514" cy="280" r="4.924093139618" style="fill: #1f77b4;"/><circle cx="243.24324324324326" cy="280" r="2.1746159650746" style="fill: #1f77b4;"/><circle cx="267.5675675675676" cy="280" r="2.2940933800153998" style="fill: #1f77b4;"/><circle cx="291.89189189189193" cy="280" r="2.1586077614527" style="fill: #1f77b4;"/><circle cx="316.21621621621625" cy="280" r="2.025103507821" style="fill: #1f77b4;"/><circle cx="340.5405405405406" cy="280" r="2.2657264572193" style="fill: #1f77b4;"/><circle cx="364.8648648648649" cy="280" r="2.02212200263056" style="fill: #1f77b4;"/><circle cx="413.51351351351354" cy="280" r="2.4445642193629" style="fill: #1f77b4;"/><circle cx="389.1891891891892" cy="280" r="2.000281112818662" style="fill: #1f77b4;"/><circle cx="705.4054054054054" cy="280" r="2.00999458414171" style="fill: #1f77b4;"/><circle cx="462.16216216216213" cy="280" r="2.00908334289569" style="fill: #1f77b4;"/><circle cx="486.4864864864865" cy="280" r="2.2975275052932003" style="fill: #1f77b4;"/><circle cx="510.8108108108108" cy="280" r="2.2311825766152" style="fill: #1f77b4;"/><circle cx="535.1351351351352" cy="280" r="2.1372493416273" style="fill: #1f77b4;"/><circle cx="559.4594594594595" cy="280" r="2.3196725745003" style="fill: #1f77b4;"/><circle cx="583.7837837837839" cy="280" r="2.006023814066396" style="fill: #1f77b4;"/><circle cx="608.1081081081081" cy="280" r="2.1888650550325" style="fill: #1f77b4;"/><circle cx="778.3783783783784" cy="280" r="2.0322024894110498" style="fill: #1f77b4;"/><circle cx="656.7567567567568" cy="280" r="2.06216978178397" style="fill: #1f77b4;"/><text/><text/><text/><text/><text/><text/><text/><text/><text/><text/><text/><text/><text/><text/><text/><text/><text/><text/><text/><text/><text/><text/><text/><text/><text/><text/><text/><text/><text/><text/><text/><text/><text y="280" x="930" class="label" style="fill: #1f77b4;">Software Reflexion Models:...</text></g><g class="journal"><circle cx="851.3513513513514" cy="300" r="6.199999999999999" style="fill: #1f77b4;"/><circle cx="145.94594594594597" cy="300" r="4.8" style="fill: #1f77b4;"/><text/><text/><text y="300" x="930" class="label" style="fill: #1f77b4;">A Formal Automated Approach...</text></g><rect width="10" height="450" x="915" y="480" style="fill: #ffffff;"/></g><g><g class="journal"><circle cx="486.4864864864865" cy="320" r="5.5" style="fill: #ff7f0e;"/><circle cx="778.3783783783784" cy="320" r="5.5" style="fill: #ff7f0e;"/><text/><text/><text y="320" x="930" class="label" style="fill: #ff7f0e;">An Algebraic Specification of...</text></g><g class="journal"><circle cx="486.4864864864865" cy="340" r="7.25" style="fill: #ff7f0e;"/><circle cx="48.64864864864865" cy="340" r="3.75" style="fill: #ff7f0e;"/><text/><text/><text y="340" x="930" class="label" style="fill: #ff7f0e;">Equivalence analysis and its...</text></g><g class="journal"><circle cx="559.4594594594595" cy="360" r="2.999999999999" style="fill: #ff7f0e;"/><circle cx="486.4864864864865" cy="360" r="8.000000000001" style="fill: #ff7f0e;"/><text/><text/><text y="360" x="930" class="label" style="fill: #ff7f0e;">System architecture: the...</text></g><g class="journal"><circle cx="243.24324324324326" cy="380" r="2.7" style="fill: #ff7f0e;"/><circle cx="486.4864864864865" cy="380" r="6.9" style="fill: #ff7f0e;"/><circle cx="340.5405405405406" cy="380" r="3.4000000000000004" style="fill: #ff7f0e;"/><text/><text/><text/><text y="380" x="930" class="label" style="fill: #ff7f0e;">Amphion/NAV: Deductive...</text></g><g class="journal"><circle cx="486.4864864864865" cy="400" r="5.5" style="fill: #ff7f0e;"/><circle cx="778.3783783783784" cy="400" r="5.5" style="fill: #ff7f0e;"/><text/><text/><text y="400" x="930" class="label" style="fill: #ff7f0e;">On the Modelling, Analysis and...</text></g><rect width="10" height="450" x="915" y="930" style="fill: #ffffff;"/></g><g><g class="journal"><circle cx="194.5945945945946" cy="420" r="2.4375" style="fill: #2ca02c;"/><circle cx="267.5675675675676" cy="420" r="7.6875" style="fill: #2ca02c;"/><circle cx="291.89189189189193" cy="420" r="2.875" style="fill: #2ca02c;"/><text/><text/><text/><text y="420" x="930" class="label" style="fill: #2ca02c;">Simulation and Comparison of...</text></g><g class="journal"><circle cx="364.8648648648649" cy="440" r="2.002173913043477" style="fill: #2ca02c;"/><circle cx="413.51351351351354" cy="440" r="3.131918564525" style="fill: #2ca02c;"/><circle cx="48.64864864864865" cy="440" r="2.0028985507246357" style="fill: #2ca02c;"/><circle cx="97.2972972972973" cy="440" r="2.0869565217388" style="fill: #2ca02c;"/><circle cx="510.8108108108108" cy="440" r="2.1564225327812" style="fill: #2ca02c;"/><circle cx="535.1351351351352" cy="440" r="2.000724637681159" style="fill: #2ca02c;"/><circle cx="121.62162162162163" cy="440" r="2.005693581780537" style="fill: #2ca02c;"/><circle cx="145.94594594594597" cy="440" r="2.05006901311251" style="fill: #2ca02c;"/><circle cx="170.2702702702703" cy="440" r="2.6612318840582" style="fill: #2ca02c;"/><circle cx="559.4594594594595" cy="440" r="2.0010351966873707" style="fill: #2ca02c;"/><circle cx="194.5945945945946" cy="440" r="2.5475845410630003" style="fill: #2ca02c;"/><circle cx="608.1081081081081" cy="440" r="2.0046583850931663" style="fill: #2ca02c;"/><circle cx="243.24324324324326" cy="440" r="2.001863354037265" style="fill: #2ca02c;"/><circle cx="851.3513513513514" cy="440" r="2.02877846790889" style="fill: #2ca02c;"/><circle cx="267.5675675675676" cy="440" r="6.266058488614999" style="fill: #2ca02c;"/><circle cx="291.89189189189193" cy="440" r="2.04437543133198" style="fill: #2ca02c;"/><circle cx="316.21621621621625" cy="440" r="2.00175983436853" style="fill: #2ca02c;"/><circle cx="340.5405405405406" cy="440" r="2.005797101449272" style="fill: #2ca02c;"/><text/><text/><text/><text/><text/><text/><text/><text/><text/><text/><text/><text/><text/><text/><text/><text/><text/><text/><text y="440" x="930" class="label" style="fill: #2ca02c;">Parallel changes in...</text></g><g class="journal"><circle cx="510.8108108108108" cy="460" r="3.75" style="fill: #2ca02c;"/><circle cx="267.5675675675676" cy="460" r="7.25" style="fill: #2ca02c;"/><text/><text/><text y="460" x="930" class="label" style="fill: #2ca02c;">Connecting Programming...</text></g><g class="journal"><circle cx="267.5675675675676" cy="480" r="5.5" style="fill: #2ca02c;"/><circle cx="291.89189189189193" cy="480" r="5.5" style="fill: #2ca02c;"/><text/><text/><text y="480" x="930" class="label" style="fill: #2ca02c;">Experiences in Improving Risk...</text></g><g class="journal"><circle cx="0" cy="500" r="2.03846153846157" style="fill: #2ca02c;"/><circle cx="24.324324324324326" cy="500" r="2.003694081925359" style="fill: #2ca02c;"/><circle cx="48.64864864864865" cy="500" r="2.02188999077398" style="fill: #2ca02c;"/><circle cx="72.97297297297298" cy="500" r="2.0000259524551023" style="fill: #2ca02c;"/><circle cx="97.2972972972973" cy="500" r="2.0950613192221" style="fill: #2ca02c;"/><circle cx="121.62162162162163" cy="500" r="2.03391186278627" style="fill: #2ca02c;"/><circle cx="145.94594594594597" cy="500" r="2.0123999092660103" style="fill: #2ca02c;"/><circle cx="170.2702702702703" cy="500" r="2.04430347449199" style="fill: #2ca02c;"/><circle cx="194.5945945945946" cy="500" r="2.1781114881133" style="fill: #2ca02c;"/><circle cx="681.0810810810812" cy="500" r="2.000039823298198" style="fill: #2ca02c;"/><circle cx="243.24324324324326" cy="500" r="2.0332361615837997" style="fill: #2ca02c;"/><circle cx="851.3513513513514" cy="500" r="2.0336574198974997" style="fill: #2ca02c;"/><circle cx="267.5675675675676" cy="500" r="6.9183193067260005" style="fill: #2ca02c;"/><circle cx="291.89189189189193" cy="500" r="3.1834709658099998" style="fill: #2ca02c;"/><circle cx="316.21621621621625" cy="500" r="2.002804891559547" style="fill: #2ca02c;"/><circle cx="340.5405405405406" cy="500" r="2.001581536750878" style="fill: #2ca02c;"/><circle cx="364.8648648648649" cy="500" r="2.02289273350133" style="fill: #2ca02c;"/><circle cx="413.51351351351354" cy="500" r="2.0793547829417" style="fill: #2ca02c;"/><circle cx="389.1891891891892" cy="500" r="2.005303528380451" style="fill: #2ca02c;"/><circle cx="705.4054054054054" cy="500" r="2.000180196779142" style="fill: #2ca02c;"/><circle cx="462.16216216216213" cy="500" r="2.03900003212455" style="fill: #2ca02c;"/><circle cx="486.4864864864865" cy="500" r="2.000337567955434" style="fill: #2ca02c;"/><circle cx="510.8108108108108" cy="500" r="2.1308262216709" style="fill: #2ca02c;"/><circle cx="535.1351351351352" cy="500" r="2.0595321795377397" style="fill: #2ca02c;"/><circle cx="559.4594594594595" cy="500" r="2.04512782437996" style="fill: #2ca02c;"/><circle cx="802.7027027027027" cy="500" r="2.0000039765858624" style="fill: #2ca02c;"/><circle cx="583.7837837837839" cy="500" r="2.00012383729481" style="fill: #2ca02c;"/><circle cx="778.3783783783784" cy="500" r="2.00790344100994" style="fill: #2ca02c;"/><circle cx="608.1081081081081" cy="500" r="2.002304630240486" style="fill: #2ca02c;"/><circle cx="656.7567567567568" cy="500" r="2.006139324475634" style="fill: #2ca02c;"/><text/><text/><text/><text/><text/><text/><text/><text/><text/><text/><text/><text/><text/><text/><text/><text/><text/><text/><text/><text/><text/><text/><text/><text/><text/><text/><text/><text/><text/><text/><text y="500" x="930" class="label" style="fill: #2ca02c;">An Investigation on the Use of...</text></g><rect width="10" height="450" x="915" y="1380" style="fill: #ffffff;"/></g><g><g class="journal"><circle cx="364.8648648648649" cy="520" r="3.4000000000000004" style="fill: #d62728;"/><circle cx="389.1891891891892" cy="520" r="5.5" style="fill: #d62728;"/><circle cx="243.24324324324326" cy="520" r="2.7" style="fill: #d62728;"/><circle cx="656.7567567567568" cy="520" r="3.4000000000000004" style="fill: #d62728;"/><text/><text/><text/><text/><text y="520" x="930" class="label" style="fill: #d62728;">A generic model for reflective...</text></g><g class="journal"><circle cx="875.6756756756757" cy="540" r="3.68" style="fill: #d62728;"/><circle cx="243.24324324324326" cy="540" r="3.68" style="fill: #d62728;"/><circle cx="535.1351351351352" cy="540" r="4.8" style="fill: #d62728;"/><circle cx="656.7567567567568" cy="540" r="2.28" style="fill: #d62728;"/><circle cx="145.94594594594597" cy="540" r="2.56" style="fill: #d62728;"/><text/><text/><text/><text/><text/><text y="540" x="930" class="label" style="fill: #d62728;">Mechanisms for Generic Process...</text></g><g class="journal"><circle cx="24.324324324324326" cy="560" r="4.333333333331" style="fill: #d62728;"/><circle cx="389.1891891891892" cy="560" r="4.333333333331" style="fill: #d62728;"/><circle cx="535.1351351351352" cy="560" r="4.333333333331" style="fill: #d62728;"/><text/><text/><text/><text y="560" x="930" class="label" style="fill: #d62728;">Automated Data Mapping...</text></g><g class="journal"><circle cx="389.1891891891892" cy="580" r="5.5" style="fill: #d62728;"/><circle cx="535.1351351351352" cy="580" r="5.5" style="fill: #d62728;"/><text/><text/><text y="580" x="930" class="label" style="fill: #d62728;">Commutable Transactions and...</text></g><g class="journal"><circle cx="389.1891891891892" cy="600" r="5.5" style="fill: #d62728;"/><circle cx="535.1351351351352" cy="600" r="5.5" style="fill: #d62728;"/><text/><text/><text y="600" x="930" class="label" style="fill: #d62728;">A Framework for Data Base...</text></g><rect width="10" height="450" x="915" y="1830" style="fill: #ffffff;"/></g><g><g class="journal"><circle cx="583.7837837837839" cy="620" r="2.3888888888892" style="fill: #9467bd;"/><circle cx="413.51351351351354" cy="620" r="5.888888888892001" style="fill: #9467bd;"/><circle cx="194.5945945945946" cy="620" r="3.75" style="fill: #9467bd;"/><circle cx="851.3513513513514" cy="620" r="2.1944444444446" style="fill: #9467bd;"/><circle cx="267.5675675675676" cy="620" r="2.1944444444446" style="fill: #9467bd;"/><circle cx="291.89189189189193" cy="620" r="2.1944444444446" style="fill: #9467bd;"/><circle cx="97.2972972972973" cy="620" r="2.1944444444446" style="fill: #9467bd;"/><circle cx="145.94594594594597" cy="620" r="2.1944444444446" style="fill: #9467bd;"/><text/><text/><text/><text/><text/><text/><text/><text/><text y="620" x="930" class="label" style="fill: #9467bd;">Coupling and cohesion metrics...</text></g><g class="journal"><circle cx="364.8648648648649" cy="640" r="2.003846153846157" style="fill: #9467bd;"/><circle cx="413.51351351351354" cy="640" r="5.747184066563" style="fill: #9467bd;"/><circle cx="48.64864864864865" cy="640" r="2.0016317016317" style="fill: #9467bd;"/><circle cx="486.4864864864865" cy="640" r="2.0076923076923" style="fill: #9467bd;"/><circle cx="510.8108108108108" cy="640" r="2.001648351648349" style="fill: #9467bd;"/><circle cx="121.62162162162163" cy="640" r="2.876086690668" style="fill: #9467bd;"/><circle cx="535.1351351351352" cy="640" r="2.03571428550529" style="fill: #9467bd;"/><circle cx="170.2702702702703" cy="640" r="2.7873745696669996" style="fill: #9467bd;"/><circle cx="802.7027027027027" cy="640" r="2.000480769230769" style="fill: #9467bd;"/><circle cx="194.5945945945946" cy="640" r="2.5923076923078" style="fill: #9467bd;"/><circle cx="608.1081081081081" cy="640" r="2.00914918414921" style="fill: #9467bd;"/><circle cx="851.3513513513514" cy="640" r="2.005069930069932" style="fill: #9467bd;"/><circle cx="243.24324324324326" cy="640" r="2.06621989121986" style="fill: #9467bd;"/><circle cx="291.89189189189193" cy="640" r="2.8626660841260003" style="fill: #9467bd;"/><circle cx="340.5405405405406" cy="640" r="2.002928321678324" style="fill: #9467bd;"/><text/><text/><text/><text/><text/><text/><text/><text/><text/><text/><text/><text/><text/><text/><text/><text y="640" x="930" class="label" style="fill: #9467bd;">The impact of test suite...</text></g><g class="journal"><circle cx="170.2702702702703" cy="660" r="3.8666666666690004" style="fill: #9467bd;"/><circle cx="413.51351351351354" cy="660" r="5.033333333331" style="fill: #9467bd;"/><circle cx="194.5945945945946" cy="660" r="3.4000000000000004" style="fill: #9467bd;"/><circle cx="291.89189189189193" cy="660" r="2.2333333333331" style="fill: #9467bd;"/><circle cx="121.62162162162163" cy="660" r="2.4666666666669" style="fill: #9467bd;"/><text/><text/><text/><text/><text/><text y="660" x="930" class="label" style="fill: #9467bd;">An empirical study of...</text></g><g class="journal"><circle cx="413.51351351351354" cy="680" r="6.199999999999999" style="fill: #9467bd;"/><circle cx="121.62162162162163" cy="680" r="3.4000000000000004" style="fill: #9467bd;"/><circle cx="170.2702702702703" cy="680" r="3.4000000000000004" style="fill: #9467bd;"/><text/><text/><text/><text y="680" x="930" class="label" style="fill: #9467bd;">The Path Prefix Software...</text></g><g class="journal"><circle cx="364.8648648648649" cy="700" r="2.3888888888892" style="fill: #9467bd;"/><circle cx="24.324324324324326" cy="700" r="2.3888888888892" style="fill: #9467bd;"/><circle cx="413.51351351351354" cy="700" r="6.888888888891" style="fill: #9467bd;"/><circle cx="194.5945945945946" cy="700" r="2.1111111111109997" style="fill: #9467bd;"/><circle cx="608.1081081081081" cy="700" r="2.1944444444446" style="fill: #9467bd;"/><circle cx="267.5675675675676" cy="700" r="2.4166666666666" style="fill: #9467bd;"/><circle cx="486.4864864864865" cy="700" r="2.1944444444446" style="fill: #9467bd;"/><circle cx="145.94594594594597" cy="700" r="2.4166666666666" style="fill: #9467bd;"/><text/><text/><text/><text/><text/><text/><text/><text/><text y="700" x="930" class="label" style="fill: #9467bd;">Automatic Method Completion.</text></g><rect width="10" height="450" x="915" y="2280" style="fill: #ffffff;"/></g><g><g class="journal"><circle cx="827.0270270270271" cy="720" r="6.666666666669" style="fill: #8c564b;"/><circle cx="72.97297297297298" cy="720" r="4.333333333331" style="fill: #8c564b;"/><text/><text/><text y="720" x="930" class="label" style="fill: #8c564b;">Some Empirical Observations on...</text></g><g class="journal"><circle cx="559.4594594594595" cy="740" r="2.5000000000002" style="fill: #8c564b;"/><circle cx="583.7837837837839" cy="740" r="2.5000000000002" style="fill: #8c564b;"/><circle cx="608.1081081081081" cy="740" r="2.5000000000002" style="fill: #8c564b;"/><circle cx="632.4324324324325" cy="740" r="3.999999999998" style="fill: #8c564b;"/><circle cx="72.97297297297298" cy="740" r="3.500000000002" style="fill: #8c564b;"/><circle cx="462.16216216216213" cy="740" r="2.5000000000002" style="fill: #8c564b;"/><circle cx="97.2972972972973" cy="740" r="2.5000000000002" style="fill: #8c564b;"/><circle cx="121.62162162162163" cy="740" r="2.5000000000002" style="fill: #8c564b;"/><circle cx="340.5405405405406" cy="740" r="2.5000000000002" style="fill: #8c564b;"/><text/><text/><text/><text/><text/><text/><text/><text/><text/><text y="740" x="930" class="label" style="fill: #8c564b;">SAFKASI: a security mechanism...</text></g><g class="journal"><circle cx="729.7297297297298" cy="760" r="5.5" style="fill: #8c564b;"/><circle cx="97.2972972972973" cy="760" r="5.5" style="fill: #8c564b;"/><text/><text/><text y="760" x="930" class="label" style="fill: #8c564b;">Automated Mapping from Goal...</text></g><g class="journal"><circle cx="559.4594594594595" cy="780" r="3.999999999998" style="fill: #8c564b;"/><circle cx="827.0270270270271" cy="780" r="4.999999999997" style="fill: #8c564b;"/><circle cx="583.7837837837839" cy="780" r="3.999999999998" style="fill: #8c564b;"/><text/><text/><text/><text y="780" x="930" class="label" style="fill: #8c564b;">Efficient online monitoring of...</text></g><g class="journal"><circle cx="72.97297297297298" cy="800" r="7.444444444445999" style="fill: #8c564b;"/><circle cx="827.0270270270271" cy="800" r="3.555555555554" style="fill: #8c564b;"/><text/><text/><text y="800" x="930" class="label" style="fill: #8c564b;">An Experiment in Program...</text></g><rect width="10" height="450" x="915" y="2730" style="fill: #ffffff;"/></g><g><g class="journal"><circle cx="364.8648648648649" cy="820" r="2.05555555555557" style="fill: #e377c2;"/><circle cx="413.51351351351354" cy="820" r="2.2430555555554" style="fill: #e377c2;"/><circle cx="462.16216216216213" cy="820" r="2.02430555555554" style="fill: #e377c2;"/><circle cx="510.8108108108108" cy="820" r="2.04861111111108" style="fill: #e377c2;"/><circle cx="121.62162162162163" cy="820" r="2.1944444444446" style="fill: #e377c2;"/><circle cx="145.94594594594597" cy="820" r="2.01388888888891" style="fill: #e377c2;"/><circle cx="170.2702702702703" cy="820" r="2.2500000000001" style="fill: #e377c2;"/><circle cx="559.4594594594595" cy="820" r="3.166666666669" style="fill: #e377c2;"/><circle cx="802.7027027027027" cy="820" r="6.666666666669" style="fill: #e377c2;"/><circle cx="583.7837837837839" cy="820" r="2.01388888888891" style="fill: #e377c2;"/><circle cx="194.5945945945946" cy="820" r="2.02430555555554" style="fill: #e377c2;"/><circle cx="608.1081081081081" cy="820" r="2.2083333333333" style="fill: #e377c2;"/><circle cx="851.3513513513514" cy="820" r="2.04166666666666" style="fill: #e377c2;"/><circle cx="267.5675675675676" cy="820" r="2.04861111111108" style="fill: #e377c2;"/><text/><text/><text/><text/><text/><text/><text/><text/><text/><text/><text/><text/><text/><text/><text y="820" x="930" class="label" style="fill: #e377c2;">Reversible Debugging Using...</text></g><g class="journal"><circle cx="340.5405405405406" cy="840" r="5.5" style="fill: #e377c2;"/><circle cx="48.64864864864865" cy="840" r="5.5" style="fill: #e377c2;"/><text/><text/><text y="840" x="930" class="label" style="fill: #e377c2;">Breaking up is hard to do: An...</text></g><g class="journal"><circle cx="802.7027027027027" cy="860" r="6.666666666669" style="fill: #e377c2;"/><circle cx="340.5405405405406" cy="860" r="3.166666666669" style="fill: #e377c2;"/><circle cx="656.7567567567568" cy="860" r="3.166666666669" style="fill: #e377c2;"/><text/><text/><text/><text y="860" x="930" class="label" style="fill: #e377c2;">Model Checking for an...</text></g><g class="journal"><circle cx="802.7027027027027" cy="880" r="5.5" style="fill: #e377c2;"/><circle cx="340.5405405405406" cy="880" r="5.5" style="fill: #e377c2;"/><text/><text/><text y="880" x="930" class="label" style="fill: #e377c2;">The effect of program and...</text></g><g class="journal"><circle cx="340.5405405405406" cy="900" r="5.5" style="fill: #e377c2;"/><circle cx="656.7567567567568" cy="900" r="5.5" style="fill: #e377c2;"/><text/><text/><text y="900" x="930" class="label" style="fill: #e377c2;">A Language-Independent...</text></g><rect width="10" height="450" x="915" y="3180" style="fill: #ffffff;"/></g><g><g class="journal"><circle cx="437.83783783783787" cy="920" r="4.333333333331" style="fill: #7f7f7f;"/><circle cx="364.8648648648649" cy="920" r="6.666666666669" style="fill: #7f7f7f;"/><text/><text/><text y="920" x="930" class="label" style="fill: #7f7f7f;">Parametric Graph Drawing.</text></g><g class="journal"><circle cx="194.5945945945946" cy="940" r="7.6" style="fill: #7f7f7f;"/><circle cx="145.94594594594597" cy="940" r="3.4000000000000004" style="fill: #7f7f7f;"/><text/><text/><text y="940" x="930" class="label" style="fill: #7f7f7f;">Power laws in software.</text></g><g class="journal"><circle cx="364.8648648648649" cy="960" r="6.666666666669" style="fill: #7f7f7f;"/><circle cx="24.324324324324326" cy="960" r="4.333333333331" style="fill: #7f7f7f;"/><text/><text/><text y="960" x="930" class="label" style="fill: #7f7f7f;">Role Migration and Advancement...</text></g><g class="journal"><circle cx="364.8648648648649" cy="980" r="5.5" style="fill: #7f7f7f;"/><circle cx="510.8108108108108" cy="980" r="5.5" style="fill: #7f7f7f;"/><text/><text/><text y="980" x="930" class="label" style="fill: #7f7f7f;">Integrating Status and Event...</text></g><g class="journal"><circle cx="364.8648648648649" cy="1000" r="7.25" style="fill: #7f7f7f;"/><circle cx="535.1351351351352" cy="1000" r="3.75" style="fill: #7f7f7f;"/><text/><text/><text y="1000" x="930" class="label" style="fill: #7f7f7f;">Using KIV to Specify and...</text></g><rect width="10" height="450" x="915" y="3630" style="fill: #ffffff;"/></g><g><g class="journal"><circle cx="0" cy="1020" r="7.335365853657" style="fill: #bcbd22;"/><circle cx="24.324324324324326" cy="1020" r="2.03651739996002" style="fill: #bcbd22;"/><circle cx="729.7297297297298" cy="1020" r="2.006097560975611" style="fill: #bcbd22;"/><circle cx="48.64864864864865" cy="1020" r="2.01271281327302" style="fill: #bcbd22;"/><circle cx="97.2972972972973" cy="1020" r="2.1501576258749" style="fill: #bcbd22;"/><circle cx="121.62162162162163" cy="1020" r="2.003256769985693" style="fill: #bcbd22;"/><circle cx="145.94594594594597" cy="1020" r="2.000119013909929" style="fill: #bcbd22;"/><circle cx="170.2702702702703" cy="1020" r="2.0003174739700955" style="fill: #bcbd22;"/><circle cx="218.91891891891893" cy="1020" r="2.000110689012876" style="fill: #bcbd22;"/><circle cx="194.5945945945946" cy="1020" r="2.1379802654902" style="fill: #bcbd22;"/><circle cx="681.0810810810812" cy="1020" r="2.001271326060165" style="fill: #bcbd22;"/><circle cx="243.24324324324326" cy="1020" r="2.06383984418567" style="fill: #bcbd22;"/><circle cx="851.3513513513514" cy="1020" r="2.0000038761362413" style="fill: #bcbd22;"/><circle cx="267.5675675675676" cy="1020" r="2.0816451209742" style="fill: #bcbd22;"/><circle cx="291.89189189189193" cy="1020" r="2.02677935631469" style="fill: #bcbd22;"/><circle cx="316.21621621621625" cy="1020" r="2.04268317235161" style="fill: #bcbd22;"/><circle cx="340.5405405405406" cy="1020" r="2.1231556332867" style="fill: #bcbd22;"/><circle cx="364.8648648648649" cy="1020" r="2.0857384823848" style="fill: #bcbd22;"/><circle cx="413.51351351351354" cy="1020" r="2.2146903389498" style="fill: #bcbd22;"/><circle cx="389.1891891891892" cy="1020" r="2.04268847398389" style="fill: #bcbd22;"/><circle cx="705.4054054054054" cy="1020" r="2.006246958674754" style="fill: #bcbd22;"/><circle cx="462.16216216216213" cy="1020" r="2.06243626796666" style="fill: #bcbd22;"/><circle cx="486.4864864864865" cy="1020" r="2.04288429293428" style="fill: #bcbd22;"/><circle cx="535.1351351351352" cy="1020" r="2.04712671807991" style="fill: #bcbd22;"/><circle cx="559.4594594594595" cy="1020" r="2.1146307616727" style="fill: #bcbd22;"/><circle cx="583.7837837837839" cy="1020" r="2.0849485997339" style="fill: #bcbd22;"/><circle cx="875.6756756756757" cy="1020" r="2.000238035667366" style="fill: #bcbd22;"/><circle cx="608.1081081081081" cy="1020" r="2.1479173594892" style="fill: #bcbd22;"/><circle cx="778.3783783783784" cy="1020" r="2.0002807136404694" style="fill: #bcbd22;"/><circle cx="656.7567567567568" cy="1020" r="2.1281592014024002" style="fill: #bcbd22;"/><text/><text/><text/><text/><text/><text/><text/><text/><text/><text/><text/><text/><text/><text/><text/><text/><text/><text/><text/><text/><text/><text/><text/><text/><text/><text/><text/><text/><text/><text/><text y="1020" x="930" class="label" style="fill: #bcbd22;">State Constraints and Pathwise...</text></g><g class="journal"><circle cx="170.2702702702703" cy="1040" r="2.06481481481482" style="fill: #bcbd22;"/><circle cx="583.7837837837839" cy="1040" r="2.1666666666665" style="fill: #bcbd22;"/><circle cx="608.1081081081081" cy="1040" r="2.5555555555557" style="fill: #bcbd22;"/><circle cx="243.24324324324326" cy="1040" r="2.259259259259" style="fill: #bcbd22;"/><circle cx="121.62162162162163" cy="1040" r="7.064814814815" style="fill: #bcbd22;"/><circle cx="145.94594594594597" cy="1040" r="2.888888888888" style="fill: #bcbd22;"/><text/><text/><text/><text/><text/><text/><text y="1040" x="930" class="label" style="fill: #bcbd22;">Integrating automated test...</text></g><g class="journal"><circle cx="316.21621621621625" cy="1060" r="7.833333333331" style="fill: #bcbd22;"/><circle cx="413.51351351351354" cy="1060" r="3.166666666669" style="fill: #bcbd22;"/><text/><text/><text y="1060" x="930" class="label" style="fill: #bcbd22;">Sieve: A Tool for...</text></g><g class="journal"><circle cx="121.62162162162163" cy="1080" r="7.833333333331" style="fill: #bcbd22;"/><circle cx="632.4324324324325" cy="1080" r="3.166666666669" style="fill: #bcbd22;"/><text/><text/><text y="1080" x="930" class="label" style="fill: #bcbd22;">Secure systems development...</text></g><g class="journal"><circle cx="316.21621621621625" cy="1100" r="5.5" style="fill: #bcbd22;"/><circle cx="462.16216216216213" cy="1100" r="5.5" style="fill: #bcbd22;"/><text/><text/><text y="1100" x="930" class="label" style="fill: #bcbd22;">Web Engineering Device...</text></g><rect width="10" height="450" x="915" y="4080" style="fill: #ffffff;"/></g></g></svg>
