<svg xmlns="http://www.w3.org/2000/svg" width="1420" height="1220" id="bundles" style="margin-left: 20px;"><g transform="translate(20,100)"><g class="x axis" transform="translate(0,90)"><g class="tick" transform="translate(0,0)" style="opacity: 1;"><line y2="-6" x2="0"/><text dy="1em" y="-9" x="0" dx="1em" transform="rotate(290)" style="text-anchor: start;">PERFORMANCE</text></g><g class="tick" transform="translate(25,0)" style="opacity: 1;"><line y2="-6" x2="0"/><text dy="1em" y="-9" x="0" dx="1em" transform="rotate(290)" style="text-anchor: start;">OPERATING SYSTEMS</text></g><g class="tick" transform="translate(50,0)" style="opacity: 1;"><line y2="-6" x2="0"/><text dy="1em" y="-9" x="0" dx="1em" transform="rotate(290)" style="text-anchor: start;">HUMAN COMPUTER INTERACTION</text></g><g class="tick" transform="translate(75,0)" style="opacity: 1;"><line y2="-6" x2="0"/><text dy="1em" y="-9" x="0" dx="1em" transform="rotate(290)" style="text-anchor: start;">TESTING</text></g><g class="tick" transform="translate(100,0)" style="opacity: 1;"><line y2="-6" x2="0"/><text dy="1em" y="-9" x="0" dx="1em" transform="rotate(290)" style="text-anchor: start;">EMPIRICAL SOFTWARE ENGINEERING</text></g><g class="tick" transform="translate(125,0)" style="opacity: 1;"><line y2="-6" x2="0"/><text dy="1em" y="-9" x="0" dx="1em" transform="rotate(290)" style="text-anchor: start;">SOFTWARE QUALITY</text></g><g class="tick" transform="translate(150,0)" style="opacity: 1;"><line y2="-6" x2="0"/><text dy="1em" y="-9" x="0" dx="1em" transform="rotate(290)" style="text-anchor: start;">RELIABILITY</text></g><g class="tick" transform="translate(175,0)" style="opacity: 1;"><line y2="-6" x2="0"/><text dy="1em" y="-9" x="0" dx="1em" transform="rotate(290)" style="text-anchor: start;">FORMAL METHODS</text></g><g class="tick" transform="translate(200,0)" style="opacity: 1;"><line y2="-6" x2="0"/><text dy="1em" y="-9" x="0" dx="1em" transform="rotate(290)" style="text-anchor: start;">MAINTENANCE</text></g><g class="tick" transform="translate(225,0)" style="opacity: 1;"><line y2="-6" x2="0"/><text dy="1em" y="-9" x="0" dx="1em" transform="rotate(290)" style="text-anchor: start;">ARCHITECTURES</text></g><g class="tick" transform="translate(250,0)" style="opacity: 1;"><line y2="-6" x2="0"/><text dy="1em" y="-9" x="0" dx="1em" transform="rotate(290)" style="text-anchor: start;">SERVICES</text></g><g class="tick" transform="translate(275,0)" style="opacity: 1;"><line y2="-6" x2="0"/><text dy="1em" y="-9" x="0" dx="1em" transform="rotate(290)" style="text-anchor: start;">ADAPTIVE SYSTEMS</text></g><g class="tick" transform="translate(300,0)" style="opacity: 1;"><line y2="-6" x2="0"/><text dy="1em" y="-9" x="0" dx="1em" transform="rotate(290)" style="text-anchor: start;">ALGORITHM</text></g><g class="tick" transform="translate(325,0)" style="opacity: 1;"><line y2="-6" x2="0"/><text dy="1em" y="-9" x="0" dx="1em" transform="rotate(290)" style="text-anchor: start;">ARTIFICIAL INTELLIGENCE</text></g><g class="tick" transform="translate(350,0)" style="opacity: 1;"><line y2="-6" x2="0"/><text dy="1em" y="-9" x="0" dx="1em" transform="rotate(290)" style="text-anchor: start;">CONCURRENCY</text></g><g class="tick" transform="translate(375,0)" style="opacity: 1;"><line y2="-6" x2="0"/><text dy="1em" y="-9" x="0" dx="1em" transform="rotate(290)" style="text-anchor: start;">DATABASE</text></g><g class="tick" transform="translate(400,0)" style="opacity: 1;"><line y2="-6" x2="0"/><text dy="1em" y="-9" x="0" dx="1em" transform="rotate(290)" style="text-anchor: start;">DISTRIBUTED SYSTEMS</text></g><g class="tick" transform="translate(425,0)" style="opacity: 1;"><line y2="-6" x2="0"/><text dy="1em" y="-9" x="0" dx="1em" transform="rotate(290)" style="text-anchor: start;">EDUCATION</text></g><g class="tick" transform="translate(450,0)" style="opacity: 1;"><line y2="-6" x2="0"/><text dy="1em" y="-9" x="0" dx="1em" transform="rotate(290)" style="text-anchor: start;">EMBEDDED</text></g><g class="tick" transform="translate(475,0)" style="opacity: 1;"><line y2="-6" x2="0"/><text dy="1em" y="-9" x="0" dx="1em" transform="rotate(290)" style="text-anchor: start;">EVOLUTION</text></g><g class="tick" transform="translate(500,0)" style="opacity: 1;"><line y2="-6" x2="0"/><text dy="1em" y="-9" x="0" dx="1em" transform="rotate(290)" style="text-anchor: start;">INFORMATION SYSTMS</text></g><g class="tick" transform="translate(525,0)" style="opacity: 1;"><line y2="-6" x2="0"/><text dy="1em" y="-9" x="0" dx="1em" transform="rotate(290)" style="text-anchor: start;">KNOWLEDGE ENGINEERING</text></g><g class="tick" transform="translate(550,0)" style="opacity: 1;"><line y2="-6" x2="0"/><text dy="1em" y="-9" x="0" dx="1em" transform="rotate(290)" style="text-anchor: start;">LANGUAGES</text></g><g class="tick" transform="translate(575,0)" style="opacity: 1;"><line y2="-6" x2="0"/><text dy="1em" y="-9" x="0" dx="1em" transform="rotate(290)" style="text-anchor: start;">METHODOLOGIES</text></g><g class="tick" transform="translate(600,0)" style="opacity: 1;"><line y2="-6" x2="0"/><text dy="1em" y="-9" x="0" dx="1em" transform="rotate(290)" style="text-anchor: start;">METRICS</text></g><g class="tick" transform="translate(625,0)" style="opacity: 1;"><line y2="-6" x2="0"/><text dy="1em" y="-9" x="0" dx="1em" transform="rotate(290)" style="text-anchor: start;">MODELS</text></g><g class="tick" transform="translate(650,0)" style="opacity: 1;"><line y2="-6" x2="0"/><text dy="1em" y="-9" x="0" dx="1em" transform="rotate(290)" style="text-anchor: start;">PROCESS</text></g><g class="tick" transform="translate(675,0)" style="opacity: 1;"><line y2="-6" x2="0"/><text dy="1em" y="-9" x="0" dx="1em" transform="rotate(290)" style="text-anchor: start;">PRODUCT LINES</text></g><g class="tick" transform="translate(700,0)" style="opacity: 1;"><line y2="-6" x2="0"/><text dy="1em" y="-9" x="0" dx="1em" transform="rotate(290)" style="text-anchor: start;">PROGRAM ANALYSIS</text></g><g class="tick" transform="translate(725,0)" style="opacity: 1;"><line y2="-6" x2="0"/><text dy="1em" y="-9" x="0" dx="1em" transform="rotate(290)" style="text-anchor: start;">PROGRAM COMPREHENSION</text></g><g class="tick" transform="translate(750,0)" style="opacity: 1;"><line y2="-6" x2="0"/><text dy="1em" y="-9" x="0" dx="1em" transform="rotate(290)" style="text-anchor: start;">REAL TIME SYSTEMS</text></g><g class="tick" transform="translate(775,0)" style="opacity: 1;"><line y2="-6" x2="0"/><text dy="1em" y="-9" x="0" dx="1em" transform="rotate(290)" style="text-anchor: start;">REQUIREMENTS</text></g><g class="tick" transform="translate(800,0)" style="opacity: 1;"><line y2="-6" x2="0"/><text dy="1em" y="-9" x="0" dx="1em" transform="rotate(290)" style="text-anchor: start;">REVERSE ENGINEERING</text></g><g class="tick" transform="translate(825,0)" style="opacity: 1;"><line y2="-6" x2="0"/><text dy="1em" y="-9" x="0" dx="1em" transform="rotate(290)" style="text-anchor: start;">SECURITY</text></g><g class="tick" transform="translate(850,0)" style="opacity: 1;"><line y2="-6" x2="0"/><text dy="1em" y="-9" x="0" dx="1em" transform="rotate(290)" style="text-anchor: start;">SYNTHESIS</text></g><g class="tick" transform="translate(875,0)" style="opacity: 1;"><line y2="-6" x2="0"/><text dy="1em" y="-9" x="0" dx="1em" transform="rotate(290)" style="text-anchor: start;">VISUALIZATION</text></g><g class="tick" transform="translate(900,0)" style="opacity: 1;"><line y2="-6" x2="0"/><text dy="1em" y="-9" x="0" dx="1em" transform="rotate(290)" style="text-anchor: start;"/></g><path class="domain" d="M0,-6V0H900V-6"/></g><g><g class="journal"><circle cx="0" cy="120" r="6.666666666669" style="fill: #17becf;"/><circle cx="25" cy="120" r="4.333333333331" style="fill: #17becf;"/><text/><text/><text y="120" x="930" class="label" style="fill: #17becf;">Some Empirical Observations on...</text></g><g class="journal"><circle cx="50" cy="140" r="2.6666666666667" style="fill: #17becf;"/><circle cx="75" cy="140" r="2.333333333333" style="fill: #17becf;"/><circle cx="100" cy="140" r="2.333333333333" style="fill: #17becf;"/><circle cx="0" cy="140" r="4.333333333331" style="fill: #17becf;"/><circle cx="125" cy="140" r="2.6666666666667" style="fill: #17becf;"/><circle cx="150" cy="140" r="2.333333333333" style="fill: #17becf;"/><circle cx="175" cy="140" r="4.333333333331" style="fill: #17becf;"/><text/><text/><text/><text/><text/><text/><text/><text y="140" x="930" class="label" style="fill: #17becf;">Using Failure Cost Information...</text></g><g class="journal"><circle cx="200" cy="160" r="5.5" style="fill: #17becf;"/><circle cx="0" cy="160" r="5.5" style="fill: #17becf;"/><text/><text/><text y="160" x="930" class="label" style="fill: #17becf;">Automating the performance...</text></g><g class="journal"><circle cx="225" cy="180" r="3.999999999998" style="fill: #17becf;"/><circle cx="0" cy="180" r="4.999999999997" style="fill: #17becf;"/><circle cx="250" cy="180" r="3.999999999998" style="fill: #17becf;"/><text/><text/><text/><text y="180" x="930" class="label" style="fill: #17becf;">Efficient online monitoring of...</text></g><g class="journal"><circle cx="275" cy="200" r="2.0000008289683198" style="fill: #17becf;"/><circle cx="300" cy="200" r="2.000001924178269" style="fill: #17becf;"/><circle cx="225" cy="200" r="2.01391486845483" style="fill: #17becf;"/><circle cx="325" cy="200" r="2.0946100989036" style="fill: #17becf;"/><circle cx="350" cy="200" r="2.000073881593352" style="fill: #17becf;"/><circle cx="375" cy="200" r="2.02773393443205" style="fill: #17becf;"/><circle cx="400" cy="200" r="2.4401859081235" style="fill: #17becf;"/><circle cx="425" cy="200" r="2.0001377407075944" style="fill: #17becf;"/><circle cx="450" cy="200" r="2.001543778757094" style="fill: #17becf;"/><circle cx="100" cy="200" r="2.06399285145694" style="fill: #17becf;"/><circle cx="475" cy="200" r="2.001930215763399" style="fill: #17becf;"/><circle cx="175" cy="200" r="2.0712051482107" style="fill: #17becf;"/><circle cx="50" cy="200" r="2.004125706578945" style="fill: #17becf;"/><circle cx="500" cy="200" r="2.00280547439361" style="fill: #17becf;"/><circle cx="525" cy="200" r="2.0383388449192" style="fill: #17becf;"/><circle cx="550" cy="200" r="2.3738042844599" style="fill: #17becf;"/><circle cx="200" cy="200" r="2.01745601713842" style="fill: #17becf;"/><circle cx="575" cy="200" r="2.002204171412233" style="fill: #17becf;"/><circle cx="600" cy="200" r="2.05900843057914" style="fill: #17becf;"/><circle cx="625" cy="200" r="2.02410256824633" style="fill: #17becf;"/><circle cx="25" cy="200" r="2.02804471313924" style="fill: #17becf;"/><circle cx="0" cy="200" r="6.0701266501769995" style="fill: #17becf;"/><circle cx="650" cy="200" r="2.000735959707049" style="fill: #17becf;"/><circle cx="675" cy="200" r="2.000135400155202" style="fill: #17becf;"/><circle cx="700" cy="200" r="2.003118362764671" style="fill: #17becf;"/><circle cx="725" cy="200" r="2.000426123287405" style="fill: #17becf;"/><circle cx="750" cy="200" r="2.0376664243853098" style="fill: #17becf;"/><circle cx="150" cy="200" r="3.176712373809" style="fill: #17becf;"/><circle cx="775" cy="200" r="2.00372058083691" style="fill: #17becf;"/><circle cx="800" cy="200" r="2.0000345547580114" style="fill: #17becf;"/><circle cx="825" cy="200" r="2.000347212506968" style="fill: #17becf;"/><circle cx="250" cy="200" r="2.0765102748494" style="fill: #17becf;"/><circle cx="125" cy="200" r="2.124672195984" style="fill: #17becf;"/><circle cx="850" cy="200" r="2.0000014549069887" style="fill: #17becf;"/><circle cx="75" cy="200" r="2.2401212897817997" style="fill: #17becf;"/><circle cx="875" cy="200" r="2.000449751677454" style="fill: #17becf;"/><text/><text/><text/><text/><text/><text/><text/><text/><text/><text/><text/><text/><text/><text/><text/><text/><text/><text/><text/><text/><text/><text/><text/><text/><text/><text/><text/><text/><text/><text/><text/><text/><text/><text/><text/><text/><text y="200" x="930" class="label" style="fill: #17becf;">Measuring Reliability of...</text></g><rect width="10" height="450" x="915" y="30" style="fill: #ffffff;"/></g><g><g class="journal"><circle cx="150" cy="220" r="3.2499999999969997" style="fill: #1f77b4;"/><circle cx="775" cy="220" r="7.000000000001999" style="fill: #1f77b4;"/><circle cx="125" cy="220" r="2.2500000000001" style="fill: #1f77b4;"/><circle cx="75" cy="220" r="2.5000000000002" style="fill: #1f77b4;"/><text/><text/><text/><text/><text y="220" x="930" class="label" style="fill: #1f77b4;">A Cognitive-Based Mechanism...</text></g><g class="journal"><circle cx="625" cy="240" r="3.999999999998" style="fill: #1f77b4;"/><circle cx="775" cy="240" r="6.000000000003" style="fill: #1f77b4;"/><circle cx="250" cy="240" r="2.999999999999" style="fill: #1f77b4;"/><text/><text/><text/><text y="240" x="930" class="label" style="fill: #1f77b4;">Semantic parameterization: A...</text></g><g class="journal"><circle cx="625" cy="260" r="3.75" style="fill: #1f77b4;"/><circle cx="775" cy="260" r="7.25" style="fill: #1f77b4;"/><text/><text/><text y="260" x="930" class="label" style="fill: #1f77b4;">An Analysis-Revision Cycle to...</text></g><g class="journal"><circle cx="275" cy="280" r="3.75" style="fill: #1f77b4;"/><circle cx="775" cy="280" r="7.25" style="fill: #1f77b4;"/><text/><text/><text y="280" x="930" class="label" style="fill: #1f77b4;">Analysis of multi-agent...</text></g><g class="journal"><circle cx="400" cy="300" r="2.777777777777" style="fill: #1f77b4;"/><circle cx="625" cy="300" r="2.777777777777" style="fill: #1f77b4;"/><circle cx="775" cy="300" r="7.444444444445999" style="fill: #1f77b4;"/><text/><text/><text/><text y="300" x="930" class="label" style="fill: #1f77b4;">Requirements engineering: from...</text></g><rect width="10" height="450" x="915" y="480" style="fill: #ffffff;"/></g><g><g class="journal"><circle cx="250" cy="320" r="2.3888888888892" style="fill: #ff7f0e;"/><circle cx="200" cy="320" r="5.888888888892001" style="fill: #ff7f0e;"/><circle cx="100" cy="320" r="3.75" style="fill: #ff7f0e;"/><circle cx="800" cy="320" r="2.1944444444446" style="fill: #ff7f0e;"/><circle cx="600" cy="320" r="2.1944444444446" style="fill: #ff7f0e;"/><circle cx="125" cy="320" r="2.1944444444446" style="fill: #ff7f0e;"/><circle cx="325" cy="320" r="2.1944444444446" style="fill: #ff7f0e;"/><circle cx="725" cy="320" r="2.1944444444446" style="fill: #ff7f0e;"/><text/><text/><text/><text/><text/><text/><text/><text/><text y="320" x="930" class="label" style="fill: #ff7f0e;">Coupling and cohesion metrics...</text></g><g class="journal"><circle cx="75" cy="340" r="3.8666666666690004" style="fill: #ff7f0e;"/><circle cx="200" cy="340" r="5.033333333331" style="fill: #ff7f0e;"/><circle cx="100" cy="340" r="3.4000000000000004" style="fill: #ff7f0e;"/><circle cx="125" cy="340" r="2.2333333333331" style="fill: #ff7f0e;"/><circle cx="150" cy="340" r="2.4666666666669" style="fill: #ff7f0e;"/><text/><text/><text/><text/><text/><text y="340" x="930" class="label" style="fill: #ff7f0e;">An empirical study of...</text></g><g class="journal"><circle cx="200" cy="360" r="6.199999999999999" style="fill: #ff7f0e;"/><circle cx="150" cy="360" r="3.4000000000000004" style="fill: #ff7f0e;"/><circle cx="75" cy="360" r="3.4000000000000004" style="fill: #ff7f0e;"/><text/><text/><text/><text y="360" x="930" class="label" style="fill: #ff7f0e;">The Path Prefix Software...</text></g><g class="journal"><circle cx="225" cy="380" r="2.5908119658119" style="fill: #ff7f0e;"/><circle cx="175" cy="380" r="2.04487179487182" style="fill: #ff7f0e;"/><circle cx="550" cy="380" r="2.6469017094015" style="fill: #ff7f0e;"/><circle cx="200" cy="380" r="4.961538461539" style="fill: #ff7f0e;"/><circle cx="25" cy="380" r="2.0224358974359102" style="fill: #ff7f0e;"/><circle cx="700" cy="380" r="2.1458333333331003" style="fill: #ff7f0e;"/><circle cx="150" cy="380" r="2.4935897435895997" style="fill: #ff7f0e;"/><circle cx="125" cy="380" r="2.1121794871792" style="fill: #ff7f0e;"/><circle cx="75" cy="380" r="3.98183760684" style="fill: #ff7f0e;"/><text/><text/><text/><text/><text/><text/><text/><text/><text/><text y="380" x="930" class="label" style="fill: #ff7f0e;">UNA Based Iterative Test Data...</text></g><g class="journal"><circle cx="100" cy="400" r="2.5833333333331" style="fill: #ff7f0e;"/><circle cx="500" cy="400" r="3.166666666669" style="fill: #ff7f0e;"/><circle cx="200" cy="400" r="4.916666666669" style="fill: #ff7f0e;"/><circle cx="575" cy="400" r="3.166666666669" style="fill: #ff7f0e;"/><circle cx="75" cy="400" r="3.166666666669" style="fill: #ff7f0e;"/><text/><text/><text/><text/><text/><text y="400" x="930" class="label" style="fill: #ff7f0e;">3): Maintainer's Education and...</text></g><rect width="10" height="450" x="915" y="930" style="fill: #ffffff;"/></g><g><g class="journal"><circle cx="725" cy="420" r="5.5" style="fill: #2ca02c;"/><circle cx="750" cy="420" r="5.5" style="fill: #2ca02c;"/><text/><text/><text y="420" x="930" class="label" style="fill: #2ca02c;">Automatic Model...</text></g><g class="journal"><circle cx="225" cy="440" r="2.03439153439155" style="fill: #2ca02c;"/><circle cx="100" cy="440" r="2.0820105820107" style="fill: #2ca02c;"/><circle cx="475" cy="440" r="2.01587301587305" style="fill: #2ca02c;"/><circle cx="50" cy="440" r="2.03571428571431" style="fill: #2ca02c;"/><circle cx="500" cy="440" r="2.074074074074" style="fill: #2ca02c;"/><circle cx="550" cy="440" r="2.3492063492064" style="fill: #2ca02c;"/><circle cx="200" cy="440" r="3.105158730158" style="fill: #2ca02c;"/><circle cx="575" cy="440" r="2.002645502645506" style="fill: #2ca02c;"/><circle cx="600" cy="440" r="2.718253968257" style="fill: #2ca02c;"/><circle cx="625" cy="440" r="2.01587301587305" style="fill: #2ca02c;"/><circle cx="725" cy="440" r="5.990079365076" style="fill: #2ca02c;"/><circle cx="150" cy="440" r="2.05555555555557" style="fill: #2ca02c;"/><circle cx="800" cy="440" r="2.5185185185187002" style="fill: #2ca02c;"/><circle cx="125" cy="440" r="2.002645502645506" style="fill: #2ca02c;"/><text/><text/><text/><text/><text/><text/><text/><text/><text/><text/><text/><text/><text/><text/><text y="440" x="930" class="label" style="fill: #2ca02c;">SNIAFL: Towards a static...</text></g><g class="journal"><circle cx="475" cy="460" r="2.175" style="fill: #2ca02c;"/><circle cx="200" cy="460" r="2.875" style="fill: #2ca02c;"/><circle cx="700" cy="460" r="2.525" style="fill: #2ca02c;"/><circle cx="725" cy="460" r="7.25" style="fill: #2ca02c;"/><circle cx="800" cy="460" r="2.175" style="fill: #2ca02c;"/><text/><text/><text/><text/><text/><text y="460" x="930" class="label" style="fill: #2ca02c;">Timna: a framework for...</text></g><g class="journal"><circle cx="550" cy="480" r="2.3888888888892" style="fill: #2ca02c;"/><circle cx="725" cy="480" r="8.611111111108" style="fill: #2ca02c;"/><text/><text/><text y="480" x="930" class="label" style="fill: #2ca02c;">Breaking the barriers to...</text></g><g class="journal"><circle cx="750" cy="500" r="2.0000014769577708" style="fill: #2ca02c;"/><circle cx="875" cy="500" r="2.000008149200808" style="fill: #2ca02c;"/><circle cx="275" cy="500" r="2.002213830167206" style="fill: #2ca02c;"/><circle cx="700" cy="500" r="2.06652514202523" style="fill: #2ca02c;"/><circle cx="25" cy="500" r="2.003795423321396" style="fill: #2ca02c;"/><circle cx="0" cy="500" r="2.0000174147215906" style="fill: #2ca02c;"/><circle cx="325" cy="500" r="2.003072854469727" style="fill: #2ca02c;"/><circle cx="150" cy="500" r="2.03428668778955" style="fill: #2ca02c;"/><circle cx="725" cy="500" r="5.557175368775" style="fill: #2ca02c;"/><circle cx="75" cy="500" r="2.06248129086759" style="fill: #2ca02c;"/><circle cx="350" cy="500" r="2.0000001127400777" style="fill: #2ca02c;"/><circle cx="100" cy="500" r="2.01419040490294" style="fill: #2ca02c;"/><circle cx="675" cy="500" r="2.0000082396033907" style="fill: #2ca02c;"/><circle cx="625" cy="500" r="2.000503394242119" style="fill: #2ca02c;"/><circle cx="800" cy="500" r="2.2163007182525" style="fill: #2ca02c;"/><circle cx="600" cy="500" r="2.000232695421348" style="fill: #2ca02c;"/><circle cx="125" cy="500" r="2.00155228564673" style="fill: #2ca02c;"/><circle cx="475" cy="500" r="2.0254378434646" style="fill: #2ca02c;"/><circle cx="175" cy="500" r="2.04326941717007" style="fill: #2ca02c;"/><circle cx="50" cy="500" r="2.000929752294772" style="fill: #2ca02c;"/><circle cx="200" cy="500" r="3.7619515173819997" style="fill: #2ca02c;"/><circle cx="375" cy="500" r="2.0000129668100723" style="fill: #2ca02c;"/><circle cx="850" cy="500" r="2.0000887272276247" style="fill: #2ca02c;"/><circle cx="300" cy="500" r="2.0000399790668713" style="fill: #2ca02c;"/><circle cx="500" cy="500" r="2.000134251592326" style="fill: #2ca02c;"/><circle cx="400" cy="500" r="2.001130989829389" style="fill: #2ca02c;"/><circle cx="575" cy="500" r="2.0000005003966512" style="fill: #2ca02c;"/><circle cx="525" cy="500" r="2.003306424171386" style="fill: #2ca02c;"/><circle cx="225" cy="500" r="2.001561412296507" style="fill: #2ca02c;"/><circle cx="250" cy="500" r="2.000025700134763" style="fill: #2ca02c;"/><circle cx="650" cy="500" r="2.000001909238094" style="fill: #2ca02c;"/><circle cx="425" cy="500" r="2.000000100807316" style="fill: #2ca02c;"/><circle cx="550" cy="500" r="2.6150915754410002" style="fill: #2ca02c;"/><circle cx="825" cy="500" r="2.001307799473029" style="fill: #2ca02c;"/><circle cx="775" cy="500" r="2.5833436440986" style="fill: #2ca02c;"/><text/><text/><text/><text/><text/><text/><text/><text/><text/><text/><text/><text/><text/><text/><text/><text/><text/><text/><text/><text/><text/><text/><text/><text/><text/><text/><text/><text/><text/><text/><text/><text/><text/><text/><text/><text y="500" x="930" class="label" style="fill: #2ca02c;">Lightweight Source Model...</text></g><rect width="10" height="450" x="915" y="1380" style="fill: #ffffff;"/></g><g><g class="journal"><circle cx="150" cy="520" r="4.333333333331" style="fill: #d62728;"/><circle cx="825" cy="520" r="6.666666666669" style="fill: #d62728;"/><text/><text/><text y="520" x="930" class="label" style="fill: #d62728;">Verification and Trade-Off...</text></g><g class="journal"><circle cx="225" cy="540" r="2.5000000000002" style="fill: #d62728;"/><circle cx="250" cy="540" r="2.5000000000002" style="fill: #d62728;"/><circle cx="550" cy="540" r="2.5000000000002" style="fill: #d62728;"/><circle cx="825" cy="540" r="3.999999999998" style="fill: #d62728;"/><circle cx="25" cy="540" r="3.500000000002" style="fill: #d62728;"/><circle cx="500" cy="540" r="2.5000000000002" style="fill: #d62728;"/><circle cx="325" cy="540" r="2.5000000000002" style="fill: #d62728;"/><circle cx="150" cy="540" r="2.5000000000002" style="fill: #d62728;"/><circle cx="175" cy="540" r="2.5000000000002" style="fill: #d62728;"/><text/><text/><text/><text/><text/><text/><text/><text/><text/><text y="540" x="930" class="label" style="fill: #d62728;">SAFKASI: a security mechanism...</text></g><g class="journal"><circle cx="800" cy="560" r="4.333333333331" style="fill: #d62728;"/><circle cx="825" cy="560" r="6.666666666669" style="fill: #d62728;"/><text/><text/><text y="560" x="930" class="label" style="fill: #d62728;">A tool for analyzing and...</text></g><g class="journal"><circle cx="75" cy="580" r="3.166666666669" style="fill: #d62728;"/><circle cx="225" cy="580" r="3.166666666669" style="fill: #d62728;"/><circle cx="825" cy="580" r="5.5" style="fill: #d62728;"/><circle cx="150" cy="580" r="3.166666666669" style="fill: #d62728;"/><text/><text/><text/><text/><text y="580" x="930" class="label" style="fill: #d62728;">Deriving input syntactic...</text></g><g class="journal"><circle cx="175" cy="600" r="4.333333333331" style="fill: #d62728;"/><circle cx="825" cy="600" r="6.666666666669" style="fill: #d62728;"/><text/><text/><text y="600" x="930" class="label" style="fill: #d62728;">Siddhartha: A Method for...</text></g><rect width="10" height="450" x="915" y="1830" style="fill: #ffffff;"/></g><g><g class="journal"><circle cx="275" cy="620" r="2.0000096108382213" style="fill: #9467bd;"/><circle cx="300" cy="620" r="2.000000051255214" style="fill: #9467bd;"/><circle cx="225" cy="620" r="2.01505192285772" style="fill: #9467bd;"/><circle cx="325" cy="620" r="2.02390637433121" style="fill: #9467bd;"/><circle cx="350" cy="620" r="2.0000004062308965" style="fill: #9467bd;"/><circle cx="375" cy="620" r="6.045782649804" style="fill: #9467bd;"/><circle cx="400" cy="620" r="2.00931084404096" style="fill: #9467bd;"/><circle cx="425" cy="620" r="2.0000691977768024" style="fill: #9467bd;"/><circle cx="450" cy="620" r="2.0000000008600614" style="fill: #9467bd;"/><circle cx="100" cy="620" r="2.004290127448908" style="fill: #9467bd;"/><circle cx="475" cy="620" r="2.00159348604184" style="fill: #9467bd;"/><circle cx="175" cy="620" r="2.03677380355565" style="fill: #9467bd;"/><circle cx="50" cy="620" r="2.5389182376725" style="fill: #9467bd;"/><circle cx="500" cy="620" r="2.0174724116434" style="fill: #9467bd;"/><circle cx="525" cy="620" r="2.1689050669075" style="fill: #9467bd;"/><circle cx="550" cy="620" r="2.5774847491574002" style="fill: #9467bd;"/><circle cx="200" cy="620" r="2.625246342392" style="fill: #9467bd;"/><circle cx="575" cy="620" r="2.0006014706059156" style="fill: #9467bd;"/><circle cx="600" cy="620" r="2.006131973451205" style="fill: #9467bd;"/><circle cx="625" cy="620" r="2.002961517408486" style="fill: #9467bd;"/><circle cx="25" cy="620" r="2.000192549683929" style="fill: #9467bd;"/><circle cx="0" cy="620" r="2.0000001567060512" style="fill: #9467bd;"/><circle cx="650" cy="620" r="2.000000002447741" style="fill: #9467bd;"/><circle cx="675" cy="620" r="2.0001810017314545" style="fill: #9467bd;"/><circle cx="700" cy="620" r="2.04083626258789" style="fill: #9467bd;"/><circle cx="725" cy="620" r="2.0905579993857" style="fill: #9467bd;"/><circle cx="750" cy="620" r="2.000018535181507" style="fill: #9467bd;"/><circle cx="150" cy="620" r="2.00063616882983" style="fill: #9467bd;"/><circle cx="775" cy="620" r="2.001100332683485" style="fill: #9467bd;"/><circle cx="800" cy="620" r="2.731250994572" style="fill: #9467bd;"/><circle cx="825" cy="620" r="2.000093857209349" style="fill: #9467bd;"/><circle cx="250" cy="620" r="2.0004901711031233" style="fill: #9467bd;"/><circle cx="125" cy="620" r="2.0104087888993902" style="fill: #9467bd;"/><circle cx="850" cy="620" r="2.01998351493922" style="fill: #9467bd;"/><circle cx="75" cy="620" r="2.0252290608728902" style="fill: #9467bd;"/><circle cx="875" cy="620" r="2.004510358887391" style="fill: #9467bd;"/><text/><text/><text/><text/><text/><text/><text/><text/><text/><text/><text/><text/><text/><text/><text/><text/><text/><text/><text/><text/><text/><text/><text/><text/><text/><text/><text/><text/><text/><text/><text/><text/><text/><text/><text/><text/><text y="620" x="930" class="label" style="fill: #9467bd;">The Pan Language-Based Editing...</text></g><g class="journal"><circle cx="875" cy="640" r="2.0036923650803478" style="fill: #9467bd;"/><circle cx="700" cy="640" r="2.005674188729587" style="fill: #9467bd;"/><circle cx="0" cy="640" r="2.000020335680388" style="fill: #9467bd;"/><circle cx="25" cy="640" r="2.0001117173420733" style="fill: #9467bd;"/><circle cx="325" cy="640" r="2.3096629278176" style="fill: #9467bd;"/><circle cx="150" cy="640" r="2.004199061132392" style="fill: #9467bd;"/><circle cx="725" cy="640" r="2.1387830306813997" style="fill: #9467bd;"/><circle cx="75" cy="640" r="2.00997459124858" style="fill: #9467bd;"/><circle cx="350" cy="640" r="2.000058083687926" style="fill: #9467bd;"/><circle cx="100" cy="640" r="2.00974999993744" style="fill: #9467bd;"/><circle cx="675" cy="640" r="2.04240084663248" style="fill: #9467bd;"/><circle cx="800" cy="640" r="2.06634194114765" style="fill: #9467bd;"/><circle cx="625" cy="640" r="2.3786006165137" style="fill: #9467bd;"/><circle cx="600" cy="640" r="2.02159505723438" style="fill: #9467bd;"/><circle cx="125" cy="640" r="2.03682576259033" style="fill: #9467bd;"/><circle cx="475" cy="640" r="2.5220481175042" style="fill: #9467bd;"/><circle cx="175" cy="640" r="2.6965213891579998" style="fill: #9467bd;"/><circle cx="50" cy="640" r="2.3885256952283" style="fill: #9467bd;"/><circle cx="200" cy="640" r="2.4156330618496" style="fill: #9467bd;"/><circle cx="375" cy="640" r="5.294919069316" style="fill: #9467bd;"/><circle cx="850" cy="640" r="2.1093348218536" style="fill: #9467bd;"/><circle cx="300" cy="640" r="2.0000628588609755" style="fill: #9467bd;"/><circle cx="500" cy="640" r="2.000865636496116" style="fill: #9467bd;"/><circle cx="400" cy="640" r="2.03835113238453" style="fill: #9467bd;"/><circle cx="575" cy="640" r="2.03423503069742" style="fill: #9467bd;"/><circle cx="525" cy="640" r="2.04422437088531" style="fill: #9467bd;"/><circle cx="225" cy="640" r="2.2044159817602003" style="fill: #9467bd;"/><circle cx="250" cy="640" r="2.001812445773915" style="fill: #9467bd;"/><circle cx="650" cy="640" r="2.0366418371296597" style="fill: #9467bd;"/><circle cx="550" cy="640" r="2.1702127251587" style="fill: #9467bd;"/><circle cx="425" cy="640" r="2.00067137131012" style="fill: #9467bd;"/><circle cx="825" cy="640" r="2.0000846612810363" style="fill: #9467bd;"/><circle cx="775" cy="640" r="2.01374926789159" style="fill: #9467bd;"/><text/><text/><text/><text/><text/><text/><text/><text/><text/><text/><text/><text/><text/><text/><text/><text/><text/><text/><text/><text/><text/><text/><text/><text/><text/><text/><text/><text/><text/><text/><text/><text/><text/><text y="640" x="930" class="label" style="fill: #9467bd;">A Unified Version Model for...</text></g><g class="journal"><circle cx="875" cy="660" r="4.333333333331" style="fill: #9467bd;"/><circle cx="375" cy="660" r="4.333333333331" style="fill: #9467bd;"/><circle cx="525" cy="660" r="4.333333333331" style="fill: #9467bd;"/><text/><text/><text/><text y="660" x="930" class="label" style="fill: #9467bd;">Automated Data Mapping...</text></g><g class="journal"><circle cx="375" cy="680" r="5.5" style="fill: #9467bd;"/><circle cx="525" cy="680" r="5.5" style="fill: #9467bd;"/><text/><text/><text y="680" x="930" class="label" style="fill: #9467bd;">Commutable Transactions and...</text></g><g class="journal"><circle cx="375" cy="700" r="5.5" style="fill: #9467bd;"/><circle cx="525" cy="700" r="5.5" style="fill: #9467bd;"/><text/><text/><text y="700" x="930" class="label" style="fill: #9467bd;">A Framework for Data Base...</text></g><rect width="10" height="450" x="915" y="2280" style="fill: #ffffff;"/></g><g><g class="journal"><circle cx="300" cy="720" r="4.333333333331" style="fill: #8c564b;"/><circle cx="50" cy="720" r="6.666666666669" style="fill: #8c564b;"/><text/><text/><text y="720" x="930" class="label" style="fill: #8c564b;">Parametric Graph Drawing.</text></g><g class="journal"><circle cx="50" cy="740" r="4.314444444445" style="fill: #8c564b;"/><circle cx="375" cy="740" r="2.006205143540673" style="fill: #8c564b;"/><circle cx="200" cy="740" r="2.002580077086657" style="fill: #8c564b;"/><circle cx="700" cy="740" r="2.03713118022327" style="fill: #8c564b;"/><circle cx="850" cy="740" r="2.002093301435407" style="fill: #8c564b;"/><circle cx="500" cy="740" r="2.03865131578945" style="fill: #8c564b;"/><circle cx="25" cy="740" r="2.0001495215311005" style="fill: #8c564b;"/><circle cx="400" cy="740" r="2.5550621345030997" style="fill: #8c564b;"/><circle cx="325" cy="740" r="2.4392361111109997" style="fill: #8c564b;"/><circle cx="525" cy="740" r="2.002430555555554" style="fill: #8c564b;"/><circle cx="150" cy="740" r="2.6279216507178997" style="fill: #8c564b;"/><circle cx="725" cy="740" r="2.02317583732058" style="fill: #8c564b;"/><circle cx="75" cy="740" r="2.01484416533761" style="fill: #8c564b;"/><circle cx="225" cy="740" r="2.02317583732058" style="fill: #8c564b;"/><circle cx="250" cy="740" r="2.0153125" style="fill: #8c564b;"/><circle cx="350" cy="740" r="2.1315789473684" style="fill: #8c564b;"/><circle cx="550" cy="740" r="2.1056203482187" style="fill: #8c564b;"/><circle cx="625" cy="740" r="2.02774305555553" style="fill: #8c564b;"/><circle cx="825" cy="740" r="2.9579861111100003" style="fill: #8c564b;"/><circle cx="125" cy="740" r="2.9019163676249997" style="fill: #8c564b;"/><circle cx="775" cy="740" r="2.1577394005845" style="fill: #8c564b;"/><circle cx="175" cy="740" r="2.6150019936207" style="fill: #8c564b;"/><text/><text/><text/><text/><text/><text/><text/><text/><text/><text/><text/><text/><text/><text/><text/><text/><text/><text/><text/><text/><text/><text/><text y="740" x="930" class="label" style="fill: #8c564b;">Verifying security protocols...</text></g><g class="journal"><circle cx="50" cy="760" r="8.499999999997" style="fill: #8c564b;"/><circle cx="625" cy="760" r="2.5000000000002" style="fill: #8c564b;"/><text/><text/><text y="760" x="930" class="label" style="fill: #8c564b;">Using communicative acts in...</text></g><g class="journal"><circle cx="50" cy="780" r="6.199999999999999" style="fill: #8c564b;"/><circle cx="200" cy="780" r="2.1564705882355" style="fill: #8c564b;"/><circle cx="850" cy="780" r="2.00823529411768" style="fill: #8c564b;"/><circle cx="575" cy="780" r="2.14" style="fill: #8c564b;"/><circle cx="325" cy="780" r="2.00823529411768" style="fill: #8c564b;"/><circle cx="150" cy="780" r="2.01523529411768" style="fill: #8c564b;"/><circle cx="725" cy="780" r="2.6267058823529" style="fill: #8c564b;"/><circle cx="225" cy="780" r="2.178980392157" style="fill: #8c564b;"/><circle cx="550" cy="780" r="2.01523529411768" style="fill: #8c564b;"/><circle cx="675" cy="780" r="2.02470588235297" style="fill: #8c564b;"/><circle cx="800" cy="780" r="2.028" style="fill: #8c564b;"/><circle cx="625" cy="780" r="2.3664705882355" style="fill: #8c564b;"/><circle cx="125" cy="780" r="3.055490196075" style="fill: #8c564b;"/><circle cx="175" cy="780" r="2.1482352941174" style="fill: #8c564b;"/><circle cx="775" cy="780" r="2.028" style="fill: #8c564b;"/><text/><text/><text/><text/><text/><text/><text/><text/><text/><text/><text/><text/><text/><text/><text/><text y="780" x="930" class="label" style="fill: #8c564b;">Argo: A Design Environment for...</text></g><g class="journal"><circle cx="50" cy="800" r="5.5" style="fill: #8c564b;"/><circle cx="575" cy="800" r="5.5" style="fill: #8c564b;"/><text/><text/><text y="800" x="930" class="label" style="fill: #8c564b;">Integrating Status and Event...</text></g><rect width="10" height="450" x="915" y="2730" style="fill: #ffffff;"/></g><g><g class="journal"><circle cx="400" cy="820" r="5.5" style="fill: #e377c2;"/><circle cx="425" cy="820" r="5.5" style="fill: #e377c2;"/><text/><text/><text y="820" x="930" class="label" style="fill: #e377c2;">An Algebraic Specification of...</text></g><g class="journal"><circle cx="225" cy="840" r="2.5185185185187002" style="fill: #e377c2;"/><circle cx="400" cy="840" r="3.296296296295" style="fill: #e377c2;"/><circle cx="425" cy="840" r="4.333333333331" style="fill: #e377c2;"/><circle cx="175" cy="840" r="3.296296296295" style="fill: #e377c2;"/><circle cx="625" cy="840" r="3.555555555554" style="fill: #e377c2;"/><text/><text/><text/><text/><text/><text y="840" x="930" class="label" style="fill: #e377c2;">From Formal Models to Formally...</text></g><g class="journal"><circle cx="425" cy="860" r="7.000000000001999" style="fill: #e377c2;"/><circle cx="175" cy="860" r="2.999999999999" style="fill: #e377c2;"/><circle cx="550" cy="860" r="2.999999999999" style="fill: #e377c2;"/><text/><text/><text/><text y="860" x="930" class="label" style="fill: #e377c2;">Program Analysis with Dynamic...</text></g><g class="journal"><circle cx="225" cy="880" r="3.75" style="fill: #e377c2;"/><circle cx="425" cy="880" r="5.5" style="fill: #e377c2;"/><circle cx="200" cy="880" r="3.75" style="fill: #e377c2;"/><text/><text/><text/><text y="880" x="930" class="label" style="fill: #e377c2;">Investigation Data Quality...</text></g><g class="journal"><circle cx="400" cy="900" r="5.5" style="fill: #e377c2;"/><circle cx="425" cy="900" r="5.5" style="fill: #e377c2;"/><text/><text/><text y="900" x="930" class="label" style="fill: #e377c2;">On the Modelling, Analysis and...</text></g><rect width="10" height="450" x="915" y="3180" style="fill: #ffffff;"/></g><g><g class="journal"><circle cx="750" cy="920" r="2.2813475498589" style="fill: #7f7f7f;"/><circle cx="875" cy="920" r="2.0000078278761855" style="fill: #7f7f7f;"/><circle cx="700" cy="920" r="2.001353344835437" style="fill: #7f7f7f;"/><circle cx="25" cy="920" r="2.0546875" style="fill: #7f7f7f;"/><circle cx="325" cy="920" r="2.003007024678217" style="fill: #7f7f7f;"/><circle cx="150" cy="920" r="2.06322495955202" style="fill: #7f7f7f;"/><circle cx="725" cy="920" r="2.002379813511138" style="fill: #7f7f7f;"/><circle cx="75" cy="920" r="2.05817906299142" style="fill: #7f7f7f;"/><circle cx="100" cy="920" r="2.0133446396974097" style="fill: #7f7f7f;"/><circle cx="350" cy="920" r="7.853532608693" style="fill: #7f7f7f;"/><circle cx="625" cy="920" r="2.0003438738231374" style="fill: #7f7f7f;"/><circle cx="600" cy="920" r="2.0000001223105657" style="fill: #7f7f7f;"/><circle cx="125" cy="920" r="2.0071719097142" style="fill: #7f7f7f;"/><circle cx="475" cy="920" r="2.000700147340424" style="fill: #7f7f7f;"/><circle cx="175" cy="920" r="2.0721983839031" style="fill: #7f7f7f;"/><circle cx="50" cy="920" r="2.000000489242262" style="fill: #7f7f7f;"/><circle cx="375" cy="920" r="2.003926254886505" style="fill: #7f7f7f;"/><circle cx="200" cy="920" r="2.0926500939441" style="fill: #7f7f7f;"/><circle cx="300" cy="920" r="2.0000001134474807" style="fill: #7f7f7f;"/><circle cx="500" cy="920" r="2.0000000611552826" style="fill: #7f7f7f;"/><circle cx="400" cy="920" r="2.3027435319657" style="fill: #7f7f7f;"/><circle cx="575" cy="920" r="2.0001678356330945" style="fill: #7f7f7f;"/><circle cx="525" cy="920" r="2.0304347826087197" style="fill: #7f7f7f;"/><circle cx="225" cy="920" r="2.059768741375" style="fill: #7f7f7f;"/><circle cx="250" cy="920" r="2.00303958692891" style="fill: #7f7f7f;"/><circle cx="550" cy="920" r="2.03529896279441" style="fill: #7f7f7f;"/><circle cx="825" cy="920" r="2.0000000790694563" style="fill: #7f7f7f;"/><circle cx="775" cy="920" r="2.03314694816055" style="fill: #7f7f7f;"/><text/><text/><text/><text/><text/><text/><text/><text/><text/><text/><text/><text/><text/><text/><text/><text/><text/><text/><text/><text/><text/><text/><text/><text/><text/><text/><text/><text/><text y="920" x="930" class="label" style="fill: #7f7f7f;">Monitoring for Deadlock and...</text></g><g class="journal"><circle cx="250" cy="940" r="3.166666666669" style="fill: #7f7f7f;"/><circle cx="350" cy="940" r="4.333333333331" style="fill: #7f7f7f;"/><circle cx="550" cy="940" r="3.166666666669" style="fill: #7f7f7f;"/><circle cx="575" cy="940" r="3.166666666669" style="fill: #7f7f7f;"/><circle cx="175" cy="940" r="3.166666666669" style="fill: #7f7f7f;"/><text/><text/><text/><text/><text/><text y="940" x="930" class="label" style="fill: #7f7f7f;">A model-checking verification...</text></g><g class="journal"><circle cx="350" cy="960" r="5.5" style="fill: #7f7f7f;"/><circle cx="550" cy="960" r="5.5" style="fill: #7f7f7f;"/><text/><text/><text y="960" x="930" class="label" style="fill: #7f7f7f;">Proof Linking: An Architecture...</text></g><g class="journal"><circle cx="875" cy="980" r="2.01543209876544" style="fill: #7f7f7f;"/><circle cx="375" cy="980" r="2.0000043072045997" style="fill: #7f7f7f;"/><circle cx="200" cy="980" r="2.0483335330740498" style="fill: #7f7f7f;"/><circle cx="700" cy="980" r="2.06489665170219" style="fill: #7f7f7f;"/><circle cx="500" cy="980" r="2.00031160968661" style="fill: #7f7f7f;"/><circle cx="400" cy="980" r="2.0000043072045997" style="fill: #7f7f7f;"/><circle cx="575" cy="980" r="3.783138401562" style="fill: #7f7f7f;"/><circle cx="325" cy="980" r="2.03273475495696" style="fill: #7f7f7f;"/><circle cx="525" cy="980" r="2.03240740740741" style="fill: #7f7f7f;"/><circle cx="150" cy="980" r="2.1566727744714997" style="fill: #7f7f7f;"/><circle cx="725" cy="980" r="2.006579482424893" style="fill: #7f7f7f;"/><circle cx="75" cy="980" r="3.030371916091" style="fill: #7f7f7f;"/><circle cx="450" cy="980" r="2.002528021442492" style="fill: #7f7f7f;"/><circle cx="250" cy="980" r="2.003476529426825" style="fill: #7f7f7f;"/><circle cx="350" cy="980" r="3.75" style="fill: #7f7f7f;"/><circle cx="100" cy="980" r="2.03944592712711" style="fill: #7f7f7f;"/><circle cx="675" cy="980" r="2.001157407407408" style="fill: #7f7f7f;"/><circle cx="550" cy="980" r="2.8968772532019997" style="fill: #7f7f7f;"/><circle cx="625" cy="980" r="2.01282196067418" style="fill: #7f7f7f;"/><circle cx="600" cy="980" r="2.03472222222224" style="fill: #7f7f7f;"/><circle cx="125" cy="980" r="2.149861664785" style="fill: #7f7f7f;"/><circle cx="475" cy="980" r="2.0000284938150434" style="fill: #7f7f7f;"/><circle cx="175" cy="980" r="2.938193275348" style="fill: #7f7f7f;"/><text/><text/><text/><text/><text/><text/><text/><text/><text/><text/><text/><text/><text/><text/><text/><text/><text/><text/><text/><text/><text/><text/><text/><text y="980" x="930" class="label" style="fill: #7f7f7f;">An Automated Framework for...</text></g><g class="journal"><circle cx="225" cy="1000" r="2.282828282828" style="fill: #7f7f7f;"/><circle cx="325" cy="1000" r="2.282828282828" style="fill: #7f7f7f;"/><circle cx="350" cy="1000" r="5.818181818185" style="fill: #7f7f7f;"/><circle cx="375" cy="1000" r="2.6363636363636997" style="fill: #7f7f7f;"/><circle cx="525" cy="1000" r="2.212121212121" style="fill: #7f7f7f;"/><circle cx="575" cy="1000" r="3.2727272727259997" style="fill: #7f7f7f;"/><circle cx="725" cy="1000" r="2.212121212121" style="fill: #7f7f7f;"/><circle cx="125" cy="1000" r="2.282828282828" style="fill: #7f7f7f;"/><text/><text/><text/><text/><text/><text/><text/><text/><text y="1000" x="930" class="label" style="fill: #7f7f7f;">Quantifying Software Designs.</text></g><rect width="10" height="450" x="915" y="3630" style="fill: #ffffff;"/></g><g><g class="journal"><circle cx="175" cy="1020" r="2.777777777777" style="fill: #bcbd22;"/><circle cx="600" cy="1020" r="5.111111111108" style="fill: #bcbd22;"/><circle cx="700" cy="1020" r="5.111111111108" style="fill: #bcbd22;"/><text/><text/><text/><text y="1020" x="930" class="label" style="fill: #bcbd22;">Counterexample Generation in...</text></g><g class="journal"><circle cx="50" cy="1040" r="2.0336538461538303" style="fill: #bcbd22;"/><circle cx="700" cy="1040" r="4.1875" style="fill: #bcbd22;"/><circle cx="500" cy="1040" r="2.2355769230766" style="fill: #bcbd22;"/><circle cx="525" cy="1040" r="2.5048076923078" style="fill: #bcbd22;"/><circle cx="725" cy="1040" r="2.001822916666669" style="fill: #bcbd22;"/><circle cx="75" cy="1040" r="2.0941840277777" style="fill: #bcbd22;"/><circle cx="225" cy="1040" r="2.0759548611108" style="fill: #bcbd22;"/><circle cx="250" cy="1040" r="2.0911458333331" style="fill: #bcbd22;"/><circle cx="350" cy="1040" r="2.5499131944446" style="fill: #bcbd22;"/><circle cx="550" cy="1040" r="2.4921875" style="fill: #bcbd22;"/><circle cx="625" cy="1040" r="2.6428118322647" style="fill: #bcbd22;"/><circle cx="800" cy="1040" r="2.0006076388888894" style="fill: #bcbd22;"/><circle cx="125" cy="1040" r="2.0336538461538303" style="fill: #bcbd22;"/><circle cx="175" cy="1040" r="2.5581163194445997" style="fill: #bcbd22;"/><circle cx="775" cy="1040" r="3.498063568379" style="fill: #bcbd22;"/><text/><text/><text/><text/><text/><text/><text/><text/><text/><text/><text/><text/><text/><text/><text/><text y="1040" x="930" class="label" style="fill: #bcbd22;">Multi-valued symbolic...</text></g><g class="journal"><circle cx="325" cy="1060" r="2.0236842105263397" style="fill: #bcbd22;"/><circle cx="400" cy="1060" r="2.5526315789477003" style="fill: #bcbd22;"/><circle cx="425" cy="1060" r="2.02302631578947" style="fill: #bcbd22;"/><circle cx="100" cy="1060" r="2.3026315789476" style="fill: #bcbd22;"/><circle cx="475" cy="1060" r="2.01918859649126" style="fill: #bcbd22;"/><circle cx="175" cy="1060" r="2.02916666666669" style="fill: #bcbd22;"/><circle cx="525" cy="1060" r="2.03760964912278" style="fill: #bcbd22;"/><circle cx="550" cy="1060" r="3.384169407894" style="fill: #bcbd22;"/><circle cx="200" cy="1060" r="2.091063596491" style="fill: #bcbd22;"/><circle cx="600" cy="1060" r="3.0493421052659997" style="fill: #bcbd22;"/><circle cx="625" cy="1060" r="2.0993969298245" style="fill: #bcbd22;"/><circle cx="700" cy="1060" r="3.891228070172" style="fill: #bcbd22;"/><circle cx="725" cy="1060" r="2.5253015350877" style="fill: #bcbd22;"/><circle cx="150" cy="1060" r="2.05127467105264" style="fill: #bcbd22;"/><circle cx="775" cy="1060" r="2.02302631578947" style="fill: #bcbd22;"/><circle cx="800" cy="1060" r="2.0813596491225" style="fill: #bcbd22;"/><circle cx="125" cy="1060" r="2.4106359649125997" style="fill: #bcbd22;"/><circle cx="850" cy="1060" r="2.3684210526318" style="fill: #bcbd22;"/><circle cx="75" cy="1060" r="2.03684210526318" style="fill: #bcbd22;"/><text/><text/><text/><text/><text/><text/><text/><text/><text/><text/><text/><text/><text/><text/><text/><text/><text/><text/><text/><text y="1060" x="930" class="label" style="fill: #bcbd22;">Identifying Refactorings from...</text></g><g class="journal"><circle cx="550" cy="1080" r="5.5" style="fill: #bcbd22;"/><circle cx="700" cy="1080" r="5.5" style="fill: #bcbd22;"/><text/><text/><text y="1080" x="930" class="label" style="fill: #bcbd22;">Towards Increased Productivity...</text></g><g class="journal"><circle cx="600" cy="1100" r="4.333333333331" style="fill: #bcbd22;"/><circle cx="700" cy="1100" r="6.666666666669" style="fill: #bcbd22;"/><text/><text/><text y="1100" x="930" class="label" style="fill: #bcbd22;">Maintenance Support Tools for...</text></g><rect width="10" height="450" x="915" y="4080" style="fill: #ffffff;"/></g></g></svg>
