<svg xmlns="http://www.w3.org/2000/svg" width="1420" height="1220" id="bundles" style="margin-left: 20px;"><g transform="translate(20,100)"><g class="x axis" transform="translate(0,90)"><g class="tick" transform="translate(0,0)" style="opacity: 1;"><line y2="-6" x2="0"/><text dy="1em" y="-9" x="0" dx="1em" transform="rotate(290)" style="text-anchor: start;">REAL TIME SYSTEMS</text></g><g class="tick" transform="translate(25,0)" style="opacity: 1;"><line y2="-6" x2="0"/><text dy="1em" y="-9" x="0" dx="1em" transform="rotate(290)" style="text-anchor: start;">VISUALIZATION</text></g><g class="tick" transform="translate(50,0)" style="opacity: 1;"><line y2="-6" x2="0"/><text dy="1em" y="-9" x="0" dx="1em" transform="rotate(290)" style="text-anchor: start;">PROGRAM ANALYSIS</text></g><g class="tick" transform="translate(75,0)" style="opacity: 1;"><line y2="-6" x2="0"/><text dy="1em" y="-9" x="0" dx="1em" transform="rotate(290)" style="text-anchor: start;">OPERATING SYSTEMS</text></g><g class="tick" transform="translate(100,0)" style="opacity: 1;"><line y2="-6" x2="0"/><text dy="1em" y="-9" x="0" dx="1em" transform="rotate(290)" style="text-anchor: start;">ARTIFICIAL INTELLIGENCE</text></g><g class="tick" transform="translate(125,0)" style="opacity: 1;"><line y2="-6" x2="0"/><text dy="1em" y="-9" x="0" dx="1em" transform="rotate(290)" style="text-anchor: start;">RELIABILITY</text></g><g class="tick" transform="translate(150,0)" style="opacity: 1;"><line y2="-6" x2="0"/><text dy="1em" y="-9" x="0" dx="1em" transform="rotate(290)" style="text-anchor: start;">PROGRAM COMPREHENSION</text></g><g class="tick" transform="translate(175,0)" style="opacity: 1;"><line y2="-6" x2="0"/><text dy="1em" y="-9" x="0" dx="1em" transform="rotate(290)" style="text-anchor: start;">TESTING</text></g><g class="tick" transform="translate(200,0)" style="opacity: 1;"><line y2="-6" x2="0"/><text dy="1em" y="-9" x="0" dx="1em" transform="rotate(290)" style="text-anchor: start;">EMPIRICAL SOFTWARE ENGINEERING</text></g><g class="tick" transform="translate(225,0)" style="opacity: 1;"><line y2="-6" x2="0"/><text dy="1em" y="-9" x="0" dx="1em" transform="rotate(290)" style="text-anchor: start;">CONCURRENCY</text></g><g class="tick" transform="translate(250,0)" style="opacity: 1;"><line y2="-6" x2="0"/><text dy="1em" y="-9" x="0" dx="1em" transform="rotate(290)" style="text-anchor: start;">MODELS</text></g><g class="tick" transform="translate(275,0)" style="opacity: 1;"><line y2="-6" x2="0"/><text dy="1em" y="-9" x="0" dx="1em" transform="rotate(290)" style="text-anchor: start;">METRICS</text></g><g class="tick" transform="translate(300,0)" style="opacity: 1;"><line y2="-6" x2="0"/><text dy="1em" y="-9" x="0" dx="1em" transform="rotate(290)" style="text-anchor: start;">SOFTWARE QUALITY</text></g><g class="tick" transform="translate(325,0)" style="opacity: 1;"><line y2="-6" x2="0"/><text dy="1em" y="-9" x="0" dx="1em" transform="rotate(290)" style="text-anchor: start;">EVOLUTION</text></g><g class="tick" transform="translate(350,0)" style="opacity: 1;"><line y2="-6" x2="0"/><text dy="1em" y="-9" x="0" dx="1em" transform="rotate(290)" style="text-anchor: start;">FORMAL METHODS</text></g><g class="tick" transform="translate(375,0)" style="opacity: 1;"><line y2="-6" x2="0"/><text dy="1em" y="-9" x="0" dx="1em" transform="rotate(290)" style="text-anchor: start;">HUMAN COMPUTER INTERACTION</text></g><g class="tick" transform="translate(400,0)" style="opacity: 1;"><line y2="-6" x2="0"/><text dy="1em" y="-9" x="0" dx="1em" transform="rotate(290)" style="text-anchor: start;">DATABASE</text></g><g class="tick" transform="translate(425,0)" style="opacity: 1;"><line y2="-6" x2="0"/><text dy="1em" y="-9" x="0" dx="1em" transform="rotate(290)" style="text-anchor: start;">MAINTENANCE</text></g><g class="tick" transform="translate(450,0)" style="opacity: 1;"><line y2="-6" x2="0"/><text dy="1em" y="-9" x="0" dx="1em" transform="rotate(290)" style="text-anchor: start;">ALGORITHM</text></g><g class="tick" transform="translate(475,0)" style="opacity: 1;"><line y2="-6" x2="0"/><text dy="1em" y="-9" x="0" dx="1em" transform="rotate(290)" style="text-anchor: start;">INFORMATION SYSTMS</text></g><g class="tick" transform="translate(500,0)" style="opacity: 1;"><line y2="-6" x2="0"/><text dy="1em" y="-9" x="0" dx="1em" transform="rotate(290)" style="text-anchor: start;">DISTRIBUTED SYSTEMS</text></g><g class="tick" transform="translate(525,0)" style="opacity: 1;"><line y2="-6" x2="0"/><text dy="1em" y="-9" x="0" dx="1em" transform="rotate(290)" style="text-anchor: start;">METHODOLOGIES</text></g><g class="tick" transform="translate(550,0)" style="opacity: 1;"><line y2="-6" x2="0"/><text dy="1em" y="-9" x="0" dx="1em" transform="rotate(290)" style="text-anchor: start;">KNOWLEDGE ENGINEERING</text></g><g class="tick" transform="translate(575,0)" style="opacity: 1;"><line y2="-6" x2="0"/><text dy="1em" y="-9" x="0" dx="1em" transform="rotate(290)" style="text-anchor: start;">ARCHITECTURES</text></g><g class="tick" transform="translate(600,0)" style="opacity: 1;"><line y2="-6" x2="0"/><text dy="1em" y="-9" x="0" dx="1em" transform="rotate(290)" style="text-anchor: start;">SERVICES</text></g><g class="tick" transform="translate(625,0)" style="opacity: 1;"><line y2="-6" x2="0"/><text dy="1em" y="-9" x="0" dx="1em" transform="rotate(290)" style="text-anchor: start;">LANGUAGES</text></g><g class="tick" transform="translate(650,0)" style="opacity: 1;"><line y2="-6" x2="0"/><text dy="1em" y="-9" x="0" dx="1em" transform="rotate(290)" style="text-anchor: start;">SECURITY</text></g><g class="tick" transform="translate(675,0)" style="opacity: 1;"><line y2="-6" x2="0"/><text dy="1em" y="-9" x="0" dx="1em" transform="rotate(290)" style="text-anchor: start;">REQUIREMENTS</text></g><g class="tick" transform="translate(700,0)" style="opacity: 1;"><line y2="-6" x2="0"/><text dy="1em" y="-9" x="0" dx="1em" transform="rotate(290)" style="text-anchor: start;">PRODUCT LINES</text></g><g class="tick" transform="translate(725,0)" style="opacity: 1;"><line y2="-6" x2="0"/><text dy="1em" y="-9" x="0" dx="1em" transform="rotate(290)" style="text-anchor: start;">SYNTHESIS</text></g><g class="tick" transform="translate(750,0)" style="opacity: 1;"><line y2="-6" x2="0"/><text dy="1em" y="-9" x="0" dx="1em" transform="rotate(290)" style="text-anchor: start;">REVERSE ENGINEERING</text></g><g class="tick" transform="translate(775,0)" style="opacity: 1;"><line y2="-6" x2="0"/><text dy="1em" y="-9" x="0" dx="1em" transform="rotate(290)" style="text-anchor: start;">ADAPTIVE SYSTEMS</text></g><g class="tick" transform="translate(800,0)" style="opacity: 1;"><line y2="-6" x2="0"/><text dy="1em" y="-9" x="0" dx="1em" transform="rotate(290)" style="text-anchor: start;">EDUCATION</text></g><g class="tick" transform="translate(825,0)" style="opacity: 1;"><line y2="-6" x2="0"/><text dy="1em" y="-9" x="0" dx="1em" transform="rotate(290)" style="text-anchor: start;">PERFORMANCE</text></g><g class="tick" transform="translate(850,0)" style="opacity: 1;"><line y2="-6" x2="0"/><text dy="1em" y="-9" x="0" dx="1em" transform="rotate(290)" style="text-anchor: start;">EMBEDDED</text></g><g class="tick" transform="translate(875,0)" style="opacity: 1;"><line y2="-6" x2="0"/><text dy="1em" y="-9" x="0" dx="1em" transform="rotate(290)" style="text-anchor: start;">PROCESS</text></g><g class="tick" transform="translate(900,0)" style="opacity: 1;"><line y2="-6" x2="0"/><text dy="1em" y="-9" x="0" dx="1em" transform="rotate(290)" style="text-anchor: start;"/></g><path class="domain" d="M0,-6V0H900V-6"/></g><g><g class="journal"><circle cx="0" cy="120" r="2.2813475498589" style="fill: #17becf;"/><circle cx="25" cy="120" r="2.0000078278761855" style="fill: #17becf;"/><circle cx="50" cy="120" r="2.001353344835437" style="fill: #17becf;"/><circle cx="75" cy="120" r="2.0546875" style="fill: #17becf;"/><circle cx="100" cy="120" r="2.003007024678217" style="fill: #17becf;"/><circle cx="125" cy="120" r="2.06322495955202" style="fill: #17becf;"/><circle cx="150" cy="120" r="2.002379813511138" style="fill: #17becf;"/><circle cx="175" cy="120" r="2.05817906299142" style="fill: #17becf;"/><circle cx="200" cy="120" r="2.0133446396974097" style="fill: #17becf;"/><circle cx="225" cy="120" r="7.853532608693" style="fill: #17becf;"/><circle cx="250" cy="120" r="2.0003438738231374" style="fill: #17becf;"/><circle cx="275" cy="120" r="2.0000001223105657" style="fill: #17becf;"/><circle cx="300" cy="120" r="2.0071719097142" style="fill: #17becf;"/><circle cx="325" cy="120" r="2.000700147340424" style="fill: #17becf;"/><circle cx="350" cy="120" r="2.0721983839031" style="fill: #17becf;"/><circle cx="375" cy="120" r="2.000000489242262" style="fill: #17becf;"/><circle cx="400" cy="120" r="2.003926254886505" style="fill: #17becf;"/><circle cx="425" cy="120" r="2.0926500939441" style="fill: #17becf;"/><circle cx="450" cy="120" r="2.0000001134474807" style="fill: #17becf;"/><circle cx="475" cy="120" r="2.0000000611552826" style="fill: #17becf;"/><circle cx="500" cy="120" r="2.3027435319657" style="fill: #17becf;"/><circle cx="525" cy="120" r="2.0001678356330945" style="fill: #17becf;"/><circle cx="550" cy="120" r="2.0304347826087197" style="fill: #17becf;"/><circle cx="575" cy="120" r="2.059768741375" style="fill: #17becf;"/><circle cx="600" cy="120" r="2.00303958692891" style="fill: #17becf;"/><circle cx="625" cy="120" r="2.03529896279441" style="fill: #17becf;"/><circle cx="650" cy="120" r="2.0000000790694563" style="fill: #17becf;"/><circle cx="675" cy="120" r="2.03314694816055" style="fill: #17becf;"/><text/><text/><text/><text/><text/><text/><text/><text/><text/><text/><text/><text/><text/><text/><text/><text/><text/><text/><text/><text/><text/><text/><text/><text/><text/><text/><text/><text/><text y="120" x="930" class="label" style="fill: #17becf;">Monitoring for Deadlock and...</text></g><g class="journal"><circle cx="600" cy="140" r="3.166666666669" style="fill: #17becf;"/><circle cx="225" cy="140" r="4.333333333331" style="fill: #17becf;"/><circle cx="625" cy="140" r="3.166666666669" style="fill: #17becf;"/><circle cx="525" cy="140" r="3.166666666669" style="fill: #17becf;"/><circle cx="350" cy="140" r="3.166666666669" style="fill: #17becf;"/><text/><text/><text/><text/><text/><text y="140" x="930" class="label" style="fill: #17becf;">A model-checking verification...</text></g><g class="journal"><circle cx="575" cy="160" r="2.4117647058826" style="fill: #17becf;"/><circle cx="625" cy="160" r="2.4117647058826" style="fill: #17becf;"/><circle cx="700" cy="160" r="3.647058823529" style="fill: #17becf;"/><circle cx="725" cy="160" r="5.294117647058" style="fill: #17becf;"/><circle cx="125" cy="160" r="2.4117647058826" style="fill: #17becf;"/><circle cx="350" cy="160" r="2.823529411768" style="fill: #17becf;"/><text/><text/><text/><text/><text/><text/><text y="160" x="930" class="label" style="fill: #17becf;">Type-Checking Software Product...</text></g><g class="journal"><circle cx="200" cy="180" r="2.777777777777" style="fill: #17becf;"/><circle cx="150" cy="180" r="2.777777777777" style="fill: #17becf;"/><circle cx="750" cy="180" r="2.777777777777" style="fill: #17becf;"/><circle cx="725" cy="180" r="6.666666666669" style="fill: #17becf;"/><text/><text/><text/><text/><text y="180" x="930" class="label" style="fill: #17becf;">Using Server Pages to Unify...</text></g><g class="journal"><circle cx="225" cy="200" r="5.5" style="fill: #17becf;"/><circle cx="625" cy="200" r="5.5" style="fill: #17becf;"/><text/><text/><text y="200" x="930" class="label" style="fill: #17becf;">Proof Linking: An Architecture...</text></g><rect width="10" height="450" x="915" y="30" style="fill: #ffffff;"/></g><g><g class="journal"><circle cx="200" cy="220" r="2.5428571428574003" style="fill: #1f77b4;"/><circle cx="325" cy="220" r="2.0166666666666497" style="fill: #1f77b4;"/><circle cx="350" cy="220" r="2.1333333333332" style="fill: #1f77b4;"/><circle cx="550" cy="220" r="2.0166666666666497" style="fill: #1f77b4;"/><circle cx="425" cy="220" r="2.502380952381" style="fill: #1f77b4;"/><circle cx="525" cy="220" r="2.5000000000002" style="fill: #1f77b4;"/><circle cx="275" cy="220" r="2.0857142857144" style="fill: #1f77b4;"/><circle cx="250" cy="220" r="2.0333333333333" style="fill: #1f77b4;"/><circle cx="50" cy="220" r="2.06666666666667" style="fill: #1f77b4;"/><circle cx="150" cy="220" r="2.5190476190473" style="fill: #1f77b4;"/><circle cx="750" cy="220" r="5.566666666668" style="fill: #1f77b4;"/><circle cx="300" cy="220" r="2.0166666666666497" style="fill: #1f77b4;"/><circle cx="25" cy="220" r="2.999999999999" style="fill: #1f77b4;"/><text/><text/><text/><text/><text/><text/><text/><text/><text/><text/><text/><text/><text/><text y="220" x="930" class="label" style="fill: #1f77b4;">Analyzing the Evolutionary...</text></g><g class="journal"><circle cx="775" cy="240" r="2.001443289197812" style="fill: #1f77b4;"/><circle cx="575" cy="240" r="2.2109270595117" style="fill: #1f77b4;"/><circle cx="100" cy="240" r="2.004231799970853" style="fill: #1f77b4;"/><circle cx="225" cy="240" r="2.000315634591653" style="fill: #1f77b4;"/><circle cx="400" cy="240" r="2.004289286003086" style="fill: #1f77b4;"/><circle cx="500" cy="240" r="2.06543648517161" style="fill: #1f77b4;"/><circle cx="800" cy="240" r="2.001783287332176" style="fill: #1f77b4;"/><circle cx="200" cy="240" r="2.05642680618365" style="fill: #1f77b4;"/><circle cx="325" cy="240" r="2.1876045050663" style="fill: #1f77b4;"/><circle cx="350" cy="240" r="2.1398539361891" style="fill: #1f77b4;"/><circle cx="375" cy="240" r="2.002681861686273" style="fill: #1f77b4;"/><circle cx="475" cy="240" r="2.0024224062125198" style="fill: #1f77b4;"/><circle cx="550" cy="240" r="2.1964110940764" style="fill: #1f77b4;"/><circle cx="625" cy="240" r="2.3855876351131" style="fill: #1f77b4;"/><circle cx="425" cy="240" r="2.4613523819149" style="fill: #1f77b4;"/><circle cx="525" cy="240" r="2.0895817996514" style="fill: #1f77b4;"/><circle cx="275" cy="240" r="2.5548519924059" style="fill: #1f77b4;"/><circle cx="250" cy="240" r="2.0246847567724098" style="fill: #1f77b4;"/><circle cx="75" cy="240" r="2.0014245014245" style="fill: #1f77b4;"/><circle cx="825" cy="240" r="2.000104815998481" style="fill: #1f77b4;"/><circle cx="700" cy="240" r="2.01424140107096" style="fill: #1f77b4;"/><circle cx="50" cy="240" r="2.1065757969983" style="fill: #1f77b4;"/><circle cx="150" cy="240" r="3.455051370843" style="fill: #1f77b4;"/><circle cx="0" cy="240" r="2.0129366014829797" style="fill: #1f77b4;"/><circle cx="125" cy="240" r="2.0825227037866" style="fill: #1f77b4;"/><circle cx="675" cy="240" r="2.01746892143941" style="fill: #1f77b4;"/><circle cx="750" cy="240" r="4.352995392972" style="fill: #1f77b4;"/><circle cx="600" cy="240" r="2.02968563919314" style="fill: #1f77b4;"/><circle cx="300" cy="240" r="2.06242589854039" style="fill: #1f77b4;"/><circle cx="725" cy="240" r="2.03091061400308" style="fill: #1f77b4;"/><circle cx="175" cy="240" r="2.326844194985" style="fill: #1f77b4;"/><circle cx="25" cy="240" r="2.1169261302104" style="fill: #1f77b4;"/><text/><text/><text/><text/><text/><text/><text/><text/><text/><text/><text/><text/><text/><text/><text/><text/><text/><text/><text/><text/><text/><text/><text/><text/><text/><text/><text/><text/><text/><text/><text/><text/><text y="240" x="930" class="label" style="fill: #1f77b4;">Lightweight Lexical Source...</text></g><g class="journal"><circle cx="150" cy="260" r="4.333333333331" style="fill: #1f77b4;"/><circle cx="750" cy="260" r="6.666666666669" style="fill: #1f77b4;"/><text/><text/><text y="260" x="930" class="label" style="fill: #1f77b4;">A Scalable, Automated Process...</text></g><g class="journal"><circle cx="0" cy="280" r="2.00881881212765" style="fill: #1f77b4;"/><circle cx="25" cy="280" r="2.252008842365" style="fill: #1f77b4;"/><circle cx="775" cy="280" r="2.01159498402146" style="fill: #1f77b4;"/><circle cx="50" cy="280" r="2.1780936414593" style="fill: #1f77b4;"/><circle cx="825" cy="280" r="2.0964564163093997" style="fill: #1f77b4;"/><circle cx="75" cy="280" r="2.0000000022307165" style="fill: #1f77b4;"/><circle cx="100" cy="280" r="2.001014179654026" style="fill: #1f77b4;"/><circle cx="125" cy="280" r="2.0983295247543" style="fill: #1f77b4;"/><circle cx="150" cy="280" r="2.4999624116949" style="fill: #1f77b4;"/><circle cx="175" cy="280" r="2.03518103441475" style="fill: #1f77b4;"/><circle cx="200" cy="280" r="2.2054397194969" style="fill: #1f77b4;"/><circle cx="225" cy="280" r="2.005606574716631" style="fill: #1f77b4;"/><circle cx="700" cy="280" r="2.004315245371654" style="fill: #1f77b4;"/><circle cx="750" cy="280" r="4.924093139618" style="fill: #1f77b4;"/><circle cx="250" cy="280" r="2.1746159650746" style="fill: #1f77b4;"/><circle cx="275" cy="280" r="2.2940933800153998" style="fill: #1f77b4;"/><circle cx="300" cy="280" r="2.1586077614527" style="fill: #1f77b4;"/><circle cx="325" cy="280" r="2.025103507821" style="fill: #1f77b4;"/><circle cx="350" cy="280" r="2.2657264572193" style="fill: #1f77b4;"/><circle cx="375" cy="280" r="2.02212200263056" style="fill: #1f77b4;"/><circle cx="425" cy="280" r="2.4445642193629" style="fill: #1f77b4;"/><circle cx="400" cy="280" r="2.000281112818662" style="fill: #1f77b4;"/><circle cx="725" cy="280" r="2.00999458414171" style="fill: #1f77b4;"/><circle cx="475" cy="280" r="2.00908334289569" style="fill: #1f77b4;"/><circle cx="500" cy="280" r="2.2975275052932003" style="fill: #1f77b4;"/><circle cx="525" cy="280" r="2.2311825766152" style="fill: #1f77b4;"/><circle cx="550" cy="280" r="2.1372493416273" style="fill: #1f77b4;"/><circle cx="575" cy="280" r="2.3196725745003" style="fill: #1f77b4;"/><circle cx="600" cy="280" r="2.006023814066396" style="fill: #1f77b4;"/><circle cx="625" cy="280" r="2.1888650550325" style="fill: #1f77b4;"/><circle cx="800" cy="280" r="2.0322024894110498" style="fill: #1f77b4;"/><circle cx="675" cy="280" r="2.06216978178397" style="fill: #1f77b4;"/><text/><text/><text/><text/><text/><text/><text/><text/><text/><text/><text/><text/><text/><text/><text/><text/><text/><text/><text/><text/><text/><text/><text/><text/><text/><text/><text/><text/><text/><text/><text/><text/><text y="280" x="930" class="label" style="fill: #1f77b4;">Software Reflexion Models:...</text></g><g class="journal"><circle cx="750" cy="300" r="6.199999999999999" style="fill: #1f77b4;"/><circle cx="150" cy="300" r="4.8" style="fill: #1f77b4;"/><text/><text/><text y="300" x="930" class="label" style="fill: #1f77b4;">A Formal Automated Approach...</text></g><rect width="10" height="450" x="915" y="480" style="fill: #ffffff;"/></g><g><g class="journal"><circle cx="500" cy="320" r="5.5" style="fill: #ff7f0e;"/><circle cx="800" cy="320" r="5.5" style="fill: #ff7f0e;"/><text/><text/><text y="320" x="930" class="label" style="fill: #ff7f0e;">An Algebraic Specification of...</text></g><g class="journal"><circle cx="500" cy="340" r="7.25" style="fill: #ff7f0e;"/><circle cx="50" cy="340" r="3.75" style="fill: #ff7f0e;"/><text/><text/><text y="340" x="930" class="label" style="fill: #ff7f0e;">Equivalence analysis and its...</text></g><g class="journal"><circle cx="575" cy="360" r="2.999999999999" style="fill: #ff7f0e;"/><circle cx="500" cy="360" r="8.000000000001" style="fill: #ff7f0e;"/><text/><text/><text y="360" x="930" class="label" style="fill: #ff7f0e;">System architecture: the...</text></g><g class="journal"><circle cx="250" cy="380" r="2.7" style="fill: #ff7f0e;"/><circle cx="500" cy="380" r="6.9" style="fill: #ff7f0e;"/><circle cx="350" cy="380" r="3.4000000000000004" style="fill: #ff7f0e;"/><text/><text/><text/><text y="380" x="930" class="label" style="fill: #ff7f0e;">Amphion/NAV: Deductive...</text></g><g class="journal"><circle cx="500" cy="400" r="5.5" style="fill: #ff7f0e;"/><circle cx="800" cy="400" r="5.5" style="fill: #ff7f0e;"/><text/><text/><text y="400" x="930" class="label" style="fill: #ff7f0e;">On the Modelling, Analysis and...</text></g><rect width="10" height="450" x="915" y="930" style="fill: #ffffff;"/></g><g><g class="journal"><circle cx="200" cy="420" r="2.4375" style="fill: #2ca02c;"/><circle cx="275" cy="420" r="7.6875" style="fill: #2ca02c;"/><circle cx="300" cy="420" r="2.875" style="fill: #2ca02c;"/><text/><text/><text/><text y="420" x="930" class="label" style="fill: #2ca02c;">Simulation and Comparison of...</text></g><g class="journal"><circle cx="375" cy="440" r="2.002173913043477" style="fill: #2ca02c;"/><circle cx="425" cy="440" r="3.131918564525" style="fill: #2ca02c;"/><circle cx="50" cy="440" r="2.0028985507246357" style="fill: #2ca02c;"/><circle cx="100" cy="440" r="2.0869565217388" style="fill: #2ca02c;"/><circle cx="525" cy="440" r="2.1564225327812" style="fill: #2ca02c;"/><circle cx="550" cy="440" r="2.000724637681159" style="fill: #2ca02c;"/><circle cx="125" cy="440" r="2.005693581780537" style="fill: #2ca02c;"/><circle cx="150" cy="440" r="2.05006901311251" style="fill: #2ca02c;"/><circle cx="175" cy="440" r="2.6612318840582" style="fill: #2ca02c;"/><circle cx="575" cy="440" r="2.0010351966873707" style="fill: #2ca02c;"/><circle cx="200" cy="440" r="2.5475845410630003" style="fill: #2ca02c;"/><circle cx="625" cy="440" r="2.0046583850931663" style="fill: #2ca02c;"/><circle cx="250" cy="440" r="2.001863354037265" style="fill: #2ca02c;"/><circle cx="750" cy="440" r="2.02877846790889" style="fill: #2ca02c;"/><circle cx="275" cy="440" r="6.266058488614999" style="fill: #2ca02c;"/><circle cx="300" cy="440" r="2.04437543133198" style="fill: #2ca02c;"/><circle cx="325" cy="440" r="2.00175983436853" style="fill: #2ca02c;"/><circle cx="350" cy="440" r="2.005797101449272" style="fill: #2ca02c;"/><text/><text/><text/><text/><text/><text/><text/><text/><text/><text/><text/><text/><text/><text/><text/><text/><text/><text/><text y="440" x="930" class="label" style="fill: #2ca02c;">Parallel changes in...</text></g><g class="journal"><circle cx="525" cy="460" r="3.75" style="fill: #2ca02c;"/><circle cx="275" cy="460" r="7.25" style="fill: #2ca02c;"/><text/><text/><text y="460" x="930" class="label" style="fill: #2ca02c;">Connecting Programming...</text></g><g class="journal"><circle cx="275" cy="480" r="5.5" style="fill: #2ca02c;"/><circle cx="300" cy="480" r="5.5" style="fill: #2ca02c;"/><text/><text/><text y="480" x="930" class="label" style="fill: #2ca02c;">Experiences in Improving Risk...</text></g><g class="journal"><circle cx="0" cy="500" r="2.03846153846157" style="fill: #2ca02c;"/><circle cx="25" cy="500" r="2.003694081925359" style="fill: #2ca02c;"/><circle cx="50" cy="500" r="2.02188999077398" style="fill: #2ca02c;"/><circle cx="75" cy="500" r="2.0000259524551023" style="fill: #2ca02c;"/><circle cx="100" cy="500" r="2.0950613192221" style="fill: #2ca02c;"/><circle cx="125" cy="500" r="2.03391186278627" style="fill: #2ca02c;"/><circle cx="150" cy="500" r="2.0123999092660103" style="fill: #2ca02c;"/><circle cx="175" cy="500" r="2.04430347449199" style="fill: #2ca02c;"/><circle cx="200" cy="500" r="2.1781114881133" style="fill: #2ca02c;"/><circle cx="700" cy="500" r="2.000039823298198" style="fill: #2ca02c;"/><circle cx="250" cy="500" r="2.0332361615837997" style="fill: #2ca02c;"/><circle cx="750" cy="500" r="2.0336574198974997" style="fill: #2ca02c;"/><circle cx="275" cy="500" r="6.9183193067260005" style="fill: #2ca02c;"/><circle cx="300" cy="500" r="3.1834709658099998" style="fill: #2ca02c;"/><circle cx="325" cy="500" r="2.002804891559547" style="fill: #2ca02c;"/><circle cx="350" cy="500" r="2.001581536750878" style="fill: #2ca02c;"/><circle cx="375" cy="500" r="2.02289273350133" style="fill: #2ca02c;"/><circle cx="425" cy="500" r="2.0793547829417" style="fill: #2ca02c;"/><circle cx="400" cy="500" r="2.005303528380451" style="fill: #2ca02c;"/><circle cx="725" cy="500" r="2.000180196779142" style="fill: #2ca02c;"/><circle cx="475" cy="500" r="2.03900003212455" style="fill: #2ca02c;"/><circle cx="500" cy="500" r="2.000337567955434" style="fill: #2ca02c;"/><circle cx="525" cy="500" r="2.1308262216709" style="fill: #2ca02c;"/><circle cx="550" cy="500" r="2.0595321795377397" style="fill: #2ca02c;"/><circle cx="575" cy="500" r="2.04512782437996" style="fill: #2ca02c;"/><circle cx="850" cy="500" r="2.0000039765858624" style="fill: #2ca02c;"/><circle cx="600" cy="500" r="2.00012383729481" style="fill: #2ca02c;"/><circle cx="800" cy="500" r="2.00790344100994" style="fill: #2ca02c;"/><circle cx="625" cy="500" r="2.002304630240486" style="fill: #2ca02c;"/><circle cx="675" cy="500" r="2.006139324475634" style="fill: #2ca02c;"/><text/><text/><text/><text/><text/><text/><text/><text/><text/><text/><text/><text/><text/><text/><text/><text/><text/><text/><text/><text/><text/><text/><text/><text/><text/><text/><text/><text/><text/><text/><text y="500" x="930" class="label" style="fill: #2ca02c;">An Investigation on the Use of...</text></g><rect width="10" height="450" x="915" y="1380" style="fill: #ffffff;"/></g><g><g class="journal"><circle cx="375" cy="520" r="3.4000000000000004" style="fill: #d62728;"/><circle cx="400" cy="520" r="5.5" style="fill: #d62728;"/><circle cx="250" cy="520" r="2.7" style="fill: #d62728;"/><circle cx="675" cy="520" r="3.4000000000000004" style="fill: #d62728;"/><text/><text/><text/><text/><text y="520" x="930" class="label" style="fill: #d62728;">A generic model for reflective...</text></g><g class="journal"><circle cx="875" cy="540" r="3.68" style="fill: #d62728;"/><circle cx="250" cy="540" r="3.68" style="fill: #d62728;"/><circle cx="550" cy="540" r="4.8" style="fill: #d62728;"/><circle cx="675" cy="540" r="2.28" style="fill: #d62728;"/><circle cx="150" cy="540" r="2.56" style="fill: #d62728;"/><text/><text/><text/><text/><text/><text y="540" x="930" class="label" style="fill: #d62728;">Mechanisms for Generic Process...</text></g><g class="journal"><circle cx="25" cy="560" r="4.333333333331" style="fill: #d62728;"/><circle cx="400" cy="560" r="4.333333333331" style="fill: #d62728;"/><circle cx="550" cy="560" r="4.333333333331" style="fill: #d62728;"/><text/><text/><text/><text y="560" x="930" class="label" style="fill: #d62728;">Automated Data Mapping...</text></g><g class="journal"><circle cx="400" cy="580" r="5.5" style="fill: #d62728;"/><circle cx="550" cy="580" r="5.5" style="fill: #d62728;"/><text/><text/><text y="580" x="930" class="label" style="fill: #d62728;">Commutable Transactions and...</text></g><g class="journal"><circle cx="400" cy="600" r="5.5" style="fill: #d62728;"/><circle cx="550" cy="600" r="5.5" style="fill: #d62728;"/><text/><text/><text y="600" x="930" class="label" style="fill: #d62728;">A Framework for Data Base...</text></g><rect width="10" height="450" x="915" y="1830" style="fill: #ffffff;"/></g><g><g class="journal"><circle cx="600" cy="620" r="2.3888888888892" style="fill: #9467bd;"/><circle cx="425" cy="620" r="5.888888888892001" style="fill: #9467bd;"/><circle cx="200" cy="620" r="3.75" style="fill: #9467bd;"/><circle cx="750" cy="620" r="2.1944444444446" style="fill: #9467bd;"/><circle cx="275" cy="620" r="2.1944444444446" style="fill: #9467bd;"/><circle cx="300" cy="620" r="2.1944444444446" style="fill: #9467bd;"/><circle cx="100" cy="620" r="2.1944444444446" style="fill: #9467bd;"/><circle cx="150" cy="620" r="2.1944444444446" style="fill: #9467bd;"/><text/><text/><text/><text/><text/><text/><text/><text/><text y="620" x="930" class="label" style="fill: #9467bd;">Coupling and cohesion metrics...</text></g><g class="journal"><circle cx="175" cy="640" r="3.8666666666690004" style="fill: #9467bd;"/><circle cx="425" cy="640" r="5.033333333331" style="fill: #9467bd;"/><circle cx="200" cy="640" r="3.4000000000000004" style="fill: #9467bd;"/><circle cx="300" cy="640" r="2.2333333333331" style="fill: #9467bd;"/><circle cx="125" cy="640" r="2.4666666666669" style="fill: #9467bd;"/><text/><text/><text/><text/><text/><text y="640" x="930" class="label" style="fill: #9467bd;">An empirical study of...</text></g><g class="journal"><circle cx="425" cy="660" r="6.199999999999999" style="fill: #9467bd;"/><circle cx="125" cy="660" r="3.4000000000000004" style="fill: #9467bd;"/><circle cx="175" cy="660" r="3.4000000000000004" style="fill: #9467bd;"/><text/><text/><text/><text y="660" x="930" class="label" style="fill: #9467bd;">The Path Prefix Software...</text></g><g class="journal"><circle cx="575" cy="680" r="2.5908119658119" style="fill: #9467bd;"/><circle cx="350" cy="680" r="2.04487179487182" style="fill: #9467bd;"/><circle cx="625" cy="680" r="2.6469017094015" style="fill: #9467bd;"/><circle cx="425" cy="680" r="4.961538461539" style="fill: #9467bd;"/><circle cx="75" cy="680" r="2.0224358974359102" style="fill: #9467bd;"/><circle cx="50" cy="680" r="2.1458333333331003" style="fill: #9467bd;"/><circle cx="125" cy="680" r="2.4935897435895997" style="fill: #9467bd;"/><circle cx="300" cy="680" r="2.1121794871792" style="fill: #9467bd;"/><circle cx="175" cy="680" r="3.98183760684" style="fill: #9467bd;"/><text/><text/><text/><text/><text/><text/><text/><text/><text/><text y="680" x="930" class="label" style="fill: #9467bd;">UNA Based Iterative Test Data...</text></g><g class="journal"><circle cx="200" cy="700" r="2.5833333333331" style="fill: #9467bd;"/><circle cx="475" cy="700" r="3.166666666669" style="fill: #9467bd;"/><circle cx="425" cy="700" r="4.916666666669" style="fill: #9467bd;"/><circle cx="525" cy="700" r="3.166666666669" style="fill: #9467bd;"/><circle cx="175" cy="700" r="3.166666666669" style="fill: #9467bd;"/><text/><text/><text/><text/><text/><text y="700" x="930" class="label" style="fill: #9467bd;">3): Maintainer's Education and...</text></g><rect width="10" height="450" x="915" y="2280" style="fill: #ffffff;"/></g><g><g class="journal"><circle cx="825" cy="720" r="6.666666666669" style="fill: #8c564b;"/><circle cx="75" cy="720" r="4.333333333331" style="fill: #8c564b;"/><text/><text/><text y="720" x="930" class="label" style="fill: #8c564b;">Some Empirical Observations on...</text></g><g class="journal"><circle cx="575" cy="740" r="2.5000000000002" style="fill: #8c564b;"/><circle cx="600" cy="740" r="2.5000000000002" style="fill: #8c564b;"/><circle cx="625" cy="740" r="2.5000000000002" style="fill: #8c564b;"/><circle cx="650" cy="740" r="3.999999999998" style="fill: #8c564b;"/><circle cx="75" cy="740" r="3.500000000002" style="fill: #8c564b;"/><circle cx="475" cy="740" r="2.5000000000002" style="fill: #8c564b;"/><circle cx="100" cy="740" r="2.5000000000002" style="fill: #8c564b;"/><circle cx="125" cy="740" r="2.5000000000002" style="fill: #8c564b;"/><circle cx="350" cy="740" r="2.5000000000002" style="fill: #8c564b;"/><text/><text/><text/><text/><text/><text/><text/><text/><text/><text y="740" x="930" class="label" style="fill: #8c564b;">SAFKASI: a security mechanism...</text></g><g class="journal"><circle cx="775" cy="760" r="5.5" style="fill: #8c564b;"/><circle cx="100" cy="760" r="5.5" style="fill: #8c564b;"/><text/><text/><text y="760" x="930" class="label" style="fill: #8c564b;">Automated Mapping from Goal...</text></g><g class="journal"><circle cx="575" cy="780" r="3.999999999998" style="fill: #8c564b;"/><circle cx="825" cy="780" r="4.999999999997" style="fill: #8c564b;"/><circle cx="600" cy="780" r="3.999999999998" style="fill: #8c564b;"/><text/><text/><text/><text y="780" x="930" class="label" style="fill: #8c564b;">Efficient online monitoring of...</text></g><g class="journal"><circle cx="75" cy="800" r="7.444444444445999" style="fill: #8c564b;"/><circle cx="825" cy="800" r="3.555555555554" style="fill: #8c564b;"/><text/><text/><text y="800" x="930" class="label" style="fill: #8c564b;">An Experiment in Program...</text></g><rect width="10" height="450" x="915" y="2730" style="fill: #ffffff;"/></g><g><g class="journal"><circle cx="375" cy="820" r="2.05555555555557" style="fill: #e377c2;"/><circle cx="425" cy="820" r="2.2430555555554" style="fill: #e377c2;"/><circle cx="475" cy="820" r="2.02430555555554" style="fill: #e377c2;"/><circle cx="525" cy="820" r="2.04861111111108" style="fill: #e377c2;"/><circle cx="125" cy="820" r="2.1944444444446" style="fill: #e377c2;"/><circle cx="150" cy="820" r="2.01388888888891" style="fill: #e377c2;"/><circle cx="175" cy="820" r="2.2500000000001" style="fill: #e377c2;"/><circle cx="575" cy="820" r="3.166666666669" style="fill: #e377c2;"/><circle cx="850" cy="820" r="6.666666666669" style="fill: #e377c2;"/><circle cx="600" cy="820" r="2.01388888888891" style="fill: #e377c2;"/><circle cx="200" cy="820" r="2.02430555555554" style="fill: #e377c2;"/><circle cx="625" cy="820" r="2.2083333333333" style="fill: #e377c2;"/><circle cx="750" cy="820" r="2.04166666666666" style="fill: #e377c2;"/><circle cx="275" cy="820" r="2.04861111111108" style="fill: #e377c2;"/><text/><text/><text/><text/><text/><text/><text/><text/><text/><text/><text/><text/><text/><text/><text y="820" x="930" class="label" style="fill: #e377c2;">Reversible Debugging Using...</text></g><g class="journal"><circle cx="350" cy="840" r="5.5" style="fill: #e377c2;"/><circle cx="50" cy="840" r="5.5" style="fill: #e377c2;"/><text/><text/><text y="840" x="930" class="label" style="fill: #e377c2;">Breaking up is hard to do: An...</text></g><g class="journal"><circle cx="850" cy="860" r="6.666666666669" style="fill: #e377c2;"/><circle cx="350" cy="860" r="3.166666666669" style="fill: #e377c2;"/><circle cx="675" cy="860" r="3.166666666669" style="fill: #e377c2;"/><text/><text/><text/><text y="860" x="930" class="label" style="fill: #e377c2;">Model Checking for an...</text></g><g class="journal"><circle cx="850" cy="880" r="5.5" style="fill: #e377c2;"/><circle cx="350" cy="880" r="5.5" style="fill: #e377c2;"/><text/><text/><text y="880" x="930" class="label" style="fill: #e377c2;">The effect of program and...</text></g><g class="journal"><circle cx="350" cy="900" r="5.5" style="fill: #e377c2;"/><circle cx="675" cy="900" r="5.5" style="fill: #e377c2;"/><text/><text/><text y="900" x="930" class="label" style="fill: #e377c2;">A Language-Independent...</text></g><rect width="10" height="450" x="915" y="3180" style="fill: #ffffff;"/></g><g><g class="journal"><circle cx="450" cy="920" r="4.333333333331" style="fill: #7f7f7f;"/><circle cx="375" cy="920" r="6.666666666669" style="fill: #7f7f7f;"/><text/><text/><text y="920" x="930" class="label" style="fill: #7f7f7f;">Parametric Graph Drawing.</text></g><g class="journal"><circle cx="200" cy="940" r="7.6" style="fill: #7f7f7f;"/><circle cx="150" cy="940" r="3.4000000000000004" style="fill: #7f7f7f;"/><text/><text/><text y="940" x="930" class="label" style="fill: #7f7f7f;">Power laws in software.</text></g><g class="journal"><circle cx="375" cy="960" r="6.666666666669" style="fill: #7f7f7f;"/><circle cx="25" cy="960" r="4.333333333331" style="fill: #7f7f7f;"/><text/><text/><text y="960" x="930" class="label" style="fill: #7f7f7f;">Role Migration and Advancement...</text></g><g class="journal"><circle cx="375" cy="980" r="5.5" style="fill: #7f7f7f;"/><circle cx="525" cy="980" r="5.5" style="fill: #7f7f7f;"/><text/><text/><text y="980" x="930" class="label" style="fill: #7f7f7f;">Integrating Status and Event...</text></g><g class="journal"><circle cx="375" cy="1000" r="7.25" style="fill: #7f7f7f;"/><circle cx="550" cy="1000" r="3.75" style="fill: #7f7f7f;"/><text/><text/><text y="1000" x="930" class="label" style="fill: #7f7f7f;">Using KIV to Specify and...</text></g><rect width="10" height="450" x="915" y="3630" style="fill: #ffffff;"/></g><g><g class="journal"><circle cx="0" cy="1020" r="7.335365853657" style="fill: #bcbd22;"/><circle cx="25" cy="1020" r="2.03651739996002" style="fill: #bcbd22;"/><circle cx="775" cy="1020" r="2.006097560975611" style="fill: #bcbd22;"/><circle cx="50" cy="1020" r="2.01271281327302" style="fill: #bcbd22;"/><circle cx="100" cy="1020" r="2.1501576258749" style="fill: #bcbd22;"/><circle cx="125" cy="1020" r="2.003256769985693" style="fill: #bcbd22;"/><circle cx="150" cy="1020" r="2.000119013909929" style="fill: #bcbd22;"/><circle cx="175" cy="1020" r="2.0003174739700955" style="fill: #bcbd22;"/><circle cx="225" cy="1020" r="2.000110689012876" style="fill: #bcbd22;"/><circle cx="200" cy="1020" r="2.1379802654902" style="fill: #bcbd22;"/><circle cx="700" cy="1020" r="2.001271326060165" style="fill: #bcbd22;"/><circle cx="250" cy="1020" r="2.06383984418567" style="fill: #bcbd22;"/><circle cx="750" cy="1020" r="2.0000038761362413" style="fill: #bcbd22;"/><circle cx="275" cy="1020" r="2.0816451209742" style="fill: #bcbd22;"/><circle cx="300" cy="1020" r="2.02677935631469" style="fill: #bcbd22;"/><circle cx="325" cy="1020" r="2.04268317235161" style="fill: #bcbd22;"/><circle cx="350" cy="1020" r="2.1231556332867" style="fill: #bcbd22;"/><circle cx="375" cy="1020" r="2.0857384823848" style="fill: #bcbd22;"/><circle cx="425" cy="1020" r="2.2146903389498" style="fill: #bcbd22;"/><circle cx="400" cy="1020" r="2.04268847398389" style="fill: #bcbd22;"/><circle cx="725" cy="1020" r="2.006246958674754" style="fill: #bcbd22;"/><circle cx="475" cy="1020" r="2.06243626796666" style="fill: #bcbd22;"/><circle cx="500" cy="1020" r="2.04288429293428" style="fill: #bcbd22;"/><circle cx="550" cy="1020" r="2.04712671807991" style="fill: #bcbd22;"/><circle cx="575" cy="1020" r="2.1146307616727" style="fill: #bcbd22;"/><circle cx="600" cy="1020" r="2.0849485997339" style="fill: #bcbd22;"/><circle cx="875" cy="1020" r="2.000238035667366" style="fill: #bcbd22;"/><circle cx="625" cy="1020" r="2.1479173594892" style="fill: #bcbd22;"/><circle cx="800" cy="1020" r="2.0002807136404694" style="fill: #bcbd22;"/><circle cx="675" cy="1020" r="2.1281592014024002" style="fill: #bcbd22;"/><text/><text/><text/><text/><text/><text/><text/><text/><text/><text/><text/><text/><text/><text/><text/><text/><text/><text/><text/><text/><text/><text/><text/><text/><text/><text/><text/><text/><text/><text/><text y="1020" x="930" class="label" style="fill: #bcbd22;">State Constraints and Pathwise...</text></g><g class="journal"><circle cx="175" cy="1040" r="2.06481481481482" style="fill: #bcbd22;"/><circle cx="600" cy="1040" r="2.1666666666665" style="fill: #bcbd22;"/><circle cx="625" cy="1040" r="2.5555555555557" style="fill: #bcbd22;"/><circle cx="250" cy="1040" r="2.259259259259" style="fill: #bcbd22;"/><circle cx="125" cy="1040" r="7.064814814815" style="fill: #bcbd22;"/><circle cx="150" cy="1040" r="2.888888888888" style="fill: #bcbd22;"/><text/><text/><text/><text/><text/><text/><text y="1040" x="930" class="label" style="fill: #bcbd22;">Integrating automated test...</text></g><g class="journal"><circle cx="325" cy="1060" r="7.833333333331" style="fill: #bcbd22;"/><circle cx="425" cy="1060" r="3.166666666669" style="fill: #bcbd22;"/><text/><text/><text y="1060" x="930" class="label" style="fill: #bcbd22;">Sieve: A Tool for...</text></g><g class="journal"><circle cx="125" cy="1080" r="7.833333333331" style="fill: #bcbd22;"/><circle cx="650" cy="1080" r="3.166666666669" style="fill: #bcbd22;"/><text/><text/><text y="1080" x="930" class="label" style="fill: #bcbd22;">Secure systems development...</text></g><g class="journal"><circle cx="325" cy="1100" r="5.5" style="fill: #bcbd22;"/><circle cx="475" cy="1100" r="5.5" style="fill: #bcbd22;"/><text/><text/><text y="1100" x="930" class="label" style="fill: #bcbd22;">Web Engineering Device...</text></g><rect width="10" height="450" x="915" y="4080" style="fill: #ffffff;"/></g></g></svg>
